<svg width="414" height="493" viewBox="0 0 414 493" fill="none" xmlns="http://www.w3.org/2000/svg">
<g clip-path="url(#clip0_1595_1147)">
<rect width="414" height="493" fill="url(#paint0_linear_1595_1147)"/>
<path fill-rule="evenodd" clip-rule="evenodd" d="M-45.6135 216.807L490.487 -550.945L288.496 -866.967L-247.605 -99.2159L-45.6135 216.807Z" fill="url(#paint1_linear_1595_1147)"/>
<path opacity="0.1" d="M-280.255 486.288L48.3171 -4.10543" stroke="white" stroke-width="2"/>
<path opacity="0.1" d="M265.872 167.481L594.445 -322.912" stroke="white" stroke-width="2"/>
<path d="M422.539 -9.74517L520.228 -9.74517L394.844 103.392H296L422.539 -9.74517Z" fill="url(#paint2_linear_1595_1147)" fill-opacity="0.15"/>
<path opacity="0.05" d="M13 367.438C13 363.749 15.5225 360.539 19.1068 359.665L57.1068 350.41C62.1441 349.183 67 352.998 67 358.182V406.562C67 410.251 64.4775 413.461 60.8932 414.335L22.8932 423.59C17.8559 424.817 13 421.002 13 415.818V367.438Z" fill="#F8CB59"/>
<path opacity="0.05" d="M-18 412.289C-18 408.591 -15.4656 405.375 -11.8703 404.51L26.1297 395.373C31.1612 394.164 36 397.977 36 403.152V450.711C36 454.409 33.4656 457.625 29.8703 458.49L-8.12969 467.627C-13.1611 468.837 -18 465.023 -18 459.848V412.289Z" fill="#F8CB59"/>
<path fill-rule="evenodd" clip-rule="evenodd" d="M146.888 629.405L532.48 77.0946L314.598 -75.9188L-70.9944 476.392L146.888 629.405Z" fill="url(#paint3_linear_1595_1147)"/>
<path opacity="0.05" d="M545 258C545 328.692 487.692 386 417 386C346.308 386 289 328.692 289 258C289 187.308 346.308 130 417 130C487.692 130 545 187.308 545 258ZM340.2 258C340.2 300.415 374.585 334.8 417 334.8C459.415 334.8 493.8 300.415 493.8 258C493.8 215.585 459.415 181.2 417 181.2C374.585 181.2 340.2 215.585 340.2 258Z" fill="#F8CB59"/>
</g>
<defs>
<linearGradient id="paint0_linear_1595_1147" x1="207" y1="149.729" x2="207" y2="511.295" gradientUnits="userSpaceOnUse">
<stop stop-color="#021814"/>
<stop offset="1" stop-color="#065143"/>
</linearGradient>
<linearGradient id="paint1_linear_1595_1147" x1="-232.151" y1="-111.088" x2="476.003" y2="-564.981" gradientUnits="userSpaceOnUse">
<stop stop-color="white" stop-opacity="0.01"/>
<stop offset="1" stop-color="white" stop-opacity="0.16"/>
</linearGradient>
<linearGradient id="paint2_linear_1595_1147" x1="495.314" y1="-32.3726" x2="337.653" y2="141.222" gradientUnits="userSpaceOnUse">
<stop stop-color="white" stop-opacity="0"/>
<stop offset="1" stop-color="white" stop-opacity="0.5"/>
</linearGradient>
<linearGradient id="paint3_linear_1595_1147" x1="-58.6486" y1="466.591" x2="316.768" y2="-69.5596" gradientUnits="userSpaceOnUse">
<stop stop-opacity="0.01"/>
<stop offset="1" stop-opacity="0.16"/>
</linearGradient>
<clipPath id="clip0_1595_1147">
<rect width="414" height="493" fill="white"/>
</clipPath>
</defs>
</svg>
