<svg width="105" height="30" viewBox="0 0 105 30" fill="none" xmlns="http://www.w3.org/2000/svg">
<path opacity="0.5" d="M88.5061 9.05019L52.4999 15.0002L16.4937 9.05019C17.2328 8.68457 18.2871 8.37905 19.5562 8.16269L48.1249 3.4502C50.8374 3.0127 54.1624 3.0127 56.8749 3.4502L85.4437 8.16269C86.7124 8.37895 87.7668 8.68519 88.5061 9.05019Z" fill="#0D9823"/>
<path d="M52.499 14.9998V26.8748C51.1196 26.8742 49.7586 26.7845 48.5178 26.6123L19.6865 21.8498C18.3586 21.6303 17.2556 21.3151 16.4878 20.9356C15.72 20.5561 15.3144 20.1256 15.3115 19.6873V10.3123C15.3187 9.86945 15.7256 9.43461 16.4928 9.0498L52.499 14.9998Z" fill="#0D9823"/>
<path d="M89.687 10.3123V19.6873C89.6841 20.1256 89.2785 20.5561 88.5107 20.9356C87.743 21.3151 86.64 21.6303 85.312 21.8498L56.3495 26.6248C55.1464 26.7873 53.8295 26.8723 52.4995 26.8748V14.9998L88.5058 9.0498C89.2714 9.4348 89.6783 9.8698 89.687 10.3123Z" fill="#0D9823"/>
</svg>
