<svg width="43" height="43" viewBox="0 0 43 43" fill="none" xmlns="http://www.w3.org/2000/svg">
<path d="M39.35 3.65048C41.3676 5.67523 42.5005 8.4171 42.5005 11.2755C42.5005 14.1339 41.3676 16.8757 39.35 18.9005L35.525 22.7005C34.725 23.5255 33.8 24.1505 32.825 24.6255L27.5 23.0005L31.725 18.9005L33.625 16.9755L35.525 15.0755C37.625 12.9755 37.625 9.57548 35.525 7.47548C35.0293 6.97054 34.438 6.56946 33.7855 6.29566C33.133 6.02187 32.4326 5.88085 31.725 5.88085C31.0174 5.88085 30.3169 6.02187 29.6645 6.29566C29.012 6.56946 28.4207 6.97054 27.925 7.47548L26 9.37548L24.1 11.2755L20 15.5005L18.375 10.1505C18.85 9.20048 19.475 8.27548 20.3 7.47548L24.1 3.65048C26.1247 1.63288 28.8666 0.5 31.725 0.5C34.5834 0.5 37.3252 1.63288 39.35 3.65048ZM-6.3777e-06 8.00048L20 23.0005L4.99999 3.00048L-6.3777e-06 8.00048ZM9.99999 3.00048L20 23.0005L15 3.00048H9.99999ZM-6.3777e-06 13.0005L20 23.0005L-6.3777e-06 18.0005V13.0005ZM18.4 32.2255L20 30.5005L21.85 36.3755L18.4 39.8505C16.3752 41.8681 13.6334 43.001 10.775 43.001C7.91661 43.001 5.17475 41.8681 3.14999 39.8505C1.13239 37.8257 -0.000488281 35.0839 -0.000488281 32.2255C-0.000488281 29.3671 1.13239 26.6252 3.14999 24.6005L6.62499 21.1505L12.5 23.0005L10.775 24.6005L6.97499 28.4255C4.84999 30.5255 4.84999 33.9255 6.97499 36.0255C9.07499 38.1505 12.475 38.1505 14.575 36.0255L18.4 32.2255ZM40 38.0005L20 23.0005L35 43.0005L40 38.0005ZM30 43.0005L20 23.0005L25 43.0005H30ZM40 33.0005L20 23.0005L40 28.0005V33.0005Z" fill="white"/>
</svg>
