<svg width="100" height="100" viewBox="0 0 100 100" fill="none" xmlns="http://www.w3.org/2000/svg">
<circle cx="50" cy="50" r="50" fill="#1D3329"/>
<path d="M69.35 30.6505C71.3676 32.6752 72.5005 35.4171 72.5005 38.2755C72.5005 41.1339 71.3676 43.8757 69.35 45.9005L65.525 49.7005C64.725 50.5255 63.8 51.1505 62.825 51.6255L57.5 50.0005L61.725 45.9005L63.625 43.9755L65.525 42.0755C67.625 39.9755 67.625 36.5755 65.525 34.4755C65.0293 33.9705 64.438 33.5695 63.7855 33.2957C63.133 33.0219 62.4326 32.8808 61.725 32.8808C61.0174 32.8808 60.3169 33.0219 59.6645 33.2957C59.012 33.5695 58.4207 33.9705 57.925 34.4755L56 36.3755L54.1 38.2755L50 42.5005L48.375 37.1505C48.85 36.2005 49.475 35.2755 50.3 34.4755L54.1 30.6505C56.1247 28.6329 58.8666 27.5 61.725 27.5C64.5834 27.5 67.3252 28.6329 69.35 30.6505ZM30 35.0005L50 50.0005L35 30.0005L30 35.0005ZM40 30.0005L50 50.0005L45 30.0005H40ZM30 40.0005L50 50.0005L30 45.0005V40.0005ZM48.4 59.2255L50 57.5005L51.85 63.3755L48.4 66.8505C46.3752 68.8681 43.6334 70.001 40.775 70.001C37.9166 70.001 35.1747 68.8681 33.15 66.8505C31.1324 64.8257 29.9995 62.0839 29.9995 59.2255C29.9995 56.3671 31.1324 53.6252 33.15 51.6005L36.625 48.1505L42.5 50.0005L40.775 51.6005L36.975 55.4255C34.85 57.5255 34.85 60.9255 36.975 63.0255C39.075 65.1505 42.475 65.1505 44.575 63.0255L48.4 59.2255ZM70 65.0005L50 50.0005L65 70.0005L70 65.0005ZM60 70.0005L50 50.0005L55 70.0005H60ZM70 60.0005L50 50.0005L70 55.0005V60.0005Z" fill="white"/>
</svg>
