<svg width="195" height="111" viewBox="0 0 195 111" fill="none" xmlns="http://www.w3.org/2000/svg">
<g clip-path="url(#clip0_561_877)">
<path d="M2.14844 84.8986L26.1343 84.7947L50.1158 84.7558L98.0832 84.6865L146.051 84.7558L170.032 84.7947L194.018 84.8986L170.032 85.0067L146.051 85.0457L98.0832 85.1149L50.1158 85.0457L26.1343 85.0067L2.14844 84.8986Z" fill="#0D1510"/>
<path d="M98.265 110.254C147.393 110.254 187.219 105.327 187.219 99.2499C187.219 93.1727 147.393 88.2461 98.265 88.2461C49.1369 88.2461 9.31079 93.1727 9.31079 99.2499C9.31079 105.327 49.1369 110.254 98.265 110.254Z" fill="#EBEBEB"/>
<path d="M75.7332 69.2119L165.314 69.2119V51.6482L75.7332 51.6482V69.2119Z" fill="#97F675"/>
<path d="M148.592 69.2119H157.345V51.6482H148.592V69.2119Z" fill="#0D1510"/>
<path d="M141.69 69.2119H145.344V51.6482H141.69V69.2119Z" fill="#0D1510"/>
<path d="M83.8764 69.2119H92.6294V51.6482H83.8764V69.2119Z" fill="#0D1510"/>
<path d="M61.3654 6.99726L38.3613 93.0254L51.059 96.3778L74.063 10.3497L61.3654 6.99726Z" fill="#0D1510"/>
<path d="M42.653 76.9643L40.4053 85.3701L53.1029 88.7226L55.3507 80.3167L42.653 76.9643Z" fill="#97F675"/>
<path d="M59.2741 14.8227L57.0264 23.2285L69.724 26.581L71.9718 18.1751L59.2741 14.8227Z" fill="#97F675"/>
<path d="M56.7729 96.0068L160.524 96.0068V87.2271L56.7729 87.2271V96.0068Z" fill="#97F675"/>
<path d="M133.163 96.0068H137.392V87.2271H133.163V96.0068Z" fill="#A6A6A6"/>
<path d="M140.188 96.0068H144.416V87.2271H140.188V96.0068Z" fill="#A6A6A6"/>
<path d="M67.1243 96.0068H71.3528V87.2271H67.1243V96.0068Z" fill="#A6A6A6"/>
<path d="M74.1436 96.0068H78.3721V87.2271H74.1436V96.0068Z" fill="#A6A6A6"/>
<path d="M128.696 38.5449H66.5537V51.6474H128.696V38.5449Z" fill="#455A64"/>
<path d="M164.117 38.5449H128.691V51.6474H164.117V38.5449Z" fill="#455A64"/>
<path d="M128.696 39.9043H66.5537V50.2894H128.696V39.9043Z" fill="white"/>
<path d="M70.5728 42.0428C75.4152 41.9678 80.2591 41.9173 85.1045 41.8914L99.6319 41.8438L114.164 41.8914C119.006 41.9173 123.849 41.9678 128.691 42.0428C123.849 42.1149 119.006 42.1668 114.164 42.1986L99.6319 42.2419L85.0871 42.1942C80.2562 42.1683 75.4181 42.1178 70.5728 42.0428Z" fill="#DBDBDB"/>
<path d="M70.5728 44.0799C75.4152 44.0078 80.2591 43.9559 85.1045 43.9241L99.6319 43.8809L114.164 43.9241C119.006 43.9559 123.849 44.0078 128.691 44.0799C123.849 44.152 119.006 44.2025 114.164 44.2314L99.6319 44.2789L85.0871 44.2314C80.2562 44.2054 75.4181 44.1549 70.5728 44.0799Z" fill="#DBDBDB"/>
<path d="M70.5728 46.118C75.4152 46.0459 80.2591 45.994 85.1045 45.9622L99.6319 45.9189L114.164 45.9622C119.006 45.9882 123.849 46.0401 128.691 46.118C123.849 46.193 119.006 46.2435 114.164 46.2694L99.6319 46.317L85.0871 46.2694C80.2562 46.2435 75.4181 46.193 70.5728 46.118Z" fill="#DBDBDB"/>
<path d="M70.5728 48.1575C75.4152 48.0825 80.2591 48.0306 85.1045 48.0017L99.6319 47.9541L114.164 48.0017C119.006 48.0277 123.849 48.0796 128.691 48.1575C123.849 48.2325 119.006 48.283 114.164 48.3089L99.6319 48.3565L85.0871 48.3089C80.2562 48.283 75.4181 48.2325 70.5728 48.1575Z" fill="#DBDBDB"/>
<path d="M123.465 0H72.6064V9.40716H123.465V0Z" fill="#A6A6A6"/>
<path d="M152.46 0H123.466V9.40716H152.46V0Z" fill="#A6A6A6"/>
<path d="M123.465 0.978516H72.6064V8.43414H123.465V0.978516Z" fill="white"/>
<path d="M75.8989 2.50901C79.8646 2.45708 83.8289 2.42102 87.7917 2.40083L99.6845 2.36621L111.577 2.40083C115.54 2.41814 119.503 2.4542 123.466 2.50901C119.503 2.56093 115.54 2.59844 111.577 2.62152L99.6845 2.6518L87.7917 2.62152C83.8289 2.60132 79.8646 2.56382 75.8989 2.50901Z" fill="#DBDBDB"/>
<path d="M75.8989 3.9719C79.8646 3.91997 83.8289 3.88391 87.7917 3.86372L99.6845 3.8291L111.577 3.86372C115.54 3.88103 119.503 3.91709 123.466 3.9719C119.503 4.02382 115.54 4.06132 111.577 4.0844L99.6845 4.11469L87.7917 4.0844C83.8289 4.06421 79.8646 4.02671 75.8989 3.9719Z" fill="#DBDBDB"/>
<path d="M75.8989 5.43576C79.8646 5.38384 83.8289 5.34778 87.7917 5.32759L99.6845 5.29297L111.577 5.32759C115.54 5.34489 119.503 5.38095 123.466 5.43576C119.503 5.49057 115.54 5.52807 111.577 5.54827L99.6845 5.57855L87.7917 5.54827C83.8289 5.52807 79.8646 5.49057 75.8989 5.43576Z" fill="#DBDBDB"/>
<path d="M75.8989 6.91916C79.8646 6.86724 83.8289 6.83118 87.7917 6.81098L99.6845 6.77637L111.577 6.81098C115.54 6.82829 119.503 6.86435 123.466 6.91916C119.503 6.97686 115.54 7.01436 111.577 7.03167L99.6845 7.06196L87.7917 7.03167C83.8289 6.99705 79.8646 6.95955 75.8989 6.91916Z" fill="#DBDBDB"/>
<path d="M57.0605 23.7907L44.6757 70.026L37.6123 96.3868L30.7971 94.5824L37.8605 68.2216L50.2454 21.9863L57.0605 23.7907Z" fill="#97F675"/>
<path opacity="0.1" d="M57.0605 23.7907L44.6757 70.026L37.6123 96.3868L30.7971 94.5824L37.8605 68.2216L50.2454 21.9863L57.0605 23.7907Z" fill="black"/>
<path d="M43.9646 69.8288L56.3538 23.5947L50.9505 22.1652L38.5614 68.3992L43.9646 69.8288Z" fill="white"/>
<path d="M54.4388 26.3008C53.5156 29.9125 52.5779 33.5184 51.6257 37.1186L48.7515 47.9364L45.8339 58.7542C44.8526 62.3543 43.8597 65.9516 42.8552 69.546C43.7842 65.9314 44.7234 62.3255 45.6727 58.7282L48.5425 47.9104L51.4645 37.0926C52.4458 33.4924 53.4372 29.8952 54.4388 26.3008Z" fill="#DBDBDB"/>
<path d="M53.3802 26.0176C52.4541 29.635 51.5149 33.241 50.5627 36.8354L47.6929 47.6532L44.7709 58.471C43.7926 62.0711 42.8011 65.6684 41.7966 69.2628C42.7227 65.6511 43.6619 62.0451 44.6141 58.445L47.4839 47.6272L50.4059 36.8094C51.3872 33.2092 52.3786 29.612 53.3802 26.0176Z" fill="#DBDBDB"/>
<path d="M52.3221 25.7432C51.396 29.3577 50.4568 32.9637 49.5046 36.561L46.6348 47.3787L43.7128 58.1965C42.7344 61.7967 41.743 65.3925 40.7385 68.984C41.6617 65.3695 42.5994 61.7635 43.5517 58.1662L46.4258 47.3485L49.3435 36.5307C50.3218 32.9449 51.3147 29.3491 52.3221 25.7432Z" fill="#DBDBDB"/>
<path d="M51.2596 25.4619C50.3364 29.0736 49.3987 32.6795 48.4465 36.2797L45.5723 47.0975L42.6547 57.9153C41.6763 61.5155 40.6834 65.1113 39.676 68.7028C40.6021 65.0911 41.5413 61.4852 42.4935 57.885L45.3633 47.0672L48.2853 36.2494C49.2666 32.6493 50.258 29.0534 51.2596 25.4619Z" fill="#DBDBDB"/>
<path d="M101.317 87.2227H153.378V69.2132H101.317V87.2227Z" fill="#0D1510"/>
<path d="M64.7507 87.2227H101.317V69.2132H64.7507V87.2227Z" fill="#0D1510"/>
<path d="M101.317 85.3525H153.378V71.0817H101.317V85.3525Z" fill="white"/>
<path d="M150.008 82.4178C145.944 82.4899 141.886 82.5404 137.837 82.5692L125.665 82.6169L113.472 82.5692C109.407 82.5433 105.343 82.4928 101.279 82.4178C105.343 82.3457 109.407 82.2938 113.472 82.262L125.665 82.2188L137.837 82.262C141.895 82.2938 145.952 82.3457 150.008 82.4178Z" fill="#DBDBDB"/>
<path d="M150.008 79.616C145.944 79.6882 141.886 79.7386 137.837 79.7675L125.665 79.8151L113.472 79.7675C109.407 79.7415 105.343 79.691 101.279 79.616C105.343 79.5439 109.407 79.492 113.472 79.4603L125.665 79.417L137.837 79.4603C141.895 79.4891 145.952 79.541 150.008 79.616Z" fill="#DBDBDB"/>
<path d="M150.008 76.8206C145.944 76.8927 141.886 76.9432 137.837 76.972L125.665 77.0196L113.472 76.972C109.407 76.9461 105.343 76.8956 101.279 76.8206C105.343 76.7456 109.407 76.6936 113.472 76.6648L125.665 76.6172L137.837 76.6648C141.895 76.6907 145.952 76.7427 150.008 76.8206Z" fill="#DBDBDB"/>
<path d="M150.008 74.0208C145.944 74.0958 141.886 74.1462 137.837 74.1722L125.665 74.2198L113.472 74.1722C109.407 74.1462 105.343 74.0958 101.279 74.0208C105.343 73.9429 109.407 73.8909 113.472 73.865L125.665 73.8174L137.837 73.865C141.895 73.8909 145.952 73.9429 150.008 74.0208Z" fill="#DBDBDB"/>
<path d="M165.585 26.3262H70.0332V38.5979H165.585V26.3262Z" fill="#C7C7C7"/>
<path d="M115.767 28.8311H79.0173V36.1958H115.767V28.8311Z" fill="white"/>
<path d="M159.135 28.8311H124.637V29.9691H159.135V28.8311Z" fill="white"/>
<path d="M159.135 31.8945H124.637V33.0326H159.135V31.8945Z" fill="white"/>
<path d="M159.135 34.9541H124.637V36.0921H159.135V34.9541Z" fill="white"/>
<path d="M147.099 9.40918H76.6392V26.272H147.099V9.40918Z" fill="#97F675"/>
<path d="M139.626 9.40918H133.059V26.272H139.626V9.40918Z" fill="#0D1510"/>
<path d="M128.752 9.40918H126.204V26.272H128.752V9.40918Z" fill="#0D1510"/>
<path d="M21.0686 63.0701C23.8339 57.4189 28.672 54.5198 34.1328 56.1251C39.5936 57.7305 40.4298 65.2813 36.3624 67.1896C32.2951 69.0978 28.2191 63.5245 26.0678 62.3821C23.9166 61.2398 21.0686 63.0701 21.0686 63.0701Z" fill="#97F675"/>
<path d="M18.3903 78.1019C18.3903 77.4183 18.4338 76.7389 18.4556 76.0595C18.5035 74.7008 18.5514 73.3378 18.6037 71.9791C18.6951 69.4953 18.9651 67.0548 20.0015 64.7614C20.9164 62.6835 22.4459 60.9313 24.3867 59.7377C25.1077 59.3067 25.8841 58.9749 26.6948 58.7511C27.4271 58.012 28.3611 57.5021 29.3816 57.2842C30.6448 57.0277 31.9437 56.9955 33.2181 57.189C33.266 57.189 33.2617 57.2626 33.2181 57.2582C32.0024 57.1047 30.7681 57.1914 29.5863 57.5135C29.082 57.653 28.5932 57.8429 28.1275 58.0804C27.8339 58.2384 27.5517 58.4162 27.2826 58.6126C28.3828 58.3868 29.5189 58.3986 30.614 58.6472C31.0082 58.742 31.3941 58.8679 31.768 59.0237C32.0668 58.9592 32.3727 58.933 32.6782 58.9458C33.0766 58.9586 33.4724 59.0152 33.8583 59.1146C34.6472 59.3355 35.4018 59.6631 36.101 60.0882C36.1445 60.1098 36.101 60.1704 36.0661 60.1487C35.3822 59.7767 34.6494 59.5014 33.8888 59.3309C33.5194 59.2459 33.1436 59.1909 32.7653 59.1665C32.5564 59.1556 32.3471 59.1556 32.1382 59.1665C33.6918 59.8789 34.9403 61.1164 35.6611 62.6585C35.6611 62.7017 35.6176 62.7364 35.6002 62.6931C35.1689 61.7981 34.5394 61.0116 33.7589 60.3926C32.9784 59.7737 32.067 59.3382 31.093 59.1189C30.9711 59.0886 30.8492 59.0713 30.7272 59.0453C30.7708 59.2227 30.7621 59.4218 30.7882 59.5949C30.823 59.8675 30.8709 60.1401 30.9232 60.4127C31.0356 60.9717 31.181 61.5236 31.3587 62.0656C31.5439 62.6145 31.765 63.1508 32.0206 63.671C32.2659 64.2203 32.5758 64.7388 32.9438 65.2158C32.9743 65.2547 32.9133 65.3023 32.8872 65.2591C32.5562 64.7485 32.1774 64.2768 31.8769 63.7489C31.5916 63.2426 31.3442 62.7162 31.1366 62.1738C30.93 61.6222 30.7683 61.055 30.6532 60.4776C30.5922 60.1747 30.5443 59.8675 30.5095 59.5602C30.4719 59.3767 30.4602 59.1888 30.4747 59.0021C29.8334 58.9033 29.1819 58.8888 28.5368 58.9588C28.7807 60.3088 29.042 61.7108 29.7997 62.8835C29.8258 62.9224 29.7561 62.957 29.7344 62.9181C29.3805 62.2956 29.0678 61.651 28.7981 60.9882C28.5499 60.3451 28.393 59.6708 28.3321 58.9847C27.2066 59.1333 26.1201 59.4946 25.1314 60.0492C23.2671 61.1248 21.7792 62.7421 20.8681 64.6835C19.907 66.7726 19.3712 69.03 19.2917 71.3257C19.1088 74.2119 19.074 77.1154 18.7822 79.9799C18.7822 80.166 18.4643 80.2309 18.4295 80.0189C18.3541 79.3826 18.341 78.7407 18.3903 78.1019Z" fill="#0D1510"/>
<path d="M24.7832 59.2886C24.964 59.0684 25.1752 58.8747 25.4103 58.713C25.6368 58.5269 25.8459 58.3452 26.1115 58.1807C26.5915 57.8546 27.1229 57.6103 27.6838 57.458C27.7273 57.458 27.7447 57.5186 27.6838 57.5273C27.1186 57.6674 26.5901 57.9255 26.1333 58.2846C25.9025 58.4534 25.6978 58.6351 25.4626 58.8212C25.2708 59.0207 25.0592 59.2004 24.8311 59.3578C24.805 59.3794 24.7527 59.3275 24.7832 59.2886Z" fill="#0D1510"/>
<path d="M33.6062 61.3351C34.0643 61.8628 34.4876 62.4193 34.8735 63.0012C35.2529 63.5871 35.5696 64.2108 35.8186 64.8621C35.8186 64.8621 35.8186 64.8924 35.7838 64.8621C35.1523 63.6311 34.4057 62.4618 33.5539 61.3697C33.5234 61.3481 33.5757 61.2832 33.6062 61.3351Z" fill="#0D1510"/>
<path d="M27.6578 60.7772C27.7163 61.13 27.8218 61.4734 27.9713 61.7985C28.1231 62.1132 28.2993 62.4156 28.4983 62.703C28.4983 62.703 28.4983 62.7419 28.4678 62.7246C27.9934 62.18 27.6905 61.5088 27.5968 60.7945C27.5663 60.7469 27.6491 60.7296 27.6578 60.7772Z" fill="#0D1510"/>
<path d="M18.7783 63.2084C18.7783 63.2084 14.859 58.3187 7.30789 60.0496C0.131285 61.7155 -3.19138 74.7834 4.05055 76.3498C11.2925 77.9162 10.0296 65.8046 12.6729 63.7493C14.6325 62.2434 17.4239 62.5809 18.7783 63.2084Z" fill="#97F675"/>
<path d="M1.46825 67.198C1.96087 66.7689 2.48168 66.3728 3.02724 66.0124C3.53888 65.6626 4.09738 65.3858 4.68639 65.1902C4.97844 64.7439 5.30765 64.3227 5.67057 63.931C6.34075 63.2163 7.11597 62.6065 7.96986 62.1223H7.74342C7.34278 62.1223 6.94215 62.1223 6.54151 62.1223C5.73594 62.1735 4.94647 62.3699 4.21173 62.7021C4.16818 62.7021 4.1377 62.6545 4.18125 62.6372C4.92626 62.3153 5.70675 62.0815 6.50667 61.9405C6.89592 61.8693 7.29103 61.8346 7.68681 61.8367C7.90019 61.8367 8.12228 61.8367 8.3226 61.8756H8.44453C9.1372 61.5282 9.86779 61.261 10.6219 61.0795L10.4129 61.0232C10.0377 60.9435 9.65822 60.8857 9.27629 60.8501C8.52324 60.7621 7.76178 60.7738 7.01182 60.8847C6.96828 60.8847 6.95521 60.8198 7.01182 60.8112C7.77025 60.7204 8.53476 60.6901 9.29806 60.7203C9.939 60.7404 10.5764 60.823 11.2011 60.9669C11.6554 60.8823 12.1153 60.8303 12.5772 60.8112C15.19 60.6987 18.0859 61.6766 19.7059 63.8402C21.3258 66.0037 21.6481 68.8683 21.9355 71.4689C22.3751 75.0896 22.4713 78.7433 22.2229 82.3819C22.2229 82.5982 21.9007 82.5549 21.8963 82.3516C21.7961 79.2663 21.6873 76.1811 21.3912 73.1045C21.2518 71.6809 21.0994 70.2529 20.8599 68.8423C20.6893 67.6265 20.3386 66.4425 19.8191 65.3287C19.2597 64.18 18.3682 63.2233 17.2585 62.581C16.1468 61.9515 14.9073 61.5775 13.631 61.4862C12.4906 61.3919 11.3424 61.4973 10.2387 61.7978C10.2713 62.0187 10.2713 62.2432 10.2387 62.4641C10.2117 62.7431 10.1563 63.0185 10.0732 63.2863C9.98894 63.5374 9.88256 63.7807 9.75531 64.0132C9.61595 64.2729 9.44177 64.5022 9.28499 64.7489C9.25887 64.7878 9.1979 64.7488 9.22403 64.7056C9.53425 64.265 9.73566 63.758 9.81192 63.2257C9.8598 62.9727 9.89035 62.7169 9.90337 62.4598C9.90337 62.2694 9.90337 62.0704 9.90337 61.88C8.70475 62.2458 7.58634 62.833 6.60683 63.6108C6.41958 63.7579 6.24539 63.9137 6.0712 64.0695C6.31918 64.3007 6.53452 64.5641 6.71135 64.8527C6.98377 65.2271 7.22136 65.6254 7.42117 66.0427C7.7706 66.8731 8.0064 67.7463 8.12228 68.6389C8.11961 68.6466 8.1146 68.6532 8.10797 68.6579C8.10134 68.6625 8.0934 68.6651 8.08527 68.6651C8.07713 68.6651 8.06919 68.6625 8.06256 68.6579C8.05593 68.6532 8.05092 68.6466 8.04825 68.6389C7.9056 67.7697 7.61083 66.932 7.1773 66.1638C6.97729 65.7838 6.7533 65.4167 6.50667 65.0647C6.38039 64.883 6.24974 64.7056 6.11039 64.5325C6.03636 64.4416 5.95362 64.3464 5.88395 64.2469C4.99514 65.1112 4.26948 66.1268 3.74142 67.2456C4.0936 67.6212 4.38717 68.0471 4.61237 68.5091C4.89638 69.0033 5.14521 69.5165 5.35702 70.0452C5.72264 71.0449 6.02373 72.0668 6.25845 73.1045C6.25845 73.1521 6.19749 73.1651 6.18878 73.1045C5.9592 72.0547 5.59936 71.0373 5.11751 70.0755C4.89107 69.6082 4.65156 69.1452 4.40334 68.6865C4.14017 68.2687 3.90311 67.8351 3.69352 67.3884C3.18681 68.4776 2.89133 69.652 2.82257 70.8501C2.82257 70.8977 2.74418 70.889 2.74854 70.8501C2.88725 68.9628 3.4689 67.1341 4.44688 65.5104C3.98528 65.7051 3.51933 65.8955 3.07514 66.1335C2.50634 66.4322 1.97808 66.8015 1.50309 67.2326C1.48131 67.2845 1.43776 67.2283 1.46825 67.198Z" fill="#0D1510"/>
<path d="M7.01202 67.4737C7.23849 68.2137 7.52593 68.9364 7.73062 69.6851C7.93854 70.403 8.04984 71.1452 8.06162 71.8921C8.06162 71.9138 8.03113 71.9138 8.02678 71.8921C7.82328 70.3925 7.45975 68.9186 6.94233 67.4953C6.9409 67.4908 6.94039 67.486 6.94082 67.4813C6.94125 67.4765 6.94262 67.4719 6.94484 67.4677C6.94706 67.4635 6.9501 67.4597 6.95378 67.4567C6.95746 67.4536 6.96171 67.4513 6.96629 67.4499C6.97086 67.4485 6.97568 67.448 6.98045 67.4484C6.98522 67.4488 6.98987 67.4502 6.99411 67.4524C6.99836 67.4546 7.00213 67.4576 7.0052 67.4613C7.00827 67.4649 7.01059 67.4691 7.01202 67.4737Z" fill="#0D1510"/>
<path d="M2.22612 65.636C2.52192 65.3504 2.85967 65.1111 3.22781 64.9263C3.60078 64.7561 3.98853 64.62 4.3863 64.5195C4.42985 64.5195 4.44291 64.5801 4.3863 64.5888C3.99564 64.6893 3.62056 64.8422 3.27137 65.0432C2.91468 65.2287 2.57126 65.4383 2.24354 65.6707C2.24131 65.6736 2.23836 65.6759 2.23497 65.6774C2.23158 65.6789 2.22786 65.6796 2.22417 65.6792C2.22047 65.6789 2.21692 65.6776 2.21385 65.6756C2.21079 65.6735 2.2083 65.6707 2.20664 65.6674C2.20498 65.6641 2.2042 65.6604 2.20437 65.6567C2.20453 65.653 2.20565 65.6494 2.2076 65.6463C2.20955 65.6432 2.21228 65.6406 2.21552 65.6388C2.21876 65.637 2.22241 65.636 2.22612 65.636Z" fill="#0D1510"/>
<path d="M15.0548 56.6809C15.0548 56.6809 14.3363 47.8969 7.76062 45.0497C2.27366 42.6697 -0.866109 48.7969 3.01396 52.5486C6.14937 55.5819 11.1834 54.2145 15.0548 56.6809Z" fill="#97F675"/>
<path d="M4.22922 46.7473C5.22991 47.1478 6.20565 47.6073 7.15125 48.1233C7.93914 48.5734 8.69699 49.0735 9.42007 49.6205C9.3112 49.3955 9.21539 49.1618 9.10653 48.9455C8.93234 48.608 8.74944 48.2748 8.54912 47.9546C8.14389 47.2911 7.65673 46.6805 7.09899 46.1372C7.06851 46.1069 7.09899 46.055 7.15125 46.0896C7.70766 46.6335 8.21747 47.2226 8.67541 47.8507C8.90267 48.1708 9.11201 48.503 9.30249 48.846C9.49257 49.1611 9.63904 49.5002 9.73796 49.8542C9.73796 49.8758 9.78586 49.8888 9.81199 49.9104C10.9599 50.8175 12.0105 51.8398 12.9474 52.961C12.9474 52.8745 12.9126 52.788 12.8908 52.7101C12.7689 52.2774 12.6339 51.8447 12.4902 51.4336C12.2095 50.532 11.8113 49.6708 11.3057 48.8719C11.301 48.8639 11.2998 48.8544 11.3023 48.8454C11.3047 48.8365 11.3106 48.8289 11.3187 48.8243C11.3268 48.8197 11.3364 48.8185 11.3454 48.821C11.3544 48.8234 11.362 48.8293 11.3666 48.8373C11.8912 49.6335 12.3569 50.4665 12.7601 51.3297C12.9375 51.7511 13.083 52.185 13.1956 52.6279C13.2922 52.9098 13.365 53.1993 13.4134 53.4933C13.6964 53.8524 13.9795 54.2159 14.2451 54.5924C17.067 58.582 18.4823 63.411 18.8219 68.2401C18.9206 69.6803 18.9453 71.1245 18.896 72.5672C18.8837 74.0176 18.7541 75.4646 18.5084 76.8943C18.5084 76.9852 18.3473 76.9549 18.3516 76.8684C18.3821 75.5962 18.5171 74.3327 18.5389 73.0648C18.5638 71.8045 18.5246 70.5437 18.4213 69.2873C18.2153 66.751 17.7349 64.2441 16.9886 61.81C16.2182 59.321 15.0871 56.9566 13.6311 54.7914C13.3524 54.7352 13.078 54.6616 12.8037 54.5924L11.8239 54.3327C11.1926 54.1696 10.5787 53.9465 9.99054 53.6664C9.94699 53.6447 9.99054 53.5798 10.0297 53.6015C10.6089 53.9164 11.2376 54.1315 11.8892 54.2376C12.4031 54.3371 12.9387 54.4063 13.4526 54.5231C12.9791 53.8317 12.4689 53.1658 11.924 52.5283C10.6715 52.6384 9.40925 52.5434 8.18768 52.2471C7.53755 52.0949 6.89879 51.8983 6.27595 51.6586C5.61403 51.4033 4.96953 51.0831 4.34245 50.7932C4.29454 50.7932 4.34245 50.7023 4.37293 50.7283C5.54904 51.3666 6.83327 51.7847 8.16155 51.9615C9.33385 52.1488 10.519 52.2457 11.7063 52.2514C11.2403 51.7192 10.757 51.2042 10.2431 50.7153C8.50122 49.0796 6.46756 47.5824 4.19439 46.7992C4.1639 46.7992 4.18568 46.73 4.22922 46.7473Z" fill="#0D1510"/>
<path d="M9.57663 46.7737C9.87181 47.1459 10.141 47.5377 10.3823 47.9465C10.6295 48.3762 10.824 48.8339 10.9616 49.3096C10.9616 49.3096 10.9616 49.3313 10.9354 49.3096C10.7177 48.8769 10.5304 48.4441 10.3083 48.0114C10.0912 47.589 9.82832 47.1914 9.52436 46.8256C9.49388 46.7867 9.54614 46.7391 9.57663 46.7737Z" fill="#0D1510"/>
<path d="M20.1631 55.0952C20.2023 55.476 21.156 51.9061 26.6952 48.7387C31.7423 45.8612 37.7649 38.3796 32.8179 33.65C28.8464 29.8378 18.321 38.1546 20.1631 55.0952Z" fill="#97F675"/>
<path d="M16.3398 75.563C16.4164 71.8498 16.7072 68.1441 17.2107 64.464C17.6482 61.0754 18.4348 57.7405 19.5579 54.5116C19.9934 53.3519 20.4289 52.2096 20.9558 51.0845C20.929 50.6519 20.9363 50.2179 20.9776 49.7864C21.0037 49.2239 21.0559 48.6657 21.1082 48.1031C21.1604 47.5406 21.2171 46.9824 21.2867 46.4242C21.3564 45.866 21.474 45.3078 21.4958 44.7496C21.4958 44.7451 21.4967 44.7406 21.4984 44.7364C21.5002 44.7322 21.5027 44.7284 21.506 44.7252C21.5092 44.7219 21.513 44.7194 21.5173 44.7176C21.5215 44.7159 21.526 44.715 21.5306 44.715C21.5352 44.715 21.5397 44.7159 21.5439 44.7176C21.5482 44.7194 21.552 44.7219 21.5552 44.7252C21.5585 44.7284 21.561 44.7322 21.5628 44.7364C21.5645 44.7406 21.5654 44.7451 21.5654 44.7496C21.4553 45.3368 21.3883 45.9312 21.3651 46.5281C21.3259 47.069 21.2911 47.6142 21.278 48.1551C21.265 48.696 21.278 49.2412 21.278 49.7864C21.278 49.9811 21.278 50.1888 21.278 50.4008C21.8006 49.3018 22.3624 48.2373 22.9677 47.1685C22.5932 44.8794 23.0809 42.4865 23.5512 40.2451C23.5512 40.2018 23.6296 40.2191 23.6209 40.2667C23.3901 41.4359 23.2677 42.6236 23.2551 43.815C23.2551 44.754 23.2769 45.6929 23.2812 46.6319C23.4162 46.4069 23.5468 46.1992 23.6818 45.9612C24.4047 44.79 25.1741 43.6477 25.9898 42.5342C25.9258 41.9907 25.9449 41.4406 26.0465 40.9028C26.136 40.2996 26.2699 39.7038 26.4471 39.12C26.6256 38.5359 26.8303 37.9604 27.0655 37.3892C27.3006 36.818 27.6229 36.2555 27.858 35.6584C27.86 35.6541 27.8629 35.6503 27.8663 35.6471C27.8698 35.6439 27.8739 35.6415 27.8784 35.6398C27.8828 35.6382 27.8875 35.6375 27.8923 35.6377C27.897 35.6379 27.9016 35.6391 27.9059 35.641C27.9102 35.643 27.9141 35.6458 27.9173 35.6493C27.9205 35.6528 27.9229 35.6568 27.9246 35.6613C27.9262 35.6657 27.9269 35.6704 27.9267 35.6751C27.9265 35.6798 27.9254 35.6844 27.9234 35.6886C27.6258 36.2375 27.3921 36.8182 27.2266 37.4195C27.0464 37.9872 26.901 38.5652 26.7911 39.1503C26.6735 39.7302 26.5777 40.3143 26.495 40.8812C26.4384 41.2706 26.4035 41.673 26.3382 42.0668C27.5264 40.4778 28.8259 38.974 30.227 37.5666C30.2343 37.5631 30.2425 37.562 30.2505 37.5634C30.2585 37.5647 30.2659 37.5685 30.2716 37.5742C30.2773 37.5799 30.2812 37.5872 30.2825 37.5952C30.2839 37.6031 30.2828 37.6113 30.2793 37.6185C28.1576 39.9841 26.2624 42.5409 24.6181 45.2559L24.4396 45.5631C24.7487 45.3727 25.0971 45.2213 25.3845 45.0612C25.9245 44.7669 26.4645 44.4684 27.0089 44.1958C27.5532 43.9232 28.0583 43.6289 28.5809 43.3303C28.8509 43.1832 29.1165 43.0274 29.3909 42.8976C29.7177 42.7494 30.0322 42.5758 30.3315 42.3784C30.3751 42.3481 30.4186 42.413 30.3751 42.4346C29.8394 42.7289 29.3691 43.1616 28.8509 43.4904C28.3327 43.8193 27.8014 44.1352 27.2658 44.4337C26.2773 44.9833 25.2016 45.3771 24.2175 45.9439C23.5425 47.1166 22.9111 48.3195 22.3493 49.5441C22.9372 49.1676 23.5425 48.8128 24.1522 48.471C24.5484 48.2546 24.9404 48.0382 25.341 47.8262C25.739 47.6466 26.1146 47.4215 26.4602 47.1555C26.495 47.1252 26.5429 47.1771 26.5081 47.2074C25.8629 47.7875 25.1458 48.2833 24.3742 48.683C23.6601 49.1157 22.9415 49.5008 22.1969 49.86C21.6046 51.1581 21.0646 52.4562 20.59 53.8106C18.2515 60.3922 17.3893 67.3761 16.9799 74.3168C16.858 76.3852 16.797 78.4535 16.7709 80.5219C16.7447 82.5903 16.8536 84.6586 16.8493 86.727C16.8493 86.7876 16.7491 86.8005 16.7404 86.727C16.4878 84.8923 16.4443 83.0273 16.3659 81.1796C16.2875 79.332 16.3006 77.4367 16.3398 75.563Z" fill="#0D1510"/>
<path d="M26.4381 45.7645C27.4515 45.3162 28.4375 44.809 29.3909 44.2456C30.3542 43.7036 31.2889 43.1128 32.1913 42.4756C32.1913 42.4756 32.2261 42.4756 32.1913 42.5016C31.3392 43.1864 30.4398 43.8111 29.4998 44.3711C28.5154 44.919 27.4971 45.4046 26.4511 45.8251C26.4294 45.8424 26.3945 45.7819 26.4381 45.7645Z" fill="#0D1510"/>
<path d="M24.8274 38.3246C24.9101 38.0044 25.0103 37.6885 25.1192 37.3769C25.1192 37.3769 25.1192 37.3552 25.1192 37.3423C25.1889 37.1605 25.2629 36.9874 25.3369 36.81L25.3631 36.745L25.4023 36.6455L25.35 36.8273C25.3419 36.8624 25.3317 36.8971 25.3195 36.9311C24.9608 38.1607 24.693 39.4147 24.5182 40.6831C24.5182 40.7221 24.4485 40.7264 24.4528 40.6831C24.5015 39.8869 24.627 39.0971 24.8274 38.3246Z" fill="#0D1510"/>
<path d="M10.4695 76.8896L10.8658 81.5586L12.0807 95.7991H25.084L26.2946 81.5586L26.6909 76.8896H10.4695Z" fill="#455A64"/>
<path d="M10.4695 76.8896L10.8658 81.5586H26.2946L26.6909 76.8896H10.4695Z" fill="#0D1510"/>
<path d="M9.19329 79.4922H27.9666V75.0136H9.19329V79.4922Z" fill="#455A64"/>
</g>
<defs>
<clipPath id="clip0_561_877">
<rect width="194.018" height="110.253" fill="white"/>
</clipPath>
</defs>
</svg>
