<svg width="50" height="34" viewBox="0 0 50 34" fill="none" xmlns="http://www.w3.org/2000/svg">
<path d="M14.5833 16.9997C19.1667 16.9997 22.9167 13.2497 22.9167 8.66634C22.9167 4.08301 19.1667 0.333008 14.5833 0.333008C10 0.333008 6.25 4.08301 6.25 8.66634C6.25 13.2497 10 16.9997 14.5833 16.9997ZM22.9167 33.6663V22.6247C20.625 21.7913 17.7083 21.1663 14.5833 21.1663C6.45833 21.1663 0 24.9163 0 29.4997V33.6663H22.9167ZM45.8333 0.333008H31.25C28.9583 0.333008 27.0833 2.20801 27.0833 4.49967V29.4997C27.0833 31.7913 28.9583 33.6663 31.25 33.6663H45.8333C48.125 33.6663 50 31.7913 50 29.4997V4.49967C50 2.20801 48.125 0.333008 45.8333 0.333008ZM37.5 29.4997H33.3333V4.49967H37.5V29.4997Z" fill="white"/>
</svg>
