<svg width="168" height="32" viewBox="0 0 168 32" fill="none" xmlns="http://www.w3.org/2000/svg">
<g clip-path="url(#clip0_5000_7166)">
<path d="M14.3196 4.23687e-06V12.4784H26.4933V12.3455C26.4922 10.723 26.1715 9.11661 25.5496 7.61808C24.9276 6.11954 24.0166 4.7582 22.8685 3.61179C21.7203 2.46538 20.3576 1.55636 18.8582 0.936649C17.3587 0.316934 15.7519 -0.00133945 14.1294 4.23687e-06H14.3196Z" fill="#065143"/>
<path d="M14.3197 27.4442V14.9658H26.4933V15.1008C26.4933 16.723 26.1737 18.3294 25.5529 19.8281C24.932 21.3268 24.022 22.6885 22.8749 23.8355C21.7277 24.9824 20.3658 25.8922 18.867 26.5128C17.3682 27.1334 15.7619 27.4527 14.1396 27.4524L14.3197 27.4442Z" fill="#065143"/>
<path d="M11.7727 0V32H0V11.7768C-1.88437e-07 8.65408 1.2402 5.65924 3.44789 3.45078C5.65558 1.24233 8.64999 0.00108483 11.7727 0Z" fill="#065143"/>
<path d="M36.8096 23.5798V4.28279H48.5532V6.18492H39.1252V12.9664H47.1472V14.841H39.1252V23.5798H36.8096Z" fill="#065143"/>
<path d="M57.0354 23.9106C55.7489 23.9106 54.5911 23.6165 53.562 23.0284C52.5328 22.4403 51.715 21.6133 51.1085 20.5474C50.5204 19.4631 50.2263 18.195 50.2263 16.7431C50.2263 15.2912 50.5296 14.0323 51.1361 12.9664C51.7425 11.8821 52.5604 11.0459 53.5895 10.4578C54.6371 9.86972 55.8041 9.57567 57.0905 9.57567C58.377 9.57567 59.5348 9.86972 60.564 10.4578C61.5932 11.0459 62.4018 11.8821 62.9899 12.9664C63.5964 14.0323 63.8996 15.2912 63.8996 16.7431C63.8996 18.195 63.5964 19.4631 62.9899 20.5474C62.3834 21.6133 61.5564 22.4403 60.5089 23.0284C59.4797 23.6165 58.3219 23.9106 57.0354 23.9106ZM57.0354 21.9257C57.8257 21.9257 58.5608 21.7328 59.2408 21.3468C59.9208 20.9609 60.4721 20.382 60.8948 19.6101C61.3175 18.8382 61.5289 17.8826 61.5289 16.7431C61.5289 15.6037 61.3175 14.648 60.8948 13.8761C60.4905 13.1043 59.9483 12.5253 59.2683 12.1394C58.5884 11.7535 57.8624 11.5605 57.0905 11.5605C56.3003 11.5605 55.5652 11.7535 54.8852 12.1394C54.2052 12.5253 53.6539 13.1043 53.2312 13.8761C52.8085 14.648 52.5971 15.6037 52.5971 16.7431C52.5971 17.8826 52.8085 18.8382 53.2312 19.6101C53.6539 20.382 54.196 20.9609 54.8576 21.3468C55.5376 21.7328 56.2635 21.9257 57.0354 21.9257Z" fill="#065143"/>
<path d="M72.109 23.9106C70.4917 23.9106 69.2053 23.4235 68.2496 22.4495C67.294 21.4571 66.8161 19.9409 66.8161 17.9009V9.90647H69.1318V17.6528C69.1318 20.5014 70.2988 21.9257 72.6328 21.9257C73.8274 21.9257 74.8106 21.503 75.5825 20.6576C76.3727 19.7939 76.7679 18.5717 76.7679 16.9912V9.90647H79.0835V23.5798H76.9884L76.823 21.1263C76.4003 21.99 75.7662 22.67 74.9209 23.1662C74.0938 23.6625 73.1566 23.9106 72.109 23.9106Z" fill="#065143"/>
<path d="M82.8951 23.5798V9.90647H84.9902L85.1831 12.5253C85.6058 11.6248 86.2491 10.9081 87.1128 10.3751C87.9766 9.84215 89.0425 9.57567 90.3106 9.57567V12.0016H89.6766C88.8679 12.0016 88.1236 12.1486 87.4436 12.4426C86.7636 12.7183 86.2215 13.1961 85.8172 13.8761C85.4129 14.5561 85.2107 15.4934 85.2107 16.688V23.5798H82.8951Z" fill="#065143"/>
<path d="M94.3156 6.87409C93.8561 6.87409 93.4702 6.72707 93.1578 6.43302C92.8637 6.12059 92.7167 5.73465 92.7167 5.2752C92.7167 4.83413 92.8637 4.46657 93.1578 4.17252C93.4702 3.87847 93.8561 3.73145 94.3156 3.73145C94.7567 3.73145 95.1334 3.87847 95.4458 4.17252C95.7583 4.46657 95.9145 4.83413 95.9145 5.2752C95.9145 5.73465 95.7583 6.12059 95.4458 6.43302C95.1334 6.72707 94.7567 6.87409 94.3156 6.87409ZM93.1578 23.5798V9.90647H95.4734V23.5798H93.1578Z" fill="#065143"/>
<path d="M105.653 23.9106C104.348 23.9106 103.19 23.6165 102.179 23.0284C101.169 22.4219 100.369 21.5857 99.781 20.5198C99.2113 19.4539 98.9264 18.195 98.9264 16.7431C98.9264 15.3096 99.2113 14.0599 99.781 12.994C100.351 11.9097 101.141 11.0735 102.152 10.4854C103.181 9.87891 104.366 9.57567 105.708 9.57567C107.031 9.57567 108.171 9.87891 109.126 10.4854C110.1 11.0735 110.845 11.8545 111.359 12.8286C111.874 13.8026 112.131 14.8502 112.131 15.9712C112.131 16.1734 112.122 16.3756 112.103 16.5777C112.103 16.7799 112.103 17.0096 112.103 17.2669H101.214C101.27 18.3144 101.509 19.1874 101.931 19.8858C102.372 20.5657 102.914 21.0803 103.558 21.4295C104.219 21.7787 104.918 21.9533 105.653 21.9533C106.608 21.9533 107.408 21.7328 108.051 21.2917C108.694 20.8506 109.163 20.2533 109.457 19.4998H111.745C111.378 20.7679 110.67 21.8246 109.622 22.67C108.593 23.497 107.27 23.9106 105.653 23.9106ZM105.653 11.5329C104.55 11.5329 103.567 11.8729 102.703 12.5529C101.858 13.2145 101.371 14.1886 101.242 15.475H109.843C109.788 14.2437 109.365 13.2788 108.575 12.5805C107.785 11.8821 106.811 11.5329 105.653 11.5329Z" fill="#065143"/>
<path d="M115.2 23.5798V9.90647H117.295L117.488 12.5253C117.911 11.6248 118.554 10.9081 119.418 10.3751C120.282 9.84215 121.348 9.57567 122.616 9.57567V12.0016H121.982C121.173 12.0016 120.429 12.1486 119.749 12.4426C119.069 12.7183 118.527 13.1961 118.122 13.8761C117.718 14.5561 117.516 15.4934 117.516 16.688V23.5798H115.2Z" fill="#065143"/>
<path d="M125.353 23.5798V4.28279H131.693C133.2 4.28279 134.441 4.53089 135.415 5.0271C136.389 5.52331 137.105 6.19411 137.565 7.0395C138.043 7.88489 138.282 8.84055 138.282 9.90647C138.282 10.954 138.052 11.9005 137.592 12.7459C137.133 13.5913 136.416 14.2713 135.442 14.7858C134.468 15.2821 133.219 15.5302 131.693 15.5302H127.668V23.5798H125.353ZM127.668 13.5729H131.638C133.182 13.5729 134.275 13.2513 134.918 12.608C135.58 11.9464 135.911 11.0459 135.911 9.90647C135.911 8.74866 135.58 7.84813 134.918 7.2049C134.275 6.54329 133.182 6.21248 131.638 6.21248H127.668V13.5729Z" fill="#065143"/>
<path d="M145.081 23.9106C143.942 23.9106 142.996 23.7176 142.242 23.3316C141.489 22.9457 140.928 22.4311 140.56 21.7879C140.193 21.1447 140.009 20.4463 140.009 19.6928C140.009 18.2961 140.542 17.2209 141.608 16.4674C142.674 15.7139 144.126 15.3372 145.964 15.3372H149.658V15.1718C149.658 13.9772 149.345 13.0767 148.72 12.4702C148.095 11.8454 147.259 11.5329 146.212 11.5329C145.311 11.5329 144.53 11.7627 143.869 12.2221C143.225 12.6632 142.821 13.3156 142.656 14.1794H140.285C140.377 13.187 140.707 12.3508 141.277 11.6708C141.865 10.9908 142.591 10.4762 143.455 10.127C144.319 9.75945 145.238 9.57567 146.212 9.57567C148.123 9.57567 149.557 10.0903 150.512 11.1194C151.486 12.1302 151.973 13.481 151.973 15.1718V23.5798H149.906L149.768 21.1263C149.382 21.8982 148.812 22.5598 148.059 23.1111C147.324 23.6441 146.331 23.9106 145.081 23.9106ZM145.44 21.9533C146.322 21.9533 147.075 21.7236 147.7 21.2641C148.344 20.8047 148.831 20.2074 149.161 19.4723C149.492 18.7371 149.658 17.9653 149.658 17.1566V17.1291H146.157C144.797 17.1291 143.832 17.368 143.262 17.8458C142.711 18.3052 142.435 18.8842 142.435 19.5825C142.435 20.2993 142.692 20.8782 143.207 21.3192C143.74 21.7419 144.484 21.9533 145.44 21.9533Z" fill="#065143"/>
<path d="M156.532 29.6445L159.923 22.2565H159.123L153.693 9.90647H156.201L160.722 20.5474L165.519 9.90647H167.917L158.958 29.6445H156.532Z" fill="#065143"/>
</g>
<defs>
<clipPath id="clip0_5000_7166">
<rect width="167.917" height="32" fill="white"/>
</clipPath>
</defs>
</svg>
