<svg width="20" height="20" viewBox="0 0 20 20" fill="none" xmlns="http://www.w3.org/2000/svg">
<path d="M15.2083 1.6665H4.79167C3.06667 1.6665 1.66667 3.0665 1.66667 4.7915V15.2082C1.66667 16.9332 3.06667 18.3332 4.79167 18.3332H15.2083C16.9333 18.3332 18.3333 16.9332 18.3333 15.2082V4.7915C18.3333 3.0665 16.9333 1.6665 15.2083 1.6665ZM8.08334 8.55817C9.00834 7.63317 10.5167 7.63317 11.4417 8.55817C11.6833 8.80817 11.6833 9.19984 11.4417 9.44151C11.2 9.69151 10.8 9.69151 10.5583 9.44151C10.1167 9.00817 9.4 9.00817 8.96667 9.44151L5.95834 12.4498C5.51667 12.8915 5.51667 13.6082 5.95834 14.0415C6.39167 14.4832 7.10834 14.4832 7.55001 14.0415L8.80001 12.7915C9.05001 12.5498 9.44167 12.5498 9.68334 12.7915C9.93334 13.0332 9.93334 13.4332 9.68334 13.6748L8.43334 14.9332C7.96667 15.3915 7.35834 15.6248 6.75001 15.6248C6.14167 15.6248 5.53334 15.3915 5.07501 14.9332C4.14167 13.9998 4.14167 12.4998 5.07501 11.5665L8.08334 8.55817ZM11.925 11.4415C11.4583 11.8998 10.85 12.1332 10.2417 12.1332C9.63334 12.1332 9.02501 11.8998 8.55834 11.4415C8.31667 11.1915 8.31667 10.7998 8.55834 10.5582C8.80834 10.3082 9.20001 10.3082 9.44167 10.5582C9.88334 10.9915 10.6 10.9915 11.0417 10.5582L14.05 7.54984C14.4833 7.10817 14.4833 6.3915 14.05 5.95817C13.6083 5.5165 12.8917 5.5165 12.45 5.95817L11.2 7.20817C10.9583 7.44983 10.5583 7.44983 10.3167 7.20817C10.075 6.9665 10.075 6.5665 10.3167 6.32483L11.5667 5.06651C12.5 4.14151 14 4.14151 14.9333 5.06651C15.8583 5.99984 15.8583 7.49983 14.9333 8.43317L11.925 11.4415Z" fill="#2A86F2"/>
</svg>
