<svg width="32" height="32" viewBox="0 0 32 32" fill="none" xmlns="http://www.w3.org/2000/svg">
<rect width="32" height="32" rx="12" fill="white"/>
<path fill-rule="evenodd" clip-rule="evenodd" d="M9 18.3809C9 15.5756 11.2741 13.3015 14.0794 13.3015H18.8413C20.2439 13.3015 21.381 14.4386 21.381 15.8412C21.381 17.2438 20.2439 18.3809 18.8413 18.3809H14.0794V23.4602C14.0794 24.8629 12.9423 25.9999 11.5397 25.9999C10.1371 25.9999 9 24.8629 9 23.4602V18.3809Z" fill="#97F675"/>
<path fill-rule="evenodd" clip-rule="evenodd" d="M14.0794 6C11.2741 6 9 8.27411 9 11.0794H9.00779L9.00779 13.849C8.99026 14.0073 9.00779 14.0952 9.00779 14.0952L9.00779 13.849C9.04295 13.5317 9.21907 12.9316 9.96017 12.1905C11.0709 11.0798 13.2857 11.0794 13.2857 11.0794H20.4286C21.8312 11.0794 22.9683 9.94231 22.9683 8.53968C22.9683 7.13705 21.8312 6 20.4286 6H14.0794Z" fill="#97F675"/>
</svg>
