<svg width="199" height="130" viewBox="0 0 199 130" fill="none" xmlns="http://www.w3.org/2000/svg">
<g clip-path="url(#clip0_531_3502)">
<path d="M194.955 30.6512L191.853 45.6782L189.855 43.7297L186.458 46.1548L183.861 42.9289L178.038 47.1631L173.062 38.8407L167.511 42.0925L165.31 39.0579L158.262 43.0294L156.141 38.4873L161.082 14.5576L187.57 20.027L194.955 30.6512Z" fill="#EBEBEB"/>
<path d="M187.57 20.0273L194.955 30.6516L185.767 28.755L187.57 20.0273Z" fill="#DBDBDB"/>
<path d="M191.191 48.6798L186.642 70.7259L150.964 63.3599L155.48 41.4922L157.6 46.0311L164.651 42.0595L166.85 45.0941L172.403 41.8456L177.377 50.168L183.203 45.9338L185.796 49.1564L189.197 46.7346L191.191 48.6798Z" fill="#EBEBEB"/>
<path d="M140.125 46.0957L103.766 48.3457L100.877 1.67291L127.877 0L137.788 8.3159L140.125 46.0957Z" fill="#EBEBEB"/>
<path d="M127.877 0L137.788 8.3159L128.425 8.89623L127.877 0Z" fill="#DBDBDB"/>
<path d="M117.81 31.4067L117.668 30.353C117.301 28.1711 117.898 25.7298 119.795 23.1783C121.506 20.9089 122.434 19.2878 122.33 17.4463C122.213 15.3714 120.835 14.0616 118.271 14.1654C116.805 14.2415 115.397 14.7616 114.234 15.6567L113.116 13.1506C114.413 12.0969 116.682 11.3188 118.838 11.2054C123.516 10.946 125.792 13.7147 125.971 16.8044C126.126 19.5699 124.693 21.6481 122.871 24.0764C121.198 26.2907 120.65 28.116 120.887 30.1812L120.988 31.2381L117.81 31.4067ZM117.233 37.1484C117.149 35.644 118.105 34.5288 119.529 34.451C120.952 34.3732 121.989 35.3717 122.074 36.8793C122.151 38.3025 121.279 39.4502 119.775 39.5345C118.339 39.6156 117.301 38.5716 117.22 37.1484H117.233Z" fill="#DBDBDB"/>
<path d="M26.8639 23.4663L23.2069 21.8096L22.6979 22.9281C22.6227 23.0879 22.5054 23.2243 22.3586 23.3225C22.2118 23.4208 22.0411 23.4772 21.8646 23.4857C21.6637 23.4923 21.4633 23.5118 21.2649 23.5441C21.0906 23.5699 20.9127 23.548 20.7499 23.4806C20.5872 23.4133 20.4458 23.303 20.3409 23.1615L19.6244 22.1597L16.3596 24.5005L17.0761 25.5023C17.1758 25.6469 17.2344 25.8158 17.2458 25.991C17.2573 26.1662 17.221 26.3413 17.141 26.4976C17.0485 26.6759 16.9652 26.8588 16.8913 27.0455C16.8271 27.2102 16.7192 27.3542 16.5793 27.4622C16.4393 27.5702 16.2726 27.6379 16.097 27.6583L14.8748 27.7782L15.267 31.7757L16.4958 31.6525C16.672 31.6384 16.8487 31.6726 17.007 31.7514C17.1652 31.8303 17.2989 31.9507 17.3938 32.0999C17.4457 32.1842 17.5008 32.2652 17.5592 32.3463C17.6175 32.4273 17.6759 32.5051 17.7375 32.583C17.8494 32.7191 17.9213 32.8836 17.9454 33.0581C17.9694 33.2327 17.9446 33.4105 17.8737 33.5718L17.3614 34.7L21.0217 36.36L21.5307 35.235C21.6066 35.0753 21.7245 34.9392 21.8719 34.8416C22.0193 34.7439 22.1905 34.6882 22.3672 34.6806C22.5659 34.6724 22.764 34.6529 22.9605 34.6222C23.1347 34.5963 23.3127 34.6183 23.4754 34.6856C23.6381 34.753 23.7795 34.8633 23.8845 35.0048L24.601 36.0066L27.869 33.6658L27.1525 32.664C27.0497 32.5207 26.9892 32.3515 26.9778 32.1756C26.9663 31.9997 27.0044 31.8241 27.0876 31.6687C27.1779 31.4914 27.2591 31.3096 27.3308 31.124C27.3931 30.9581 27.5005 30.8129 27.6408 30.7047C27.7811 30.5965 27.9488 30.5295 28.1251 30.5113L29.3538 30.3881L28.9583 26.3906L27.7295 26.5106C27.5544 26.5259 27.3785 26.4926 27.2211 26.4142C27.0638 26.3358 26.9312 26.2155 26.838 26.0664C26.7829 25.9821 26.7277 25.9011 26.6694 25.82C26.611 25.739 26.5527 25.6579 26.4911 25.5833C26.38 25.4455 26.3085 25.28 26.2845 25.1046C26.2605 24.9292 26.2849 24.7506 26.3549 24.588L26.8639 23.4663ZM24.789 27.1655C25.1681 27.6945 25.3818 28.3241 25.4031 28.9747C25.4244 29.6252 25.2523 30.2674 24.9085 30.8201C24.5648 31.3729 24.0648 31.8112 23.4719 32.0798C22.879 32.3483 22.2198 32.435 21.5776 32.3289C20.9355 32.2228 20.3392 31.9286 19.8642 31.4836C19.3893 31.0385 19.0569 30.4627 18.9093 29.8287C18.7616 29.1948 18.8053 28.5314 19.0347 27.9223C19.2641 27.3132 19.669 26.7858 20.1982 26.4068C20.9076 25.8988 21.7898 25.6933 22.6507 25.8356C23.5116 25.9778 24.2807 26.4562 24.789 27.1655Z" fill="#EBEBEB"/>
<path d="M192.177 76.5059L189.739 77.9129L190.17 78.6586C190.234 78.7656 190.266 78.8889 190.262 79.0137C190.258 79.1385 190.218 79.2595 190.147 79.3621C190.073 79.4788 190.001 79.5988 189.936 79.7252C189.883 79.8371 189.799 79.9313 189.694 79.9968C189.589 80.0623 189.467 80.0963 189.343 80.0948H188.487V82.9122H189.35C189.474 82.9107 189.595 82.9447 189.7 83.0102C189.806 83.0757 189.89 83.1699 189.943 83.2818C190.008 83.4082 190.079 83.5282 190.154 83.6449C190.225 83.7475 190.265 83.8685 190.269 83.9933C190.273 84.1181 190.241 84.2414 190.176 84.3484L189.745 85.0941L192.183 86.5012L192.618 85.7522C192.681 85.646 192.772 85.5594 192.881 85.5022C192.991 85.4449 193.114 85.4192 193.237 85.428H193.652C193.775 85.4196 193.898 85.4454 194.007 85.5027C194.117 85.5599 194.208 85.6463 194.271 85.7522L194.706 86.5044L197.14 85.0973L196.709 84.3484C196.648 84.2409 196.618 84.1183 196.622 83.9946C196.627 83.8708 196.666 83.7509 196.735 83.6481C196.81 83.5314 196.881 83.4082 196.946 83.285C196.999 83.1732 197.083 83.0789 197.188 83.0134C197.294 82.9479 197.415 82.9139 197.539 82.9154H198.402V80.0981H197.533C197.409 80.0996 197.287 80.0656 197.182 80.0001C197.077 79.9346 196.993 79.8403 196.939 79.7285C196.875 79.6053 196.803 79.4821 196.729 79.3654C196.66 79.2626 196.62 79.1426 196.616 79.0189C196.611 78.8952 196.641 78.7726 196.703 78.6651L197.134 77.9162L194.699 76.5091L194.265 77.2483C194.202 77.3545 194.11 77.4411 194.001 77.4984C193.892 77.5556 193.769 77.5813 193.645 77.5725H193.438H193.23C193.107 77.5808 192.984 77.5549 192.874 77.4978C192.764 77.4406 192.672 77.3543 192.608 77.2483L192.177 76.5059ZM193.438 79.1968C193.895 79.1961 194.342 79.3311 194.722 79.5845C195.102 79.8379 195.398 80.1983 195.573 80.6203C195.748 81.0422 195.794 81.5066 195.705 81.9547C195.616 82.4027 195.396 82.8143 195.073 83.1374C194.75 83.4604 194.339 83.6803 193.891 83.7693C193.443 83.8582 192.978 83.8123 192.556 83.6371C192.134 83.462 191.774 83.1657 191.521 82.7856C191.267 82.4054 191.132 81.9587 191.133 81.5019C191.132 81.1989 191.192 80.8988 191.307 80.6188C191.423 80.3387 191.593 80.0842 191.807 79.8698C192.021 79.6554 192.275 79.4854 192.555 79.3693C192.835 79.2533 193.135 79.1935 193.438 79.1935V79.1968Z" fill="#EBEBEB"/>
<path d="M34.262 11.4857L32.0282 13.1975L32.5437 13.8816C32.6206 13.9791 32.6679 14.0966 32.68 14.2202C32.692 14.3437 32.6684 14.4681 32.6118 14.5787C32.5498 14.7049 32.4956 14.8348 32.4497 14.9677C32.4097 15.0848 32.3379 15.1884 32.2422 15.2669C32.1466 15.3454 32.0309 15.3956 31.9083 15.4119L31.0524 15.5221L31.4155 18.3135L32.2714 18.2033C32.396 18.1859 32.5229 18.2041 32.6377 18.2557C32.7524 18.3073 32.8502 18.3903 32.9198 18.4951C32.9979 18.6079 33.0823 18.7161 33.1727 18.8193C33.2562 18.9111 33.3116 19.025 33.3323 19.1474C33.353 19.2699 33.3381 19.3956 33.2894 19.5098L32.9652 20.3074L35.5588 21.387L35.883 20.5895C35.9313 20.475 36.0106 20.3764 36.1121 20.3048C36.2135 20.2332 36.3329 20.1914 36.4569 20.1842L36.6644 20.1615L36.8686 20.1291C36.9886 20.1065 37.1125 20.1172 37.2268 20.16C37.3411 20.2029 37.4415 20.2763 37.517 20.3722L38.0455 21.0628L40.2793 19.351L39.7573 18.6669C39.6819 18.5681 39.6356 18.4502 39.6236 18.3265C39.6116 18.2027 39.6343 18.0781 39.6892 17.9666C39.7507 17.8413 39.8048 17.7124 39.8513 17.5808C39.8913 17.4637 39.9631 17.3601 40.0588 17.2816C40.1545 17.2032 40.2701 17.153 40.3928 17.1367L41.2487 17.0264L40.8856 14.235L40.0296 14.3452C39.9054 14.3629 39.7786 14.3453 39.6639 14.2942C39.5493 14.2432 39.4513 14.1609 39.3812 14.0567C39.3002 13.94 39.2159 13.8297 39.1251 13.7325C39.0496 13.6387 39.0007 13.5262 38.9836 13.407C38.9665 13.2878 38.9818 13.1662 39.0279 13.0549L39.3521 12.2573L36.7584 11.1777L36.4342 11.9753C36.3853 12.0893 36.3058 12.1875 36.2045 12.259C36.1032 12.3305 35.9841 12.3726 35.8604 12.3805L35.6529 12.4L35.4616 12.4065C35.3416 12.4291 35.2177 12.4184 35.1034 12.3755C34.9891 12.3326 34.8887 12.2592 34.8132 12.1633L34.262 11.4857ZM35.8604 13.9918C36.312 13.9338 36.7707 14.0108 37.1786 14.2131C37.5865 14.4155 37.9253 14.7341 38.1524 15.1287C38.3794 15.5234 38.4845 15.9765 38.4543 16.4308C38.4241 16.8852 38.2601 17.3204 37.9829 17.6816C37.7056 18.0428 37.3276 18.3138 36.8966 18.4605C36.4655 18.6071 36.0007 18.6228 35.5607 18.5055C35.1207 18.3883 34.7253 18.1433 34.4244 17.8016C34.1234 17.4599 33.9304 17.0368 33.8697 16.5855C33.8292 16.2844 33.8486 15.9782 33.9269 15.6846C34.0051 15.391 34.1406 15.1157 34.3256 14.8747C34.5106 14.6336 34.7415 14.4316 35.0049 14.28C35.2682 14.1285 35.559 14.0306 35.8604 13.9918Z" fill="#EBEBEB"/>
<path d="M17.5718 84.6343C17.6936 81.5002 17.6503 78.3618 17.4421 75.2323C16.9783 68.7699 15.9927 62.3557 14.4951 56.0522C13.6716 52.5054 12.6601 49.0169 11.6032 45.5317C11.5708 45.4247 11.4022 45.4539 11.4314 45.5641C14.6961 57.8516 17.3741 70.528 17.1893 83.3018C17.1374 86.868 16.7224 90.3857 16.3852 93.939C16.3852 94.033 16.5311 94.0719 16.5538 93.9747C17.2249 90.9239 17.4454 87.7402 17.5718 84.6343Z" fill="#EBEBEB"/>
<path d="M11.4313 45.5547C11.4313 45.5547 6.49041 58.1015 7.59596 61.0388C8.7015 63.9761 10.9839 64.6051 10.9839 64.6051C10.9839 64.6051 7.95907 68.9235 10.0729 72.9728C12.1867 77.0222 16.8812 76.8309 17.2054 81.4217C17.1957 81.4444 17.4551 62.2481 11.4313 45.5547Z" fill="#EBEBEB"/>
<path d="M16.6575 73.5163C16.6655 73.4954 16.6655 73.4723 16.6575 73.4514C16.009 64.8856 14.4017 56.4195 11.8657 48.212C11.8657 48.1893 11.8171 48.1957 11.8236 48.212C12.8027 51.8863 13.6672 55.5758 14.4172 59.2804C13.753 58.6511 12.9415 58.1985 12.057 57.9641C12.057 57.9641 12.0311 57.9835 12.057 57.99C12.9862 58.3305 13.8216 58.886 14.495 59.6111C14.6377 60.3405 14.7804 61.0667 14.9133 61.7962C13.8077 60.561 12.2775 59.9482 10.744 59.3647C10.7405 59.3662 10.7376 59.3687 10.7355 59.3718C10.7334 59.375 10.7323 59.3787 10.7323 59.3825C10.7323 59.3863 10.7334 59.39 10.7355 59.3931C10.7376 59.3963 10.7405 59.3988 10.744 59.4003C12.3423 60.0487 13.9309 60.8852 15.0138 62.2631C15.3899 64.3445 15.7205 66.4334 16.0059 68.53C15.2076 67.6937 14.1839 67.1069 13.0588 66.8409C13.0232 66.8409 13.0037 66.883 13.0394 66.8927C14.1951 67.2331 15.2269 67.9022 16.0091 68.8185H16.0285C16.1258 69.5534 16.2187 70.2915 16.3074 71.0329C15.6898 70.5103 14.9926 70.09 14.2422 69.7879C14.2227 69.7879 14.2097 69.8106 14.2422 69.8171C15.008 70.1488 15.7093 70.6131 16.3138 71.1885C16.3138 71.1885 16.3301 71.1885 16.3398 71.1885C16.4208 71.892 16.5019 72.5955 16.5732 73.2991C15.4599 71.9532 14.0151 70.9207 12.3812 70.3034C12.3743 70.3034 12.3677 70.3061 12.3629 70.311C12.358 70.3158 12.3553 70.3224 12.3553 70.3293C12.3553 70.3362 12.358 70.3428 12.3629 70.3477C12.3677 70.3525 12.3743 70.3553 12.3812 70.3553C13.9946 71.0664 15.4118 72.1576 16.5116 73.5357C16.5237 73.5508 16.5401 73.562 16.5585 73.5678C16.577 73.5736 16.5968 73.5737 16.6154 73.5681C16.7223 74.6478 16.8196 75.7274 16.8974 76.8102C16.8974 76.8264 16.9234 76.8264 16.9234 76.8102C16.8391 75.723 16.7504 74.6251 16.6575 73.5163Z" fill="white"/>
<path d="M12.6862 56.73C11.7914 56.1731 10.7692 55.8539 9.71647 55.8027C9.71131 55.8027 9.70637 55.8048 9.70272 55.8084C9.69907 55.8121 9.69702 55.817 9.69702 55.8222C9.69702 55.8273 9.69907 55.8323 9.70272 55.8359C9.70637 55.8396 9.71131 55.8416 9.71647 55.8416C10.7342 56.0346 11.722 56.3617 12.6538 56.8143C12.6927 56.824 12.7219 56.7559 12.6862 56.73Z" fill="white"/>
<path d="M13.286 70.0119C12.5983 69.6172 11.841 69.3585 11.0555 69.25C11.0295 69.25 11.0263 69.2857 11.0555 69.2921C11.8225 69.446 12.5645 69.7057 13.2601 70.0638C13.2893 70.08 13.3152 70.0281 13.286 70.0119Z" fill="white"/>
<path d="M30.5661 61.2543C28.4759 62.6991 26.5562 64.3762 24.8439 66.2535C23.0779 68.2412 21.7158 70.5537 20.8334 73.0619C18.9556 78.2874 17.9458 83.7852 17.8443 89.337C17.7813 92.4116 18.0761 95.483 18.7229 98.4894C18.7281 98.5112 18.7415 98.5302 18.7604 98.5424C18.7793 98.5547 18.8021 98.5591 18.8242 98.555C18.8463 98.5508 18.8659 98.5383 18.879 98.5201C18.8922 98.5018 18.8978 98.4792 18.8947 98.457C18.0899 93.1517 18.1206 87.7532 18.9855 82.4574C19.8349 77.2701 21.1674 71.6224 24.4678 67.4045C26.2639 65.1058 28.5042 63.3 30.7185 61.4326C30.8352 61.3288 30.6861 61.17 30.5661 61.2543Z" fill="#EBEBEB"/>
<path d="M18.5704 85.5978C19.7602 83.6734 21.1584 81.886 22.7397 80.2679C25.2134 77.7942 27.2948 76.037 27.619 74.403C27.9432 72.769 25.1421 71.5629 25.1421 71.5629C25.1421 71.5629 28.5625 72.1789 29.4994 70.7427C30.4364 69.3064 30.887 60.9873 30.887 60.9873C30.887 60.9873 24.6623 65.4322 21.7606 71.6634C18.859 77.8947 18.5704 85.5978 18.5704 85.5978Z" fill="#EBEBEB"/>
<path d="M28.6534 68.7909C28.2435 68.7299 27.828 68.7158 27.4149 68.7488C27.3663 68.7488 27.3695 68.8331 27.4149 68.8363C27.8234 68.8363 28.2352 68.8169 28.6437 68.8363C28.6483 68.8351 28.6526 68.8326 28.6559 68.8292C28.6592 68.8257 28.6615 68.8213 28.6626 68.8166C28.6636 68.8119 28.6632 68.807 28.6616 68.8025C28.66 68.7979 28.6571 68.7939 28.6534 68.7909Z" fill="white"/>
<path d="M24.1827 76.8584C23.5254 76.8718 22.8756 77.0013 22.2634 77.241C22.2634 77.241 22.2634 77.2734 22.2634 77.2701C22.9118 77.1178 23.5376 77.0562 24.1795 76.9459C24.1879 76.9423 24.195 76.9363 24.2002 76.9288C24.2053 76.9212 24.2082 76.9123 24.2086 76.9032C24.2089 76.894 24.2067 76.885 24.2021 76.8771C24.1975 76.8692 24.1908 76.8627 24.1827 76.8584Z" fill="white"/>
<path d="M22.8406 74.0704C22.5677 74.0683 22.2952 74.0922 22.0268 74.1418C22.0218 74.1436 22.0176 74.1469 22.0145 74.1513C22.0115 74.1556 22.0099 74.1608 22.0099 74.1661C22.0099 74.1714 22.0115 74.1765 22.0145 74.1809C22.0176 74.1852 22.0218 74.1886 22.0268 74.1904C22.2986 74.2061 22.5712 74.1942 22.8406 74.1547C22.8517 74.1547 22.8625 74.1503 22.8704 74.1424C22.8783 74.1345 22.8827 74.1238 22.8827 74.1126C22.8827 74.1014 22.8783 74.0907 22.8704 74.0828C22.8625 74.0749 22.8517 74.0704 22.8406 74.0704Z" fill="white"/>
<path d="M0.320997 70.0801C2.34703 70.7669 4.2885 71.6817 6.10808 72.8067C7.99607 74.0064 9.63331 75.5611 10.929 77.3845C13.6553 81.1794 15.7426 85.3946 17.1084 89.8632C17.8701 92.3374 18.3402 94.8922 18.509 97.4756C18.5054 97.4923 18.4963 97.5073 18.483 97.518C18.4697 97.5288 18.4531 97.5347 18.436 97.5347C18.4189 97.5347 18.4024 97.5288 18.3891 97.518C18.3758 97.5073 18.3666 97.4923 18.3631 97.4756C17.7908 92.9964 16.5196 88.6347 14.5958 84.5494C12.7057 80.5455 10.3228 76.2854 6.67869 73.6334C4.69454 72.1907 2.464 71.244 0.239945 70.2454C0.123231 70.2065 0.204282 70.0412 0.320997 70.0801Z" fill="#EBEBEB"/>
<path d="M15.6559 87.0076C14.2474 85.7261 12.7025 84.603 11.049 83.6586C8.47476 82.2288 6.38363 81.2886 5.74494 80.0404C5.10625 78.7922 7.09364 77.1712 7.09364 77.1712C7.09364 77.1712 4.46757 78.468 3.37823 77.5116C2.2889 76.5552 0 69.9414 0 69.9414C0 69.9414 6.0659 72.0974 9.84939 76.4709C13.6329 80.8445 15.6559 87.0076 15.6559 87.0076Z" fill="#EBEBEB"/>
<path d="M10.6209 80.9185C10.0245 80.8769 9.42566 80.9507 8.85718 81.1357C8.85718 81.1357 8.85718 81.1649 8.85718 81.1617C9.43714 81.0622 10.0231 81.0016 10.6111 80.9801C10.6533 80.9801 10.663 80.9217 10.6209 80.9185Z" fill="white"/>
<path d="M5.32985 73.9806C5.0578 73.9584 4.78399 73.9736 4.5161 74.026C4.48692 74.026 4.49664 74.0778 4.5161 74.0746C4.78519 74.0454 5.04779 74.0552 5.31364 74.0487C5.3219 74.049 5.33002 74.0465 5.3366 74.0415C5.34319 74.0365 5.34784 74.0293 5.34975 74.0213C5.35167 74.0133 5.35073 74.0048 5.3471 73.9974C5.34347 73.9899 5.33737 73.984 5.32985 73.9806Z" fill="white"/>
<path d="M23.479 105.837H9.78772L11.7394 91.5359L12.2387 87.8691H21.028L21.5272 91.5359L23.479 105.837Z" fill="#DBDBDB"/>
<path d="M21.5274 91.5359H11.7396L12.2389 87.8691H21.0281L21.5274 91.5359Z" fill="#C7C7C7"/>
<path d="M22.2827 86.5996H10.9808V89.7055H22.2827V86.5996Z" fill="#DBDBDB"/>
<path d="M1.08276 105.836L25.7257 105.758L50.3686 105.729L99.6545 105.674L148.94 105.729L173.583 105.758L198.226 105.836L173.583 105.917L148.94 105.943L99.6545 105.998L50.3686 105.943L25.7257 105.914L1.08276 105.836Z" fill="#263238"/>
<path d="M100.303 129.999C151.645 129.999 193.266 125.438 193.266 119.813C193.266 114.187 151.645 109.626 100.303 109.626C48.961 109.626 7.34009 114.187 7.34009 119.813C7.34009 125.438 48.961 129.999 100.303 129.999Z" fill="#EBEBEB"/>
<path d="M78.6624 118.128C77.907 118.385 56.2467 118.453 55.4168 117.94C55.0925 117.746 54.9078 114.591 54.7683 110.772C54.7392 109.949 54.7165 109.096 54.697 108.234L52.969 96.679L67.4513 96.585L68.8162 108.143L68.7611 110.685C68.7611 110.685 77.0673 114.364 77.9167 115.032C78.7661 115.7 79.4178 117.872 78.6624 118.128Z" fill="#F7AE9E"/>
<path d="M78.6622 118.128C77.9068 118.384 56.2466 118.452 55.4166 117.94C55.034 117.7 54.8266 113.093 54.7098 108.233L68.7999 108.143L68.7447 110.684C68.7447 110.684 77.0509 114.364 77.9003 115.032C78.7498 115.7 79.4176 117.872 78.6622 118.128Z" fill="white"/>
<path d="M78.6622 118.127C77.9068 118.383 56.2466 118.452 55.4166 117.939C55.0924 117.745 54.9076 114.59 54.7682 110.771L68.7318 110.684C68.7318 110.684 77.0379 114.363 77.8874 115.031C78.7368 115.699 79.4176 117.871 78.6622 118.127Z" fill="#A6A6A6"/>
<path d="M78.3479 117.262C74.7168 117.184 60.0626 117.22 56.4672 117.421C56.438 117.421 56.438 117.44 56.4672 117.443C60.0659 117.596 74.72 117.443 78.3479 117.32C78.4257 117.317 78.4257 117.262 78.3479 117.262Z" fill="#263238"/>
<path d="M76.503 114.258C76.0992 114.248 75.698 114.323 75.3246 114.477C74.9513 114.631 74.614 114.861 74.3341 115.152C73.8239 115.672 73.5356 116.369 73.53 117.098C73.53 117.12 73.5689 117.12 73.5722 117.098C73.6927 116.38 74.042 115.721 74.5679 115.219C75.0937 114.716 75.768 114.397 76.49 114.309C76.4969 114.311 76.5042 114.31 76.5103 114.306C76.5164 114.303 76.5207 114.297 76.5224 114.29C76.5242 114.283 76.5231 114.276 76.5194 114.27C76.5158 114.264 76.5099 114.259 76.503 114.258Z" fill="#263238"/>
<path d="M70.1518 111.041C68.6994 111.025 67.0168 111.544 66.1155 112.737C66.083 112.782 66.1479 112.831 66.19 112.808C67.459 112.138 68.7958 111.606 70.1778 111.22C70.1991 111.214 70.2176 111.2 70.2298 111.182C70.2419 111.163 70.2468 111.141 70.2436 111.119C70.2405 111.097 70.2294 111.077 70.2124 111.063C70.1955 111.049 70.174 111.041 70.1518 111.041Z" fill="#263238"/>
<path d="M71.2801 111.473C69.8244 111.473 68.1417 111.978 67.2437 113.168C67.208 113.217 67.2729 113.266 67.3183 113.243C68.5854 112.571 69.9213 112.037 71.3028 111.651C71.3238 111.645 71.3421 111.632 71.3543 111.614C71.3664 111.596 71.3716 111.574 71.3688 111.552C71.366 111.53 71.3556 111.51 71.3392 111.496C71.3229 111.481 71.3019 111.473 71.2801 111.473Z" fill="#263238"/>
<path d="M72.4018 111.906C70.9494 111.906 69.2668 112.409 68.3655 113.602C68.333 113.647 68.3979 113.696 68.44 113.673C69.709 113.003 71.0458 112.471 72.4278 112.085C72.4491 112.079 72.4676 112.065 72.4798 112.047C72.4919 112.028 72.4968 112.006 72.4936 111.984C72.4905 111.962 72.4794 111.942 72.4624 111.928C72.4455 111.913 72.424 111.906 72.4018 111.906Z" fill="#263238"/>
<path d="M73.5268 112.341C72.0711 112.325 70.3885 112.844 69.4905 114.037C69.4548 114.082 69.5229 114.131 69.565 114.108C70.8338 113.438 72.1706 112.905 73.5528 112.52C73.5741 112.514 73.5926 112.5 73.6048 112.482C73.6169 112.463 73.6218 112.441 73.6186 112.419C73.6155 112.397 73.6044 112.377 73.5874 112.363C73.5705 112.348 73.549 112.341 73.5268 112.341Z" fill="#263238"/>
<path d="M57.3811 113.969C55.76 113.969 55.76 116.514 57.3811 116.504C59.0021 116.494 59.0151 113.959 57.3811 113.969Z" fill="#263238"/>
<path d="M71.7111 107.156C70.9751 106.547 70.0479 107.156 69.5972 107.782C68.8471 108.888 68.4 110.171 68.3004 111.504C68.3004 111.533 68.3231 111.546 68.3458 111.546C68.3516 111.574 68.3638 111.599 68.3815 111.621C68.3993 111.643 68.422 111.66 68.4477 111.671C68.4734 111.682 68.5015 111.687 68.5294 111.685C68.5574 111.683 68.5845 111.674 68.6084 111.66C69.6394 110.943 70.8325 110.301 71.6138 109.286C72.058 108.696 72.4211 107.724 71.7111 107.156ZM69.9409 110.249C69.4416 110.616 68.9261 110.956 68.4398 111.342C68.6992 110.616 68.9229 109.883 69.2536 109.183C69.4064 108.847 69.5818 108.522 69.7788 108.21C70.103 107.727 71.5165 106.508 71.6657 108.087C71.75 108.952 70.5342 109.815 69.9409 110.249Z" fill="#263238"/>
<path d="M64.6824 112.056C65.9468 112.244 67.2533 111.881 68.495 111.683C68.522 111.676 68.5469 111.663 68.5679 111.644C68.5888 111.626 68.6051 111.603 68.6155 111.577C68.6259 111.551 68.6301 111.523 68.6278 111.495C68.6254 111.468 68.6166 111.441 68.602 111.417C68.6067 111.413 68.6106 111.409 68.6132 111.403C68.6158 111.398 68.6172 111.392 68.6172 111.386C68.6172 111.38 68.6158 111.374 68.6132 111.369C68.6106 111.364 68.6067 111.359 68.602 111.355C67.6043 110.466 66.39 109.854 65.0811 109.582C64.316 109.436 63.2332 109.647 63.1359 110.597C63.0192 111.492 63.9432 111.939 64.6824 112.056ZM63.8005 111.232C62.8279 109.987 64.6856 109.88 65.2432 110.01C65.605 110.1 65.9603 110.215 66.3066 110.354C67.0157 110.648 67.7094 110.978 68.3848 111.342C67.7688 111.404 67.1626 111.514 66.5498 111.599C65.8171 111.696 64.3452 111.916 63.8005 111.232Z" fill="#263238"/>
<path d="M31.6752 43.2715C31.6752 43.2715 48.4918 71.8795 48.9424 73.8896C49.633 76.976 53.2933 107.455 53.2933 107.455L70.8004 107.13C70.8004 107.13 67.7853 80.257 64.929 71.4029C62.8736 65.0257 48.0314 43.8745 48.0314 43.8745L31.6752 43.2715Z" fill="#37474F"/>
<path d="M69.2084 104.46C66.6958 104.44 57.7898 104.34 54.444 104.651C54.4181 104.651 54.4213 104.696 54.444 104.7C55.595 104.865 66.6926 104.609 69.2052 104.528C69.2104 104.53 69.216 104.53 69.2216 104.53C69.2271 104.529 69.2324 104.527 69.2371 104.524C69.2417 104.521 69.2456 104.517 69.2483 104.512C69.2511 104.507 69.2526 104.501 69.2529 104.496C69.2532 104.49 69.2521 104.485 69.2498 104.48C69.2476 104.475 69.2441 104.47 69.2398 104.467C69.2355 104.463 69.2304 104.461 69.2249 104.459C69.2195 104.458 69.2138 104.458 69.2084 104.46Z" fill="#263238"/>
<path d="M34.5443 45.8963C35.6466 47.6243 36.8137 49.3166 37.9355 51.0317C39.0572 52.7468 40.1855 54.4618 41.2975 56.1736C43.5151 59.6318 45.6765 63.1127 47.7816 66.6163C48.809 68.2403 49.688 69.9537 50.4077 71.7355C51.0647 73.5178 51.5584 75.356 51.8828 77.2276C52.2265 79.1047 52.4535 81.0014 52.6642 82.898C52.8803 84.9145 53.1062 86.9322 53.3418 88.9509C53.8021 93.0813 54.2636 97.2117 54.7261 101.342C54.7813 101.848 54.8364 102.354 54.8882 102.863C54.8882 102.937 54.7618 102.95 54.7521 102.863C54.2366 98.7614 53.8086 94.644 53.3418 90.5428C53.1083 88.4959 52.876 86.4502 52.6447 84.4055C52.4275 82.5024 52.22 80.5961 51.925 78.706C51.6543 76.8403 51.2424 74.9978 50.693 73.1945C50.0877 71.3272 49.2765 69.533 48.2744 67.8451C46.2481 64.3469 44.1019 60.9103 41.9556 57.4704C39.8094 54.0306 37.6048 50.5616 35.3418 47.1639C35.063 46.7457 34.781 46.3275 34.4892 45.9157C34.4665 45.893 34.5248 45.8638 34.5443 45.8963Z" fill="#263238"/>
<path d="M37.1864 119.813C36.3888 119.765 15.7887 111.42 15.2181 110.629C15.1927 110.582 15.1814 110.529 15.1857 110.476C15.1857 109.766 16.6154 107.289 17.8085 104.034C17.8831 103.827 18.4148 102.861 19.1507 101.561C21.1965 97.9976 24.7628 91.8604 24.7628 91.8604L38.2271 97.2098L31.7818 106.855L30.78 109.189C30.78 109.189 37.0988 115.722 37.6305 116.646C38.1622 117.57 37.9807 119.859 37.1864 119.813Z" fill="#F7AE9E"/>
<path d="M37.1864 119.814C36.3888 119.766 15.7887 111.421 15.2181 110.63C15.1927 110.583 15.1814 110.53 15.1857 110.477C15.1857 109.767 16.6154 107.29 17.8085 104.035C17.8831 103.828 18.4148 102.862 19.1507 101.562L31.7948 106.856L30.793 109.19C30.793 109.19 37.1118 115.723 37.6435 116.647C38.1752 117.571 37.9807 119.86 37.1864 119.814Z" fill="white"/>
<path d="M37.1865 119.813C36.3889 119.765 15.7889 111.42 15.2183 110.629C14.9978 110.327 15.9185 107.516 17.8119 104.034L30.7802 109.192C30.7802 109.192 37.099 115.719 37.6339 116.649C38.1688 117.58 37.9808 119.859 37.1865 119.813Z" fill="#A6A6A6"/>
<path d="M37.2191 118.893C33.883 117.46 20.2858 111.994 16.8784 110.833C16.8492 110.833 16.8427 110.833 16.8784 110.852C20.1561 112.344 33.7955 117.7 37.2061 118.958C37.271 118.974 37.2904 118.922 37.2191 118.893Z" fill="#263238"/>
<path d="M36.6353 115.414C36.2654 115.252 35.8657 115.168 35.4617 115.168C35.0576 115.168 34.658 115.252 34.2881 115.414C33.6229 115.706 33.0957 116.242 32.8162 116.912C32.8162 116.932 32.8453 116.948 32.8551 116.928C33.2373 116.307 33.8106 115.826 34.4893 115.558C35.1679 115.289 35.9152 115.248 36.6191 115.44C36.6246 115.439 36.6292 115.435 36.6322 115.431C36.6352 115.426 36.6363 115.42 36.6353 115.414Z" fill="#263238"/>
<path d="M31.957 110.052C30.6181 109.491 28.8609 109.342 27.5802 110.11C27.5316 110.139 27.5802 110.208 27.6224 110.204C29.05 110.059 30.4889 110.067 31.9149 110.227C31.9368 110.229 31.9589 110.224 31.9769 110.211C31.995 110.198 32.0078 110.179 32.013 110.158C32.0181 110.137 32.0153 110.114 32.005 110.094C31.9947 110.075 31.9777 110.06 31.957 110.052Z" fill="#263238"/>
<path d="M32.8356 110.876C31.4966 110.315 29.7394 110.166 28.4588 110.934C28.4102 110.964 28.4588 111.032 28.5009 111.028C29.9284 110.882 31.3676 110.89 32.7934 111.051C32.8154 111.054 32.8374 111.048 32.8555 111.035C32.8735 111.022 32.8863 111.004 32.8915 110.982C32.8967 110.961 32.8938 110.938 32.8835 110.919C32.8733 110.899 32.8562 110.884 32.8356 110.876Z" fill="#263238"/>
<path d="M33.7175 111.698C32.3752 111.138 30.618 110.988 29.3407 111.757C29.2888 111.786 29.3407 111.854 29.3796 111.851C30.8071 111.704 32.2462 111.712 33.6721 111.873C33.6945 111.877 33.7174 111.872 33.7365 111.86C33.7555 111.848 33.7693 111.829 33.775 111.807C33.7807 111.785 33.7779 111.761 33.7673 111.741C33.7566 111.721 33.7389 111.706 33.7175 111.698Z" fill="#263238"/>
<path d="M34.5964 112.522C33.2542 111.961 31.5002 111.812 30.2196 112.577C30.1677 112.61 30.2196 112.678 30.2585 112.674C31.686 112.528 33.1251 112.536 34.551 112.697C34.5734 112.701 34.5964 112.696 34.6154 112.684C34.6344 112.671 34.6482 112.652 34.6539 112.63C34.6596 112.608 34.6568 112.585 34.6462 112.565C34.6355 112.545 34.6178 112.53 34.5964 112.522Z" fill="#263238"/>
<path d="M19.0179 107.974C17.5038 107.371 16.5636 109.728 18.0842 110.331C19.6047 110.934 20.5481 108.577 19.0179 107.974Z" fill="#263238"/>
<path d="M34.8589 107.037C34.4017 106.197 33.3221 106.405 32.664 106.823C31.5553 107.565 30.661 108.586 30.0703 109.783C30.0677 109.788 30.0663 109.794 30.0663 109.8C30.0662 109.805 30.0675 109.811 30.07 109.817C30.0725 109.822 30.0761 109.827 30.0807 109.83C30.0852 109.834 30.0906 109.837 30.0963 109.838C30.0963 109.945 30.1676 110.071 30.294 110.045C31.5228 109.763 32.8682 109.617 33.9705 108.969C34.6027 108.593 35.29 107.831 34.8589 107.037ZM32.0545 109.238C31.4547 109.39 30.8517 109.514 30.2584 109.689C30.7491 109.097 31.2696 108.532 31.8178 107.993C32.0877 107.736 32.3747 107.498 32.6769 107.28C33.147 106.956 34.9237 106.356 34.4698 107.876C34.2202 108.716 32.771 109.057 32.0545 109.238Z" fill="#263238"/>
<path d="M26.504 108.94C27.6063 109.589 28.9518 109.741 30.1773 110.026C30.3037 110.056 30.388 109.929 30.3783 109.819C30.3844 109.818 30.3902 109.816 30.3952 109.813C30.4001 109.809 30.4041 109.804 30.4067 109.799C30.4093 109.793 30.4105 109.787 30.41 109.781C30.4096 109.775 30.4076 109.769 30.4042 109.764C29.8145 108.565 28.9201 107.542 27.8106 106.797C27.1621 106.376 26.0761 106.165 25.6157 107.002C25.1553 107.838 25.8588 108.561 26.504 108.94ZM25.9982 107.845C25.5476 106.324 27.321 106.927 27.7911 107.254C28.093 107.473 28.379 107.712 28.647 107.971C29.1942 108.511 29.7136 109.078 30.2032 109.67C29.6099 109.495 29.0069 109.368 28.4071 109.216C27.6809 109.021 26.2446 108.697 25.9982 107.845Z" fill="#263238"/>
<path d="M32.829 106.316L17.7566 100.23C17.7566 100.23 36.4439 72.7537 36.58 70.7079C36.7032 68.8989 28.4943 53.1359 28.1734 48.5419C27.8232 43.5816 30.2094 39.7462 32.8354 37.3633L48.3811 43.9739C48.3811 43.9739 46.7407 46.5967 44.1665 48.0589C44.1665 48.0589 52.1387 66.2793 51.6848 71.8816C51.2309 77.4838 32.829 106.316 32.829 106.316Z" fill="#37474F"/>
<path d="M33.4973 103.451C31.3186 102.514 31.9573 102.751 29.7657 101.83C28.6958 101.383 21.6605 98.4551 20.5777 98.2119C20.555 98.2119 20.5388 98.2443 20.5615 98.2573C21.4984 98.8311 28.5921 101.636 29.6717 102.063C31.8795 102.932 31.2538 102.66 33.4714 103.503C33.4747 103.507 33.4791 103.511 33.4841 103.513C33.4892 103.515 33.4947 103.516 33.5002 103.516C33.5057 103.515 33.511 103.513 33.5156 103.51C33.5201 103.507 33.5238 103.503 33.5263 103.498C33.5288 103.493 33.5299 103.488 33.5297 103.482C33.5295 103.477 33.5278 103.471 33.5249 103.466C33.522 103.462 33.5179 103.458 33.5131 103.455C33.5083 103.453 33.5028 103.451 33.4973 103.451Z" fill="#263238"/>
<path d="M46.7148 47.7254C45.0963 48.1026 43.5128 48.6167 41.9814 49.2621C41.9752 49.2642 41.9695 49.2675 41.9646 49.2719C41.9597 49.2762 41.9558 49.2815 41.9529 49.2873C41.95 49.2932 41.9484 49.2996 41.948 49.3061C41.9476 49.3126 41.9485 49.3191 41.9506 49.3253C41.9527 49.3315 41.956 49.3372 41.9604 49.3421C41.9647 49.347 41.97 49.3509 41.9758 49.3538C41.9817 49.3567 41.9881 49.3583 41.9946 49.3587C42.0011 49.3591 42.0076 49.3582 42.0138 49.3561C43.6024 48.8925 45.217 48.4581 46.7797 47.9101C46.8996 47.868 46.838 47.6994 46.7148 47.7254Z" fill="#263238"/>
<path d="M44.8636 47.0959C44.7126 47.3646 44.5794 47.6429 44.4649 47.9291C44.353 48.1463 44.2836 48.3829 44.2606 48.6262C44.2606 48.6748 44.3255 48.6845 44.3546 48.6553C44.5173 48.4608 44.6486 48.242 44.7437 48.0069C44.8766 47.7508 45.0128 47.4979 45.1392 47.2353C45.2268 47.044 44.9641 46.9208 44.8636 47.0959Z" fill="#263238"/>
<path d="M45.0583 45.6254C45.1556 45.3855 45.2496 45.1488 45.3501 44.9089C45.4506 44.669 45.577 44.4226 45.6743 44.1697C45.6743 44.1308 45.7521 44.1697 45.7359 44.1989C45.6386 44.4388 45.577 44.6917 45.5025 44.9381C45.4279 45.1845 45.3436 45.4309 45.2625 45.6772C45.1102 46.1344 44.9383 46.5883 44.7276 47.0324C44.9827 47.0452 45.2375 47.0009 45.4733 46.9027C45.7142 46.7486 45.8994 46.5214 46.0017 46.2543C46.1379 45.9885 46.2643 45.7162 46.4038 45.4503C46.5754 45.1629 46.7197 44.8601 46.835 44.5458C46.835 44.5069 46.9128 44.5458 46.8966 44.5749C46.6852 45.2395 46.4082 45.8813 46.0698 46.491C45.9239 46.7277 45.8105 46.9773 45.5446 47.0681C45.2568 47.1486 44.9557 47.1695 44.6595 47.1297C44.6206 47.1297 44.5752 47.1297 44.5882 47.0713C44.7209 46.5819 44.8778 46.0993 45.0583 45.6254Z" fill="#263238"/>
<path d="M44.3971 48.6538C44.9514 49.8242 45.4378 50.9913 45.9532 52.1584C46.4687 53.3256 46.9259 54.4538 47.3895 55.6145C48.3167 57.9553 49.1467 60.3414 49.8761 62.747C50.236 63.9401 50.5699 65.1429 50.8682 66.3555C51.1967 67.5641 51.4373 68.795 51.588 70.0384C51.718 71.2798 51.608 72.5346 51.2638 73.7344C50.9062 74.9203 50.4474 76.0734 49.8924 77.1807C49.5519 77.881 49.4385 77.787 49.6006 77.4336C50.0642 76.4286 51.28 73.3843 51.1924 70.8263C51.1215 69.6016 50.9326 68.3867 50.6283 67.1984C50.3452 65.9729 50.0264 64.7571 49.6719 63.5511C48.9813 61.1714 48.1611 58.8403 47.3182 56.5125C46.8448 55.2157 46.3455 53.9189 45.8592 52.6221C45.3729 51.3252 44.8866 50.1322 44.3419 48.6992C44.3257 48.6408 44.3808 48.6181 44.3971 48.6538Z" fill="#263238"/>
<path d="M32.9555 44.7856C33.2246 44.6851 33.604 44.8504 33.8763 44.8958C34.229 44.9557 34.5854 44.9914 34.9429 45.0028C35.2967 45.0153 35.6509 45.0034 36.0031 44.9671C36.3577 44.958 36.7053 44.8658 37.0179 44.6981C37.5307 44.3245 37.9703 43.8596 38.3147 43.3267C38.725 42.7821 39.0639 42.1872 39.323 41.5565C39.323 41.5176 39.391 41.5565 39.3781 41.5824C39.2646 41.9423 39.1803 42.3054 39.0539 42.6588C38.9141 42.9908 38.7471 43.3107 38.5546 43.6152C38.2425 44.2279 37.7808 44.752 37.2124 45.139C36.5867 45.4956 35.7826 45.4632 35.0856 45.434C34.6813 45.4104 34.2793 45.3573 33.8828 45.2751C33.5975 45.2135 33.1176 45.1682 32.9361 44.9185C32.9276 44.909 32.9212 44.8977 32.9175 44.8854C32.9138 44.8731 32.9129 44.8602 32.9147 44.8475C32.9166 44.8348 32.9212 44.8227 32.9283 44.812C32.9353 44.8013 32.9446 44.7923 32.9555 44.7856Z" fill="#263238"/>
<path d="M22.0592 97.349C24.5361 93.5969 26.9676 89.8145 29.3538 86.0018C31.74 82.1891 34.0937 78.3473 36.415 74.4763C36.9694 73.5523 37.6081 72.6315 37.9647 71.607C38.3538 70.495 38.1333 69.4154 37.7832 68.3261C37.122 66.3388 36.3492 64.3905 35.4683 62.4903C34.5995 60.5743 33.6625 58.6906 32.7418 56.8005C31.821 54.9104 30.8581 53.043 30.1481 51.0718C29.4997 49.1882 29.2371 47.2364 29.7429 45.2847C30.2486 43.333 31.3379 41.6082 32.4759 39.9839C32.7742 39.556 33.0822 39.1313 33.3837 38.6871C33.4064 38.6547 33.455 38.6871 33.4323 38.726C32.1776 40.4184 30.9554 42.2112 30.2194 44.1986C29.8433 45.1782 29.6329 46.2136 29.597 47.2624C29.5908 48.3269 29.7561 49.3855 30.0865 50.3974C30.696 52.3686 31.6589 54.2328 32.557 56.0873C33.455 57.9417 34.4147 59.861 35.2998 61.7706C36.2128 63.6925 37.0245 65.661 37.7313 67.6679C38.0328 68.5595 38.3797 69.4932 38.3538 70.4496C38.3311 71.4968 37.8318 72.4403 37.3131 73.3221C35.0436 77.1639 32.7191 80.9604 30.3524 84.7342C27.9857 88.5079 25.5509 92.2817 23.0869 96.0166L22.1532 97.4268C22.1045 97.4852 22.0203 97.4171 22.0592 97.349Z" fill="#263238"/>
<path d="M49.2437 26.5013C50.6475 29.5813 57.7379 33.8251 61.0578 34.2823C63.444 34.6065 70.6997 34.7232 73.1864 34.3439C76.1042 33.8965 73.8737 26.0345 72.1522 26.2387C67.4188 26.7899 63.3986 27.4058 62.1342 27.4058C60.591 27.4058 52.2426 24.7279 51.2376 24.3486C48.7736 23.4311 48.4494 24.7538 49.2437 26.5013Z" fill="#F7AE9E"/>
<path d="M49.2892 27.3206C51.0658 29.9499 56.9696 34.2488 56.9696 34.2488L57.7898 32.4333L60.5035 26.429C60.5035 26.429 55.0795 24.7269 51.51 23.9488C51.0899 23.8532 50.6627 23.7925 50.2326 23.7672C47.9534 23.6441 47.7557 25.0511 49.2892 27.3206Z" fill="#97F675"/>
<path d="M49.2892 27.3197C51.0658 29.949 56.9696 34.248 56.9696 34.248L57.7898 32.4325C55.5885 29.8745 52.1876 26.0002 50.2326 23.7729C47.9534 23.6432 47.7557 25.0503 49.2892 27.3197Z" fill="#263238"/>
<path d="M55.9062 33.0294C56.3568 31.9238 58.3604 27.4725 58.8597 26.5453C58.8921 26.4804 58.944 26.4869 58.9148 26.5453C58.0457 28.7589 57.0565 30.9235 55.9516 33.0294C55.9386 33.0683 55.8867 33.0553 55.9062 33.0294Z" fill="#263238"/>
<path d="M71.2832 26.318C74.1622 25.9419 77.7252 25.2967 80.7436 26.5773C81.0826 26.7103 81.3669 26.9536 81.5508 27.2679C82.9125 27.819 83.0616 28.6263 83.0616 28.6263C84.1737 29.5276 84.2126 30.377 84.2126 30.377C84.2126 30.377 85.8077 31.0254 85.5645 32.0694C85.2987 33.2236 83.1135 32.0694 81.5249 32.1634C77.8776 32.3904 72.7713 33.7293 71.7176 33.8979L71.2832 26.318Z" fill="#F7AE9E"/>
<path d="M77.5371 29.7157C78.6035 29.6428 79.6738 29.6428 80.7402 29.7157C81.9016 29.8614 83.0504 30.0944 84.1768 30.4127C84.1841 30.4153 84.1922 30.4149 84.1992 30.4115C84.2062 30.4082 84.2115 30.4022 84.2141 30.3949C84.2167 30.3876 84.2163 30.3796 84.2129 30.3726C84.2096 30.3656 84.2036 30.3602 84.1963 30.3576C82.0802 29.5274 79.7767 29.2941 77.5371 29.6833C77.4852 29.6768 77.4852 29.7189 77.5371 29.7157Z" fill="#263238"/>
<path d="M76.8596 26.3483C78.6395 26.4391 79.7516 26.7244 81.5412 27.2626V27.2431C79.57 26.4196 78.7627 26.3418 76.8499 26.2705C76.7883 26.2964 76.7916 26.3483 76.8596 26.3483Z" fill="#263238"/>
<path d="M77.1482 32.7148C76.6846 32.9321 76.7981 33.1752 77.6832 33.3795C78.5683 33.5837 82.248 33.6453 82.1183 34.9292C81.9886 36.213 76.7981 36.0509 75.3489 35.597C73.8997 35.1432 71.7178 33.8982 71.7178 33.8982C72.7455 33.7264 75.1576 33.0747 77.1482 32.7148Z" fill="#F7AE9E"/>
<path d="M53.0986 31.4091C53.0759 31.9635 53.024 32.5276 52.9462 33.0885C52.9462 33.0658 52.9462 33.0463 52.9689 33.0269C53.0759 32.7351 53.1829 32.4368 53.3126 32.1548C53.3126 32.1548 53.345 32.1548 53.3418 32.1548C53.2794 32.4638 53.186 32.7658 53.0629 33.0561C53.0046 33.1955 52.9495 33.3316 52.8879 33.4678C52.849 33.7174 52.8036 33.9638 52.7549 34.2102C52.6577 34.6738 52.22 36.645 52.1065 36.979C52.0871 37.047 52.0028 37.0308 52.0093 36.953C52.032 36.5899 52.3983 34.5377 52.4729 34.0708C52.6177 33.1694 52.8114 32.2765 53.0532 31.3961C53.0694 31.3799 53.1018 31.3929 53.0986 31.4091Z" fill="#263238"/>
<path d="M49.7268 46.1498C48.8612 46.5939 47.7459 47.2845 42.7207 46.2957C42.3965 46.2308 42.0918 46.153 41.774 46.059C37.0633 44.6454 31.3994 39.1048 31.0914 38.7125C31.0914 38.7125 38.5774 26.5774 48.1512 22.7615C49.3345 22.2914 51.2927 23.1992 52.3659 24.3307C52.7517 24.7359 53.5914 27.7154 53.2704 30.1275C52.9494 32.5396 50.5892 45.7056 49.7268 46.1498Z" fill="#97F675"/>
<path d="M49.0525 30.0176C49.0887 30.5304 49.0169 31.045 48.8418 31.5284C48.8007 31.0154 48.8726 30.4997 49.0525 30.0176Z" fill="white"/>
<path d="M45.7875 38.2832C45.8081 38.5384 45.7994 38.7951 45.7616 39.0483C45.7303 39.3034 45.6683 39.5538 45.5768 39.794C45.5544 39.5378 45.5631 39.2798 45.6027 39.0256C45.6358 38.7719 45.6978 38.5228 45.7875 38.2832Z" fill="white"/>
<path d="M40.2406 32.0342C40.2771 32.548 40.2053 33.0639 40.0299 33.5482C39.9891 33.0342 40.0611 32.5175 40.2406 32.0342Z" fill="white"/>
<path d="M51.1891 37.8613C51.2098 38.1176 51.2011 38.3754 51.1632 38.6297C51.1319 38.8848 51.0699 39.1352 50.9784 39.3754C50.956 39.1191 50.9647 38.8611 51.0043 38.607C51.0371 38.3522 51.0991 38.102 51.1891 37.8613Z" fill="white"/>
<path d="M44.066 30.9642C44.3211 30.9425 44.5778 30.9501 44.8312 30.9869C45.0864 31.0192 45.3368 31.0824 45.5768 31.1749C45.064 31.2118 44.5492 31.14 44.066 30.9642Z" fill="white"/>
<path d="M37.7701 36.9329C38.2829 36.8968 38.7976 36.9686 39.2809 37.1437C38.768 37.1848 38.2523 37.1128 37.7701 36.9329Z" fill="white"/>
<path d="M45.188 43.3961C45.7008 43.3593 46.2156 43.4311 46.6988 43.6068C46.1859 43.6473 45.6703 43.5754 45.188 43.3961Z" fill="white"/>
<path d="M35.8281 41.0462C36.3409 41.0101 36.8556 41.0819 37.3389 41.2569C36.826 41.2974 36.3104 41.2255 35.8281 41.0462Z" fill="white"/>
<path d="M49.0039 24.2073C49.5167 24.1712 50.0314 24.243 50.5147 24.4181C50.0019 24.4542 49.4872 24.3824 49.0039 24.2073Z" fill="white"/>
<path d="M47.172 26.2764C47.0081 26.4734 46.8208 26.6498 46.6144 26.8016C46.4135 26.9569 46.196 27.0896 45.9659 27.1971C46.1288 27.0013 46.3137 26.8251 46.5171 26.6719C46.7199 26.516 46.9396 26.3833 47.172 26.2764Z" fill="white"/>
<path d="M37.1898 32.1533C37.0238 32.3486 36.8356 32.5238 36.6289 32.6753C36.43 32.8336 36.2122 32.9664 35.9805 33.0708C36.1472 32.8763 36.3354 32.7012 36.5413 32.5489C36.7407 32.3912 36.9584 32.2584 37.1898 32.1533Z" fill="white"/>
<path d="M49.6556 34.8066C49.4897 35.003 49.3015 35.1792 49.0947 35.3319C48.8954 35.4895 48.6776 35.6223 48.4463 35.7274C48.6121 35.5311 48.8004 35.3548 49.0072 35.2022C49.2076 35.0461 49.4251 34.9134 49.6556 34.8066Z" fill="white"/>
<path d="M41.5826 39.8896C41.4167 40.086 41.2285 40.2622 41.0217 40.4149C40.8221 40.572 40.6044 40.7048 40.3733 40.8104C40.5391 40.6141 40.7274 40.4378 40.9342 40.2852C41.1346 40.1292 41.3521 39.9965 41.5826 39.8896Z" fill="white"/>
<path d="M52.7485 27.8623C52.5826 28.0586 52.3944 28.2349 52.1876 28.3875C51.9867 28.5429 51.7692 28.6755 51.5392 28.7831C51.705 28.5867 51.8933 28.4105 52.1001 28.2578C52.2997 28.1007 52.5174 27.9679 52.7485 27.8623Z" fill="white"/>
<path d="M52.5799 33.7542C52.3836 33.5884 52.2073 33.4001 52.0547 33.1933C51.8969 32.9941 51.7641 32.7764 51.6592 32.5449C51.8562 32.7088 52.0326 32.8961 52.1844 33.1026C52.3393 33.3049 52.4719 33.5234 52.5799 33.7542Z" fill="white"/>
<path d="M34.5865 37.8109C34.3902 37.645 34.2139 37.4568 34.0613 37.25C33.9053 37.0496 33.7726 36.832 33.6658 36.6016C33.8621 36.7674 34.0384 36.9556 34.191 37.1624C34.3481 37.3621 34.4809 37.5798 34.5865 37.8109Z" fill="white"/>
<path d="M50.3916 42.6396C50.1945 42.4757 50.0182 42.2885 49.8664 42.082C49.711 41.8811 49.5784 41.6637 49.4708 41.4336C49.6672 41.5994 49.8434 41.7877 49.996 41.9945C50.1525 42.1934 50.2852 42.41 50.3916 42.6396Z" fill="white"/>
<path d="M42.4709 28.8769C42.2747 28.7122 42.0984 28.5251 41.9457 28.3193C41.791 28.118 41.6584 27.9006 41.5502 27.6709C41.7472 27.8348 41.9236 28.0221 42.0754 28.2285C42.2301 28.4299 42.3627 28.6473 42.4709 28.8769Z" fill="white"/>
<path d="M42.6106 45.388C42.4142 45.2221 42.238 45.0339 42.0853 44.8271C41.9298 44.6264 41.7972 44.4089 41.6898 44.1787C41.8868 44.3426 42.0632 44.5299 42.215 44.7363C42.371 44.9379 42.5037 45.1566 42.6106 45.388Z" fill="white"/>
<path d="M43.9558 35.6487C43.7613 35.482 43.5863 35.2938 43.4339 35.0879C43.2756 34.889 43.1427 34.6712 43.0383 34.4395C43.2336 34.6054 43.4088 34.7936 43.5603 35.0003C43.7179 35.1997 43.8507 35.4174 43.9558 35.6487Z" fill="white"/>
<path d="M50.6117 27.5634C49.3894 27.3364 48.2417 24.8109 48.0958 23.112C48.0958 22.9953 48.6664 22.0713 49.3181 20.9139C49.7136 20.2104 50.1318 19.4161 50.4658 18.6639C50.5339 18.5115 50.9326 19.027 50.9326 19.027L51.8015 19.6754L54.6707 21.8768C53.9875 22.6967 53.4072 23.5971 52.9427 24.558C52.8968 24.6621 52.8621 24.7708 52.839 24.8822C52.8377 24.9005 52.8377 24.919 52.839 24.9373C52.6607 25.5792 51.7885 27.7806 50.6117 27.5634Z" fill="#F7AE9E"/>
<path d="M52.839 24.8983C52.8377 24.9166 52.8377 24.9351 52.839 24.9534C52.6687 24.9035 52.5028 24.8395 52.343 24.7621C49.2014 23.2902 50.5858 19.082 50.5858 19.082L51.8178 19.6915L54.687 21.8929C54.0038 22.7128 53.4234 23.6132 52.959 24.5741C52.9076 24.6776 52.8673 24.7863 52.839 24.8983Z" fill="#263238"/>
<path d="M57.968 12.9199C57.968 12.9199 59.4043 13.8309 59.4107 15.452C59.4172 17.073 58.7623 18.6584 58.6262 18.7167C58.49 18.7751 57.968 12.9199 57.968 12.9199Z" fill="#263238"/>
<path d="M50.842 13.7622C49.9796 15.4643 50.025 20.8299 51.1013 22.2111C52.664 24.2147 55.6726 24.9052 57.4914 22.9243C59.2519 21.005 59.0703 14.0151 57.8156 12.7118C55.9904 10.786 52.1193 11.2432 50.842 13.7622Z" fill="#F7AE9E"/>
<path d="M55.4197 18.0576C55.4197 18.0576 55.3905 18.0771 55.3938 18.09C55.4132 18.4564 55.3743 18.8779 55.0469 19.0075C55.0469 19.0075 55.0469 19.0302 55.0469 19.027C55.4521 18.9622 55.4975 18.4013 55.4197 18.0576Z" fill="#263238"/>
<path d="M55.086 17.6852C54.496 17.6528 54.4765 18.8329 55.0244 18.8621C55.5723 18.8913 55.5788 17.7112 55.086 17.6852Z" fill="#263238"/>
<path d="M57.4203 18.0449C57.4203 18.0449 57.4494 18.0449 57.4494 18.0773C57.43 18.4437 57.4721 18.8652 57.8028 18.9916C57.8028 18.9916 57.8028 19.0143 57.8028 19.0111C57.3943 18.9495 57.3457 18.3886 57.4203 18.0449Z" fill="#263238"/>
<path d="M57.754 17.6688C58.3408 17.6331 58.37 18.8132 57.8254 18.8456C57.2807 18.8781 57.2612 17.6979 57.754 17.6688Z" fill="#263238"/>
<path d="M54.7162 16.7868C54.8711 16.7428 55.0237 16.6908 55.1733 16.6312C55.3436 16.6004 55.4988 16.5137 55.6143 16.3848C55.6423 16.3376 55.654 16.2825 55.6475 16.228C55.6411 16.1735 55.6169 16.1227 55.5786 16.0833C55.4909 16.0166 55.3869 15.9745 55.2775 15.9614C55.1681 15.9483 55.0571 15.9647 54.9561 16.0087C54.7373 16.0673 54.548 16.2047 54.4244 16.3945C54.3998 16.4397 54.3885 16.491 54.3921 16.5423C54.3957 16.5936 54.4139 16.6429 54.4447 16.6842C54.4754 16.7254 54.5173 16.7571 54.5654 16.7753C54.6135 16.7935 54.6659 16.7975 54.7162 16.7868Z" fill="#263238"/>
<path d="M58.1564 17.3097C57.9986 17.2745 57.8428 17.2312 57.6895 17.18C57.5187 17.1574 57.3601 17.0787 57.2388 16.9563C57.2076 16.9112 57.1925 16.8569 57.1961 16.8022C57.1996 16.7475 57.2215 16.6955 57.2583 16.6548C57.3419 16.5833 57.4432 16.5357 57.5516 16.5169C57.66 16.498 57.7715 16.5087 57.8743 16.5478C58.0961 16.5938 58.2926 16.721 58.4254 16.9045C58.4532 16.9479 58.4678 16.9984 58.4673 17.05C58.4669 17.1015 58.4515 17.1518 58.423 17.1948C58.3945 17.2377 58.3541 17.2715 58.3067 17.2919C58.2594 17.3123 58.2072 17.3185 58.1564 17.3097Z" fill="#263238"/>
<path d="M54.5899 21.5229C54.6774 21.6104 54.7617 21.7271 54.8946 21.7401C55.0309 21.74 55.1657 21.7113 55.2902 21.6558C55.2902 21.6558 55.3129 21.6558 55.2902 21.6752C55.2371 21.7465 55.1655 21.8019 55.0833 21.8356C55.001 21.8693 54.9112 21.88 54.8233 21.8665C54.7493 21.8463 54.6828 21.8048 54.632 21.7472C54.5813 21.6896 54.5486 21.6183 54.538 21.5423C54.5354 21.5354 54.5357 21.5278 54.5387 21.5211C54.5418 21.5144 54.5473 21.5092 54.5542 21.5066C54.5611 21.5041 54.5687 21.5043 54.5754 21.5074C54.5821 21.5104 54.5873 21.516 54.5899 21.5229Z" fill="#263238"/>
<path d="M56.71 19.9608C56.71 19.9608 56.7262 20.5055 56.71 20.7616C56.2119 20.7087 55.7087 20.7262 55.2154 20.8135C55.0987 20.8394 55.1117 20.7454 55.2446 20.6838C55.642 20.5022 56.0845 20.4435 56.5155 20.5152C56.5414 20.4471 56.4734 19.6723 56.5155 19.6755C56.7116 19.714 56.9015 19.7795 57.0796 19.87C57.0796 18.7288 56.8981 17.6006 56.9143 16.4594C56.9143 16.4205 56.9759 16.414 56.9824 16.4594C57.2128 17.6666 57.3214 18.894 57.3066 20.1229C57.3098 20.2623 56.8073 20.0127 56.71 19.9608Z" fill="#263238"/>
<path d="M55.9807 20.5673C55.8514 20.9072 55.6116 21.1938 55.2998 21.381C54.8103 21.5788 54.6514 21.1346 55.1442 20.7326C55.4026 20.602 55.692 20.5448 55.9807 20.5673Z" fill="#263238"/>
<path d="M55.4716 21.2808C55.4198 21.3229 55.3619 21.3568 55.2998 21.3813C54.8491 21.5628 54.6708 21.203 55.0339 20.8398C55.2803 20.8593 55.5624 20.9501 55.4716 21.2808Z" fill="#FF99BA"/>
<path d="M50.5955 18.35C51.1888 18.5315 51.8696 16.7484 52.0642 16.0805C52.2328 15.4775 52.4273 13.5615 52.4565 13.4285C52.4856 13.2956 55.0501 15.1241 56.535 14.6897C58.0198 14.2553 59.0281 12.9098 59.0508 12.2841C59.0735 11.6584 57.2158 10.0697 55.611 9.9887C54.0062 9.90764 51.8307 11.9339 51.8307 11.9339C52.0935 11.6357 52.332 11.317 52.544 10.9808C52.5181 10.9094 51.4806 11.3244 51.2893 12.0636C51.2893 12.0636 51.4968 11.1331 51.419 11.1169C51.3412 11.1007 50.5339 11.895 50.7155 12.4981C50.7155 12.4981 49.7818 13.3053 49.6975 14.1904C49.6132 15.0755 49.8985 18.136 50.5955 18.35Z" fill="#263238"/>
<path d="M57.5984 14.352C57.1568 14.5914 56.6812 14.7619 56.1881 14.8577C55.6346 14.9071 55.0776 14.818 54.5671 14.5984C54.0529 14.3997 53.5752 14.117 53.1536 13.7619C52.7807 13.4571 52.4468 13.0843 52.048 12.812C51.9475 12.7407 51.834 12.8865 51.8956 12.9773C52.5609 13.9171 53.5114 14.6174 54.606 14.9744C55.1144 15.1402 55.6571 15.1712 56.1811 15.0643C56.705 14.9575 57.1923 14.7165 57.5952 14.3649C57.5952 14.3649 57.6049 14.352 57.5984 14.352Z" fill="#263238"/>
<path d="M51.2149 18.1907C51.2149 18.1907 50.2942 16.3232 49.4642 16.6247C48.6342 16.9263 49.14 19.5102 49.9927 19.9835C50.0971 20.0511 50.2141 20.0969 50.3367 20.1181C50.4592 20.1394 50.5848 20.1357 50.7059 20.1072C50.827 20.0788 50.9411 20.0261 51.0414 19.9525C51.1417 19.8789 51.2261 19.7858 51.2895 19.6788L51.2149 18.1907Z" fill="#F7AE9E"/>
<path d="M49.6295 17.3613C49.6295 17.3613 49.61 17.3613 49.6295 17.3873C50.2196 17.7374 50.4595 18.3599 50.6021 19.0083C50.5753 18.9397 50.5338 18.8777 50.4806 18.8266C50.4275 18.7756 50.3638 18.7367 50.2942 18.7126C50.2245 18.6886 50.1504 18.6799 50.0771 18.6873C50.0037 18.6947 49.9329 18.718 49.8694 18.7554C49.85 18.7554 49.8694 18.7911 49.8694 18.7911C49.9854 18.773 50.1041 18.7914 50.2092 18.8437C50.3143 18.8959 50.4006 18.9795 50.4562 19.0829C50.549 19.256 50.6229 19.4386 50.6767 19.6275C50.6961 19.6891 50.8031 19.6729 50.7934 19.6048C50.9328 18.7976 50.4789 17.5753 49.6295 17.3613Z" fill="#263238"/>
<path d="M45.1359 26.5296C44.4875 30.2029 48.4687 42.5778 51.0203 44.8894C54.8167 48.326 61.8358 50.5857 64.3808 51.3217C65.4896 51.6459 68.5566 43.8422 67.4348 43.3267C65.0325 42.2342 57.5692 39.8999 56.8592 39.3163C56.1492 38.7327 51.8697 32.5501 49.9633 28.9903C47.4118 24.1985 45.4569 24.6719 45.1359 26.5296Z" fill="#F7AE9E"/>
<path d="M65.545 42.6396C65.545 42.6396 68.8584 43.4858 70.9949 44.1375C72.188 44.5038 74.1786 45.3111 74.934 45.979C76.0623 46.9808 80.1408 51.8828 78.9736 52.8975C77.9167 53.8183 74.947 49.1594 74.947 49.1594C74.947 49.1594 78.3577 53.5946 76.8922 54.4667C75.4268 55.3388 72.7456 49.6295 72.7456 49.6295C72.7456 49.6295 76.1466 54.2657 74.4834 54.9238C73.2255 55.4199 70.5281 50.3849 70.5281 50.3849C70.5281 50.3849 73.4265 54.3889 72.1491 54.9563C70.742 55.5852 67.9636 51.0917 67.9636 51.0917C64.4881 51.9898 62.4521 50.9945 61.1131 50.1191C60.7986 49.9051 65.545 42.6396 65.545 42.6396Z" fill="#F7AE9E"/>
<path d="M73.864 47.5483C74.2855 48.0541 74.7134 48.5663 75.0863 49.1078C75.4591 49.6492 75.8125 50.2068 76.1335 50.7807C76.5683 51.5229 76.9164 52.3127 77.1709 53.1344C76.6133 51.7079 75.3067 49.7465 74.9339 49.205C74.5611 48.6636 74.2142 48.1027 73.8446 47.5613C73.8348 47.5483 73.8543 47.5354 73.864 47.5483Z" fill="#263238"/>
<path d="M71.8832 48.8605C72.603 49.4311 74.1105 51.5514 74.6908 52.9747C74.7168 53.033 74.6908 53.0298 74.6487 52.9747C74.1948 52.2711 72.3533 49.5478 71.867 48.8702C71.8573 48.8605 71.8735 48.8507 71.8832 48.8605Z" fill="#263238"/>
<path d="M69.9799 49.6898C70.8742 50.6278 71.5807 51.7283 72.0613 52.9319C72.084 52.9902 72.0386 52.9805 72.003 52.9319C71.3319 51.8393 70.8131 50.9866 69.9443 49.719C69.9313 49.6898 69.9605 49.6606 69.9799 49.6898Z" fill="#263238"/>
<path d="M48.7541 26.7988C45.7941 22.6133 44.0239 24.163 44.6172 28.7083C45.1748 32.9587 46.6629 38.0228 46.6629 38.0228L54.1197 34.4046C54.1197 34.4046 50.6377 29.4799 48.7541 26.7988Z" fill="#97F675"/>
<path d="M50.5535 28.4463C50.6518 28.6827 50.7225 28.9296 50.7642 29.1822C50.8098 29.4357 50.8261 29.6935 50.8129 29.9506C50.7156 29.713 50.646 29.4649 50.6054 29.2114C50.5572 28.9594 50.5397 28.7025 50.5535 28.4463Z" fill="white"/>
<path d="M46.1344 30.9904C46.6102 30.7968 47.1223 30.7083 47.6355 30.731C47.399 30.8282 47.152 30.8979 46.8995 30.9385C46.6475 30.9866 46.3906 31.004 46.1344 30.9904Z" fill="white"/>
<path d="M46.3259 24.4805C46.1251 24.9543 45.8256 25.3798 45.4473 25.7287C45.648 25.2549 45.9476 24.8293 46.3259 24.4805Z" fill="white"/>
<path d="M52.6447 32.9453C52.5463 33.1824 52.4212 33.4076 52.2719 33.6164C52.1265 33.8279 51.9567 34.0216 51.7661 34.1935C51.9669 33.7197 52.2664 33.2942 52.6447 32.9453Z" fill="white"/>
<path d="M47.4572 35.485C47.2195 35.3878 46.9942 35.2626 46.7861 35.1122C46.5745 34.9669 46.3808 34.7972 46.209 34.6064C46.6828 34.8072 47.1083 35.1067 47.4572 35.485Z" fill="white"/>
<path d="M49.7268 28.0605C50.1256 28.6085 50.5373 29.1434 50.9458 29.6816C50.8421 29.4092 50.7513 29.1337 50.6735 28.8549H50.6929C50.774 29.0688 50.868 29.2796 50.9458 29.5033L51.0625 29.8275C51.0726 29.8496 51.0812 29.8723 51.0885 29.8956C51.4127 30.3138 51.7369 30.732 52.0351 31.16C52.4015 31.6722 52.7549 32.1909 53.1115 32.7097C53.4681 33.2284 53.828 33.8736 54.2138 34.3955C54.2495 34.4409 53.5654 34.7197 53.4908 34.7554C53.4163 34.7911 53.3774 34.7295 53.4487 34.7068C53.52 34.6841 54.0647 34.3502 54.0712 34.3437C53.7145 33.8185 53.3028 33.3354 52.93 32.8264C52.5571 32.3174 52.1875 31.8084 51.8277 31.2929C51.0982 30.2425 50.4303 29.1531 49.7041 28.0995L49.7268 28.0605Z" fill="#263238"/>
<path d="M44.7924 31.717C44.9059 31.9374 45.0291 32.1547 45.1166 32.3816L45.2398 32.6637C45.068 31.8564 44.9156 31.0426 44.7373 30.2354C45.081 31.5322 45.4279 32.8582 45.7456 34.1745C46.0471 35.4324 46.4135 36.7033 46.5885 37.9871C46.8146 37.888 47.0489 37.8088 47.2888 37.7505C47.0481 37.9063 46.7889 38.0315 46.5172 38.1233C46.1264 36.8178 45.8018 35.4933 45.5446 34.155C45.4635 33.7919 45.389 33.4288 45.3112 33.0657C45.2269 32.8452 45.1264 32.6345 45.0258 32.4173C44.9253 32.2 44.8346 31.9569 44.7438 31.7267C44.7632 31.7137 44.7859 31.7008 44.7924 31.717Z" fill="#263238"/>
<path d="M46.7733 36.7704C47.8107 36.1868 52.1454 33.9433 53.1147 33.5283C53.1828 33.4991 53.2185 33.5283 53.1504 33.5737C51.0929 34.7693 48.9716 35.8516 46.796 36.8158C46.77 36.8223 46.7441 36.7866 46.7733 36.7704Z" fill="#263238"/>
<path d="M165.572 122.006H66.793L81.0743 41.0029H179.854L165.572 122.006Z" fill="#97F675"/>
<path d="M114.882 32.6123H82.5558L81.0742 41.0028H115.67L114.882 32.6123Z" fill="#97F675"/>
<g opacity="0.1">
<path d="M165.573 122.006H66.7933L81.0746 41.0029H179.854L165.573 122.006Z" fill="black"/>
<path d="M114.883 32.6123H82.5562L81.0746 41.0028H115.671L114.883 32.6123Z" fill="black"/>
</g>
<path d="M79.0676 36.0354C78.8515 35.1077 78.8515 34.1426 79.0676 33.2148C79.2838 34.1426 79.2838 35.1077 79.0676 36.0354Z" fill="#263238"/>
<path d="M76.195 36.8658C75.8649 36.5235 75.5805 36.1399 75.3489 35.7246C75.1059 35.3179 74.9153 34.8822 74.7815 34.4277C75.1126 34.768 75.3971 35.1507 75.6277 35.5657C75.8701 35.9738 76.0607 36.4105 76.195 36.8658Z" fill="#263238"/>
<path d="M74.12 39.0216C73.209 38.7446 72.3738 38.2621 71.6787 37.6113C72.1332 37.7434 72.569 37.933 72.9755 38.1754C73.3909 38.4086 73.7754 38.6929 74.12 39.0216Z" fill="#263238"/>
<path d="M73.394 41.9268C72.4662 42.1429 71.5011 42.1429 70.5734 41.9268C71.5011 41.7106 72.4662 41.7106 73.394 41.9268Z" fill="#263238"/>
<path d="M74.2367 44.7998C73.893 45.1282 73.5096 45.4125 73.0955 45.646C72.689 45.8884 72.2532 46.078 71.7987 46.2101C72.141 45.88 72.5246 45.5956 72.9399 45.3639C73.3458 45.1203 73.7818 44.9307 74.2367 44.7998Z" fill="#263238"/>
<path d="M76.3895 46.8701C76.1135 47.7825 75.631 48.619 74.9792 49.3146C75.1113 48.8596 75.302 48.4236 75.5466 48.0178C75.7777 47.601 76.061 47.2153 76.3895 46.8701Z" fill="#263238"/>
<path d="M79.2946 47.5879C79.4076 48.0493 79.4621 48.5232 79.4567 48.9982C79.4637 49.4733 79.4092 49.9473 79.2946 50.4085C79.1784 49.9476 79.1239 49.4734 79.1325 48.9982C79.1271 48.5232 79.1815 48.0493 79.2946 47.5879Z" fill="#263238"/>
<path d="M82.167 46.7741C82.4971 47.1164 82.7815 47.5 83.0132 47.9153C83.2568 48.3212 83.4464 48.7571 83.5773 49.2121C82.9256 48.5165 82.443 47.68 82.167 46.7676V46.7741Z" fill="#263238"/>
<path d="M84.2385 44.6016C84.6935 44.7324 85.1294 44.9221 85.5354 45.1657C85.9507 45.3973 86.3343 45.6817 86.6766 46.0119C86.2216 45.881 85.7857 45.6913 85.3797 45.4477C84.9644 45.2161 84.5808 44.9317 84.2385 44.6016Z" fill="#263238"/>
<path d="M84.9552 41.6962C85.8841 41.4802 86.8502 41.4802 87.779 41.6962C86.8502 41.9123 85.8841 41.9123 84.9552 41.6962Z" fill="#263238"/>
<path d="M84.125 38.8244C84.4682 38.4962 84.8517 38.213 85.2662 37.9814C85.6714 37.7355 86.1075 37.5447 86.5631 37.4141C85.8674 38.0658 85.0309 38.5484 84.1185 38.8244H84.125Z" fill="#263238"/>
<path d="M81.9692 36.7525C82.1027 36.2985 82.2922 35.8628 82.5334 35.4557C82.765 35.0403 83.0494 34.6568 83.3795 34.3145C83.2486 34.7694 83.059 35.2054 82.8154 35.6113C82.5838 36.0266 82.2994 36.4102 81.9692 36.7525Z" fill="#263238"/>
<path d="M165.427 122.006H66.4366L52.379 43.9434H151.372L165.427 122.006Z" fill="#97F675"/>
<path d="M86.683 91.6649C88.9552 91.6649 90.7972 89.8229 90.7972 87.5507C90.7972 85.2785 88.9552 83.4365 86.683 83.4365C84.4108 83.4365 82.5688 85.2785 82.5688 87.5507C82.5688 89.8229 84.4108 91.6649 86.683 91.6649Z" fill="#263238"/>
<path d="M119.207 91.6649C121.48 91.6649 123.322 89.8229 123.322 87.5507C123.322 85.2785 121.48 83.4365 119.207 83.4365C116.935 83.4365 115.093 85.2785 115.093 87.5507C115.093 89.8229 116.935 91.6649 119.207 91.6649Z" fill="#263238"/>
<path d="M108.856 92.3233L108.629 91.8921C108.609 91.8532 106.482 87.9238 102.206 87.9238C98.3155 87.9238 97.3429 91.623 97.317 91.7818L97.2003 92.2519L96.2568 92.025L96.3703 91.5517C96.3703 91.5063 97.531 86.9512 102.206 86.9512C107.069 86.9512 109.394 91.2566 109.491 91.4414L109.718 91.8694L108.856 92.3233Z" fill="#263238"/>
<path d="M158.89 87.2331L158.822 86.9089C159.033 86.8635 159.24 86.8149 159.448 86.7598L159.529 87.084C159.308 87.1391 159.104 87.1877 158.89 87.2331Z" fill="#263238"/>
<path d="M160.783 86.7123L160.68 86.4076C161.085 86.2681 161.49 86.1158 161.883 85.9504L162.009 86.2487C161.61 86.4173 161.198 86.5729 160.783 86.7123ZM163.199 85.6781L163.053 85.3928C163.432 85.195 163.812 84.981 164.171 84.7444L164.34 85.02C163.97 85.2761 163.585 85.4933 163.199 85.6781ZM165.429 84.3067L165.238 84.0441C165.588 83.788 165.925 83.5189 166.243 83.2433L166.457 83.4865C166.117 83.7815 165.792 84.0571 165.426 84.3197L165.429 84.3067ZM167.407 82.5819L167.17 82.3582C167.469 82.034 167.751 81.7098 168.01 81.3856L168.266 81.5834C167.997 81.94 167.709 82.2739 167.414 82.5949L167.407 82.5819ZM169.012 80.507L168.736 80.3352C168.96 79.973 169.16 79.5961 169.333 79.2069L169.631 79.3399C169.448 79.7455 169.24 80.1396 169.009 80.52L169.012 80.507ZM170.085 78.1014L169.761 78.0106C169.879 77.6039 169.967 77.1888 170.023 76.7689L170.348 76.811C170.294 77.2519 170.205 77.6877 170.082 78.1144L170.085 78.1014ZM170.445 75.5077H170.121V75.4137C170.121 75.0214 170.098 74.6226 170.059 74.2304L170.383 74.1979C170.426 74.6018 170.447 75.0076 170.448 75.4137L170.445 75.5077ZM169.861 72.9692C169.774 72.5512 169.666 72.1379 169.537 71.7307L169.861 71.6335C169.994 72.0549 170.108 72.4829 170.185 72.9011L169.861 72.9692ZM169.093 70.5279C168.937 70.1454 168.769 69.7531 168.561 69.3575L168.853 69.2116C169.051 69.6137 169.232 70.0157 169.391 70.4047L169.093 70.5279ZM167.958 68.2163C167.757 67.8629 167.537 67.4901 167.31 67.1075L167.585 66.9357C167.822 67.3215 168.046 67.6976 168.234 68.0575L167.958 68.2163ZM166.603 66.015C166.366 65.6583 166.126 65.2985 165.88 64.9386L166.149 64.757C166.395 65.1169 166.635 65.4768 166.872 65.8399L166.603 66.015ZM165.144 63.8687C164.901 63.5121 164.655 63.1522 164.415 62.7956L164.684 62.614C164.924 62.9707 165.167 63.3305 165.41 63.6839L165.144 63.8687ZM163.695 61.7095C163.458 61.3464 163.228 60.9768 163.001 60.6072L163.277 60.4386C163.504 60.8082 163.734 61.1713 163.967 61.5344L163.695 61.7095ZM162.343 59.4822C162.122 59.0899 161.918 58.7009 161.733 58.328L162.025 58.1821C162.207 58.5517 162.411 58.9343 162.625 59.3233L162.343 59.4822ZM161.192 57.1479C161.02 56.7427 160.868 56.3309 160.725 55.9289L161.049 55.8251C161.185 56.2174 161.338 56.6227 161.506 57.0215L161.192 57.1479ZM160.349 54.6742C160.242 54.2527 160.148 53.8216 160.077 53.3774L160.401 53.3255C160.472 53.7405 160.56 54.162 160.667 54.577L160.349 54.6742ZM159.915 52.0806C159.882 51.6818 159.866 51.2798 159.866 50.8778V50.7708H160.19V50.8745C160.19 51.2668 160.19 51.6623 160.239 52.0514L159.915 52.0806ZM160.239 49.4869L159.915 49.4545C159.915 49.367 159.931 49.2762 159.941 49.1822C159.979 48.8353 160.028 48.4884 160.086 48.1577L160.411 48.2128C160.356 48.537 160.307 48.8774 160.268 49.2178C160.281 49.3183 160.281 49.4059 160.255 49.4966L160.239 49.4869ZM160.689 46.9646L160.365 46.8771C160.485 46.4491 160.625 46.0309 160.78 45.6321L161.082 45.7488C160.934 46.1502 160.809 46.5593 160.706 46.9743L160.689 46.9646ZM176.845 45.0745C176.663 45.0745 176.475 45.0485 176.29 45.0226C176.037 44.9869 175.785 44.9448 175.535 44.8961L175.6 44.5719C175.84 44.6173 176.089 44.6595 176.336 44.6951C176.511 44.7178 176.689 44.734 176.861 44.7438L176.845 45.0745ZM178.177 44.974L178.109 44.6497C178.516 44.5657 178.906 44.4145 179.263 44.2023L179.432 44.4779C179.05 44.7142 178.631 44.8852 178.193 44.9837L178.177 44.974ZM161.623 44.5881L161.335 44.4358C161.541 44.0491 161.769 43.6746 162.019 43.314L162.285 43.4988C162.048 43.8519 161.832 44.2189 161.639 44.5979L161.623 44.5881ZM174.267 44.5687C173.849 44.4359 173.437 44.2812 173.035 44.1051L173.168 43.8068C173.558 43.98 173.957 44.1305 174.364 44.2575L174.267 44.5687ZM180.427 43.5572L180.158 43.3756C180.389 43.0407 180.526 42.6499 180.554 42.2441L180.878 42.2668C180.85 42.7319 180.698 43.181 180.437 43.5669L180.427 43.5572ZM171.868 43.5085C171.489 43.288 171.122 43.0466 170.769 42.7856L170.96 42.5262C171.304 42.7794 171.661 43.0132 172.03 43.2265L171.868 43.5085ZM163.082 42.497L162.842 42.2798C163.136 41.9533 163.449 41.6448 163.779 41.3558L163.993 41.599C163.675 41.8835 163.374 42.1867 163.092 42.5067L163.082 42.497ZM169.758 41.9491C169.435 41.6517 169.128 41.3367 168.84 41.0057L169.083 40.7917C169.364 41.1132 169.661 41.4195 169.975 41.7092L169.758 41.9491ZM180.31 41.0705C180.125 40.7 179.868 40.3696 179.555 40.0979L179.769 39.8547C180.113 40.1527 180.397 40.515 180.602 40.9214L180.31 41.0705ZM165.001 40.8144L164.817 40.5485C165.179 40.3009 165.555 40.0726 165.942 39.8645L166.094 40.1498C165.722 40.3556 165.36 40.5807 165.011 40.8241L165.001 40.8144ZM168.03 39.9714C167.906 39.7964 167.786 39.6181 167.673 39.4333L167.251 39.5986L167.128 39.3003L167.501 39.1512C167.443 39.0539 167.384 38.9567 167.329 38.8594L167.611 38.7006C167.676 38.814 167.741 38.9275 167.809 39.0248C167.991 38.9599 168.175 38.8983 168.363 38.84L168.457 39.1642C168.299 39.2128 168.133 39.2647 167.984 39.3198C168.085 39.4787 168.188 39.644 168.308 39.7834L168.03 39.9714ZM178.511 39.4138C178.197 39.2575 177.872 39.1253 177.538 39.0183L177.325 38.9502L177.419 38.626L177.639 38.6973C177.986 38.808 178.325 38.9457 178.65 39.1091L178.511 39.4138ZM169.699 38.8335L169.631 38.5093C170.049 38.4153 170.484 38.3374 170.928 38.2758L170.977 38.6001C170.549 38.6681 170.124 38.7492 169.709 38.8432L169.699 38.8335ZM176.086 38.6584C175.681 38.5871 175.253 38.532 174.815 38.4931L174.841 38.1689C175.292 38.2078 175.729 38.2629 176.138 38.3374L176.086 38.6584ZM172.244 38.4704L172.221 38.1462C172.607 38.1235 172.993 38.1105 173.376 38.1105H173.535V38.4347H173.379C173.013 38.4444 172.63 38.4542 172.254 38.4801L172.244 38.4704ZM166.765 37.6955C166.59 37.3 166.441 36.8882 166.295 36.47L166.619 36.3695C166.755 36.778 166.908 37.18 167.076 37.5658L166.765 37.6955ZM165.945 35.2056C165.848 34.7874 165.767 34.353 165.705 33.9088L166.029 33.8634C166.091 34.2913 166.169 34.7161 166.263 35.1278L165.945 35.2056ZM165.582 32.612C165.566 32.3202 165.556 32.0219 165.556 31.7236C165.556 31.5842 165.556 31.4416 165.556 31.3022H165.88C165.88 31.4416 165.88 31.5777 165.88 31.7171C165.88 32.0089 165.88 32.304 165.903 32.586L165.582 32.612ZM165.968 30.0183L165.643 29.9859C165.689 29.5579 165.75 29.1203 165.825 28.6891L166.149 28.7442C166.062 29.1754 166 29.5904 165.958 30.0248L165.968 30.0183ZM166.412 27.4863L166.087 27.4084C166.191 26.9902 166.311 26.5687 166.444 26.1473L166.768 26.2478C166.622 26.6725 166.502 27.0842 166.402 27.4927L166.412 27.4863ZM167.19 25.032L166.888 24.9153C167.047 24.51 167.212 24.1048 167.41 23.7125L167.702 23.8551C167.508 24.2442 167.336 24.6397 167.18 25.0515L167.19 25.032ZM168.305 22.7204L168.023 22.5551C168.243 22.1822 168.48 21.8094 168.727 21.4528L168.992 21.6376C168.74 21.9942 168.509 22.3573 168.295 22.7269L168.305 22.7204ZM169.767 20.6098L169.514 20.4056C169.787 20.0814 170.078 19.7377 170.38 19.433L170.613 19.6567C170.309 19.9614 170.023 20.2856 169.758 20.6163L169.767 20.6098ZM171.531 18.7424L171.314 18.5025C171.638 18.2139 171.962 17.9286 172.309 17.6531L172.51 17.9092C172.163 18.1848 171.832 18.4668 171.521 18.7489L171.531 18.7424ZM173.544 17.1408L173.359 16.8717C173.713 16.6286 174.082 16.3887 174.459 16.1617L174.624 16.4373C174.248 16.6675 173.898 16.9042 173.535 17.1473L173.544 17.1408ZM175.746 15.8018L175.593 15.5165C175.976 15.3123 176.371 15.1178 176.767 14.9362L176.903 15.2312C176.491 15.416 176.112 15.6106 175.736 15.8083L175.746 15.8018ZM178.09 14.7255L177.97 14.4207C178.378 14.2619 178.79 14.0965 179.198 13.9766L179.302 14.3008C178.89 14.424 178.482 14.5731 178.08 14.732L178.09 14.7255Z" fill="#263238"/>
<path d="M180.589 13.904L180.508 13.5798C180.91 13.4761 181.157 13.4307 181.157 13.4307L181.215 13.7549C181.215 13.7549 180.982 13.8035 180.589 13.904Z" fill="#263238"/>
<path d="M186.321 11.8102C185.494 9.24894 179.957 10.1697 181.037 13.5187C182.116 16.8678 187.148 14.3746 186.321 11.8102Z" fill="#263238"/>
<path d="M178.025 10.7853C178.067 9.66028 179.63 8.79464 181.841 9.19342C184.052 9.59219 186.13 11.0835 186.13 11.0835C186.13 11.0835 183.948 12.4063 181.714 12.6495C179.481 12.8926 177.983 11.907 178.025 10.7853Z" fill="#EBEBEB"/>
<path d="M186.13 11.0781C184.982 11.0781 183.838 11.0457 182.693 11.01C181.549 10.9743 180.401 10.916 179.257 10.8252C180.404 10.8252 181.552 10.8544 182.697 10.89C183.841 10.9257 184.989 10.9841 186.13 11.0781Z" fill="#263238"/>
<path d="M180.246 9.78418C180.897 10.0959 181.512 10.4798 182.077 10.9286C181.751 10.7756 181.435 10.6024 181.131 10.4099C180.824 10.2187 180.528 10.0098 180.246 9.78418Z" fill="#263238"/>
<path d="M183.251 10.9697C182.665 11.445 182.029 11.8559 181.354 12.1952C181.944 11.7193 182.583 11.3084 183.261 10.9697H183.251Z" fill="#263238"/>
<path d="M183.585 10.3379C183.912 10.495 184.198 10.7258 184.421 11.0122C184.258 10.935 184.104 10.8381 183.964 10.7237C183.823 10.61 183.696 10.4805 183.585 10.3379Z" fill="#263238"/>
<path d="M180.132 17.4489C180.823 18.3372 182.596 18.1232 184.155 16.5087C185.715 14.8941 186.542 12.4658 186.542 12.4658C186.542 12.4658 183.987 12.6603 182.038 13.7626C180.09 14.8649 179.438 16.5573 180.132 17.4489Z" fill="#EBEBEB"/>
<path d="M186.542 12.4658C185.608 13.1142 184.7 13.834 183.789 14.531C182.878 15.2281 181.986 15.9478 181.114 16.6902C182.048 16.0418 182.956 15.3253 183.864 14.6283C184.771 13.9312 185.657 13.2115 186.542 12.4658Z" fill="#263238"/>
<path d="M182.515 16.9463C182.689 16.6314 182.843 16.3067 182.979 15.9737C183.117 15.6398 183.234 15.2977 183.329 14.9492C183.155 15.2639 183 15.5887 182.865 15.9218C182.729 16.2562 182.612 16.5983 182.515 16.9463Z" fill="#263238"/>
<path d="M184.272 14.235C183.514 14.1945 182.753 14.2347 182.003 14.355C182.381 14.3777 182.76 14.3777 183.137 14.355C183.518 14.3364 183.896 14.2964 184.272 14.235Z" fill="#263238"/>
<path d="M184.898 14.5563C184.985 14.3962 185.052 14.2265 185.099 14.0506C185.147 13.876 185.175 13.6965 185.183 13.5156C185.011 13.8366 184.913 14.1923 184.898 14.5563Z" fill="#263238"/>
<path d="M186.321 11.8088C186.138 11.8683 185.942 11.8721 185.756 11.8197C185.571 11.7673 185.406 11.6612 185.281 11.5146C185.156 11.3681 185.077 11.1878 185.055 10.9966C185.033 10.8054 185.067 10.6119 185.155 10.4405C185.243 10.2692 185.38 10.1277 185.548 10.034C185.716 9.94036 185.908 9.89871 186.1 9.91435C186.292 9.92998 186.475 10.0022 186.626 10.1219C186.776 10.2415 186.888 10.4033 186.947 10.5866C187.026 10.8316 187.004 11.0979 186.887 11.327C186.769 11.5561 186.566 11.7293 186.321 11.8088Z" fill="#455A64"/>
<path d="M186.918 13.6597C186.735 13.7189 186.539 13.7226 186.354 13.6701C186.169 13.6177 186.003 13.5116 185.878 13.3652C185.754 13.2189 185.675 13.0388 185.653 12.8478C185.63 12.6567 185.665 12.4633 185.752 12.2921C185.84 12.1208 185.976 11.9792 186.144 11.8854C186.312 11.7915 186.504 11.7496 186.696 11.7648C186.887 11.78 187.07 11.8517 187.221 11.9709C187.372 12.09 187.484 12.2513 187.544 12.4342C187.583 12.5558 187.598 12.6839 187.588 12.8113C187.578 12.9387 187.543 13.0628 187.485 13.1766C187.427 13.2904 187.347 13.3917 187.25 13.4746C187.152 13.5575 187.04 13.6204 186.918 13.6597Z" fill="#455A64"/>
<path d="M80.6268 12.8345C80.4714 14.3237 79.9054 15.7403 78.9917 16.9264C78.0781 18.1126 76.8528 19.0215 75.4526 19.5518C74.0525 20.082 72.5325 20.2128 71.0623 19.9295C69.5922 19.6462 68.2297 18.9599 67.1268 17.9473L63.084 18.5406L65.107 15.0456C64.6444 13.9084 64.447 12.6807 64.5299 11.4558C64.6127 10.231 64.9736 9.04104 65.5852 7.97651C66.1968 6.91198 67.0429 6.00082 68.0593 5.31225C69.0757 4.62368 70.2357 4.1758 71.4511 4.00264C72.6666 3.82948 73.9055 3.93559 75.0737 4.31291C76.242 4.69023 77.3089 5.32884 78.1935 6.18022C79.078 7.03161 79.7569 8.07338 80.1785 9.2264C80.6001 10.3794 80.7534 11.6134 80.6268 12.8345Z" fill="white"/>
<path d="M80.6269 12.8347C80.4748 14.3231 79.9138 15.7403 79.0059 16.9295C78.5623 17.5309 78.0273 18.0592 77.4205 18.4954C76.8269 18.9479 76.1719 19.3136 75.4753 19.5815C74.7782 19.856 74.0458 20.0306 73.2998 20.1002C72.9269 20.1337 72.5521 20.1413 72.1781 20.1229C71.8028 20.1133 71.4288 20.0742 71.0596 20.0062C69.5696 19.732 68.1854 19.0484 67.0621 18.0318L67.1561 18.0609L63.1197 18.6802L62.8247 18.7256L62.9738 18.4662L64.9839 14.9648V15.1042C64.5096 13.946 64.3079 12.6942 64.3945 11.4457C64.4811 10.1971 64.8536 8.9852 65.4832 7.90355C66.1121 6.8253 66.9765 5.90319 68.012 5.20615C69.0458 4.51837 70.2219 4.07358 71.4521 3.90514C72.6824 3.73669 73.9347 3.84896 75.1154 4.23353C76.2835 4.63094 77.348 5.28449 78.231 6.14635C79.1121 7.00606 79.7857 8.05516 80.2008 9.21404C80.616 10.3729 80.7617 11.6111 80.6269 12.8347ZM80.6269 12.8347C80.7579 11.6172 80.6074 10.3858 80.1869 9.23564C79.7664 8.0855 79.0872 7.04738 78.2018 6.20143C77.3163 5.35547 76.2483 4.72432 75.0802 4.35669C73.9121 3.98905 72.6751 3.89478 71.4648 4.08115C70.2666 4.2585 69.1252 4.70885 68.1287 5.39743C67.1408 6.09142 66.3155 6.9919 65.7101 8.03647C65.1141 9.08337 64.7627 10.2516 64.6824 11.4536C64.6035 12.6638 64.7985 13.8761 65.253 15.0004L65.2822 15.0718L65.2433 15.1398L63.2073 18.6283L63.0646 18.4143L67.1107 17.847H67.1658L67.2047 17.8826C68.2863 18.8893 69.6266 19.5752 71.0758 19.8635C71.4369 19.9371 71.8033 19.9816 72.1716 19.9965C72.5396 20.0224 72.9091 20.0224 73.2771 19.9965C74.0153 19.937 74.7418 19.7766 75.4363 19.5199C76.1325 19.2664 76.7878 18.9125 77.3816 18.4694C77.9859 18.0368 78.5215 17.5155 78.9702 16.923C79.8898 15.7396 80.4632 14.3244 80.6269 12.8347Z" fill="#263238"/>
<path d="M68.6407 15.7614C68.6345 15.6541 68.6504 15.5466 68.6874 15.4457C68.7245 15.3447 68.7819 15.2525 68.8561 15.1747C68.9302 15.0968 69.0196 15.0351 69.1187 14.9932C69.2177 14.9514 69.3243 14.9304 69.4318 14.9314C69.6519 14.9314 69.863 15.0189 70.0187 15.1745C70.1743 15.3302 70.2618 15.5413 70.2618 15.7614C70.2618 15.9815 70.1743 16.1926 70.0187 16.3483C69.863 16.5039 69.6519 16.5914 69.4318 16.5914C69.3243 16.5924 69.2177 16.5714 69.1187 16.5296C69.0196 16.4877 68.9302 16.426 68.8561 16.3481C68.7819 16.2703 68.7245 16.1781 68.6874 16.0771C68.6504 15.9762 68.6345 15.8687 68.6407 15.7614ZM68.9649 13.8453L68.7769 7.41309H70.0737L69.8857 13.8453H68.9649Z" fill="#97F675"/>
<path d="M71.7241 15.7614C71.7179 15.6543 71.7337 15.5471 71.7705 15.4464C71.8074 15.3457 71.8645 15.2536 71.9383 15.1759C72.0121 15.0981 72.1011 15.0363 72.1998 14.9942C72.2984 14.9522 72.4047 14.9308 72.5119 14.9314C72.732 14.9314 72.9431 15.0189 73.0988 15.1745C73.2544 15.3302 73.3419 15.5413 73.3419 15.7614C73.3419 15.9815 73.2544 16.1926 73.0988 16.3483C72.9431 16.5039 72.732 16.5914 72.5119 16.5914C72.4047 16.592 72.2984 16.5706 72.1998 16.5286C72.1011 16.4866 72.0121 16.4247 71.9383 16.347C71.8645 16.2692 71.8074 16.1771 71.7705 16.0764C71.7337 15.9757 71.7179 15.8685 71.7241 15.7614ZM72.0483 13.8453L71.87 7.41309H73.1668L72.9788 13.8453H72.0483Z" fill="#97F675"/>
<path d="M74.8043 15.7614C74.7981 15.6541 74.814 15.5466 74.851 15.4457C74.8881 15.3447 74.9454 15.2525 75.0196 15.1747C75.0938 15.0968 75.1832 15.0351 75.2822 14.9932C75.3813 14.9514 75.4878 14.9304 75.5954 14.9314C75.8155 14.9314 76.0266 15.0189 76.1822 15.1745C76.3379 15.3302 76.4253 15.5413 76.4253 15.7614C76.4253 15.9815 76.3379 16.1926 76.1822 16.3483C76.0266 16.5039 75.8155 16.5914 75.5954 16.5914C75.4878 16.5924 75.3813 16.5714 75.2822 16.5296C75.1832 16.4877 75.0938 16.426 75.0196 16.3481C74.9454 16.2703 74.8881 16.1781 74.851 16.0771C74.814 15.9762 74.7981 15.8687 74.8043 15.7614ZM75.1285 13.8453L74.9405 7.41309H76.2373L76.0525 13.8453H75.1285Z" fill="#97F675"/>
</g>
<defs>
<clipPath id="clip0_531_3502">
<rect width="198.402" height="129.999" fill="white"/>
</clipPath>
</defs>
</svg>
