<svg width="478" height="631" viewBox="0 0 478 631" fill="none" xmlns="http://www.w3.org/2000/svg">
<path d="M499.67 318.324C499.67 476.403 390.895 594.67 268 594.67C145.105 594.67 36.33 476.403 36.33 318.324C36.33 160.246 145.105 41.9784 268 41.9784C390.895 41.9784 499.67 160.246 499.67 318.324Z" stroke="white" stroke-width="72.66"/>
<mask id="path-2-inside-1_733_65" fill="white">
<path d="M496.431 241.207C496.431 177.235 474.649 115.883 435.877 70.648C397.105 25.4128 344.519 4.82976e-06 289.688 0C234.856 -4.82976e-06 182.27 25.4128 143.498 70.6479C104.727 115.883 82.9448 177.235 82.9448 241.207L289.688 241.207H496.431Z"/>
</mask>
<path d="M496.431 241.207C496.431 177.235 474.649 115.883 435.877 70.648C397.105 25.4128 344.519 4.82976e-06 289.688 0C234.856 -4.82976e-06 182.27 25.4128 143.498 70.6479C104.727 115.883 82.9448 177.235 82.9448 241.207L289.688 241.207H496.431Z" stroke="white" stroke-width="145.32" mask="url(#path-2-inside-1_733_65)"/>
</svg>
