<svg width="24" height="24" viewBox="0 0 24 24" fill="none" xmlns="http://www.w3.org/2000/svg">
<path d="M4 12C4 10.8954 4.89543 10 6 10H15C16.1046 10 17 10.8954 17 12V12C17 13.1046 16.1046 14 15 14H6C4.89543 14 4 13.1046 4 12V12Z" stroke="#ff5701" stroke-width="1.5"/>
<path d="M12 18C12 20.2091 13.7909 22 16 22C18.2091 22 20 20.2091 20 18C20 15.7909 18.2091 14 16 14C15.8007 14 15.6047 14.0146 15.4132 14.0427M12 18C12 15.9902 13.4823 14.3266 15.4132 14.0427M12 18H6C4.89543 18 4 17.1046 4 16C4 14.8954 4.89543 14 6 14H15C15.1417 14 15.2799 14.0147 15.4132 14.0427" stroke="#ff5701" stroke-width="1.5" />
<path d="M14 3.58579L12.7071 2.29289C12.3166 1.90237 11.6834 1.90237 11.2929 2.29289L10 3.58579M12 7L12 2.58579" stroke="#ff5701" stroke-width="1.5" stroke-linecap="round" fill="#ff5701" />
</svg>
