<svg width="100" height="100" viewBox="0 0 100 100" fill="none" xmlns="http://www.w3.org/2000/svg">
<circle cx="50" cy="50" r="50" fill="#1D3329"/>
<path d="M39.5833 49.9997C44.1667 49.9997 47.9167 46.2497 47.9167 41.6663C47.9167 37.083 44.1667 33.333 39.5833 33.333C35 33.333 31.25 37.083 31.25 41.6663C31.25 46.2497 35 49.9997 39.5833 49.9997ZM47.9167 66.6663V55.6247C45.625 54.7913 42.7083 54.1663 39.5833 54.1663C31.4583 54.1663 25 57.9163 25 62.4997V66.6663H47.9167ZM70.8333 33.333H56.25C53.9583 33.333 52.0833 35.208 52.0833 37.4997V62.4997C52.0833 64.7913 53.9583 66.6663 56.25 66.6663H70.8333C73.125 66.6663 75 64.7913 75 62.4997V37.4997C75 35.208 73.125 33.333 70.8333 33.333ZM62.5 62.4997H58.3333V37.4997H62.5V62.4997Z" fill="white"/>
</svg>
