<svg width="717" height="848" viewBox="0 0 717 848" fill="none" xmlns="http://www.w3.org/2000/svg">
<g filter="url(#filter0_d_625_1184)">
<rect width="641.575" height="772" transform="translate(34 34)" fill="#FEFEFE"/>
<path d="M86.6302 95.3552C89.9906 95.3552 92.2001 93.0766 92.2001 89.8313C92.2001 86.54 90.0136 84.3305 86.6302 84.3305H79.9786V101.155H82.9246V95.3552H86.6302ZM86.0548 86.9543C88.0112 86.9543 89.116 87.967 89.116 89.8083C89.116 91.6496 88.0342 92.7314 86.0088 92.7314H82.9246V86.9543H86.0548ZM97.1979 101.454C98.9701 101.454 100.512 100.649 100.996 99.4751L101.203 101.155H103.665V94.2504C103.665 91.0972 101.778 89.4401 98.7169 89.4401C95.6328 89.4401 93.6074 91.0512 93.6074 93.5139H96.001C96.001 92.3171 96.9217 91.6266 98.5788 91.6266C100.006 91.6266 100.926 92.248 100.926 93.7901V94.0433L97.5201 94.2965C94.8272 94.5036 93.3082 95.8155 93.3082 97.91C93.3082 100.05 94.7812 101.454 97.1979 101.454ZM98.1185 99.337C96.8526 99.337 96.1622 98.8306 96.1622 97.7949C96.1622 96.8743 96.8296 96.2989 98.5788 96.1378L100.95 95.9536V96.552C100.95 98.3013 99.8447 99.337 98.1185 99.337ZM105.12 106.426C105.741 106.587 106.431 106.679 107.214 106.679C109.078 106.679 110.275 105.805 111.127 103.687L116.697 89.7853H113.797L110.712 98.0711L107.789 89.7853H104.82L109.401 101.639L109.078 102.49C108.595 103.825 107.905 104.078 106.8 104.078H105.12V106.426Z" fill="#1D3329"/>
<rect x="78.1147" y="465.552" width="268.522" height="49.8683" fill="#F3F4F6"/>
<rect x="78.5942" y="466.031" width="267.563" height="48.9093" stroke="black" stroke-opacity="0.1" stroke-width="0.959006"/>
<path d="M85.2651 449.031V447.665H80.9074V444.028H86.0937V442.647H79.4037V453.741H80.9074V449.031H85.2651ZM92.3911 446.238V450.197C92.3911 451.808 91.6699 452.652 90.3503 452.652C89.2456 452.652 88.5551 452.038 88.5551 450.427V446.238H87.1127V450.903C87.1127 452.744 88.0948 453.925 89.844 453.925C90.9488 453.925 91.9461 453.388 92.3758 452.606L92.5292 453.741H93.8181V446.238H92.3911ZM97.3838 453.741V442.448H95.9415V453.741H97.3838ZM100.98 453.741V442.448H99.5377V453.741H100.98ZM109.048 453.741V445.164L114.726 453.741H116.229V442.647H114.726V451.225L109.048 442.647H107.544V453.741H109.048ZM120.762 453.925C121.974 453.925 123.002 453.388 123.385 452.529L123.539 453.741H124.766V449.031C124.766 447.005 123.508 446.023 121.651 446.023C119.718 446.023 118.429 447.051 118.429 448.616H119.687C119.687 447.711 120.378 447.174 121.59 447.174C122.603 447.174 123.355 447.619 123.355 448.877V449.092L120.992 449.276C119.227 449.414 118.199 450.273 118.199 451.654C118.199 453.02 119.15 453.925 120.762 453.925ZM121.176 452.805C120.24 452.805 119.657 452.406 119.657 451.608C119.657 450.872 120.178 450.381 121.452 450.258L123.37 450.105V450.504C123.37 451.915 122.541 452.805 121.176 452.805ZM128.206 453.741V449.291C128.206 448.095 128.927 447.343 130.017 447.343C131.029 447.343 131.674 447.987 131.674 449.169V453.741H133.101V449.291C133.101 448.095 133.822 447.327 134.912 447.327C135.924 447.327 136.584 448.003 136.584 449.184V453.741H137.996V448.831C137.996 447.097 136.952 446.023 135.234 446.023C134.068 446.023 133.162 446.606 132.809 447.542C132.426 446.606 131.597 446.023 130.431 446.023C129.372 446.023 128.574 446.514 128.191 447.22L128.053 446.238H126.764V453.741H128.206ZM143.233 453.925C145.089 453.925 146.348 453.02 146.716 451.409H145.366C145.12 452.268 144.384 452.729 143.263 452.729C141.836 452.729 141.008 451.854 140.9 450.273L146.7 450.258V449.721C146.7 447.496 145.304 446.023 143.171 446.023C140.992 446.023 139.504 447.65 139.504 449.997C139.504 452.33 141.023 453.925 143.233 453.925ZM143.171 447.235C144.445 447.235 145.258 448.064 145.258 449.307H140.931C141.115 447.987 141.913 447.235 143.171 447.235Z" fill="black"/>
<path d="M99.8795 491.351V489.586H95.7059V486.533H100.677V484.722H93.7419V495.938H95.7059V491.351H99.8795ZM106.847 488.358V492.333C106.847 493.775 106.28 494.465 105.098 494.465C104.055 494.465 103.487 493.882 103.487 492.44V488.358H101.615V493.1C101.615 494.956 102.643 496.138 104.392 496.138C105.405 496.138 106.387 495.647 106.847 494.926L106.986 495.938H108.719V488.358H106.847ZM112.54 495.938V484.522H110.684V495.938H112.54ZM116.391 495.938V484.522H114.535V495.938H116.391ZM124.7 495.938V487.99L129.979 495.938H131.912V484.722H129.979V492.67L124.716 484.722H122.767V495.938H124.7ZM136.374 496.138C137.556 496.138 138.584 495.601 138.906 494.818L139.044 495.938H140.686V491.335C140.686 489.233 139.428 488.128 137.387 488.128C135.331 488.128 133.98 489.202 133.98 490.844H135.576C135.576 490.046 136.19 489.586 137.295 489.586C138.246 489.586 138.86 490 138.86 491.028V491.197L136.589 491.366C134.794 491.504 133.781 492.379 133.781 493.775C133.781 495.202 134.763 496.138 136.374 496.138ZM136.988 494.726C136.144 494.726 135.684 494.389 135.684 493.698C135.684 493.084 136.129 492.701 137.295 492.593L138.875 492.471V492.87C138.875 494.036 138.139 494.726 136.988 494.726ZM144.397 495.938V491.642C144.397 490.415 145.118 489.832 146.008 489.832C146.898 489.832 147.466 490.399 147.466 491.458V495.938H149.338V491.642C149.338 490.399 150.028 489.816 150.933 489.816C151.823 489.816 152.406 490.384 152.406 491.473V495.938H154.263V490.982C154.263 489.233 153.25 488.128 151.409 488.128C150.258 488.128 149.368 488.696 148.985 489.571C148.586 488.696 147.788 488.128 146.637 488.128C145.548 488.128 144.78 488.619 144.397 489.248L144.243 488.358H142.525V495.938H144.397ZM159.492 496.138C161.471 496.138 162.852 495.141 163.174 493.483H161.441C161.226 494.205 160.551 494.604 159.523 494.604C158.28 494.604 157.574 493.928 157.436 492.593L163.144 492.578V492.01C163.144 489.647 161.701 488.128 159.43 488.128C157.206 488.128 155.656 489.77 155.656 492.148C155.656 494.496 157.236 496.138 159.492 496.138ZM159.446 489.663C160.566 489.663 161.287 490.353 161.287 491.397H157.482C157.666 490.261 158.341 489.663 159.446 489.663Z" fill="black" fill-opacity="0.3"/>
<rect x="363.899" y="465.552" width="268.522" height="49.8683" fill="#F3F4F6"/>
<rect x="364.378" y="466.031" width="267.563" height="48.9093" stroke="black" stroke-opacity="0.1" stroke-width="0.959006"/>
<path d="M369.5 449.782C371.663 449.782 373.075 448.279 373.075 446.207C373.075 444.074 371.678 442.647 369.5 442.647H365.188V453.741H366.692V449.782H369.5ZM369.239 443.998C370.65 443.998 371.494 444.796 371.494 446.192C371.494 447.558 370.666 448.432 369.177 448.432H366.692V443.998H369.239ZM375.975 453.726V449.644C375.975 448.355 376.727 447.343 378.123 447.343C379.197 447.343 379.918 447.956 379.918 449.476V453.741H381.361V449.153C381.361 447.235 380.44 446.023 378.522 446.023C377.356 446.023 376.45 446.576 375.975 447.389V442.448H374.532V453.726H375.975ZM382.867 449.982C382.867 452.299 384.524 453.925 386.78 453.925C389.02 453.925 390.677 452.299 390.677 449.982C390.677 447.665 389.02 446.038 386.78 446.038C384.524 446.038 382.867 447.665 382.867 449.982ZM384.325 449.982C384.325 448.417 385.322 447.327 386.78 447.327C388.222 447.327 389.235 448.417 389.235 449.982C389.235 451.547 388.222 452.636 386.78 452.636C385.322 452.636 384.325 451.547 384.325 449.982ZM393.716 453.741V449.767C393.716 448.309 394.499 447.343 395.849 447.343C396.954 447.343 397.66 447.956 397.66 449.476V453.741H399.102V449.153C399.102 447.235 398.197 446.023 396.217 446.023C395.159 446.023 394.207 446.529 393.732 447.389L393.578 446.238H392.274V453.741H393.716ZM404.337 453.925C406.194 453.925 407.452 453.02 407.821 451.409H406.47C406.225 452.268 405.488 452.729 404.368 452.729C402.941 452.729 402.113 451.854 402.005 450.273L407.805 450.258V449.721C407.805 447.496 406.409 446.023 404.276 446.023C402.097 446.023 400.609 447.65 400.609 449.997C400.609 452.33 402.128 453.925 404.337 453.925ZM404.276 447.235C405.55 447.235 406.363 448.064 406.363 449.307H402.036C402.22 447.987 403.018 447.235 404.276 447.235ZM415.361 453.741V445.164L421.038 453.741H422.542V442.647H421.038V451.225L415.361 442.647H413.857V453.741H415.361ZM430.067 446.238V450.197C430.067 451.808 429.345 452.652 428.026 452.652C426.921 452.652 426.23 452.038 426.23 450.427V446.238H424.788V450.903C424.788 452.744 425.77 453.925 427.519 453.925C428.624 453.925 429.622 453.388 430.051 452.606L430.205 453.741H431.494V446.238H430.067ZM435.029 453.741V449.291C435.029 448.095 435.75 447.343 436.839 447.343C437.852 447.343 438.496 447.987 438.496 449.169V453.741H439.923V449.291C439.923 448.095 440.644 447.327 441.734 447.327C442.747 447.327 443.406 448.003 443.406 449.184V453.741H444.818V448.831C444.818 447.097 443.775 446.023 442.056 446.023C440.89 446.023 439.985 446.606 439.632 447.542C439.248 446.606 438.42 446.023 437.253 446.023C436.195 446.023 435.397 446.514 435.013 447.22L434.875 446.238H433.586V453.741H435.029ZM448.122 453.741L448.229 452.376C448.72 453.404 449.718 453.925 450.899 453.925C453.078 453.925 454.428 452.299 454.428 450.028C454.428 447.711 453.139 446.023 450.991 446.023C449.764 446.023 448.751 446.545 448.26 447.527V442.448H446.817V453.741H448.122ZM448.275 449.967C448.275 448.432 449.165 447.327 450.638 447.327C452.111 447.327 452.986 448.432 452.986 449.967C452.986 451.516 452.111 452.621 450.638 452.621C449.165 452.621 448.275 451.532 448.275 449.967ZM459.256 453.925C461.112 453.925 462.37 453.02 462.739 451.409H461.388C461.143 452.268 460.406 452.729 459.286 452.729C457.859 452.729 457.031 451.854 456.923 450.273L462.723 450.258V449.721C462.723 447.496 461.327 446.023 459.194 446.023C457.015 446.023 455.527 447.65 455.527 449.997C455.527 452.33 457.046 453.925 459.256 453.925ZM459.194 447.235C460.468 447.235 461.281 448.064 461.281 449.307H456.954C457.138 447.987 457.936 447.235 459.194 447.235ZM468.631 446.177C468.339 446.115 468.124 446.085 467.863 446.085C466.835 446.085 466.084 446.606 465.777 447.389L465.685 446.253H464.334V453.741H465.777V449.767C465.777 448.325 466.621 447.496 467.986 447.496H468.631V446.177Z" fill="black"/>
<path d="M383.961 492.072C386.201 492.072 387.674 490.553 387.674 488.389C387.674 486.195 386.216 484.722 383.961 484.722H379.526V495.938H381.49V492.072H383.961ZM383.577 486.471C384.881 486.471 385.618 487.146 385.618 488.374C385.618 489.601 384.897 490.323 383.546 490.323H381.49V486.471H383.577ZM390.922 495.938V491.796C390.922 490.66 391.612 489.832 392.794 489.832C393.745 489.832 394.374 490.445 394.374 491.719V495.938H396.246V491.274C396.246 489.31 395.264 488.128 393.392 488.128C392.303 488.128 391.413 488.604 390.937 489.341V484.522H389.05V495.938H390.922ZM397.64 492.133C397.64 494.496 399.344 496.123 401.691 496.123C404.039 496.123 405.742 494.496 405.742 492.133C405.742 489.77 404.039 488.144 401.691 488.144C399.344 488.144 397.64 489.77 397.64 492.133ZM399.512 492.133C399.512 490.752 400.402 489.816 401.691 489.816C402.98 489.816 403.87 490.752 403.87 492.133C403.87 493.514 402.98 494.45 401.691 494.45C400.402 494.45 399.512 493.514 399.512 492.133ZM409.098 495.938V491.857C409.098 490.629 409.804 489.832 410.955 489.832C411.921 489.832 412.55 490.445 412.55 491.719V495.938H414.422V491.274C414.422 489.31 413.44 488.128 411.538 488.128C410.51 488.128 409.589 488.573 409.113 489.341L408.96 488.358H407.226V495.938H409.098ZM419.653 496.138C421.632 496.138 423.013 495.141 423.335 493.483H421.601C421.386 494.205 420.711 494.604 419.683 494.604C418.44 494.604 417.735 493.928 417.596 492.593L423.304 492.578V492.01C423.304 489.647 421.862 488.128 419.591 488.128C417.366 488.128 415.817 489.77 415.817 492.148C415.817 494.496 417.397 496.138 419.653 496.138ZM419.607 489.663C420.727 489.663 421.448 490.353 421.448 491.397H417.642C417.827 490.261 418.502 489.663 419.607 489.663ZM431.148 495.938V487.99L436.426 495.938H438.36V484.722H436.426V492.67L431.163 484.722H429.215V495.938H431.148ZM445.707 488.358V492.333C445.707 493.775 445.139 494.465 443.957 494.465C442.914 494.465 442.346 493.882 442.346 492.44V488.358H440.474V493.1C440.474 494.956 441.502 496.138 443.252 496.138C444.264 496.138 445.246 495.647 445.707 494.926L445.845 495.938H447.579V488.358H445.707ZM451.384 495.938V491.642C451.384 490.415 452.105 489.832 452.995 489.832C453.885 489.832 454.453 490.399 454.453 491.458V495.938H456.325V491.642C456.325 490.399 457.015 489.816 457.921 489.816C458.811 489.816 459.394 490.384 459.394 491.473V495.938H461.25V490.982C461.25 489.233 460.238 488.128 458.396 488.128C457.245 488.128 456.356 488.696 455.972 489.571C455.573 488.696 454.775 488.128 453.624 488.128C452.535 488.128 451.768 488.619 451.384 489.248L451.231 488.358H449.512V495.938H451.384ZM464.822 495.938L464.945 494.757C465.39 495.632 466.356 496.138 467.492 496.138C469.671 496.138 471.098 494.527 471.098 492.195C471.098 489.801 469.778 488.113 467.615 488.113C466.464 488.113 465.451 488.619 464.96 489.463V484.522H463.088V495.938H464.822ZM464.975 492.118C464.975 490.752 465.819 489.801 467.108 489.801C468.428 489.801 469.21 490.768 469.21 492.118C469.21 493.468 468.428 494.419 467.108 494.419C465.819 494.419 464.975 493.483 464.975 492.118ZM475.979 496.138C477.959 496.138 479.34 495.141 479.662 493.483H477.928C477.713 494.205 477.038 494.604 476.01 494.604C474.767 494.604 474.061 493.928 473.923 492.593L479.631 492.578V492.01C479.631 489.647 478.189 488.128 475.918 488.128C473.693 488.128 472.143 489.77 472.143 492.148C472.143 494.496 473.724 496.138 475.979 496.138ZM475.933 489.663C477.053 489.663 477.774 490.353 477.774 491.397H473.969C474.153 490.261 474.828 489.663 475.933 489.663ZM485.886 488.328C485.579 488.251 485.318 488.22 485.057 488.22C484.045 488.22 483.324 488.727 483.001 489.479L482.894 488.374H481.129V495.938H483.001V492.256C483.001 490.783 483.845 490.062 485.195 490.062H485.886V488.328Z" fill="black" fill-opacity="0.3"/>
<path d="M83.0704 569.781C86.354 569.781 88.5636 567.541 88.5636 564.242C88.5636 560.928 86.3234 558.687 83.009 558.687H79.4032V569.781H83.0704ZM82.9016 560.068C85.4334 560.068 86.9985 561.664 86.9985 564.242C86.9985 566.789 85.4334 568.385 82.963 568.385H80.9069V560.068H82.9016ZM93.4688 569.965C95.3254 569.965 96.5836 569.06 96.9519 567.449H95.6016C95.3561 568.308 94.6196 568.769 93.4995 568.769C92.0725 568.769 91.2439 567.894 91.1365 566.313L96.9366 566.298V565.761C96.9366 563.536 95.5402 562.063 93.4074 562.063C91.2285 562.063 89.7402 563.69 89.7402 566.037C89.7402 568.37 91.2592 569.965 93.4688 569.965ZM93.4074 563.275C94.681 563.275 95.4942 564.104 95.4942 565.347H91.1672C91.3513 564.027 92.1492 563.275 93.4074 563.275ZM98.5476 573.142H99.9899V568.554C100.481 569.474 101.478 569.981 102.675 569.981C104.9 569.981 106.158 568.262 106.158 565.976C106.158 563.674 104.823 562.063 102.675 562.063C101.478 562.063 100.466 562.6 99.9592 563.628L99.8518 562.278H98.5476V573.142ZM100.005 566.037C100.005 564.472 100.895 563.383 102.368 563.383C103.841 563.383 104.716 564.488 104.716 566.037C104.716 567.572 103.841 568.676 102.368 568.676C100.895 568.676 100.005 567.572 100.005 566.037ZM109.942 569.965C111.154 569.965 112.182 569.428 112.566 568.569L112.72 569.781H113.947V565.071C113.947 563.045 112.689 562.063 110.832 562.063C108.899 562.063 107.61 563.091 107.61 564.656H108.868C108.868 563.751 109.559 563.214 110.771 563.214C111.784 563.214 112.535 563.659 112.535 564.917V565.132L110.172 565.316C108.408 565.454 107.38 566.313 107.38 567.694C107.38 569.06 108.331 569.965 109.942 569.965ZM110.357 568.845C109.421 568.845 108.837 568.446 108.837 567.648C108.837 566.912 109.359 566.421 110.633 566.298L112.551 566.145V566.544C112.551 567.955 111.722 568.845 110.357 568.845ZM120.241 562.217C119.949 562.155 119.735 562.125 119.474 562.125C118.446 562.125 117.694 562.646 117.387 563.429L117.295 562.293H115.945V569.781H117.387V565.807C117.387 564.365 118.231 563.536 119.596 563.536H120.241V562.217ZM124.011 569.781V563.49H125.484V562.278H124.011V559.93H122.569V562.278H121.095V563.49H122.569V569.781H124.011ZM128.221 569.781V565.331C128.221 564.135 128.942 563.383 130.031 563.383C131.044 563.383 131.688 564.027 131.688 565.209V569.781H133.115V565.331C133.115 564.135 133.837 563.367 134.926 563.367C135.939 563.367 136.599 564.043 136.599 565.224V569.781H138.01V564.871C138.01 563.137 136.967 562.063 135.248 562.063C134.082 562.063 133.177 562.646 132.824 563.582C132.44 562.646 131.612 562.063 130.446 562.063C129.387 562.063 128.589 562.554 128.205 563.26L128.067 562.278H126.778V569.781H128.221ZM143.247 569.965C145.104 569.965 146.362 569.06 146.73 567.449H145.38C145.135 568.308 144.398 568.769 143.278 568.769C141.851 568.769 141.022 567.894 140.915 566.313L146.715 566.298V565.761C146.715 563.536 145.319 562.063 143.186 562.063C141.007 562.063 139.519 563.69 139.519 566.037C139.519 568.37 141.038 569.965 143.247 569.965ZM143.186 563.275C144.459 563.275 145.273 564.104 145.273 565.347H140.946C141.13 564.027 141.928 563.275 143.186 563.275ZM149.768 569.781V565.807C149.768 564.349 150.551 563.383 151.901 563.383C153.006 563.383 153.712 563.997 153.712 565.516V569.781H155.154V565.193C155.154 563.275 154.249 562.063 152.269 562.063C151.211 562.063 150.259 562.57 149.784 563.429L149.63 562.278H148.326V569.781H149.768ZM159.269 569.781V563.49H160.742V562.278H159.269V559.93H157.827V562.278H156.354V563.49H157.827V569.781H159.269Z" fill="black"/>
<rect x="78.1143" y="581.594" width="268.522" height="49.8683" fill="#F3F4F6"/>
<rect x="78.5938" y="582.073" width="267.563" height="48.9093" stroke="black" stroke-opacity="0.1" stroke-width="0.959006"/>
<path d="M93.0974 603.892C93.0974 605.611 94.0948 606.7 95.9975 607.114L97.7774 607.513C98.698 607.713 99.0816 608.158 99.0816 608.91C99.0816 609.846 98.2531 610.413 96.9488 610.413C95.6906 610.413 94.9234 609.846 94.908 608.894H92.944C92.99 610.904 94.5551 612.178 96.9488 612.178C99.4192 612.178 101.046 610.828 101.046 608.741C101.046 607.068 100.11 606.086 98.1917 605.672L96.4271 605.288C95.4911 605.074 95.0615 604.629 95.0615 603.831C95.0615 602.895 95.844 602.312 97.0562 602.312C98.161 602.312 98.8515 602.879 98.8975 603.846H100.862C100.8 601.821 99.3578 600.563 97.0869 600.563C94.7239 600.563 93.0974 601.928 93.0974 603.892ZM105.937 612.178C107.917 612.178 109.298 611.181 109.62 609.523H107.886C107.671 610.245 106.996 610.644 105.968 610.644C104.725 610.644 104.019 609.968 103.881 608.634L109.589 608.618V608.05C109.589 605.687 108.147 604.168 105.876 604.168C103.651 604.168 102.101 605.81 102.101 608.189C102.101 610.536 103.682 612.178 105.937 612.178ZM105.891 605.703C107.011 605.703 107.733 606.393 107.733 607.437H103.927C104.111 606.301 104.787 605.703 105.891 605.703ZM112.975 611.979V600.563H111.118V611.979H112.975ZM118.329 612.178C120.309 612.178 121.69 611.181 122.012 609.523H120.278C120.063 610.245 119.388 610.644 118.36 610.644C117.117 610.644 116.411 609.968 116.273 608.634L121.981 608.618V608.05C121.981 605.687 120.539 604.168 118.268 604.168C116.043 604.168 114.493 605.81 114.493 608.189C114.493 610.536 116.074 612.178 118.329 612.178ZM118.283 605.703C119.404 605.703 120.125 606.393 120.125 607.437H116.319C116.504 606.301 117.179 605.703 118.283 605.703ZM123.035 608.173C123.035 610.582 124.538 612.178 126.84 612.178C128.819 612.178 130.292 610.966 130.523 609.201H128.635C128.436 610.03 127.776 610.49 126.84 610.49C125.643 610.49 124.907 609.6 124.907 608.173C124.907 606.746 125.704 605.841 126.901 605.841C127.791 605.841 128.42 606.286 128.635 607.145H130.507C130.308 605.319 128.896 604.168 126.825 604.168C124.584 604.168 123.035 605.826 123.035 608.173ZM134.494 611.979V605.964H135.967V604.399H134.494V602.036H132.622V604.399H131.164V605.964H132.622V611.979H134.494ZM145.578 611.979C148.831 611.979 151.071 609.692 151.071 606.393C151.071 603.048 148.785 600.762 145.47 600.762H141.542V611.979H145.578ZM145.286 602.573C147.603 602.573 149 604.015 149 606.393C149 608.726 147.634 610.168 145.394 610.168H143.506V602.573H145.286ZM156.015 612.178C157.995 612.178 159.376 611.181 159.698 609.523H157.964C157.749 610.245 157.074 610.644 156.046 610.644C154.803 610.644 154.097 609.968 153.959 608.634L159.667 608.618V608.05C159.667 605.687 158.225 604.168 155.954 604.168C153.729 604.168 152.179 605.81 152.179 608.189C152.179 610.536 153.76 612.178 156.015 612.178ZM155.969 605.703C157.09 605.703 157.811 606.393 157.811 607.437H154.005C154.189 606.301 154.865 605.703 155.969 605.703ZM161.166 615.492H163.038V610.966C163.513 611.733 164.495 612.178 165.631 612.178C167.886 612.178 169.175 610.459 169.175 608.096C169.175 605.718 167.764 604.168 165.631 604.168C164.48 604.168 163.483 604.675 163.022 605.549L162.899 604.399H161.166V615.492ZM163.053 608.189C163.053 606.823 163.897 605.872 165.186 605.872C166.505 605.872 167.288 606.838 167.288 608.189C167.288 609.539 166.505 610.49 165.186 610.49C163.897 610.49 163.053 609.554 163.053 608.189ZM172.921 612.178C174.103 612.178 175.131 611.641 175.453 610.858L175.591 611.979H177.233V607.375C177.233 605.273 175.975 604.168 173.934 604.168C171.878 604.168 170.528 605.242 170.528 606.884H172.123C172.123 606.086 172.737 605.626 173.842 605.626C174.793 605.626 175.407 606.04 175.407 607.068V607.237L173.136 607.406C171.341 607.544 170.328 608.419 170.328 609.815C170.328 611.242 171.31 612.178 172.921 612.178ZM173.535 610.766C172.691 610.766 172.231 610.429 172.231 609.738C172.231 609.125 172.676 608.741 173.842 608.634L175.422 608.511V608.91C175.422 610.076 174.686 610.766 173.535 610.766ZM183.829 604.368C183.522 604.291 183.261 604.26 183 604.26C181.987 604.26 181.266 604.767 180.944 605.519L180.837 604.414H179.072V611.979H180.944V608.296C180.944 606.823 181.788 606.102 183.138 606.102H183.829V604.368ZM187.973 611.979V605.964H189.446V604.399H187.973V602.036H186.101V604.399H184.644V605.964H186.101V611.979H187.973ZM192.482 611.979V607.682C192.482 606.455 193.203 605.872 194.093 605.872C194.983 605.872 195.551 606.439 195.551 607.498V611.979H197.423V607.682C197.423 606.439 198.113 605.856 199.019 605.856C199.909 605.856 200.492 606.424 200.492 607.513V611.979H202.348V607.022C202.348 605.273 201.336 604.168 199.494 604.168C198.343 604.168 197.454 604.736 197.07 605.611C196.671 604.736 195.873 604.168 194.722 604.168C193.633 604.168 192.866 604.659 192.482 605.288L192.329 604.399H190.61V611.979H192.482ZM207.577 612.178C209.556 612.178 210.937 611.181 211.26 609.523H209.526C209.311 610.245 208.636 610.644 207.608 610.644C206.365 610.644 205.659 609.968 205.521 608.634L211.229 608.618V608.05C211.229 605.687 209.787 604.168 207.516 604.168C205.291 604.168 203.741 605.81 203.741 608.189C203.741 610.536 205.321 612.178 207.577 612.178ZM207.531 605.703C208.651 605.703 209.372 606.393 209.372 607.437H205.567C205.751 606.301 206.426 605.703 207.531 605.703ZM214.599 611.979V607.897C214.599 606.669 215.305 605.872 216.456 605.872C217.422 605.872 218.052 606.485 218.052 607.759V611.979H219.923V607.314C219.923 605.35 218.941 604.168 217.039 604.168C216.011 604.168 215.09 604.613 214.614 605.381L214.461 604.399H212.727V611.979H214.599ZM224.341 611.979V605.964H225.814V604.399H224.341V602.036H222.469V604.399H221.011V605.964H222.469V611.979H224.341Z" fill="black" fill-opacity="0.3"/>
<path d="M331.4 606.179L328.295 609.284C328.184 609.395 328.053 609.483 327.908 609.544C327.763 609.604 327.607 609.635 327.45 609.635C327.293 609.635 327.138 609.604 326.993 609.544C326.848 609.483 326.716 609.395 326.605 609.284L323.5 606.179C322.745 605.424 323.284 604.13 324.351 604.13H330.561C331.628 604.13 332.155 605.424 331.4 606.179Z" fill="black"/>
<rect x="78.1143" y="689.001" width="183.17" height="49.8683" rx="2.87702" fill="#1D3329"/>
<path d="M122.301 719.509V714.767C122.301 713.218 122.27 712.082 122.194 711.545L125.416 719.509H126.828L130.065 711.515C129.989 712.297 129.973 713.049 129.973 715.12V719.509H131.446V708.415H129.943L126.122 717.744L122.301 708.415H120.828V719.509H122.301ZM135.978 719.693C137.19 719.693 138.218 719.156 138.602 718.297L138.755 719.509H139.983V714.798C139.983 712.773 138.725 711.791 136.868 711.791C134.935 711.791 133.646 712.819 133.646 714.384H134.904C134.904 713.479 135.595 712.942 136.807 712.942C137.819 712.942 138.571 713.386 138.571 714.645V714.86L136.208 715.044C134.444 715.182 133.416 716.041 133.416 717.422C133.416 718.788 134.367 719.693 135.978 719.693ZM136.392 718.573C135.456 718.573 134.873 718.174 134.873 717.376C134.873 716.639 135.395 716.148 136.669 716.026L138.587 715.872V716.271C138.587 717.683 137.758 718.573 136.392 718.573ZM143.453 719.509V717.376L144.727 716.041L146.921 719.509H148.578L145.724 714.998L148.594 712.006H146.783L143.453 715.535V708.216H142.011V719.509H143.453ZM152.725 719.693C154.582 719.693 155.84 718.788 156.208 717.176H154.858C154.613 718.036 153.876 718.496 152.756 718.496C151.329 718.496 150.5 717.621 150.393 716.041L156.193 716.026V715.489C156.193 713.264 154.797 711.791 152.664 711.791C150.485 711.791 148.997 713.417 148.997 715.765C148.997 718.097 150.516 719.693 152.725 719.693ZM152.664 713.003C153.937 713.003 154.751 713.831 154.751 715.074H150.424C150.608 713.755 151.406 713.003 152.664 713.003ZM166.557 715.55C168.72 715.55 170.132 714.046 170.132 711.975C170.132 709.842 168.736 708.415 166.557 708.415H162.245V719.509H163.749V715.55H166.557ZM166.296 709.765C167.708 709.765 168.552 710.563 168.552 711.959C168.552 713.325 167.723 714.2 166.235 714.2H163.749V709.765H166.296ZM173.484 719.693C174.696 719.693 175.725 719.156 176.108 718.297L176.262 719.509H177.489V714.798C177.489 712.773 176.231 711.791 174.374 711.791C172.441 711.791 171.152 712.819 171.152 714.384H172.41C172.41 713.479 173.101 712.942 174.313 712.942C175.326 712.942 176.077 713.386 176.077 714.645V714.86L173.714 715.044C171.95 715.182 170.922 716.041 170.922 717.422C170.922 718.788 171.873 719.693 173.484 719.693ZM173.899 718.573C172.963 718.573 172.379 718.174 172.379 717.376C172.379 716.639 172.901 716.148 174.175 716.026L176.093 715.872V716.271C176.093 717.683 175.264 718.573 173.899 718.573ZM178.586 722.869C178.969 722.961 179.368 723.023 179.844 723.023C180.995 723.023 181.746 722.486 182.253 721.197L185.797 712.006H184.309L182.084 718.051L179.905 712.006H178.386L181.409 719.908L181.148 720.629C180.795 721.58 180.243 721.688 179.552 721.688H178.586V722.869ZM188.391 719.509V715.059C188.391 713.862 189.112 713.11 190.202 713.11C191.214 713.11 191.859 713.755 191.859 714.936V719.509H193.286V715.059C193.286 713.862 194.007 713.095 195.097 713.095C196.109 713.095 196.769 713.77 196.769 714.952V719.509H198.181V714.599C198.181 712.865 197.137 711.791 195.419 711.791C194.253 711.791 193.347 712.374 192.994 713.31C192.611 712.374 191.782 711.791 190.616 711.791C189.557 711.791 188.759 712.282 188.376 712.988L188.238 712.006H186.949V719.509H188.391ZM203.418 719.693C205.274 719.693 206.533 718.788 206.901 717.176H205.551C205.305 718.036 204.569 718.496 203.448 718.496C202.021 718.496 201.193 717.621 201.085 716.041L206.886 716.026V715.489C206.886 713.264 205.489 711.791 203.356 711.791C201.177 711.791 199.689 713.417 199.689 715.765C199.689 718.097 201.208 719.693 203.418 719.693ZM203.356 713.003C204.63 713.003 205.443 713.831 205.443 715.074H201.116C201.3 713.755 202.098 713.003 203.356 713.003ZM209.939 719.509V715.535C209.939 714.077 210.721 713.11 212.072 713.11C213.176 713.11 213.882 713.724 213.882 715.243V719.509H215.325V714.921C215.325 713.003 214.419 711.791 212.44 711.791C211.381 711.791 210.43 712.297 209.954 713.156L209.801 712.006H208.497V719.509H209.939ZM219.44 719.509V713.218H220.913V712.006H219.44V709.658H217.998V712.006H216.524V713.218H217.998V719.509H219.44Z" fill="white"/>
<rect width="555.265" height="46.0323" transform="translate(77.1553 136.614)" fill="#1D3329"/>
<path d="M90.173 153.987H88.2089V165.203H90.173V153.987ZM96.6948 165.203C99.9478 165.203 102.188 162.917 102.188 159.618C102.188 156.273 99.9017 153.987 96.5874 153.987H92.6593V165.203H96.6948ZM96.4033 155.797C98.7202 155.797 100.117 157.24 100.117 159.618C100.117 161.95 98.7509 163.393 96.5107 163.393H94.6234V155.797H96.4033ZM110.984 165.203V163.393H105.982V160.416H110.462V158.682H105.982V155.797H110.984V153.987H104.018V165.203H110.984ZM115.077 153.987H113.113V165.203H119.772V163.393H115.077V153.987ZM128.336 165.203V163.393H123.334V160.416H127.814V158.682H123.334V155.797H128.336V153.987H121.37V165.203H128.336ZM138.636 165.203C141.889 165.203 144.13 162.917 144.13 159.618C144.13 156.273 141.843 153.987 138.529 153.987H134.601V165.203H138.636ZM138.345 155.797C140.662 155.797 142.058 157.24 142.058 159.618C142.058 161.95 140.692 163.393 138.452 163.393H136.565V155.797H138.345ZM146.371 165.203L147.277 162.61H151.466L152.371 165.203H154.442L150.391 153.987H148.381L144.331 165.203H146.371ZM149.133 157.332C149.241 157.025 149.333 156.687 149.379 156.472C149.409 156.702 149.517 157.04 149.609 157.332L150.898 160.953H147.86L149.133 157.332ZM157.361 165.203H159.386L163.56 153.987H161.519L159.095 160.446C158.88 161.014 158.65 161.705 158.374 162.687C158.128 161.781 157.913 161.122 157.668 160.446L155.213 153.987H153.126L157.361 165.203ZM166.923 153.987H164.959V165.203H166.923V153.987ZM173.445 165.203C176.698 165.203 178.938 162.917 178.938 159.618C178.938 156.273 176.652 153.987 173.338 153.987H169.41V165.203H173.445ZM173.154 155.797C175.471 155.797 176.867 157.24 176.867 159.618C176.867 161.95 175.501 163.393 173.261 163.393H171.374V155.797H173.154Z" fill="white"/>
<path d="M78.3751 365.821H81.6587V375.227H83.6228V365.821H86.9064V364.01H78.3751V365.821ZM86.3979 371.421C86.3979 373.784 88.1011 375.411 90.4488 375.411C92.7964 375.411 94.4996 373.784 94.4996 371.421C94.4996 369.058 92.7964 367.432 90.4488 367.432C88.1011 367.432 86.3979 369.058 86.3979 371.421ZM88.2699 371.421C88.2699 370.04 89.1599 369.104 90.4488 369.104C91.7377 369.104 92.6276 370.04 92.6276 371.421C92.6276 372.802 91.7377 373.738 90.4488 373.738C89.1599 373.738 88.2699 372.802 88.2699 371.421ZM98.4863 375.227V369.212H99.9593V367.647H98.4863V365.284H96.6143V367.647H95.1566V369.212H96.6143V375.227H98.4863ZM103.334 375.426C104.515 375.426 105.543 374.889 105.865 374.106L106.004 375.227H107.645V370.623C107.645 368.521 106.387 367.416 104.346 367.416C102.29 367.416 100.94 368.491 100.94 370.132H102.536C102.536 369.334 103.15 368.874 104.254 368.874C105.206 368.874 105.819 369.288 105.819 370.316V370.485L103.549 370.654C101.753 370.792 100.741 371.667 100.741 373.063C100.741 374.49 101.723 375.426 103.334 375.426ZM103.947 374.014C103.104 374.014 102.643 373.677 102.643 372.986C102.643 372.373 103.088 371.989 104.254 371.882L105.835 371.759V372.158C105.835 373.324 105.098 374.014 103.947 374.014ZM111.372 375.227V363.811H109.515V375.227H111.372ZM114.747 369.825C115.422 369.825 115.99 369.273 115.99 368.613C115.99 367.938 115.422 367.386 114.747 367.386C114.072 367.386 113.504 367.938 113.504 368.613C113.504 369.273 114.072 369.825 114.747 369.825ZM114.747 375.411C115.422 375.411 115.99 374.858 115.99 374.199C115.99 373.523 115.422 372.971 114.747 372.971C114.072 372.971 113.504 373.523 113.504 374.199C113.504 374.858 114.072 375.411 114.747 375.411Z" fill="#0D9823"/>
<path d="M84.1971 206.625C86.8516 206.625 88.9077 205.059 89.3373 202.696H87.2966C86.9283 203.939 85.7622 204.737 84.2431 204.737C82.187 204.737 80.8674 203.203 80.8674 200.824C80.8674 198.431 82.1716 196.927 84.2431 196.927C85.7315 196.927 86.8516 197.694 87.2352 198.999H89.3066C88.923 196.59 86.9437 195.04 84.2891 195.04C81.0055 195.04 78.8113 197.357 78.8113 200.84C78.8113 204.354 80.9288 206.625 84.1971 206.625ZM93.0627 195.224H91.0987V206.44H97.758V204.63H93.0627V195.224ZM100.621 206.44L101.527 203.847H105.716L106.621 206.44H108.692L104.642 195.224H102.632L98.5807 206.44H100.621ZM103.383 198.569C103.491 198.262 103.583 197.924 103.629 197.71C103.66 197.94 103.767 198.277 103.859 198.569L105.148 202.19H102.11L103.383 198.569ZM109.455 198.354C109.455 200.073 110.452 201.162 112.355 201.576L114.134 201.975C115.055 202.175 115.439 202.62 115.439 203.372C115.439 204.308 114.61 204.875 113.306 204.875C112.048 204.875 111.28 204.308 111.265 203.356H109.301C109.347 205.366 110.912 206.64 113.306 206.64C115.776 206.64 117.403 205.29 117.403 203.203C117.403 201.53 116.467 200.548 114.549 200.134L112.784 199.75C111.848 199.536 111.419 199.091 111.419 198.293C111.419 197.357 112.201 196.774 113.413 196.774C114.518 196.774 115.209 197.341 115.255 198.308H117.219C117.157 196.283 115.715 195.024 113.444 195.024C111.081 195.024 109.455 196.39 109.455 198.354ZM118.64 198.354C118.64 200.073 119.637 201.162 121.54 201.576L123.32 201.975C124.241 202.175 124.624 202.62 124.624 203.372C124.624 204.308 123.796 204.875 122.491 204.875C121.233 204.875 120.466 204.308 120.451 203.356H118.487C118.533 205.366 120.098 206.64 122.491 206.64C124.962 206.64 126.588 205.29 126.588 203.203C126.588 201.53 125.652 200.548 123.734 200.134L121.97 199.75C121.034 199.536 120.604 199.091 120.604 198.293C120.604 197.357 121.387 196.774 122.599 196.774C123.704 196.774 124.394 197.341 124.44 198.308H126.404C126.343 196.283 124.9 195.024 122.629 195.024C120.266 195.024 118.64 196.39 118.64 198.354ZM136.536 206.44C139.789 206.44 142.029 204.154 142.029 200.855C142.029 197.51 139.743 195.224 136.429 195.224H132.501V206.44H136.536ZM136.245 197.034C138.562 197.034 139.958 198.477 139.958 200.855C139.958 203.187 138.592 204.63 136.352 204.63H134.465V197.034H136.245ZM143.782 202.344C143.782 204.983 145.501 206.625 148.217 206.625C150.948 206.625 152.667 204.967 152.667 202.344V195.224H150.702V202.221C150.702 203.817 149.813 204.722 148.217 204.722C146.621 204.722 145.746 203.832 145.746 202.221V195.224H143.782V202.344ZM162.049 206.44V204.63H157.046V201.653H161.527V199.919H157.046V197.034H162.049V195.224H155.082V206.44H162.049ZM163.533 198.354C163.533 200.073 164.531 201.162 166.434 201.576L168.213 201.975C169.134 202.175 169.518 202.62 169.518 203.372C169.518 204.308 168.689 204.875 167.385 204.875C166.127 204.875 165.359 204.308 165.344 203.356H163.38C163.426 205.366 164.991 206.64 167.385 206.64C169.855 206.64 171.482 205.29 171.482 203.203C171.482 201.53 170.546 200.548 168.628 200.134L166.863 199.75C165.927 199.536 165.498 199.091 165.498 198.293C165.498 197.357 166.28 196.774 167.492 196.774C168.597 196.774 169.288 197.341 169.334 198.308H171.298C171.236 196.283 169.794 195.024 167.523 195.024C165.16 195.024 163.533 196.39 163.533 198.354Z" fill="black"/>
<path d="M80.3238 304.259L81.2291 301.666H85.418L86.3234 304.259H88.3948L84.344 293.042H82.3339L78.283 304.259H80.3238ZM83.0857 296.387C83.1932 296.08 83.2852 295.743 83.3313 295.528C83.3619 295.758 83.4693 296.096 83.5614 296.387L84.8503 300.008H81.8122L83.0857 296.387ZM91.3971 304.259V299.962C91.3971 298.735 92.1183 298.152 93.0082 298.152C93.8982 298.152 94.4659 298.72 94.4659 299.778V304.259H96.3379V299.962C96.3379 298.72 97.0284 298.136 97.9337 298.136C98.8236 298.136 99.4067 298.704 99.4067 299.794V304.259H101.263V299.303C101.263 297.553 100.251 296.449 98.4093 296.449C97.2585 296.449 96.3686 297.016 95.985 297.891C95.586 297.016 94.7881 296.449 93.6373 296.449C92.5479 296.449 91.7807 296.94 91.3971 297.569L91.2437 296.679H89.5251V304.259H91.3971ZM102.656 300.453C102.656 302.816 104.359 304.443 106.707 304.443C109.055 304.443 110.758 302.816 110.758 300.453C110.758 298.09 109.055 296.464 106.707 296.464C104.359 296.464 102.656 298.09 102.656 300.453ZM104.528 300.453C104.528 299.072 105.418 298.136 106.707 298.136C107.996 298.136 108.886 299.072 108.886 300.453C108.886 301.834 107.996 302.77 106.707 302.77C105.418 302.77 104.528 301.834 104.528 300.453ZM117.202 296.679V300.653C117.202 302.095 116.634 302.786 115.453 302.786C114.409 302.786 113.842 302.203 113.842 300.76V296.679H111.97V301.42C111.97 303.277 112.998 304.458 114.747 304.458C115.76 304.458 116.742 303.967 117.202 303.246L117.34 304.259H119.074V296.679H117.202ZM122.879 304.259V300.177C122.879 298.95 123.585 298.152 124.736 298.152C125.703 298.152 126.332 298.766 126.332 300.039V304.259H128.204V299.594C128.204 297.63 127.222 296.449 125.319 296.449C124.291 296.449 123.37 296.894 122.895 297.661L122.741 296.679H121.007V304.259H122.879ZM132.621 304.259V298.244H134.094V296.679H132.621V294.316H130.749V296.679H129.291V298.244H130.749V304.259H132.621ZM136.669 298.858C137.345 298.858 137.912 298.305 137.912 297.645C137.912 296.97 137.345 296.418 136.669 296.418C135.994 296.418 135.427 296.97 135.427 297.645C135.427 298.305 135.994 298.858 136.669 298.858ZM136.669 304.443C137.345 304.443 137.912 303.891 137.912 303.231C137.912 302.556 137.345 302.003 136.669 302.003C135.994 302.003 135.427 302.556 135.427 303.231C135.427 303.891 135.994 304.443 136.669 304.443Z" fill="black"/>
<path d="M83.3504 334.068C85.6731 334.068 87.4722 332.699 87.8482 330.631H86.0625C85.7403 331.719 84.7199 332.417 83.3907 332.417C81.5916 332.417 80.437 331.074 80.437 328.993C80.437 326.899 81.5782 325.583 83.3907 325.583C84.693 325.583 85.6731 326.254 86.0088 327.396H87.8213C87.4857 325.288 85.7537 323.932 83.431 323.932C80.5578 323.932 78.6379 325.959 78.6379 329.007C78.6379 332.081 80.4907 334.068 83.3504 334.068ZM90.7201 333.907V330.282C90.7201 329.289 91.3243 328.564 92.3581 328.564C93.1905 328.564 93.741 329.101 93.741 330.215V333.907H95.3789V329.826C95.3789 328.107 94.5197 327.073 92.8817 327.073C91.9284 327.073 91.1497 327.49 90.7335 328.134V323.918H89.0821V333.907H90.7201ZM98.9619 334.082C99.9957 334.082 100.895 333.612 101.177 332.927L101.298 333.907H102.735V329.879C102.735 328.04 101.634 327.073 99.8481 327.073C98.049 327.073 96.8675 328.013 96.8675 329.45H98.2638C98.2638 328.752 98.8008 328.349 99.7675 328.349C100.6 328.349 101.137 328.711 101.137 329.611V329.759L99.1499 329.906C97.579 330.027 96.6929 330.792 96.6929 332.014C96.6929 333.263 97.5522 334.082 98.9619 334.082ZM99.499 332.847C98.7605 332.847 98.3578 332.551 98.3578 331.947C98.3578 331.41 98.7471 331.074 99.7675 330.98L101.15 330.873V331.222C101.15 332.242 100.506 332.847 99.499 332.847ZM108.506 327.248C108.237 327.181 108.009 327.154 107.781 327.154C106.895 327.154 106.264 327.597 105.982 328.255L105.888 327.288H104.344V333.907H105.982V330.685C105.982 329.396 106.72 328.765 107.902 328.765H108.506V327.248ZM109.068 330.443C109.068 332.363 110.303 333.773 112.183 333.773C113.136 333.773 113.955 333.384 114.372 332.766V333.867C114.372 334.968 113.647 335.679 112.519 335.679C111.512 335.679 110.854 335.169 110.746 334.31H109.108C109.31 336.082 110.612 337.17 112.519 337.17C114.667 337.17 115.996 335.787 115.996 333.572V327.275H114.479L114.385 328.188C113.996 327.476 113.217 327.06 112.223 327.06C110.33 327.06 109.068 328.51 109.068 330.443ZM110.72 330.403C110.72 329.316 111.418 328.497 112.505 328.497C113.647 328.497 114.331 329.275 114.331 330.403C114.331 331.558 113.633 332.35 112.505 332.35C111.431 332.35 110.72 331.517 110.72 330.403ZM120.658 334.082C122.39 334.082 123.599 333.209 123.881 331.759H122.363C122.176 332.39 121.585 332.739 120.685 332.739C119.598 332.739 118.98 332.148 118.859 330.98L123.854 330.967V330.47C123.854 328.403 122.592 327.073 120.605 327.073C118.658 327.073 117.302 328.51 117.302 330.591C117.302 332.645 118.685 334.082 120.658 334.082ZM120.618 328.416C121.598 328.416 122.229 329.02 122.229 329.933H118.9C119.061 328.94 119.651 328.416 120.618 328.416ZM124.655 331.893C124.655 333.196 125.702 334.082 127.353 334.082C128.991 334.082 130.132 333.249 130.132 331.907C130.132 330.886 129.568 330.376 128.454 330.121L127.259 329.839C126.695 329.705 126.4 329.463 126.4 329.087C126.4 328.59 126.776 328.295 127.42 328.295C128.051 328.295 128.427 328.658 128.441 329.222H129.998C129.985 327.933 128.978 327.073 127.487 327.073C125.957 327.073 124.856 327.852 124.856 329.154C124.856 330.215 125.433 330.779 126.628 331.047L127.823 331.329C128.414 331.464 128.588 331.705 128.588 332.041C128.588 332.524 128.172 332.833 127.407 332.833C126.655 332.833 126.225 332.471 126.212 331.893H124.655ZM132.615 329.181C133.205 329.181 133.702 328.698 133.702 328.121C133.702 327.53 133.205 327.046 132.615 327.046C132.024 327.046 131.527 327.53 131.527 328.121C131.527 328.698 132.024 329.181 132.615 329.181ZM132.615 334.068C133.205 334.068 133.702 333.585 133.702 333.008C133.702 332.417 133.205 331.934 132.615 331.934C132.024 331.934 131.527 332.417 131.527 333.008C131.527 333.585 132.024 334.068 132.615 334.068Z" fill="black"/>
<path d="M83.8117 231.454C86.1344 231.454 87.9335 230.085 88.3094 228.017H86.5238C86.2016 229.105 85.1812 229.803 83.852 229.803C82.0529 229.803 80.8982 228.46 80.8982 226.379C80.8982 224.285 82.0395 222.969 83.852 222.969C85.1543 222.969 86.1344 223.64 86.4701 224.781H88.2826C87.9469 222.673 86.215 221.317 83.8923 221.317C81.0191 221.317 79.0992 223.345 79.0992 226.392C79.0992 229.467 80.952 231.454 83.8117 231.454ZM91.5692 221.478H89.8506V231.293H95.6775V229.709H91.5692V221.478ZM98.1831 231.293L98.9752 229.024H102.641L103.433 231.293H105.245L101.701 221.478H99.9419L96.3974 231.293H98.1831ZM100.6 224.405C100.694 224.137 100.774 223.841 100.815 223.654C100.841 223.855 100.935 224.15 101.016 224.405L102.144 227.574H99.4854L100.6 224.405ZM105.912 224.217C105.912 225.721 106.785 226.674 108.45 227.037L110.007 227.386C110.813 227.561 111.148 227.95 111.148 228.608C111.148 229.427 110.423 229.924 109.282 229.924C108.181 229.924 107.51 229.427 107.496 228.594H105.778C105.818 230.353 107.187 231.468 109.282 231.468C111.444 231.468 112.867 230.286 112.867 228.46C112.867 226.997 112.048 226.137 110.369 225.775L108.825 225.439C108.006 225.251 107.631 224.862 107.631 224.164C107.631 223.345 108.315 222.835 109.376 222.835C110.343 222.835 110.947 223.331 110.987 224.177H112.706C112.652 222.405 111.39 221.304 109.403 221.304C107.335 221.304 105.912 222.499 105.912 224.217ZM113.949 224.217C113.949 225.721 114.822 226.674 116.487 227.037L118.044 227.386C118.85 227.561 119.185 227.95 119.185 228.608C119.185 229.427 118.46 229.924 117.319 229.924C116.218 229.924 115.547 229.427 115.534 228.594H113.815C113.855 230.353 115.225 231.468 117.319 231.468C119.481 231.468 120.904 230.286 120.904 228.46C120.904 226.997 120.085 226.137 118.407 225.775L116.863 225.439C116.044 225.251 115.668 224.862 115.668 224.164C115.668 223.345 116.353 222.835 117.413 222.835C118.38 222.835 118.984 223.331 119.024 224.177H120.743C120.689 222.405 119.427 221.304 117.44 221.304C115.372 221.304 113.949 222.499 113.949 224.217ZM129.609 231.293C132.455 231.293 134.415 229.292 134.415 226.406C134.415 223.479 132.415 221.478 129.515 221.478H126.077V231.293H129.609ZM129.353 223.063C131.381 223.063 132.603 224.325 132.603 226.406C132.603 228.447 131.408 229.709 129.447 229.709H127.796V223.063H129.353ZM135.949 227.708C135.949 230.017 137.452 231.454 139.829 231.454C142.219 231.454 143.722 230.004 143.722 227.708V221.478H142.004V227.601C142.004 228.997 141.225 229.789 139.829 229.789C138.433 229.789 137.667 229.011 137.667 227.601V221.478H135.949V227.708ZM151.932 231.293V229.709H147.555V227.104H151.475V225.587H147.555V223.063H151.932V221.478H145.836V231.293H151.932ZM153.231 224.217C153.231 225.721 154.104 226.674 155.769 227.037L157.326 227.386C158.132 227.561 158.467 227.95 158.467 228.608C158.467 229.427 157.742 229.924 156.601 229.924C155.5 229.924 154.829 229.427 154.815 228.594H153.097C153.137 230.353 154.507 231.468 156.601 231.468C158.763 231.468 160.186 230.286 160.186 228.46C160.186 226.997 159.367 226.137 157.689 225.775L156.145 225.439C155.326 225.251 154.95 224.862 154.95 224.164C154.95 223.345 155.634 222.835 156.695 222.835C157.662 222.835 158.266 223.331 158.306 224.177H160.025C159.971 222.405 158.709 221.304 156.722 221.304C154.654 221.304 153.231 222.499 153.231 224.217Z" fill="black" fill-opacity="0.6"/>
<line x1="78.1143" y1="256.25" x2="632.42" y2="256.25" stroke="black" stroke-opacity="0.6" stroke-width="0.479503"/>
<line x1="78.1143" y1="408.732" x2="632.42" y2="408.732" stroke="black" stroke-opacity="0.6" stroke-width="0.479503"/>
<path d="M165.905 304.121V302.725H160.78L163.082 300.73C165.046 299.027 165.828 297.907 165.828 296.327C165.828 294.194 164.401 292.843 162.177 292.843C159.921 292.843 158.417 294.393 158.371 296.772H159.875C159.906 295.191 160.796 294.194 162.161 294.194C163.496 294.194 164.294 295.022 164.294 296.419C164.294 297.6 163.788 298.352 161.992 299.902L158.417 302.986V304.137L165.905 304.121ZM169.879 303.538C169.879 302.694 169.357 302.157 168.713 302.157C168.099 302.157 167.685 302.602 167.685 303.216C167.685 303.784 168.114 304.152 168.621 304.152C168.805 304.152 168.928 304.121 169.035 304.06C169.035 304.536 168.59 304.95 167.961 305.057V305.702C169.05 305.564 169.879 304.643 169.879 303.538ZM171.035 298.597C171.035 302.05 172.738 304.336 175.608 304.336C178.462 304.336 180.165 302.05 180.165 298.597C180.165 295.16 178.385 292.828 175.608 292.828C172.815 292.828 171.035 295.16 171.035 298.597ZM172.524 298.597C172.524 295.836 173.659 294.178 175.608 294.178C177.557 294.178 178.677 295.836 178.677 298.597C178.677 301.329 177.557 302.986 175.608 302.986C173.659 302.986 172.524 301.329 172.524 298.597ZM181.674 298.597C181.674 302.05 183.377 304.336 186.247 304.336C189.101 304.336 190.804 302.05 190.804 298.597C190.804 295.16 189.024 292.828 186.247 292.828C183.454 292.828 181.674 295.16 181.674 298.597ZM183.163 298.597C183.163 295.836 184.298 294.178 186.247 294.178C188.195 294.178 189.316 295.836 189.316 298.597C189.316 301.329 188.195 302.986 186.247 302.986C184.298 302.986 183.163 301.329 183.163 298.597ZM192.313 298.597C192.313 302.05 194.016 304.336 196.886 304.336C199.74 304.336 201.443 302.05 201.443 298.597C201.443 295.16 199.663 292.828 196.886 292.828C194.093 292.828 192.313 295.16 192.313 298.597ZM193.802 298.597C193.802 295.836 194.937 294.178 196.886 294.178C198.834 294.178 199.955 295.836 199.955 298.597C199.955 301.329 198.834 302.986 196.886 302.986C194.937 302.986 193.802 301.329 193.802 298.597Z" fill="black"/>
<path d="M144.925 296.768H146.204V292.932H147.483L149.669 296.768H152.597V292.932H153.876V296.768H155.155V298.046H153.876V299.325H155.155V300.604H153.876V304.44H152.597L150.404 300.604H147.483V304.44H146.204V300.604H144.925V299.325H146.204V298.046H144.925V296.768ZM147.483 296.768H148.205L147.483 295.508V296.768ZM147.483 298.046V299.325H149.669L148.94 298.046H147.483ZM152.597 301.882V300.604H151.862L152.597 301.882ZM150.398 298.046L151.133 299.325H152.597V298.046H150.398Z" fill="black" stroke="black" stroke-width="0.287702"/>
<path d="M144.14 375.087V373.261H139.475L141.5 371.527C143.204 370.07 144.063 368.888 144.063 367.323C144.063 365.052 142.574 363.687 140.181 363.687C137.802 363.687 136.237 365.282 136.222 367.737H138.171C138.186 366.295 138.953 365.436 140.181 365.436C141.362 365.436 142.053 366.157 142.053 367.43C142.053 368.505 141.546 369.241 140.027 370.53L136.36 373.63V375.103L144.14 375.087ZM148.367 374.427C148.367 373.476 147.815 372.847 147.048 372.847C146.357 372.847 145.882 373.338 145.882 374.074C145.882 374.688 146.373 375.133 146.971 375.133C147.155 375.133 147.293 375.103 147.416 375.041C147.416 375.578 146.894 375.992 146.204 376.115V376.867C147.447 376.714 148.367 375.701 148.367 374.427ZM150.828 365.651V375.103H152.716V363.886H148.373V365.651H150.828ZM158.387 375.287C160.888 375.287 162.591 373.63 162.591 371.205C162.591 368.996 161.103 367.477 158.863 367.477C158.095 367.477 157.42 367.676 156.883 368.029L157.482 365.697H161.916V363.886H156.07L154.689 369.763L156.423 370.131C156.822 369.548 157.604 369.118 158.464 369.118C159.814 369.118 160.596 370.008 160.596 371.313C160.596 372.678 159.753 373.537 158.433 373.537C157.19 373.537 156.438 372.786 156.438 371.512H154.49C154.49 373.783 156.039 375.287 158.387 375.287ZM163.721 369.517C163.721 372.985 165.485 375.302 168.462 375.302C171.439 375.302 173.219 372.985 173.219 369.517C173.219 366.034 171.331 363.671 168.462 363.671C165.593 363.671 163.721 366.034 163.721 369.517ZM165.654 369.517C165.654 366.863 166.697 365.405 168.462 365.405C170.242 365.405 171.285 366.863 171.285 369.517C171.285 372.11 170.242 373.568 168.462 373.568C166.697 373.568 165.654 372.11 165.654 369.517Z" fill="#0D9823"/>
<path d="M122.868 367.733H124.146V363.896H125.425L127.612 367.733H130.54V363.896H131.818V367.733H133.097V369.011H131.818V370.29H133.097V371.569H131.818V375.405H130.54L128.347 371.569H125.425V375.405H124.146V371.569H122.868V370.29H124.146V369.011H122.868V367.733ZM125.425 367.733H126.147L125.425 366.473V367.733ZM125.425 369.011V370.29H127.612L126.883 369.011H125.425ZM130.54 372.847V371.569H129.804L130.54 372.847ZM128.34 369.011L129.076 370.29H130.54V369.011H128.34Z" fill="#0D9823" stroke="#0D9823" stroke-width="0.287702"/>
<path d="M155.428 324.3V332.825H156.69V323.118H153.387V324.3H155.428ZM161.676 332.986C163.77 332.986 165.207 331.577 165.207 329.563C165.207 327.696 163.932 326.314 161.958 326.314C161.233 326.314 160.588 326.515 160.078 326.904L160.723 324.326H164.63V323.118H159.77L158.588 328.099L159.702 328.381C160.145 327.831 160.897 327.441 161.716 327.441C163.072 327.441 163.864 328.368 163.864 329.616C163.864 330.932 163.019 331.805 161.703 331.805C160.468 331.805 159.702 331.04 159.702 329.791H158.4C158.4 331.724 159.689 332.986 161.676 332.986ZM166.346 327.978C166.346 330.999 167.836 333 170.347 333C172.844 333 174.334 330.999 174.334 327.978C174.334 324.971 172.777 322.93 170.347 322.93C167.903 322.93 166.346 324.971 166.346 327.978ZM167.648 327.978C167.648 325.562 168.642 324.112 170.347 324.112C172.052 324.112 173.032 325.562 173.032 327.978C173.032 330.368 172.052 331.818 170.347 331.818C168.642 331.818 167.648 330.368 167.648 327.978Z" fill="black"/>
<path d="M140.77 326.736H141.889V323.38H143.008L144.921 326.736H147.483V323.38H148.602V326.736H149.721V327.855H148.602V328.974H149.721V330.093H148.602V333.449H147.483L145.564 330.093H143.008V333.449H141.889V330.093H140.77V328.974H141.889V327.855H140.77V326.736ZM143.008 326.736H143.64L143.008 325.634V326.736ZM143.008 327.855V328.974H144.921L144.283 327.855H143.008ZM147.483 331.212V330.093H146.84L147.483 331.212ZM145.559 327.855L146.202 328.974H147.483V327.855H145.559Z" fill="black" stroke="black" stroke-width="0.287702"/>
<rect x="460.278" y="83.3887" width="171.662" height="18.2211" rx="9.11056" stroke="black" stroke-opacity="0.3" stroke-width="0.959006"/>
<path d="M468.851 95.7861L469.417 94.1654H472.035L472.601 95.7861H473.896L471.364 88.7758H470.107L467.576 95.7861H468.851ZM470.577 90.8664C470.645 90.6746 470.702 90.4636 470.731 90.3294C470.75 90.4732 470.817 90.6842 470.875 90.8664L471.68 93.1297H469.781L470.577 90.8664ZM474.108 93.4078C474.108 94.9134 475.048 95.9108 476.487 95.9108C477.724 95.9108 478.645 95.1532 478.788 94.0503H477.609C477.484 94.5682 477.072 94.8559 476.487 94.8559C475.739 94.8559 475.278 94.2997 475.278 93.4078C475.278 92.5159 475.777 91.9501 476.525 91.9501C477.081 91.9501 477.475 92.2282 477.609 92.7653H478.779C478.654 91.624 477.772 90.9048 476.477 90.9048C475.077 90.9048 474.108 91.9405 474.108 93.4078ZM481.27 95.7861V92.0268H482.191V91.0486H481.27V89.5718H480.1V91.0486H479.189V92.0268H480.1V95.7861H481.27ZM483.503 90.0992C483.887 90.0992 484.203 89.7828 484.203 89.3896C484.203 88.9964 483.887 88.6895 483.503 88.6895C483.101 88.6895 482.784 88.9964 482.784 89.3896C482.784 89.7828 483.101 90.0992 483.503 90.0992ZM482.918 95.7861H484.088V91.0486H482.918V95.7861ZM486.64 95.7861H487.791L489.766 91.0486H488.558L487.695 93.2256C487.493 93.7434 487.321 94.2421 487.254 94.5394C487.196 94.2805 487.033 93.7914 486.832 93.2256L486.007 91.0486H484.76L486.64 95.7861ZM492.324 95.9108C493.561 95.9108 494.424 95.2874 494.626 94.2517H493.542C493.408 94.7025 492.986 94.9518 492.343 94.9518C491.566 94.9518 491.125 94.5298 491.039 93.6955L494.606 93.6859V93.3311C494.606 91.8542 493.705 90.9048 492.286 90.9048C490.895 90.9048 489.926 91.9309 489.926 93.4174C489.926 94.8847 490.914 95.9108 492.324 95.9108ZM492.295 91.8638C492.995 91.8638 493.446 92.2954 493.446 92.9475H491.068C491.183 92.2378 491.605 91.8638 492.295 91.8638ZM498.118 93.7434H501.206V92.7077H498.118V93.7434ZM504.542 89.9074H506.594V95.7861H507.822V89.9074H509.874V88.7758H504.542V89.9074ZM513.281 91.0486V93.5325C513.281 94.4339 512.926 94.8655 512.188 94.8655C511.536 94.8655 511.181 94.5011 511.181 93.5996V91.0486H510.011V94.012C510.011 95.1724 510.653 95.9108 511.747 95.9108C512.38 95.9108 512.993 95.6039 513.281 95.1532L513.367 95.7861H514.451V91.0486H513.281ZM517.685 95.9108C518.922 95.9108 519.785 95.2874 519.987 94.2517H518.903C518.769 94.7025 518.347 94.9518 517.704 94.9518C516.928 94.9518 516.486 94.5298 516.4 93.6955L519.968 93.6859V93.3311C519.968 91.8542 519.066 90.9048 517.647 90.9048C516.256 90.9048 515.288 91.9309 515.288 93.4174C515.288 94.8847 516.275 95.9108 517.685 95.9108ZM517.656 91.8638C518.357 91.8638 518.807 92.2954 518.807 92.9475H516.429C516.544 92.2378 516.966 91.8638 517.656 91.8638ZM520.54 94.3476C520.54 95.2779 521.288 95.9108 522.467 95.9108C523.637 95.9108 524.452 95.3162 524.452 94.3572C524.452 93.6284 524.05 93.2639 523.254 93.0817L522.4 92.8803C521.997 92.7844 521.786 92.6118 521.786 92.3433C521.786 91.9885 522.055 91.7775 522.515 91.7775C522.966 91.7775 523.234 92.0364 523.244 92.4392H524.356C524.347 91.5186 523.628 90.9048 522.563 90.9048C521.47 90.9048 520.683 91.461 520.683 92.3913C520.683 93.1489 521.096 93.5516 521.949 93.7434L522.803 93.9448C523.225 94.0407 523.349 94.2134 523.349 94.4531C523.349 94.7984 523.052 95.0189 522.506 95.0189C521.969 95.0189 521.662 94.76 521.652 94.3476H520.54ZM527.29 95.9108C528.009 95.9108 528.623 95.5943 528.911 95.0477L528.987 95.7861H530.061V88.6511H528.901V91.6528C528.604 91.1829 528.019 90.9048 527.357 90.9048C525.928 90.9048 525.065 91.9597 525.065 93.4366C525.065 94.9038 525.919 95.9108 527.29 95.9108ZM527.549 94.8367C526.734 94.8367 526.235 94.2421 526.235 93.3982C526.235 92.5543 526.734 91.9501 527.549 91.9501C528.364 91.9501 528.891 92.5447 528.891 93.3982C528.891 94.2517 528.364 94.8367 527.549 94.8367ZM532.69 95.9108C533.429 95.9108 534.071 95.5752 534.273 95.0861L534.359 95.7861H535.385V92.9091C535.385 91.5953 534.599 90.9048 533.323 90.9048C532.038 90.9048 531.194 91.5761 531.194 92.6022H532.192C532.192 92.1035 532.575 91.8158 533.266 91.8158C533.86 91.8158 534.244 92.0748 534.244 92.7173V92.8228L532.825 92.9283C531.703 93.0146 531.07 93.5612 531.07 94.4339C531.07 95.3258 531.684 95.9108 532.69 95.9108ZM533.074 95.0285C532.547 95.0285 532.259 94.8175 532.259 94.386C532.259 94.0024 532.537 93.7626 533.266 93.6955L534.254 93.6188V93.8681C534.254 94.597 533.793 95.0285 533.074 95.0285ZM535.991 97.9823C536.25 98.0494 536.538 98.0877 536.864 98.0877C537.641 98.0877 538.139 97.7233 538.494 96.841L540.815 91.0486H539.607L538.322 94.5011L537.104 91.0486H535.867L537.775 95.9875L537.641 96.3424C537.439 96.8986 537.152 97.0041 536.691 97.0041H535.991V97.9823ZM542.172 95.3642C542.172 94.7696 541.827 94.3764 541.347 94.3764C540.915 94.3764 540.618 94.6833 540.618 95.1436C540.618 95.5272 540.925 95.8053 541.299 95.8053C541.414 95.8053 541.5 95.7861 541.577 95.7478C541.577 96.0834 541.251 96.3424 540.82 96.4191V96.889C541.596 96.7931 542.172 96.1601 542.172 95.3642ZM545.792 92.2954C545.792 94.4627 546.895 95.9108 548.756 95.9108C550.616 95.9108 551.729 94.4627 551.729 92.2954C551.729 90.1184 550.549 88.6415 548.756 88.6415C546.962 88.6415 545.792 90.1184 545.792 92.2954ZM547.001 92.2954C547.001 90.6363 547.653 89.7252 548.756 89.7252C549.868 89.7252 550.52 90.6363 550.52 92.2954C550.52 93.9161 549.868 94.8271 548.756 94.8271C547.653 94.8271 547.001 93.9161 547.001 92.2954ZM552.087 88.7758V89.9074H555.894L553.305 95.7861H554.581L557.122 89.9074V88.7758H552.087ZM564.378 92.9187V91.8158H561.77V89.9074H564.877V88.7758H560.542V95.7861H561.77V92.9187H564.378ZM567.565 95.9108C568.802 95.9108 569.665 95.2874 569.866 94.2517H568.783C568.648 94.7025 568.226 94.9518 567.584 94.9518C566.807 94.9518 566.366 94.5298 566.28 93.6955L569.847 93.6859V93.3311C569.847 91.8542 568.946 90.9048 567.526 90.9048C566.136 90.9048 565.167 91.9309 565.167 93.4174C565.167 94.8847 566.155 95.9108 567.565 95.9108ZM567.536 91.8638C568.236 91.8638 568.687 92.2954 568.687 92.9475H566.308C566.424 92.2378 566.846 91.8638 567.536 91.8638ZM571.867 95.7861L571.944 95.0477C572.222 95.5943 572.826 95.9108 573.536 95.9108C574.898 95.9108 575.79 94.9038 575.79 93.4462C575.79 91.9501 574.965 90.8952 573.613 90.8952C572.893 90.8952 572.26 91.2117 571.954 91.7391V88.6511H570.784V95.7861H571.867ZM571.963 93.3982C571.963 92.5447 572.491 91.9501 573.296 91.9501C574.121 91.9501 574.61 92.5543 574.61 93.3982C574.61 94.2421 574.121 94.8367 573.296 94.8367C572.491 94.8367 571.963 94.2517 571.963 93.3982ZM579.821 91.0486V93.5325C579.821 94.4339 579.467 94.8655 578.728 94.8655C578.076 94.8655 577.721 94.5011 577.721 93.5996V91.0486H576.551V94.012C576.551 95.1724 577.194 95.9108 578.287 95.9108C578.92 95.9108 579.534 95.6039 579.821 95.1532L579.908 95.7861H580.991V91.0486H579.821ZM585.173 91.0295C584.981 90.9815 584.818 90.9623 584.655 90.9623C584.022 90.9623 583.571 91.2788 583.37 91.7487L583.303 91.0582H582.2V95.7861H583.37V93.4845C583.37 92.5639 583.897 92.1131 584.741 92.1131H585.173V91.0295ZM587.187 95.9108C587.926 95.9108 588.568 95.5752 588.77 95.0861L588.856 95.7861H589.882V92.9091C589.882 91.5953 589.096 90.9048 587.82 90.9048C586.535 90.9048 585.691 91.5761 585.691 92.6022H586.688C586.688 92.1035 587.072 91.8158 587.763 91.8158C588.357 91.8158 588.741 92.0748 588.741 92.7173V92.8228L587.321 92.9283C586.199 93.0146 585.566 93.5612 585.566 94.4339C585.566 95.3258 586.18 95.9108 587.187 95.9108ZM587.571 95.0285C587.043 95.0285 586.756 94.8175 586.756 94.386C586.756 94.0024 587.034 93.7626 587.763 93.6955L588.75 93.6188V93.8681C588.75 94.597 588.29 95.0285 587.571 95.0285ZM594.004 91.0295C593.812 90.9815 593.649 90.9623 593.486 90.9623C592.853 90.9623 592.403 91.2788 592.201 91.7487L592.134 91.0582H591.031V95.7861H592.201V93.4845C592.201 92.5639 592.729 92.1131 593.573 92.1131H594.004V91.0295ZM594.524 97.9823C594.783 98.0494 595.071 98.0877 595.397 98.0877C596.174 98.0877 596.672 97.7233 597.027 96.841L599.348 91.0486H598.14L596.855 94.5011L595.637 91.0486H594.4L596.308 95.9875L596.174 96.3424C595.972 96.8986 595.685 97.0041 595.224 97.0041H594.524V97.9823ZM607.297 95.7765V94.6353H604.381L605.647 93.5516C606.712 92.6406 607.249 91.9022 607.249 90.924C607.249 89.5046 606.318 88.6511 604.822 88.6511C603.336 88.6511 602.358 89.6485 602.348 91.1829H603.566C603.576 90.2814 604.055 89.7444 604.822 89.7444C605.561 89.7444 605.992 90.1951 605.992 90.9911C605.992 91.6624 605.676 92.1227 604.726 92.9283L602.434 94.8655V95.7861L607.297 95.7765ZM608.053 92.2954C608.053 94.4627 609.156 95.9108 611.016 95.9108C612.877 95.9108 613.989 94.4627 613.989 92.2954C613.989 90.1184 612.81 88.6415 611.016 88.6415C609.223 88.6415 608.053 90.1184 608.053 92.2954ZM609.261 92.2954C609.261 90.6363 609.913 89.7252 611.016 89.7252C612.129 89.7252 612.781 90.6363 612.781 92.2954C612.781 93.9161 612.129 94.8271 611.016 94.8271C609.913 94.8271 609.261 93.9161 609.261 92.2954ZM619.706 95.7765V94.6353H616.79L618.056 93.5516C619.121 92.6406 619.658 91.9022 619.658 90.924C619.658 89.5046 618.727 88.6511 617.231 88.6511C615.745 88.6511 614.767 89.6485 614.757 91.1829H615.975C615.985 90.2814 616.464 89.7444 617.231 89.7444C617.97 89.7444 618.401 90.1951 618.401 90.9911C618.401 91.6624 618.085 92.1227 617.135 92.9283L614.843 94.8655V95.7861L619.706 95.7765ZM622.599 92.3145C623.577 92.3145 624.037 92.8324 624.037 93.5421C624.037 94.3189 623.529 94.8175 622.762 94.8175C622.014 94.8175 621.515 94.3572 621.515 93.5516H620.307C620.307 95.0669 621.371 95.9108 622.743 95.9108C624.162 95.9108 625.284 94.9997 625.284 93.5612C625.284 92.3241 624.45 91.5377 623.376 91.3268L625.083 89.754V88.7758H620.633V89.8595H623.548L621.745 91.5186V92.3145H622.599Z" fill="#0D9823"/>
</g>
<defs>
<filter id="filter0_d_625_1184" x="0.1486" y="0.1486" width="716.801" height="847.225" filterUnits="userSpaceOnUse" color-interpolation-filters="sRGB">
<feFlood flood-opacity="0" result="BackgroundImageFix"/>
<feColorMatrix in="SourceAlpha" type="matrix" values="0 0 0 0 0 0 0 0 0 0 0 0 0 0 0 0 0 0 127 0" result="hardAlpha"/>
<feOffset dx="3.76127" dy="3.76127"/>
<feGaussianBlur stdDeviation="18.8063"/>
<feComposite in2="hardAlpha" operator="out"/>
<feColorMatrix type="matrix" values="0 0 0 0 0.113725 0 0 0 0 0.2 0 0 0 0 0.160784 0 0 0 0.25 0"/>
<feBlend mode="normal" in2="BackgroundImageFix" result="effect1_dropShadow_625_1184"/>
<feBlend mode="normal" in="SourceGraphic" in2="effect1_dropShadow_625_1184" result="shape"/>
</filter>
</defs>
</svg>
