<svg width="86" height="80" viewBox="0 0 86 80" fill="none" xmlns="http://www.w3.org/2000/svg">
<g clip-path="url(#clip0_531_3757)">
<path d="M2.46909 56.1979C4.42255 56.1979 37.3044 56.4152 39.3716 56.3502C39.5198 56.3502 39.599 56.1268 39.4528 56.0537C38.1492 55.408 36.6729 55.5379 35.3185 55.081C34.5225 54.813 34.0331 54.2932 33.4808 53.6962C33.0225 53.1745 32.4307 52.7877 31.769 52.5773C31.1638 52.3962 30.5219 52.3766 29.9069 52.5204C29.2388 52.6788 28.6601 53.0606 28.0225 53.3022C26.4426 53.8972 24.9075 53.3307 23.7805 52.163C22.8505 51.1985 21.9367 50.2908 20.6716 49.771C19.6116 49.3364 18.4379 49.245 17.3779 49.7263C16.1717 50.2725 15.3473 51.3711 14.2102 52.0311C12.8679 52.8169 11.2617 52.6402 9.77934 52.8677C8.29698 53.0951 7.15577 54.3541 5.85617 55.0729C5.43122 55.346 4.93968 55.4977 4.43474 55.5115C4.14512 55.4862 3.85704 55.4455 3.57172 55.3897C3.12295 55.3349 2.69855 55.3471 2.39802 55.7207C2.32695 55.8121 2.34116 56.1979 2.46909 56.1979Z" fill="#EBEBEB"/>
<path d="M4.55466 4.95781C5.97609 4.95781 29.9882 5.1162 31.497 5.06747C31.6046 5.06747 31.6635 4.90502 31.5559 4.85222C30.6035 4.38112 29.5252 4.47656 28.5363 4.14353C27.9556 3.94047 27.5982 3.56684 27.1941 3.12822C26.8597 2.74866 26.4278 2.46778 25.9452 2.31597C25.5031 2.18419 25.0343 2.1695 24.5847 2.27333C24.0974 2.39111 23.675 2.67946 23.21 2.84597C22.0566 3.28052 20.9357 2.86627 20.1133 2.01341C19.433 1.31081 18.767 0.646801 17.8431 0.267075C17.4661 0.0966892 17.058 0.00586493 16.6443 0.000274766C16.2306 -0.0053154 15.8203 0.0744486 15.4388 0.234585C14.5575 0.640709 13.9544 1.43468 13.1259 1.91797C12.1451 2.49061 10.9735 2.35456 9.89114 2.52716C8.80881 2.69976 7.97626 3.61151 7.02999 4.13541C6.72014 4.33804 6.36036 4.45118 5.99031 4.46234C5.78725 4.46234 5.56997 4.39939 5.36082 4.37503C5.03389 4.33441 4.7232 4.34254 4.50186 4.61667C4.44907 4.67556 4.46125 4.95781 4.55466 4.95781Z" fill="#EBEBEB"/>
<path d="M55.5296 79.8799C56.9511 79.8799 80.9632 80.0383 82.4719 79.9916C82.5816 79.9916 82.6385 79.8271 82.5308 79.7743C81.5805 79.3032 80.5002 79.3986 79.5133 79.0656C78.9305 78.8626 78.5752 78.4889 78.1711 78.0503C77.8361 77.6714 77.4045 77.3906 76.9223 77.2381C76.4804 77.1043 76.0111 77.0896 75.5617 77.1954C75.0744 77.3112 74.652 77.5894 74.187 77.766C73.0336 78.2006 71.9127 77.7863 71.0903 76.9335C70.41 76.2309 69.742 75.5669 68.8201 75.1871C68.4426 75.0173 68.0342 74.9268 67.6203 74.9212C67.2064 74.9156 66.7957 74.995 66.4138 75.1546C65.5345 75.5608 64.9294 76.3568 64.1029 76.838C63.1221 77.4107 61.9484 77.2766 60.8661 77.4472C59.7838 77.6178 58.9512 78.5316 58.0029 79.0575C57.6927 79.2552 57.335 79.366 56.9673 79.3783C56.7541 79.3783 56.547 79.3154 56.3358 79.289C56.0089 79.2484 55.6982 79.2565 55.4789 79.5306C55.4261 79.5956 55.4362 79.8799 55.5296 79.8799Z" fill="#EBEBEB"/>
<path d="M56.1245 20.6884C57.5459 20.6884 81.5581 20.8448 83.0668 20.7981C83.1744 20.7981 83.2333 20.6356 83.1257 20.5808C82.1733 20.1097 81.0951 20.2051 80.1062 19.8721C79.5254 19.6691 79.168 19.2954 78.7639 18.8568C78.4301 18.4766 77.998 18.1956 77.5151 18.0446C77.0731 17.9117 76.604 17.897 76.1546 18.0019C75.6693 18.1177 75.2449 18.3959 74.7799 18.5725C73.6285 19.0071 72.5076 18.5949 71.6832 17.74C71.0049 17.0374 70.3368 16.3734 69.4129 15.9957C69.0361 15.825 68.6281 15.7338 68.2144 15.7278C67.8007 15.7219 67.3903 15.8013 67.0087 15.9611C66.1274 16.3673 65.5243 17.1633 64.6958 17.6445C63.715 18.2192 62.5433 18.0831 61.461 18.2537C60.3787 18.4243 59.5461 19.3381 58.5958 19.864C58.2856 20.062 57.9279 20.1728 57.5602 20.1848C57.3571 20.1848 57.1398 20.1219 56.9307 20.0955C56.6037 20.0549 56.2931 20.065 56.0737 20.3371C56.0189 20.4062 56.0311 20.6884 56.1245 20.6884Z" fill="#EBEBEB"/>
<path d="M33.9561 30.8911C33.9825 30.9703 71.7947 30.8911 71.3195 30.8911C71.1002 30.8911 71.6485 30.5642 71.4353 30.4606C70.2047 29.8514 68.8584 29.8311 67.5182 29.7093C66.7364 29.6382 65.9323 29.5245 65.2297 29.1529C64.5271 28.7813 64.0722 28.1376 63.5666 27.5284C62.787 26.6053 61.785 25.8961 60.6551 25.468C59.5252 25.0398 58.3048 24.9068 57.1092 25.0815C54.4207 25.5018 52.3028 27.5507 49.6101 27.9244C47.9856 28.1518 46.4606 27.5182 44.8808 27.305C43.5792 27.1243 42.4948 27.3781 41.3293 27.9548C40.4764 28.3772 39.6885 28.7326 38.724 28.7996C37.9848 28.8524 37.2416 28.7671 36.4903 28.759C35.2777 28.7861 34.1167 29.2547 33.225 30.0768C33.1012 30.1824 32.7215 30.8911 33.9561 30.8911Z" fill="#EBEBEB"/>
<path d="M26.8002 25.5526C26.5084 25.3785 26.2052 25.2245 25.8925 25.0916C25.5723 24.9467 25.2343 24.8449 24.8873 24.7891C24.781 24.7751 24.6731 24.7799 24.5685 24.8033C24.5338 24.8128 24.5004 24.8264 24.469 24.8439C24.4459 24.8561 24.4235 24.8696 24.402 24.8845C24.3626 24.9101 24.3246 24.9379 24.2883 24.9678C24.1455 25.076 24.0098 25.1934 23.8822 25.3191C23.6394 25.5611 23.4089 25.8153 23.1917 26.0806L23.4496 26.0074C23.1178 25.8896 22.7786 25.7932 22.4343 25.7191C22.2552 25.6841 22.0742 25.6597 21.8922 25.646C21.7955 25.6389 21.6984 25.6389 21.6018 25.646C21.5484 25.6519 21.4955 25.6614 21.4434 25.6744C21.3883 25.691 21.3346 25.712 21.283 25.7374C21.1191 25.8363 20.9718 25.9603 20.8464 26.1049C20.7275 26.2342 20.6157 26.3698 20.5113 26.511C20.3052 26.7949 20.1225 27.0951 19.9651 27.4086C20.2067 27.1548 20.4403 26.9009 20.686 26.6613C20.8045 26.5412 20.9292 26.4273 21.0596 26.3202C21.1753 26.2152 21.3051 26.127 21.4454 26.0582C21.5784 26.0251 21.7169 26.021 21.8515 26.046C22.0139 26.0683 22.1746 26.1009 22.3328 26.1435C22.6557 26.2227 22.9846 26.3263 23.2994 26.4339L23.4557 26.4887L23.5573 26.3628C23.7603 26.1049 23.9837 25.8531 24.203 25.6115C24.3092 25.4918 24.4217 25.3779 24.5401 25.2703C24.567 25.2455 24.5955 25.2224 24.6254 25.2013L24.6639 25.1708C24.6639 25.1708 24.664 25.1708 24.6802 25.1708C24.7386 25.1523 24.7997 25.1441 24.8609 25.1465C25.184 25.1674 25.5044 25.2198 25.8173 25.3028C26.1463 25.378 26.4712 25.4693 26.8002 25.5526Z" fill="#DBDBDB"/>
<path d="M20.432 29.8107C20.2623 29.5848 20.0778 29.3705 19.8797 29.169C19.6823 28.96 19.4584 28.7777 19.2136 28.6269C19.137 28.581 19.0522 28.5507 18.9639 28.5375C18.9342 28.5334 18.9041 28.5334 18.8745 28.5375C18.8533 28.5394 18.8323 28.5428 18.8116 28.5477C18.7689 28.5477 18.7344 28.5659 18.6958 28.5761C18.558 28.6171 18.4225 28.6652 18.2897 28.7203C18.0237 28.8299 17.7739 28.9558 17.5201 29.0878L17.7414 29.1142C17.522 28.917 17.2893 28.7352 17.0449 28.57C16.9186 28.4859 16.787 28.4099 16.651 28.3426C16.5789 28.3065 16.5043 28.276 16.4276 28.2512C16.3849 28.2392 16.3415 28.2297 16.2976 28.2228C16.2497 28.2187 16.2014 28.2187 16.1535 28.2228C15.9965 28.2468 15.8444 28.2954 15.7027 28.3669C15.5699 28.4278 15.4405 28.4956 15.3148 28.57C15.0688 28.7251 14.8347 28.8982 14.6143 29.0878C14.8782 28.97 15.1382 28.8482 15.4021 28.7426C15.5341 28.6878 15.6641 28.637 15.7961 28.5964C15.9179 28.5534 16.0449 28.5268 16.1738 28.5172C16.2882 28.5331 16.3977 28.574 16.4946 28.637C16.6121 28.706 16.7253 28.7819 16.8337 28.8644C17.0551 29.0269 17.2744 29.2097 17.4835 29.3924L17.5871 29.4838L17.7049 29.4168C17.9424 29.2848 18.1922 29.1609 18.4359 29.0452C18.5554 28.9862 18.6781 28.934 18.8034 28.8888L18.8908 28.8624H18.9293C18.9293 28.8624 18.9293 28.8624 18.9456 28.8624C18.9964 28.8653 19.0461 28.8785 19.0918 28.901C19.3326 29.0193 19.5617 29.16 19.7761 29.3213C19.9934 29.4716 20.2127 29.6422 20.432 29.8107Z" fill="#DBDBDB"/>
<path d="M70.9337 5.64105C70.7892 5.39827 70.6284 5.16557 70.4525 4.94455C70.2772 4.71547 70.0723 4.51063 69.8433 4.33536C69.7713 4.28394 69.6909 4.24546 69.6057 4.22165C69.5764 4.21428 69.5465 4.21019 69.5163 4.20946H69.4514C69.4125 4.21274 69.3739 4.21816 69.3356 4.22571C69.1911 4.25099 69.048 4.2842 68.9072 4.32521C68.631 4.4044 68.369 4.5039 68.0949 4.60746L68.3122 4.65823C68.1149 4.44052 67.9025 4.23696 67.6766 4.04904C67.5611 3.9513 67.439 3.86173 67.3111 3.781C67.2429 3.73786 67.1717 3.69985 67.0979 3.66729C67.0568 3.65065 67.0147 3.63641 66.972 3.62464C66.925 3.61611 66.8775 3.61068 66.8298 3.6084C66.6708 3.61614 66.514 3.64833 66.3648 3.70384C66.2263 3.75286 66.0907 3.80982 65.9587 3.87441C65.6969 4.00146 65.4451 4.14808 65.2053 4.31303C65.4815 4.22368 65.7536 4.13027 66.0277 4.05311C66.1617 4.01452 66.2998 3.97594 66.4339 3.95157C66.5594 3.92085 66.6885 3.90786 66.8176 3.91299C66.9333 3.93681 67.0422 3.98606 67.1364 4.05717C67.2468 4.13688 67.3513 4.22442 67.4492 4.31912C67.6522 4.5039 67.8553 4.709 68.038 4.91206L68.1335 5.01359L68.2573 4.96282C68.5071 4.8552 68.767 4.75976 69.0229 4.66838C69.148 4.62295 69.2754 4.58432 69.4047 4.55264C69.4341 4.54562 69.4639 4.54019 69.494 4.53639H69.5346C69.5346 4.53639 69.5346 4.53639 69.5488 4.53639C69.599 4.54655 69.647 4.56508 69.691 4.59122C69.9146 4.73186 70.1246 4.89297 70.3184 5.07248C70.5256 5.25523 70.7266 5.45017 70.9337 5.64105Z" fill="#DBDBDB"/>
<path d="M37.4141 48.2738C37.0826 48.0108 36.7332 47.7713 36.3683 47.557C35.998 47.3267 35.5985 47.147 35.1804 47.023C35.0516 46.9873 34.9174 46.9756 34.7844 46.9885C34.74 46.9945 34.6965 47.0054 34.6545 47.0209L34.5671 47.0595C34.5103 47.0859 34.4636 47.1164 34.4128 47.1428C34.2249 47.256 34.0432 47.3794 33.8686 47.5124C33.5234 47.7723 33.2087 48.0505 32.8919 48.3388L33.2229 48.2921C32.829 48.0908 32.422 47.9164 32.0045 47.7702C31.7898 47.6971 31.5707 47.6374 31.3486 47.5915C31.2307 47.5679 31.1113 47.553 30.9912 47.5469C30.9236 47.5417 30.8557 47.5417 30.7882 47.5469C30.7193 47.5597 30.6515 47.5774 30.5851 47.5997C30.3677 47.6956 30.1664 47.8243 29.9881 47.9814C29.8199 48.1253 29.6593 48.2778 29.5068 48.4383C29.21 48.755 28.9384 49.0945 28.6946 49.4536C29.0317 49.1815 29.3627 48.9054 29.7099 48.6515C29.8754 48.5222 30.0476 48.4016 30.2257 48.2901C30.3854 48.1799 30.5597 48.0924 30.7435 48.0302C30.9144 48.0104 31.0875 48.0277 31.2511 48.0809C31.4476 48.1358 31.6403 48.2036 31.8278 48.284C32.2136 48.4343 32.6015 48.615 32.9731 48.7998L33.1579 48.8911L33.3041 48.751C33.5985 48.4688 33.9133 48.1946 34.2199 47.9388C34.3701 47.8078 34.5274 47.6851 34.691 47.5712C34.7316 47.5469 34.7702 47.5184 34.8088 47.5002L34.8616 47.4697C34.8616 47.4697 34.8616 47.4697 34.8819 47.4697C34.957 47.4554 35.0342 47.4554 35.1093 47.4697C35.5043 47.5471 35.8907 47.6634 36.2627 47.8169C36.6384 47.953 37.0222 48.1215 37.4141 48.2738Z" fill="#DBDBDB"/>
<path d="M13.9762 71.9446C15.5337 71.9446 41.7551 72.1172 43.402 72.0645C43.5218 72.0645 43.5847 71.8878 43.4669 71.8289C42.4293 71.3152 41.2495 71.4228 40.1712 71.0532C39.5357 70.84 39.1458 70.4237 38.7051 69.9485C38.3397 69.5329 37.8679 69.2248 37.3406 69.0571C36.8577 68.9118 36.3452 68.8957 35.8541 69.0104C35.3221 69.1383 34.8612 69.4429 34.3535 69.6338C33.0945 70.109 31.8701 69.6582 30.9705 68.7261C30.2293 67.9585 29.4983 67.2336 28.4911 66.8193C28.0791 66.6332 27.6331 66.534 27.1811 66.5277C26.729 66.5214 26.2805 66.6082 25.8635 66.7828C24.903 67.2194 24.239 68.0946 23.3394 68.6225C22.2672 69.248 20.9879 69.0997 19.8041 69.2886C18.6202 69.4774 17.7146 70.4745 16.6769 71.0471C16.3384 71.2638 15.9476 71.3852 15.5459 71.3984C15.3144 71.3984 15.087 71.3294 14.8575 71.3009C14.5001 71.2563 14.161 71.2664 13.9214 71.5649C13.8625 71.636 13.8747 71.9446 13.9762 71.9446Z" fill="white"/>
<path d="M13.9764 71.9435C21.7476 71.9699 34.9182 72.0593 42.5615 72.0491H43.0549H43.3006C43.3398 72.0512 43.3791 72.0512 43.4184 72.0491C43.4346 72.045 43.4497 72.0374 43.4627 72.0268C43.4756 72.0161 43.4861 72.0028 43.4932 71.9876C43.5004 71.9725 43.5042 71.956 43.5042 71.9392C43.5043 71.9225 43.5006 71.9059 43.4935 71.8908C42.3726 71.2816 40.9837 71.5029 39.8384 70.9445C39.2292 70.648 38.8515 70.0754 38.3581 69.6469C37.8594 69.2169 37.2254 68.9761 36.5671 68.9667C35.897 68.9342 35.2939 69.2306 34.707 69.519C34.1129 69.8216 33.4352 69.9187 32.7799 69.7951C31.4113 69.5555 30.6783 68.2742 29.6345 67.5046C29.1173 67.0977 28.5202 66.8043 27.8821 66.6436C25.3337 66.0446 24.6696 68.258 22.6878 68.9281C21.7374 69.2266 20.7302 69.1474 19.7596 69.3139C18.789 69.4804 18.0092 70.1992 17.201 70.7353C16.6609 71.0846 16.0578 71.4826 15.3856 71.3892C15.0659 71.3133 14.7371 71.2825 14.4089 71.2978C14.1815 71.3364 13.885 71.4745 13.8972 71.7385C13.8972 71.8095 13.8972 71.9253 13.9865 71.9415L13.9764 71.9435ZM13.9764 71.9435C13.8911 71.9232 13.8931 71.8055 13.885 71.7405C13.8708 71.4765 14.1774 71.3344 14.3987 71.2978C14.7269 71.2829 15.0555 71.3129 15.3755 71.3872C16.0476 71.4785 16.6487 71.0805 17.1868 70.7313C17.999 70.1871 18.7605 69.4865 19.7474 69.2997C20.7343 69.1129 21.7252 69.2083 22.6715 68.9098C24.6575 68.2316 25.3113 66.0182 27.878 66.6132C28.5196 66.7741 29.1201 67.0681 29.6406 67.4762C30.6843 68.2417 31.4154 69.519 32.7779 69.7566C33.4255 69.8772 34.0947 69.7793 34.6806 69.4784C35.2675 69.19 35.8848 68.8875 36.5569 68.92C37.228 68.9278 37.875 69.1715 38.3845 69.6083C38.8779 70.0388 39.2556 70.6033 39.8567 70.8978C41.004 71.4542 42.4315 71.2105 43.5382 71.8603C43.5497 71.8817 43.5562 71.9055 43.5571 71.9299C43.5579 71.9542 43.5532 71.9784 43.5431 72.0006C43.5331 72.0228 43.5181 72.0424 43.4993 72.0579C43.4805 72.0733 43.4583 72.0842 43.4346 72.0898C43.3534 72.0898 43.1463 72.0898 43.061 72.0898H42.5655C34.971 72.0898 21.6968 71.9801 13.9804 71.9395L13.9764 71.9435Z" fill="#263238"/>
<path d="M61.5986 6.6417C62.4961 6.6417 77.5735 6.7412 78.5198 6.71075C78.5888 6.71075 78.6253 6.60921 78.5563 6.57672C77.9593 6.28025 77.2831 6.33914 76.6617 6.12999C76.329 5.99732 76.038 5.77782 75.819 5.4944C75.6089 5.25505 75.3371 5.07804 75.0332 4.98268C74.7562 4.89892 74.462 4.88981 74.1803 4.95629C73.8853 5.05682 73.597 5.1762 73.3173 5.31368C72.5924 5.58781 71.8959 5.32789 71.372 4.79181C70.9455 4.34913 70.5252 3.93285 69.9505 3.69527C69.714 3.58812 69.4579 3.53101 69.1983 3.52751C68.9386 3.52402 68.6811 3.57422 68.4418 3.67496C67.8874 3.92473 67.5077 4.42832 66.9899 4.73089C66.3807 5.09234 65.6375 5.00705 64.9593 5.11468C64.281 5.2223 63.7571 5.79696 63.1601 6.12999C62.9662 6.25597 62.7414 6.32622 62.5103 6.33305C62.3774 6.3219 62.2453 6.3036 62.1144 6.27822C62.0193 6.25162 61.9188 6.25177 61.8239 6.27864C61.7289 6.30551 61.6432 6.35807 61.5762 6.43052C61.5336 6.46504 61.5397 6.6417 61.5986 6.6417Z" fill="white"/>
<path d="M61.5986 6.64124L78.0365 6.68591H78.4609C78.5015 6.68591 78.5441 6.68591 78.5644 6.65342C78.5847 6.62093 78.5644 6.59859 78.5137 6.58032C78.3873 6.52073 78.2553 6.4738 78.1197 6.4402C77.5694 6.29603 76.9846 6.31837 76.4607 6.0686C76.1114 5.89803 75.8901 5.56704 75.6078 5.32133C75.3949 5.13774 75.1376 5.01304 74.8615 4.95961C74.5854 4.90618 74.3002 4.92587 74.0341 5.01674C73.8554 5.07969 73.6889 5.167 73.5183 5.2462C73.174 5.41682 72.7838 5.47202 72.4057 5.40363C72.0275 5.33524 71.6814 5.14689 71.4187 4.86647C70.6958 4.05422 69.6155 3.20948 68.4844 3.67247C68.1447 3.83745 67.8329 4.05465 67.5605 4.31617C67.2876 4.58124 66.9606 4.7842 66.602 4.91115C65.8832 5.15076 65.0689 4.95176 64.3886 5.31727C64.0641 5.50917 63.7502 5.71863 63.4485 5.94473C63.1378 6.14779 62.7905 6.37523 62.4047 6.3204C62.1367 6.28588 61.8118 6.17216 61.5925 6.3935C61.5752 6.40964 61.5619 6.42964 61.5538 6.45187C61.5457 6.4741 61.5429 6.49793 61.5458 6.52143C61.5458 6.56407 61.5458 6.62702 61.5965 6.64124H61.5986ZM61.5986 6.64124C61.5498 6.62702 61.5498 6.56407 61.5478 6.52143C61.5445 6.49809 61.5469 6.47431 61.5547 6.45206C61.5624 6.42981 61.5754 6.40974 61.5925 6.3935C61.8097 6.17216 62.1387 6.28385 62.4047 6.31837C62.7905 6.37116 63.1357 6.1417 63.4444 5.94067C63.7461 5.71326 64.06 5.50244 64.3846 5.30915C65.0628 4.93551 65.8811 5.13045 66.598 4.89084C66.9515 4.76208 67.2734 4.55922 67.5422 4.29587C67.815 4.03219 68.1274 3.81293 68.4682 3.64607C69.6094 3.17496 70.7018 4.03189 71.4349 4.83804C71.6922 5.1143 72.0317 5.30009 72.4031 5.36778C72.7745 5.43547 73.1578 5.38143 73.496 5.21371C73.6646 5.12793 73.8374 5.05067 74.0138 4.98222C74.2877 4.88664 74.5819 4.86465 74.867 4.91846C75.1521 4.97227 75.4181 5.09999 75.6383 5.28884C75.9246 5.53658 76.1399 5.85945 76.483 6.02799C76.9947 6.26963 77.5897 6.24933 78.1339 6.39553C78.3012 6.43033 78.4607 6.49499 78.605 6.58641C78.6127 6.59994 78.6171 6.61509 78.6179 6.63063C78.6186 6.64617 78.6157 6.66167 78.6094 6.67589C78.6031 6.69011 78.5935 6.70265 78.5815 6.7125C78.5694 6.72235 78.5552 6.72924 78.5401 6.73261C78.515 6.73455 78.4899 6.73455 78.4649 6.73261H78.3228L61.6006 6.63921L61.5986 6.64124Z" fill="#263238"/>
<path d="M0.923497 76.3909C1.819 76.3909 16.8964 76.4904 17.8447 76.46C17.8607 76.4598 17.8762 76.4545 17.8888 76.4447C17.9014 76.4349 17.9105 76.4213 17.9147 76.4058C17.9188 76.3904 17.9178 76.374 17.9117 76.3593C17.9057 76.3445 17.895 76.332 17.8812 76.3239C17.2842 76.0295 16.606 76.0884 15.9867 75.8792C15.6541 75.7464 15.3631 75.5269 15.144 75.2436C14.9338 75.0043 14.662 74.8273 14.3581 74.7319C14.0811 74.6485 13.7872 74.6387 13.5052 74.7035C13.2097 74.8051 12.9207 74.9251 12.6402 75.0629C11.9173 75.337 11.2188 75.0771 10.6949 74.541C10.2684 74.0984 9.85012 73.6821 9.27342 73.4445C9.03653 73.3376 8.78022 73.2804 8.52035 73.2766C8.26047 73.2727 8.00258 73.3223 7.76264 73.4222C7.21031 73.674 6.83058 74.1776 6.31074 74.4801C5.70155 74.8416 4.95834 74.7563 4.28012 74.8639C3.60189 74.9715 3.07596 75.5462 2.48098 75.8792C2.28638 76.0053 2.06092 76.0755 1.82915 76.0823C1.69629 76.071 1.56412 76.0527 1.43318 76.0275C1.33831 76.0011 1.23803 76.0011 1.14319 76.0276C1.04834 76.0541 0.962545 76.106 0.895068 76.1777C0.858517 76.2143 0.864609 76.3909 0.923497 76.3909Z" fill="white"/>
<path d="M0.923593 76.3903L17.3615 76.435H17.792C17.8326 76.435 17.8752 76.4451 17.8955 76.4025C17.9158 76.3599 17.8955 76.3477 17.8448 76.3294C17.7146 76.2688 17.5785 76.2219 17.4387 76.1893C16.8904 76.0451 16.3056 76.0675 15.7796 75.8177C15.4324 75.6471 15.2111 75.3161 14.9288 75.0704C14.715 74.8875 14.4574 74.7633 14.1812 74.7099C13.9049 74.6565 13.6196 74.6758 13.353 74.7658C13.1764 74.8267 13.0099 74.9161 12.8373 74.9953C12.4924 75.1648 12.1021 75.2186 11.7242 75.1487C11.3464 75.0788 11.0011 74.889 10.7396 74.6074C10.0167 73.8053 8.93643 72.9504 7.80334 73.4114C7.46455 73.5778 7.15356 73.7956 6.88144 74.0571C6.60856 74.3222 6.28161 74.5252 5.92299 74.6521C5.20415 74.8897 4.38987 74.6927 3.70961 75.0582C3.38334 75.2525 3.06811 75.4646 2.76537 75.6938C2.45671 75.8969 2.10948 76.1243 1.72163 76.0695C1.45562 76.035 1.12869 75.9212 0.909379 76.1426C0.8923 76.1588 0.879338 76.1789 0.871569 76.2011C0.8638 76.2234 0.861447 76.2472 0.864705 76.2705C0.864705 76.3132 0.864705 76.3761 0.915471 76.3903H0.923593ZM0.923593 76.3903C0.874858 76.3761 0.874858 76.3132 0.870797 76.2705C0.868112 76.2467 0.870926 76.2226 0.879024 76.2001C0.887122 76.1776 0.900286 76.1572 0.917502 76.1406C1.13478 75.9192 1.46374 76.0329 1.72975 76.0675C2.11557 76.1203 2.46078 75.8908 2.76943 75.6898C3.07159 75.4624 3.38541 75.2509 3.70961 75.0562C4.38784 74.6846 5.20618 74.8775 5.92299 74.6399C6.27825 74.511 6.60214 74.3082 6.87332 74.0449C7.14657 73.7813 7.45891 73.5614 7.79928 73.3931C8.94049 72.922 10.033 73.7789 10.766 74.5871C11.0231 74.8629 11.3624 75.0484 11.7333 75.1161C12.1042 75.1838 12.4871 75.13 12.8251 74.9628C12.9956 74.8836 13.1642 74.7943 13.3449 74.7313C13.6188 74.6353 13.9131 74.6131 14.1983 74.6669C14.4834 74.7208 14.7494 74.8487 14.9694 75.0379C15.2537 75.2836 15.471 75.6085 15.8142 75.7771C16.3259 76.0187 16.9208 75.9964 17.463 76.1426C17.6303 76.1793 17.7902 76.2439 17.9362 76.3335C17.9438 76.3473 17.9481 76.3627 17.9487 76.3785C17.9494 76.3943 17.9463 76.41 17.9398 76.4244C17.9333 76.4388 17.9235 76.4514 17.9112 76.4614C17.899 76.4713 17.8846 76.4783 17.8691 76.4817C17.8387 76.4817 17.8204 76.4817 17.796 76.4817H17.6539C13.152 76.4594 5.50265 76.4147 0.931716 76.3903H0.923593Z" fill="#263238"/>
<path d="M8.07537 19.1212C9.63286 19.1212 35.8543 19.2938 37.5011 19.241C37.6189 19.241 37.6839 19.0644 37.5661 19.0055C36.5264 18.4917 35.3487 18.5994 34.2684 18.2298C33.6348 18.0166 33.2531 17.6003 32.8023 17.1251C32.4367 16.7106 31.9649 16.4037 31.4377 16.2378C30.9555 16.0925 30.4437 16.0764 29.9533 16.1911C29.4213 16.319 28.9583 16.6236 28.4527 16.8145C27.1917 17.2916 25.9672 16.8388 25.0697 15.9068C24.3265 15.1392 23.5975 14.4143 22.5903 14C22.1782 13.8139 21.7323 13.7146 21.2803 13.7083C20.8282 13.702 20.3797 13.7889 19.9626 13.9635C19.0001 14.4 18.3381 15.2752 17.4386 15.8032C16.3664 16.4286 15.0871 16.2804 13.9033 16.4692C12.7194 16.6581 11.8117 17.6551 10.7761 18.2278C10.4379 18.4452 10.0469 18.5667 9.64504 18.5791C9.41152 18.5791 9.18409 18.51 8.95463 18.4816C8.59927 18.4369 8.26016 18.4471 8.01851 18.7456C7.96166 18.8126 7.97181 19.1212 8.07537 19.1212Z" fill="white"/>
<path d="M8.07539 19.1214C15.8446 19.1478 29.0152 19.2372 36.6605 19.227H37.1519H37.3996C37.4389 19.2291 37.4782 19.2291 37.5174 19.227C37.5337 19.223 37.5488 19.2154 37.5617 19.2047C37.5747 19.1941 37.585 19.1806 37.592 19.1654C37.599 19.1502 37.6026 19.1336 37.6023 19.1169C37.602 19.1001 37.598 19.0836 37.5905 19.0686C36.4716 18.4595 35.0807 18.6808 33.9354 18.1224C33.3262 17.8259 32.9465 17.2533 32.4551 16.8248C31.9559 16.3944 31.3211 16.1535 30.662 16.1445C29.9939 16.1121 29.3888 16.4085 28.804 16.6969C28.2098 16.9993 27.5322 17.0964 26.8769 16.973C25.5083 16.7334 24.7732 15.4521 23.7295 14.6825C23.2131 14.2755 22.6166 13.9821 21.9791 13.8215C19.4306 13.2123 18.7666 15.446 16.7827 16.108C15.8344 16.4045 14.8252 16.3253 13.8566 16.4918C12.888 16.6583 12.1042 17.3771 11.296 17.9132C10.7578 18.2625 10.1548 18.6605 9.48262 18.5671C9.16288 18.4913 8.83413 18.4605 8.50588 18.4757C8.27845 18.5143 7.98198 18.6524 7.99214 18.9164C7.99214 18.9874 7.99214 19.1032 8.08352 19.1194L8.07539 19.1214ZM8.07539 19.1214C7.98808 19.1011 7.99011 18.9834 7.98401 18.9184C7.96777 18.6544 8.27643 18.5123 8.49776 18.4757C8.82589 18.4608 9.15452 18.4908 9.47449 18.5651C10.1466 18.6564 10.7477 18.2584 11.2858 17.9092C12.0981 17.365 12.8575 16.6644 13.8464 16.4877C14.8353 16.3111 15.8243 16.3963 16.7705 16.0978C18.7544 15.4196 19.4103 13.2062 21.977 13.8032C22.6189 13.9633 23.2196 14.2574 23.7396 14.6663C24.7834 15.4298 25.5144 16.7091 26.8749 16.9446C27.5231 17.0654 28.193 16.9675 28.7796 16.6664C29.3644 16.3781 29.9818 16.0755 30.6559 16.108C31.3271 16.1155 31.9742 16.3592 32.4835 16.7964C32.979 17.2269 33.3567 17.7914 33.9557 18.0858C35.105 18.6422 36.5326 18.3985 37.6392 19.0483C37.6508 19.0698 37.6573 19.0936 37.6581 19.1179C37.659 19.1423 37.6542 19.1665 37.6442 19.1887C37.6342 19.2109 37.6192 19.2305 37.6004 19.2459C37.5815 19.2614 37.5594 19.2723 37.5357 19.2778C37.4524 19.2778 37.2473 19.2778 37.162 19.2778H36.6686C29.0741 19.2778 15.7999 19.1681 8.08352 19.1275L8.07539 19.1214Z" fill="#263238"/>
<path d="M43.6784 41.5413C43.7089 41.6286 85.0036 41.5413 84.4939 41.5413C84.2564 41.5413 84.8534 41.1859 84.6219 41.0702C83.2776 40.4042 81.8054 40.3859 80.3413 40.258C79.4885 40.1808 78.6112 40.0549 77.8416 39.6488C77.072 39.2426 76.5786 38.5319 76.0262 37.8801C75.1745 36.8694 74.0786 36.093 72.8426 35.6246C71.6066 35.1562 70.2714 35.0113 68.9637 35.2037C66.0275 35.6626 63.7125 37.9004 60.7722 38.3106C59.0056 38.5583 57.3344 37.876 55.6063 37.6344C54.1849 37.4313 53.001 37.7136 51.7298 38.3431C50.7978 38.8061 49.9368 39.1939 48.887 39.267C48.0747 39.3239 47.2625 39.2305 46.4502 39.2223C45.1547 39.2102 43.8734 39.7726 42.8743 40.6438C42.7443 40.7676 42.3301 41.5413 43.6784 41.5413Z" fill="white"/>
<path d="M43.6782 41.5416C56.3087 41.6309 70.8581 41.5294 83.5069 41.5213H84.4714C84.4714 41.4807 84.4958 41.5781 84.4816 41.568C84.2196 41.5355 84.7151 41.2451 84.6318 41.1233C83.8886 40.7172 83.0215 40.5527 82.1849 40.4471C80.8325 40.2704 79.4091 40.3415 78.1237 39.8115C77.017 39.383 76.418 38.3048 75.6321 37.4905C74.8304 36.6724 73.8603 36.0384 72.7892 35.6325C68.598 34.0811 66.074 36.4813 62.4331 37.9068C61.5742 38.2352 60.6597 38.3938 59.7404 38.3738C58.8264 38.3043 57.9205 38.1528 57.0336 37.921C56.1422 37.7179 55.2365 37.5291 54.3187 37.5981C52.4424 37.655 50.9621 39.0622 49.1183 39.2551C48.2045 39.3566 47.2907 39.2307 46.3728 39.2328C45.4527 39.2529 44.555 39.5201 43.7737 40.0064C43.4782 40.1848 43.199 40.3886 42.9391 40.6156C42.8476 40.6858 42.7807 40.7832 42.7482 40.8938C42.5654 41.4583 43.2761 41.5578 43.6823 41.5538L43.6782 41.5416ZM43.6782 41.5416C43.2721 41.5517 42.5573 41.436 42.7421 40.8816C42.7749 40.7712 42.8417 40.6738 42.933 40.6034C43.1933 40.377 43.4725 40.1732 43.7676 39.9943C44.5497 39.5075 45.4478 39.239 46.3688 39.2165C47.2846 39.2165 48.1963 39.3384 49.1122 39.2368C50.956 39.0338 52.4343 37.6326 54.3146 37.5738C55.2325 37.5027 56.1422 37.6976 57.0336 37.8946C57.9193 38.1246 58.8239 38.2748 59.7364 38.3434C60.6532 38.3629 61.565 38.2036 62.4209 37.8743C66.076 36.4407 68.5899 34.0384 72.8014 35.5898C74.0974 36.0768 75.2424 36.8962 76.1215 37.9657C76.6941 38.6662 77.2728 39.4237 78.142 39.7607C79.4233 40.2867 80.8366 40.2136 82.191 40.3882C83.0398 40.5019 83.9252 40.6583 84.6704 41.0867C84.6834 41.1175 84.687 41.1515 84.6809 41.1843C84.6748 41.2172 84.6591 41.2475 84.6359 41.2715C84.6034 41.3446 84.4633 41.436 84.4531 41.5091C84.4531 41.5091 84.4734 41.5091 84.4816 41.5091C84.4897 41.5091 84.4816 41.5985 84.4714 41.5558H83.5069C70.854 41.5558 56.3128 41.635 43.6782 41.5314V41.5416Z" fill="#263238"/>
<path d="M49.2664 44.9386C49.2664 44.9386 47.5912 43.3141 47.8003 42.9181C48.0095 42.5222 49.6563 43.0643 49.6563 43.0643C49.6563 43.0643 48.4989 42.4287 48.7486 41.9333C48.9984 41.4378 50.7224 41.5393 51.5306 41.848C51.5306 41.848 50.7183 41.3139 51.1996 40.8225C51.6808 40.3311 53.3317 40.4956 54.0648 40.7149C54.7979 40.9342 56.8305 42.0693 56.8305 42.0693C56.8305 42.0693 55.3218 39.9758 55.2446 38.928C55.1674 37.8802 55.2811 37.0435 55.472 36.9948C55.6629 36.9461 55.9959 37.4821 55.9959 37.4821C55.9959 37.4821 55.2791 35.8211 55.2365 34.9946C55.1938 34.1682 55.4761 33.1224 55.7462 33.1082C56.0162 33.094 56.0751 33.4371 56.0751 33.4371C56.0751 33.4371 54.477 30.4948 53.8414 28.8297C53.2058 27.1645 53.0292 25.473 53.1206 25.2497C53.1206 25.2497 52.1621 23.7125 52.2982 22.0778C52.2982 22.0778 50.0421 18.6116 49.701 17.5252C49.4887 16.8177 49.3726 16.0848 49.3558 15.3463C49.3558 15.3463 48.5314 14.2417 48.838 13.2649C48.838 13.2649 44.3909 7.27865 45.2844 6.68368C46.1779 6.08871 60.3313 22.5327 66.6526 32.0868C72.974 41.6409 73.5568 46.2484 73.6725 48.2546C73.7882 50.2609 72.5029 52.0377 72.5029 52.0377C72.5029 52.0377 73.1384 53.6276 72.8481 54.4744C72.5577 55.3212 68.5959 54.8318 68.5959 54.8318L49.2664 44.9386Z" fill="#97F675"/>
<g opacity="0.2">
<path d="M65.4566 31.1339C65.2759 31.0039 64.3743 30.281 64.2748 30.6506C64.2505 30.9332 64.3339 31.2147 64.5083 31.4385L64.5916 31.5644L64.4819 31.4608C60.776 28.0534 63.0747 32.405 64.1144 34.0113C64.5123 34.6383 64.9685 35.2264 65.4769 35.7677L65.3855 35.853C64.8494 35.2926 64.3215 34.6712 63.6575 34.2671C63.6108 34.2448 63.5174 34.1981 63.4889 34.2468C63.4564 34.4986 63.5965 34.8052 63.6696 35.0591C64.0758 36.1759 64.5652 37.2582 65.0667 38.3324C65.4079 39.0472 65.7551 39.7539 66.1348 40.4504L65.9785 40.5296C65.2393 39.098 64.557 37.5527 63.4991 36.3343C63.3996 36.247 63.2351 36.0825 63.1782 36.2713C63.03 36.8379 63.2148 37.4552 63.3996 38.0075C63.6809 38.7702 64.0352 39.504 64.4575 40.1986L64.3093 40.3001C64.1559 40.0838 63.9855 39.8801 63.7996 39.6909C62.8229 38.7081 63.1234 40.3306 63.2595 40.8666C63.5368 42.0514 64.0096 43.1817 64.6586 44.2111C64.0595 43.7034 63.4402 43.1958 62.8168 42.7226C62.3965 42.4099 58.8307 39.5995 59.2429 41.4149C59.3452 41.7145 59.488 41.9987 59.6673 42.2596C59.9867 42.8485 60.4377 43.3558 60.9852 43.742C60.0001 43.2245 58.9688 42.8003 57.9047 42.4749C56.197 42.0261 56.3472 42.8912 57.4336 43.8029C57.0925 43.4861 56.6214 43.1409 56.5889 42.6434C56.7818 41.8556 58.7982 42.7165 59.3099 42.8973C59.7648 43.076 60.2135 43.2709 60.6562 43.4821L60.6095 43.5572C60.1161 43.2668 58.2032 40.7286 59.5739 40.6981C60.2318 40.7509 60.7821 41.1773 61.3304 41.5103C61.8786 41.8434 62.3883 42.2373 62.898 42.6231C63.4077 43.0089 63.9133 43.4069 64.4047 43.8151L64.2971 43.9105C63.7591 42.9729 63.3565 41.9638 63.1011 40.9133C62.9893 40.5171 62.9366 40.1066 62.9447 39.695C63.0239 38.966 63.5539 39.1893 63.9235 39.5731C64.1177 39.7667 64.2956 39.9758 64.4555 40.1986L64.3052 40.2981C63.871 39.5908 63.5071 38.8427 63.2189 38.0644C63.0158 37.4714 62.8127 36.8298 62.9894 36.1921C63.4442 35.2073 64.7845 37.8897 65.02 38.2512C65.416 38.9741 65.7876 39.7072 66.1429 40.4504L65.9886 40.5296C65.2373 39.1244 64.5773 37.6867 63.958 36.2165C63.8727 35.918 62.7985 33.7026 63.7184 34.1392C64.4088 34.5595 64.9368 35.185 65.4789 35.7637L65.3876 35.849C64.8763 35.299 64.4181 34.7021 64.0189 34.0661C62.8919 32.3827 60.7516 27.8991 64.5063 31.4263L64.4799 31.4486C64.304 31.2165 64.2234 30.9259 64.2545 30.6364C64.3743 30.2302 65.2698 30.9937 65.4566 31.1237V31.1339Z" fill="black"/>
<path d="M62.4147 30.3314C62.0086 30.1284 61.109 29.6105 60.7008 29.9375C60.6084 30.1146 60.5757 30.3169 60.6074 30.5142C60.72 31.4345 60.9241 32.3412 61.2166 33.221C60.7354 32.6788 59.5515 31.5356 59.9211 33.1296C60.1264 33.8826 60.3983 34.6158 60.7333 35.3207L60.5607 35.3978C60.3089 34.9084 60.0815 34.2769 59.6774 33.9094C59.6774 33.9094 59.6774 33.9094 59.6957 33.9094C59.6574 34.0331 59.6369 34.1616 59.6348 34.2911C59.6896 35.5989 60.315 36.8193 60.8328 38.0011L60.6744 38.0823C60.3455 37.5381 60.0348 36.9188 59.5556 36.4944C59.5319 36.4783 59.5058 36.466 59.4784 36.4578C59.4642 36.4578 59.4662 36.4578 59.45 36.4801C59.4239 36.5448 59.4095 36.6135 59.4073 36.6832C59.4165 37.1726 59.5071 37.6571 59.6754 38.1168C60.1046 39.3719 60.7016 40.5632 61.4501 41.6582C60.6509 40.5935 60.0119 39.4175 59.5535 38.1676C59.3703 37.6946 59.268 37.1942 59.251 36.6873C59.322 35.743 60.0998 36.8497 60.2947 37.1523C60.4897 37.4548 60.6541 37.7127 60.8206 38.0031L60.6623 38.0864C60.2785 37.2416 58.9423 34.5043 59.5962 33.7388C59.984 33.5662 60.5628 35.0323 60.7232 35.3328L60.5506 35.41C60.179 34.4962 59.714 33.5824 59.6815 32.5671C59.8216 31.6188 60.8105 32.5671 61.1151 32.9245L60.9973 32.9895C60.8863 32.5834 60.7868 32.1772 60.6988 31.7711C60.2927 29.8217 60.4531 29.2166 62.4147 30.3395V30.3314Z" fill="black"/>
<path d="M49.2461 11.4043C49.9791 12.1107 50.6733 12.8563 51.3255 13.638C53.3073 15.959 55.1999 18.3551 57.0802 20.7594C59.5474 23.9962 62.0593 27.2025 64.2707 30.6262C63.698 29.7835 63.0889 28.9692 62.4817 28.1549C59.4276 24.0937 56.3208 20.0683 53.1611 16.0788C51.8798 14.503 50.6594 12.8663 49.2461 11.4084V11.4043Z" fill="black"/>
<path d="M62.622 30.1492C61.5459 29.4368 60.5505 28.6096 59.6532 27.682C58.3151 26.0068 57.2165 24.1609 55.9311 22.4349C54.4589 20.3291 52.9704 18.2335 51.4089 16.1927C50.883 15.5166 50.355 14.8404 49.7722 14.2129C52.1582 16.6821 54.0914 19.5433 56.0976 22.3191C57.0764 23.7264 58.0511 25.1376 58.9973 26.5672C59.2202 26.9303 59.4714 27.2753 59.7487 27.5988C60.6252 28.5362 61.5872 29.3901 62.622 30.1492Z" fill="black"/>
<path d="M60.7902 31.9094C57.3415 29.2195 54.4542 25.879 52.292 22.0771C52.6047 22.5239 52.8809 22.993 53.2058 23.4295C55.3996 26.5382 57.9446 29.3836 60.7902 31.9094Z" fill="black"/>
<path d="M50.9011 18.13C52.4606 20.2499 53.9044 22.4653 55.2568 24.7173C56.5613 26.6112 58.0764 28.351 59.7729 29.9035C60.0132 30.1276 60.279 30.3225 60.5649 30.4843C60.2671 30.3408 59.9893 30.1592 59.7384 29.9441C57.9646 28.4562 56.3997 26.7356 55.0862 24.829C53.9227 22.8451 52.1601 20.0875 50.9011 18.1279V18.13Z" fill="black"/>
<path d="M53.1248 25.249C54.071 26.8106 55.2671 28.2015 56.4266 29.6067C57.586 31.0119 58.8125 32.4029 60.0126 33.7492C58.6886 32.4858 57.4397 31.146 56.2722 29.7367C55.127 28.3153 53.9329 26.8938 53.1248 25.249Z" fill="black"/>
<path d="M59.911 36.7562C58.2438 34.6829 54.0384 29.0946 53.8577 26.6152C54.0039 27.596 54.546 28.4611 55.0151 29.32C55.4842 30.179 56.0304 31.0156 56.5767 31.84C57.5067 33.2899 58.9241 35.3144 59.911 36.7562Z" fill="black"/>
<path d="M55.9288 33.1672C56.2821 34.2699 57.0517 35.1836 57.7137 36.1157C58.4122 37.0396 59.1534 37.9311 59.8723 38.8428C59.6692 38.6398 59.4661 38.4367 59.2631 38.2336C58.2406 37.1891 57.3393 36.0325 56.5766 34.7856C56.3004 34.2759 55.9958 33.75 55.9268 33.1611L55.9288 33.1672Z" fill="black"/>
<path d="M55.9939 37.4814C56.8488 39.0288 58.1159 40.3873 59.2896 41.7011C57.9067 40.5721 56.6173 39.179 55.9939 37.4814Z" fill="black"/>
</g>
<path opacity="0.3" d="M50.7001 43.9596C51.1956 42.6904 53.6567 44.0611 54.5583 44.2459C54.5806 44.2459 54.6456 44.2459 54.6172 44.2581C54.6273 44.2581 54.5847 44.2581 54.5725 44.2885C54.5608 44.3033 54.5544 44.3215 54.5544 44.3403C54.5544 44.3591 54.5608 44.3774 54.5725 44.3921C54.3918 44.2601 53.1876 43.7504 53.6567 43.4499C53.7286 43.4298 53.8037 43.4236 53.878 43.4316C54.3644 43.4975 54.8456 43.5979 55.3177 43.7322C56.1198 43.9352 56.9686 44.2053 57.7646 44.4388L57.8073 44.449H57.8276C57.8163 44.4514 57.8063 44.458 57.7995 44.4673C57.7928 44.4767 57.7898 44.4882 57.791 44.4997C57.527 44.0571 56.9788 43.5656 57.1229 42.9971C57.0377 43.5778 57.59 43.9982 57.8824 44.4368C57.8879 44.4466 57.8926 44.4568 57.8966 44.4672C57.8998 44.476 57.9011 44.4854 57.9006 44.4947C57.9 44.504 57.8976 44.5131 57.8934 44.5215C57.8892 44.5298 57.8834 44.5372 57.8763 44.5433C57.8691 44.5493 57.8609 44.5538 57.8519 44.5566C57.8127 44.5576 57.7736 44.5521 57.7362 44.5403C56.461 44.2439 55.1593 43.7951 53.8658 43.6266C53.8194 43.6198 53.7722 43.6198 53.7257 43.6266C53.7257 43.6266 53.7257 43.6266 53.748 43.6002C53.7704 43.5738 53.748 43.59 53.748 43.59C53.7907 43.6895 53.9125 43.7626 54.0161 43.8378C54.2293 43.988 54.4852 44.0916 54.7045 44.2581C54.7209 44.2757 54.73 44.299 54.73 44.3231C54.73 44.3472 54.7209 44.3704 54.7045 44.388C54.6903 44.4055 54.6712 44.4182 54.6496 44.4246C54.4176 44.3982 54.1909 44.3366 53.9775 44.2418C53.1876 43.986 51.1752 42.8813 50.6838 43.9474L50.7001 43.9596Z" fill="white"/>
<path opacity="0.3" d="M63.5681 37.0781C63.9458 38.1787 64.4697 39.2834 64.8169 40.3962C64.4976 39.8932 64.2302 39.3591 64.0189 38.8021C63.8159 38.2457 63.5844 37.6792 63.5681 37.0781Z" fill="white"/>
<path opacity="0.3" d="M63.4118 39.6388C63.3936 39.9718 63.5337 40.2946 63.6149 40.6155C63.9005 41.5811 64.2395 42.5302 64.6302 43.4584C64.0518 42.6131 63.6536 41.6579 63.4606 40.652C63.4098 40.3231 63.3103 39.9616 63.4118 39.6367V39.6388Z" fill="white"/>
<path opacity="0.3" d="M60.242 32.7451C60.4125 33.4985 60.8511 34.2762 61.0258 35.0621C60.7856 34.7243 60.591 34.3563 60.447 33.9676C60.3151 33.5817 60.1506 33.1553 60.244 32.7492L60.242 32.7451Z" fill="white"/>
<path d="M72.048 54.7649C74.0063 54.5767 75.9825 54.7762 77.8637 55.3518C81.8417 56.6554 81.4904 60.1643 83.0966 61.5046L82.4367 63.9251C82.4367 63.9251 81.8884 64.0307 80.7878 65.1637C79.6872 66.2968 78.2272 67.6898 77.1794 68.0289C76.1316 68.3681 72.2328 69.1316 71.2622 69.4666C70.2915 69.8017 67.4933 71.3612 63.6392 70.7622C59.7851 70.1631 50.4544 64.5667 46.9698 61.4639C43.4853 58.3612 36.3679 49.2376 35.4887 48.0151C34.6094 46.7927 32.4671 40.2094 33.5068 39.651C34.5465 39.0926 39.9804 40.5709 41.6699 41.1943C43.3594 41.8177 48.371 43.8138 49.5345 44.3641C50.6981 44.9144 60.2684 49.6153 63.3427 51.2316C66.4171 52.848 71.2358 54.7527 72.048 54.7649Z" fill="#97F675"/>
<g opacity="0.3">
<path d="M80.2823 65.6721C79.267 66.6874 78.075 67.7372 77.1795 68.0276C76.1317 68.3688 72.2349 69.1302 71.2622 69.4653C70.2896 69.8003 67.4934 71.3599 63.6393 70.7608C60.7294 70.31 54.7045 67.0042 50.4199 64.0801C51.6119 64.5898 55.4254 66.1513 57.7038 66.7199C59.9821 67.2885 63.5926 66.6488 63.4586 66.5432C63.3245 66.4376 61.7386 65.1929 62.6565 65.5462C63.8561 65.9925 65.0806 66.3688 66.3238 66.6732C65.8933 66.2528 64.7318 65.1624 65.6679 65.6437C66.4037 65.9968 67.1613 66.3027 67.9361 66.5595C67.601 66.2833 67.0629 65.5645 67.0893 65.4629C67.1157 65.3614 68.1229 65.7269 68.1229 65.7269C68.1229 65.7269 67.4426 65.1177 67.9198 65.3736C68.397 65.6294 69.6865 66.1696 69.5261 66.062C69.3656 65.9543 68.4722 65.2741 69.3453 65.6558C70.2185 66.0376 72.1456 66.265 72.0014 66.2102C71.8572 66.1554 71.3069 65.5563 71.8166 65.8041C72.3263 66.0518 73.8147 66.2447 75.293 66.6285C77.612 67.2296 78.9786 66.527 80.2823 65.6721Z" fill="white"/>
<path d="M66.334 65.0059C66.6833 65.3917 66.9675 65.7612 67.2985 66.1532C67.0492 66.0668 66.8279 65.9145 66.658 65.7125C66.4882 65.5105 66.3763 65.2663 66.334 65.0059Z" fill="white"/>
<path d="M70.6348 65.8245C69.6966 65.7534 68.7361 65.4712 68.0315 64.8193C68.8762 65.2255 69.7656 65.4773 70.6348 65.8245Z" fill="white"/>
<path d="M62.7968 66.3938C62.5714 66.3408 62.3624 66.233 62.1885 66.08C62.0146 65.927 61.8811 65.7335 61.7998 65.5166C62.1722 65.76 62.508 66.0554 62.7968 66.3938Z" fill="white"/>
</g>
<path d="M80.676 64.2478C81.2202 64.39 81.5533 64.0813 82.5645 63.9006C83.0943 63.7747 83.6314 63.6817 84.1728 63.6224C84.1728 63.6224 83.0255 62.6944 82.4386 62.8508C81.8518 63.0071 80.676 64.2478 80.676 64.2478Z" fill="#A6A6A6"/>
<path d="M83.0968 61.5039C82.5971 61.6068 82.133 61.8385 81.7505 62.176C81.3586 62.5355 81.2429 63.0634 80.9606 63.8208C80.8717 64.0023 80.717 64.1431 80.5281 64.2148C81.2571 64.4442 81.7464 63.6482 82.7861 63.5325C83.8258 63.4168 84.5345 63.7924 84.6502 63.6543C84.766 63.5163 84.2258 62.3507 83.0968 61.5039Z" fill="#C7C7C7"/>
<path d="M81.9189 62.6261C81.8539 62.6748 81.7402 62.9956 81.9047 62.8291C81.9339 62.7904 81.9603 62.7497 81.9839 62.7073C81.9813 62.7466 81.9706 62.785 81.9524 62.8199C81.9342 62.8549 81.909 62.8857 81.8783 62.9103C81.8707 62.9157 81.8622 62.9195 81.8531 62.9214C81.8441 62.9234 81.8348 62.9235 81.8257 62.9218C81.8166 62.9201 81.8079 62.9166 81.8002 62.9115C81.7925 62.9064 81.7859 62.8998 81.7808 62.8921C81.7708 62.8384 81.7789 62.7829 81.8039 62.7344C81.8289 62.6858 81.8694 62.647 81.9189 62.624V62.6261Z" fill="#263238"/>
<path d="M42.5328 41.5202C40.3925 40.5455 38.0512 37.5869 37.0501 35.9543C36.049 34.3216 29.8312 23.141 29.2159 21.8211C28.6007 20.5012 26.1822 16.0338 25.5771 16.4501C24.9719 16.8664 27.2584 21.3581 27.2584 21.3581C27.2584 21.3581 26.3121 21.5795 28.3143 25.6224C28.3143 25.6224 27.2868 26.0286 29.35 30.0512C29.35 30.0512 27.6381 29.1923 30.0972 34.3318C30.0972 34.3318 29.0108 34.1165 28.7611 34.2343C28.5113 34.3521 28.6758 34.7257 28.6758 34.7257C28.6758 34.7257 28.1803 34.5369 27.9976 35.1319C27.8897 35.4952 27.8805 35.8807 27.9712 36.2487C27.9712 36.2487 25.4268 35.2842 25.6847 36.3218C25.6847 36.3218 22.2529 34.8516 20.9797 34.6059C19.7065 34.3602 19.2456 34.7907 19.2456 34.7907C18.7075 34.5973 18.13 34.5394 17.5642 34.6222C16.5814 34.7521 13.7324 33.7064 13.773 34.6506C13.773 34.6506 9.47422 32.7337 8.27615 32.5469C7.07808 32.3601 6.90548 32.5855 6.13181 32.4047C5.35814 32.224 2.76504 30.9853 2.38328 31.6696C2.00152 32.354 3.29503 33.0505 11.4825 37.197C19.67 41.3435 32.1279 45.4941 33.6041 46.3774C35.0804 47.2608 36.4104 49.2203 36.4104 49.2203L42.5328 41.5202Z" fill="#97F675"/>
<g opacity="0.2">
<path d="M6.13184 32.4072C14.5427 36.0339 23.4165 39.9957 31.7035 43.9168C23.4368 40.3084 14.301 36.2167 6.13184 32.4072Z" fill="black"/>
<path d="M13.2776 36.3232C16.0128 37.6431 19.7431 39.6819 22.5332 40.7622C25.705 42.0496 28.9317 43.2131 32.0771 44.5777C31.2811 44.265 30.4749 43.9685 29.6708 43.6802C27.3275 42.8172 24.7669 41.8648 22.4601 40.951C19.2781 39.6636 16.2931 37.9538 13.2817 36.3232H13.2776Z" fill="black"/>
<path d="M13.7732 34.6536C16.8476 35.9227 20.0905 37.1857 23.1303 38.5341C26.1762 39.986 29.1186 41.6612 32.065 43.3182L29.8131 42.1608C27.7155 41.0927 25.1772 39.6936 23.0511 38.7087C19.9747 37.3218 16.8313 36.0689 13.7773 34.6475L13.7732 34.6536Z" fill="black"/>
<path d="M19.2454 34.7939C21.741 35.6265 24.062 36.918 26.381 38.1485C28.5944 39.4908 30.8341 41.0259 32.9622 42.5022L31.287 41.4625C29.6625 40.4472 27.91 39.2877 26.2794 38.3252C25.1403 37.6774 23.9727 37.0743 22.8071 36.4712C21.6415 35.8681 20.4779 35.2529 19.2454 34.7939Z" fill="black"/>
<path d="M25.6846 36.3252C28.8219 37.7974 31.7135 39.7874 34.3878 41.9845C31.5449 40.0067 28.7021 38.037 25.6846 36.3252Z" fill="black"/>
<path d="M27.9709 36.2529C30.5945 37.3657 32.8851 39.1588 34.934 41.1163L34.0912 40.4665C32.154 38.9273 30.1397 37.4449 27.9709 36.2529Z" fill="black"/>
<path d="M27.2585 21.3594C29.0861 24.5515 31.2122 27.764 33.056 30.9439C34.453 33.3644 36.2684 35.5189 37.9681 37.7323L39.7063 39.9274C37.8787 37.8095 36.0836 35.6489 34.4266 33.3908C33.8649 32.6412 33.3496 31.8579 32.8834 31.0454C31.0274 27.8086 28.9724 24.6774 27.2606 21.3594H27.2585Z" fill="black"/>
<path d="M28.3145 25.6223C29.7156 28.2053 31.3949 30.64 33.125 33.0097C34.4449 34.7703 35.9293 36.413 37.3893 38.0741L38.8473 39.7311C36.7943 37.6213 34.7678 35.4668 32.9727 33.1295C31.2528 30.7415 29.5856 28.2865 28.3246 25.6162L28.3145 25.6223Z" fill="black"/>
<path d="M29.35 30.0469C30.5562 31.7831 31.7604 33.5395 33.1513 35.1234C34.1666 36.2586 35.4825 37.3571 36.5689 38.4415C36.9466 38.8151 37.3283 39.1826 37.702 39.5583C37.2958 39.2151 36.9019 38.8618 36.4998 38.5146C35.3586 37.4708 34.0428 36.3966 33.0011 35.2656C31.6298 33.6383 30.4065 31.8918 29.3459 30.0469H29.35Z" fill="black"/>
<path d="M30.0974 34.3311C31.793 36.2277 34.7414 38.4573 36.6746 40.1569C35.4636 39.3237 34.2971 38.4277 33.1799 37.4724C32.0813 36.5059 30.9361 35.5433 30.0974 34.3311Z" fill="black"/>
<path d="M28.6758 34.7178C31.185 36.4663 33.5545 38.4073 35.7627 40.5233C34.5646 39.6136 33.3686 38.5841 32.207 37.6358C31.0455 36.6875 29.8068 35.6864 28.6758 34.7178Z" fill="black"/>
</g>
<g opacity="0.3">
<path d="M3.01323 31.8545C2.71473 32.1916 4.68038 33.1297 4.96263 33.3226C6.69475 34.2791 8.86752 35.4203 10.6057 36.3828C10.9773 36.5858 11.353 36.7889 11.7246 37.0143C11.3327 36.8397 10.9469 36.6529 10.559 36.4701C9.79348 36.0904 2.40811 32.4941 3.01323 31.8545Z" fill="white"/>
<path d="M14.8923 34.551C14.963 34.5249 15.039 34.5165 15.1137 34.5267C15.8467 34.5713 16.5514 34.815 17.2682 34.9328C17.6278 34.8808 17.9914 34.8611 18.3545 34.8739C18.2226 34.9023 17.4387 35.077 17.325 35.1094C16.7808 35.0952 16.2589 34.9064 15.7391 34.7724C15.4975 34.7155 15.1299 34.5551 14.8923 34.5551V34.551Z" fill="white"/>
<path d="M25.8374 17.2521C26.1318 18.109 26.7715 19.2665 27.1573 20.095L28.5381 22.9175C27.9494 22.0468 27.4267 21.1332 26.9746 20.1843C26.538 19.234 26.0445 18.2816 25.8374 17.248V17.2521Z" fill="white"/>
<path d="M27.4622 22.5518C28.1343 24.4484 29.0704 26.2292 30.0289 27.9959C28.8328 26.3714 27.8683 24.5438 27.4622 22.5518Z" fill="white"/>
</g>
<path opacity="0.2" d="M52.4382 45.7786C54.9339 46.8163 57.3503 48.0286 59.7668 49.2307C61.375 50.0429 62.9081 50.9689 64.5671 51.6938C66.9572 52.7335 69.5198 54.1184 72.048 54.756C71.6073 54.6687 71.1707 54.553 70.7382 54.4271C69.4386 54.0514 68.2081 53.4706 66.9592 52.9569C65.3022 52.234 63.6554 51.5253 62.0492 50.6826C60.709 49.8703 58.6844 48.8977 57.2772 48.1646C55.868 47.462 53.8576 46.4142 52.4382 45.7705V45.7786Z" fill="black"/>
<path d="M75.9814 62.7382C75.9814 62.5696 76.5642 61.8406 77.2851 61.9544C77.876 62.0478 78.4182 62.6184 78.5502 62.6691C78.6822 62.7199 78.8324 62.7565 78.8182 62.8032C78.804 62.8499 78.6152 62.8945 78.5827 62.9291C78.3512 63.1565 77.9044 63.7169 77.0374 63.6012C76.7954 63.5791 76.5655 63.485 76.3774 63.3313C76.1892 63.1775 76.0513 62.9709 75.9814 62.7382Z" fill="#263238"/>
<g opacity="0.2">
<path d="M75.6016 62.4303C76.4829 61.4962 77.4515 61.1023 78.4647 62.1176C78.5704 62.2308 78.6875 62.3329 78.814 62.4222C78.6764 62.3493 78.5482 62.26 78.4323 62.1562C77.3723 61.2241 76.5681 61.6282 75.6016 62.4303Z" fill="black"/>
<path d="M75.8455 63.2461C76.3755 63.7944 77.1735 64.0949 77.8923 63.7294C78.1274 63.6306 78.3542 63.5131 78.5706 63.3781C78.3738 63.5458 78.1569 63.6884 77.9248 63.8025C77.21 64.2086 76.3003 63.8979 75.8455 63.2461Z" fill="black"/>
</g>
<path d="M77.6121 62.37C77.7062 62.3505 77.8042 62.3684 77.8853 62.42C77.9665 62.4715 78.0243 62.5527 78.0466 62.6462C77.9595 62.6313 77.8762 62.5992 77.8016 62.5518C77.727 62.5044 77.6625 62.4426 77.6121 62.37Z" fill="white"/>
<path d="M76.3508 62.5699C76.4614 62.4013 76.6308 62.2799 76.8259 62.2292C77.0211 62.1785 77.2281 62.2023 77.4068 62.2958C77.0395 62.3123 76.6798 62.4057 76.3508 62.5699Z" fill="white"/>
<g opacity="0.2">
<path d="M71.7371 55.0098C71.3005 55.1438 70.868 55.288 70.4375 55.4301C70.1222 55.5181 69.8192 55.6457 69.5359 55.8098C69.4242 55.9114 69.5806 55.9926 69.6476 56.0535C69.3085 56.283 68.8516 56.5307 68.7176 56.9328C68.5835 57.3348 68.5267 57.7328 68.4373 58.1369C68.2891 58.8761 67.9926 59.664 68.1754 60.4193C68.1876 60.4681 68.214 60.5493 68.2566 60.5188C68.2363 60.5473 68.2058 60.5188 68.1937 60.4945C68.0541 60.1249 68.0094 59.7263 68.0637 59.335C68.1916 58.5999 68.3318 57.5887 68.5267 56.8759C68.6546 56.4454 69.0831 56.1936 69.4364 55.9621L69.4263 56.1185C69.1237 55.8301 69.475 55.5804 69.739 55.5093C70.3918 55.2942 71.0597 55.1279 71.7371 55.0118V55.0098Z" fill="black"/>
<path d="M68.9937 55.7959C68.7094 55.999 68.2992 56.1553 68.1368 56.4599C68.0511 56.8249 68.0041 57.1979 67.9967 57.5727C67.9815 57.829 67.9815 58.086 67.9967 58.3423C67.9062 58.0958 67.8535 57.837 67.8403 57.5747C67.8026 57.1763 67.8419 56.7744 67.9561 56.3909C68.149 56.0172 68.6262 55.9056 68.9937 55.7959Z" fill="black"/>
<path d="M67.7571 59.5537C67.7003 60.1949 67.8079 60.84 68.0699 61.428L68.3399 62.0229C67.7612 61.3671 67.4444 60.3985 67.7571 59.5537Z" fill="black"/>
<path d="M68.3541 61.4014C68.4769 61.8608 68.7033 62.2859 69.0161 62.6441C68.8086 62.511 68.6387 62.3268 68.5228 62.1092C68.4069 61.8916 68.3488 61.6479 68.3541 61.4014Z" fill="black"/>
</g>
<g opacity="0.2">
<path d="M48.7791 48.4988C48.7608 48.5394 48.7405 48.7425 48.6593 48.8115C48.5007 48.8829 48.3334 48.9334 48.1618 48.9618C48.1816 49.065 48.1767 49.1715 48.1476 49.2725C47.966 49.4228 47.7599 49.5409 47.5384 49.6217C47.2934 49.6537 47.0462 49.6653 46.7993 49.6562C46.7993 49.6562 46.978 49.9141 46.915 50.0096C46.8521 50.105 46.2368 49.8816 45.8997 49.837C45.5626 49.7923 44.6062 49.7009 44.6062 49.7009C44.6062 49.7009 45.1037 50.0136 45.0326 50.0502C44.9616 50.0867 44.1452 50.0867 43.8142 49.8918C43.4833 49.6969 42.7685 49.3821 42.7685 49.3821C42.7685 49.3821 43.3249 49.7639 43.1746 49.7415C43.0243 49.7192 40.9551 49.2014 40.015 48.5232C39.3886 48.0326 38.8094 47.4846 38.2849 46.8865C38.031 46.6103 37.8259 46.3869 37.7021 46.2773C37.3406 45.9564 36.7111 45.2315 36.6705 45.0589C36.634 44.9168 36.8858 45.1584 36.9751 45.2478C36.6441 44.8883 35.9273 43.9461 35.8887 43.7999C35.8501 43.6537 36.1669 43.9563 36.2461 44.0294C36.018 43.8026 35.8138 43.5528 35.6369 43.2841C35.4034 42.9024 35.7953 43.0181 35.6715 42.7562C35.5476 42.4942 35.5009 42.4922 35.5537 42.3846C35.6065 42.277 35.8522 42.3846 35.8522 42.3846C35.8522 42.3846 35.5516 41.751 35.5841 41.6475C35.6166 41.5439 36.2075 41.3347 36.2075 41.3347L36.2705 41.2149C36.3416 41.0769 36.8898 41.0647 36.9365 41.0748C36.9832 41.085 36.7091 40.6565 36.7558 40.4839C36.8025 40.3113 38.362 40.5672 38.362 40.5672C38.362 40.5672 37.629 40.1042 38.1285 40.2382L40.0515 40.7581C40.0515 40.7581 39.9317 40.6931 39.7916 40.6098C39.5601 40.4778 39.2778 40.3052 39.4261 40.3458C40.0295 40.3983 40.6249 40.5196 41.2008 40.7073C41.6123 41.0289 42.0576 41.3047 42.5289 41.5297C43.3858 41.8607 44.5331 42.3074 45.656 42.7602C45.8002 42.8638 45.9119 42.9633 45.9017 42.9796C45.8733 43.0425 45.4327 42.7948 45.4327 42.7948L45.8936 43.0994C46.2117 43.3492 46.5073 43.6264 46.7769 43.9279C46.7587 43.9583 46.2916 43.6497 46.4216 43.7471C46.5515 43.8446 47.1323 44.5472 47.3008 44.6812C47.4694 44.8152 48.176 45.4102 48.1476 45.4529C48.1192 45.4955 47.7293 45.2498 47.7293 45.2498C47.9519 45.3972 48.1618 45.5629 48.3568 45.7453C48.4786 45.8996 48.8157 46.2671 48.7629 46.3098C48.7101 46.3524 48.5476 46.1798 48.5192 46.1514C48.5679 46.2184 49.0898 46.9271 49.1081 47.1261C49.1264 47.3251 48.905 47.3921 48.8725 47.52C48.84 47.648 49.169 48.184 49.5508 48.5353C49.6726 48.6551 48.7974 48.4582 48.7791 48.4988Z" fill="white"/>
<path d="M35.2186 42.6357C35.3644 43.0328 35.5698 43.4053 35.8278 43.7404C35.6243 43.6421 35.4564 43.483 35.3472 43.2851C35.2381 43.0872 35.1932 42.8603 35.2186 42.6357Z" fill="white"/>
<path d="M38.8269 47.4795C39.3122 48.1906 39.98 48.758 40.7601 49.1223C41.3084 49.4598 41.9038 49.7144 42.5267 49.8777C42.7298 49.9508 42.9328 50.0198 43.1359 50.101C42.7115 50.0015 42.3033 49.898 41.8708 49.8106C41.4635 49.6544 41.0678 49.4691 40.687 49.2563C39.888 48.8853 39.234 48.2607 38.8269 47.4795Z" fill="white"/>
<path d="M46.7849 44.1182C46.9717 44.2827 47.2844 44.4675 47.4875 44.6178C47.7313 44.7833 47.9449 44.9893 48.119 45.227C47.9931 45.1535 47.8711 45.0735 47.7535 44.9873C47.4083 44.7254 46.99 44.5142 46.7849 44.1162V44.1182Z" fill="white"/>
<path d="M48.4397 46.9209C48.5879 47.124 48.858 47.3636 49.0286 47.5504C49.2341 47.7623 49.4023 48.0074 49.5261 48.2753C49.4165 48.1786 49.3128 48.0756 49.2154 47.9667C48.9291 47.6418 48.5595 47.3575 48.4397 46.9209Z" fill="white"/>
<path d="M37.8215 39.9961C38.6211 40.0293 39.3951 40.2869 40.0552 40.7393C39.31 40.4713 38.581 40.2438 37.8215 39.9961Z" fill="white"/>
<path d="M36.51 45.1992C36.9218 45.7499 37.3991 46.2484 37.9314 46.6836L38.7437 47.3172C39.0158 47.5304 39.2899 47.7436 39.5559 47.9731C38.3904 47.2542 37.1314 46.4623 36.51 45.1992Z" fill="white"/>
<path d="M47.9626 45.4062C48.1964 45.5421 48.4143 45.7035 48.6124 45.8875C48.7108 46.0098 48.8217 46.1215 48.9434 46.2205C49.2659 46.4944 49.605 46.7481 49.9588 46.98C49.4427 46.8053 48.9786 46.5045 48.6084 46.1048C48.4071 45.8594 48.1915 45.6262 47.9626 45.4062Z" fill="white"/>
<path d="M35.0093 40.8507C35.2926 41.2367 35.5459 41.6441 35.7667 42.069C35.8601 42.3432 35.9941 42.5808 36.1058 42.8488C35.8594 42.5561 35.6544 42.2308 35.4966 41.8822C35.293 41.5578 35.1274 41.211 35.0032 40.8486L35.0093 40.8507Z" fill="white"/>
<path d="M48.6855 46.5304C49.0207 46.8374 49.3335 47.1679 49.6217 47.5193C49.8247 47.9255 50.2166 48.161 50.5842 48.4128C50.1679 48.2422 49.7232 48.0168 49.5019 47.6006C49.197 47.2696 48.925 46.9099 48.6896 46.5264L48.6855 46.5304Z" fill="white"/>
<path d="M36.3108 40.0322C36.7857 40.097 37.2549 40.1989 37.714 40.3368C37.9739 40.4607 38.2399 40.5297 38.51 40.6353C38.1293 40.6071 37.7542 40.5272 37.3951 40.3977C37.0212 40.3167 36.6575 40.1941 36.3108 40.0322Z" fill="white"/>
<path d="M46.801 49.6559C47.6419 49.5292 48.5005 49.5938 49.3129 49.8447C48.4844 49.796 47.6275 49.7432 46.801 49.6559Z" fill="white"/>
<path d="M48.1619 48.9615C48.4028 48.8408 48.6754 48.7982 48.9416 48.8397C49.339 48.9954 49.7257 49.1772 50.0991 49.3839C49.693 49.2681 49.2868 49.1179 48.899 48.9777C48.6655 48.9453 48.4096 49.0001 48.1619 48.9595V48.9615Z" fill="white"/>
<path d="M49.8938 48.7529C50.4908 48.8809 51.0025 49.2545 51.4878 49.6119C50.8969 49.4352 50.4075 49.0738 49.8938 48.7529Z" fill="white"/>
<path d="M45.4226 49.7812C45.8668 49.8308 46.3081 49.904 46.7445 50.0006C47.1771 50.0452 47.6482 49.9478 48.0827 50.031C48.5173 50.1143 48.9721 50.161 49.4107 50.2666C49.8494 50.3722 50.2514 50.5752 50.6921 50.6727C50.3572 50.638 50.0275 50.5651 49.7093 50.4554C49.1668 50.333 48.6176 50.2428 48.0644 50.1853C47.6116 50.0858 47.1811 50.1853 46.7263 50.1183C46.2714 50.0513 45.8653 49.8625 45.4226 49.7833V49.7812Z" fill="white"/>
<path d="M44.5959 49.7002C45.093 49.7828 45.5841 49.8981 46.066 50.0454C46.2115 50.1147 46.366 50.1633 46.5249 50.1896C47.1849 50.2485 47.8449 50.0921 48.5109 50.2952C48.1802 50.2738 47.8486 50.2738 47.5179 50.2952C47.1836 50.3604 46.8416 50.3768 46.5026 50.3439C46.3323 50.3154 46.1673 50.2614 46.0132 50.1835C45.5523 49.9967 45.0568 49.8972 44.5918 49.7043L44.5959 49.7002Z" fill="white"/>
<path d="M46.4988 49.54C46.8927 49.5827 47.2867 49.7228 47.6664 49.7634C48.0038 49.7824 48.3382 49.8382 48.6634 49.9299C48.3317 49.9435 47.9996 49.9387 47.6684 49.9157C47.2614 49.8518 46.8669 49.725 46.4988 49.54Z" fill="white"/>
<path d="M47.7656 49.3918C48.0707 49.2718 48.3964 49.2132 48.7241 49.2192C49.2469 49.3343 49.756 49.5045 50.243 49.7268C49.8236 49.6554 49.4086 49.5598 49.0002 49.4405C48.8089 49.3694 48.6049 49.339 48.4012 49.3512L47.7656 49.3918Z" fill="white"/>
<path d="M48.4338 46.0713C48.7582 46.3745 49.1103 46.6464 49.4857 46.8835C49.7797 47.2158 50.1219 47.5019 50.501 47.7323C50.0695 47.5977 49.6846 47.3444 49.3903 47.0013C49.0076 46.7661 48.6817 46.4492 48.4359 46.0733L48.4338 46.0713Z" fill="white"/>
<path d="M46.4236 43.7412C46.9455 44.192 47.6115 44.4093 48.1719 44.8053C48.7099 45.2248 49.2757 45.6075 49.8655 45.9505C49.2251 45.7042 48.626 45.3618 48.0887 44.9352C47.5364 44.5392 46.8602 44.2814 46.4236 43.7453V43.7412Z" fill="white"/>
<path d="M45.7737 43.0088C46.6854 43.3581 47.4124 44.0363 48.1942 44.6028C47.2967 44.2109 46.5859 43.5428 45.7737 43.0088Z" fill="white"/>
<path d="M41.9805 49.4141C42.6364 49.6273 43.2699 49.8974 43.9339 50.076C44.8193 50.3014 45.7757 50.269 46.6367 50.5999C46.8465 50.6914 47.0658 50.7595 47.2905 50.803C46.8255 50.7847 46.3971 50.5634 45.9503 50.5207C45.5036 50.4781 45.0366 50.4152 44.5797 50.3502C43.6598 50.2263 42.811 49.8121 41.9805 49.4141Z" fill="white"/>
<path d="M45.918 44.0205C46.4236 44.4632 47.0693 44.6662 47.5953 45.0724C48.1619 45.4186 48.7047 45.8026 49.2198 46.2217C48.5395 45.7547 47.8146 45.3506 47.1404 44.8795C46.7221 44.6195 46.2571 44.3982 45.922 44.0225L45.918 44.0205Z" fill="#97F675"/>
<path d="M44.9492 47.3232C45.6863 47.8167 46.594 47.8065 47.4185 48.0624C48.2496 48.3179 49.0466 48.6731 49.7923 49.1203C49.0188 48.7358 48.2154 48.4146 47.39 48.1599C46.5778 47.8999 45.6396 47.8837 44.9533 47.3232H44.9492Z" fill="#97F675"/>
<path d="M46.9514 46.6641C47.3738 46.8245 47.8226 46.8671 48.2348 47.0702C48.647 47.2732 48.9272 47.653 49.2277 47.9819C48.98 47.7789 48.712 47.5413 48.4602 47.3362C48.0297 46.9808 47.4225 46.9666 46.9514 46.6742V46.6641Z" fill="#97F675"/>
<path d="M45.9382 49.2415C46.2469 49.3268 46.5799 49.404 46.8012 49.6476C46.7221 49.6192 46.651 49.5847 46.5779 49.5563C46.3476 49.4864 46.1312 49.3771 45.9382 49.2334V49.2415Z" fill="#97F675"/>
<path d="M36.9324 41.0635C37.4725 41.2198 38.037 41.3153 38.4939 41.6727C38.2259 41.5955 37.9781 41.4554 37.7121 41.3782C37.4367 41.3169 37.1732 41.2105 36.9324 41.0635Z" fill="#97F675"/>
<path d="M38.2178 40.5039C38.4067 40.5754 38.5911 40.6581 38.7701 40.7516C38.9667 40.8275 39.1334 40.965 39.2453 41.1436C39.158 41.0867 38.9549 40.9405 38.8655 40.8978C38.6277 40.8066 38.4082 40.6731 38.2178 40.5039Z" fill="#97F675"/>
<path d="M48.6573 46.271C48.2268 45.9278 47.7618 45.6862 47.3191 45.3633C47.8413 45.5347 48.3049 45.8492 48.6573 46.271Z" fill="#97F675"/>
<path d="M48.1618 48.9613C47.8751 48.8182 47.5983 48.6561 47.3333 48.476C47.1536 48.4055 46.978 48.3248 46.8074 48.2344C46.9986 48.2739 47.1871 48.3255 47.3719 48.3887C47.6551 48.5505 47.9199 48.7425 48.1618 48.9613Z" fill="#97F675"/>
</g>
<g opacity="0.2">
<path d="M46.6084 46.8511C46.5962 46.8795 46.58 47.0298 46.5191 47.0805C46.4027 47.1333 46.2798 47.1702 46.1536 47.1902C46.1679 47.2671 46.1644 47.3463 46.1434 47.4217C46.0087 47.5308 45.8571 47.6172 45.6946 47.6775C45.5143 47.7014 45.3323 47.7102 45.1504 47.7039C45.1504 47.7039 45.2824 47.8928 45.2357 47.9638C45.189 48.0349 44.7362 47.8704 44.4844 47.8359C44.2326 47.8014 43.532 47.7364 43.532 47.7364C43.532 47.7364 43.8975 47.9659 43.8447 47.9943C43.5391 48.0291 43.2296 47.9887 42.9431 47.8765C42.6954 47.7344 42.1715 47.5009 42.1715 47.5009C42.1715 47.5009 42.5776 47.7831 42.466 47.7648C42.3543 47.7466 40.8293 47.3689 40.1368 46.8714C39.6755 46.5094 39.2486 46.1057 38.8616 45.6652C38.6748 45.4621 38.5225 45.2956 38.4311 45.2144C38.1651 44.9788 37.7021 44.4427 37.6716 44.3168C37.6412 44.1909 37.83 44.3899 37.897 44.457C37.5981 44.1258 37.3297 43.7683 37.095 43.3888C37.0706 43.2914 37.298 43.5046 37.3589 43.5574C37.1925 43.3902 37.0435 43.2065 36.9142 43.0091C36.7416 42.7269 37.03 42.8061 36.9386 42.6192C36.8472 42.4324 36.8127 42.4162 36.8513 42.3451C36.8899 42.274 37.0706 42.3451 37.0706 42.3451C36.9802 42.1737 36.9119 41.9915 36.8675 41.8029C36.8899 41.7258 37.3264 41.5714 37.3264 41.5714L37.3792 41.4679C37.43 41.3663 37.8341 41.3582 37.8686 41.3643C37.9031 41.3704 37.7001 41.0577 37.7346 40.9298C37.7691 40.8018 38.9185 40.9907 38.9185 40.9907C38.9185 40.9907 38.3783 40.6495 38.7459 40.747L40.1673 41.1328L39.9744 41.0232C39.8038 40.9237 39.5967 40.7978 39.7043 40.8201C40.1497 40.8581 40.5892 40.9474 41.0141 41.0861C41.3175 41.3238 41.6456 41.528 41.9928 41.6953C42.6243 41.939 43.4691 42.27 44.2976 42.603C44.4052 42.6781 44.4885 42.7451 44.4803 42.7634C44.4722 42.7817 44.1331 42.6274 44.1331 42.6274L44.4722 42.8507C44.7069 43.0351 44.9256 43.2389 45.1261 43.4599C45.1098 43.4823 44.7666 43.2569 44.8621 43.3279C44.9575 43.399 45.386 43.9168 45.5119 44.0163C45.7366 44.1864 45.9453 44.3768 46.1353 44.5849C46.1129 44.6174 45.8266 44.4366 45.8266 44.4366C45.9908 44.5455 46.1456 44.6678 46.2896 44.8022C46.379 44.9159 46.6287 45.186 46.582 45.2083C46.5353 45.2306 46.4236 45.1128 46.4033 45.0925C46.4399 45.1413 46.8237 45.6652 46.8359 45.8114C46.848 45.9576 46.6815 46.0144 46.6632 46.1018C46.645 46.1891 46.8826 46.5911 47.1628 46.8531C47.2704 46.9648 46.6267 46.8206 46.6084 46.8511Z" fill="white"/>
<path d="M36.6136 42.5322C36.7471 42.8123 36.8984 43.0836 37.0664 43.3445C36.9077 43.2837 36.7754 43.169 36.6926 43.0205C36.6098 42.8721 36.5818 42.6992 36.6136 42.5322Z" fill="white"/>
<path d="M39.2737 46.0988C39.6413 46.6126 40.135 47.0231 40.7073 47.2908C41.0412 47.4981 41.3992 47.6638 41.7734 47.7842L42.0028 47.8573C42.1531 47.9121 42.3034 47.9649 42.4496 48.0299C41.8115 47.943 41.1956 47.7363 40.6342 47.4207C40.0426 47.147 39.5625 46.6791 39.2737 46.0947V46.0988Z" fill="white"/>
<path d="M45.1384 43.6211C45.4147 43.7848 45.6756 43.9731 45.9182 44.1836C45.9952 44.261 46.0633 44.3468 46.1212 44.4394C46.0247 44.3914 45.9317 44.3364 45.8431 44.275C45.5831 44.0881 45.2724 43.9277 45.1384 43.6211Z" fill="white"/>
<path d="M46.3586 45.6807C46.5961 45.8967 46.8142 46.1332 47.0105 46.3873C47.0695 46.4796 47.1191 46.5776 47.1587 46.6797C47.0735 46.612 46.9928 46.5387 46.9171 46.4604C46.6998 46.2269 46.4277 46.0076 46.3586 45.6807Z" fill="white"/>
<path d="M38.5325 40.5899C39.1247 40.5876 39.7013 40.7803 40.1732 41.1381C39.6107 40.9635 39.0807 40.799 38.5325 40.5899Z" fill="white"/>
<path d="M37.5662 44.418C38.1753 45.2424 39.0587 45.7825 39.81 46.4608C38.9348 45.9552 38.0048 45.3663 37.5662 44.418Z" fill="white"/>
<path d="M46.0176 44.5703C46.293 44.7236 46.5414 44.9212 46.7527 45.1551C46.9821 45.3582 47.2441 45.5389 47.4877 45.7318C47.0594 45.6109 46.6813 45.3553 46.4095 45.0028C46.2856 44.8546 46.1414 44.7246 46.0176 44.5703Z" fill="white"/>
<path d="M36.4592 41.2139C36.8156 41.653 37.0907 42.1523 37.2715 42.6881C37.081 42.4799 36.9247 42.2427 36.8085 41.9855C36.6577 41.7458 36.5415 41.486 36.4633 41.2139H36.4592Z" fill="white"/>
<path d="M46.5393 45.3987C46.8134 45.6587 47.1282 45.8922 47.3089 46.2313C47.4854 46.4513 47.6984 46.6395 47.9384 46.7877C47.6063 46.6963 47.3181 46.4888 47.1262 46.2029C46.8974 45.9577 46.7002 45.6848 46.5393 45.3906V45.3987Z" fill="white"/>
<path d="M37.4177 40.6045C37.9814 40.6549 38.5315 40.8055 39.0422 41.0492C38.76 41.043 38.4807 40.9902 38.2158 40.8928C37.9383 40.8342 37.6704 40.7372 37.4198 40.6045H37.4177Z" fill="white"/>
<path d="M45.1504 47.7111C45.7689 47.5897 46.4087 47.6374 47.0023 47.8492C46.3826 47.8448 45.7639 47.7987 45.1504 47.7111Z" fill="white"/>
<path d="M46.1536 47.1898C46.3278 47.085 46.5341 47.0468 46.7343 47.0822C47.0278 47.2008 47.311 47.3435 47.5811 47.5086C47.2785 47.4355 46.9841 47.3299 46.6917 47.2284C46.5117 47.2324 46.3317 47.2215 46.1536 47.1959V47.1898Z" fill="white"/>
<path d="M47.4387 47.0361C47.8806 47.1364 48.2869 47.3547 48.6145 47.6677C48.1847 47.5368 47.7851 47.3222 47.4387 47.0361Z" fill="white"/>
<path d="M44.1351 47.7969C44.4633 47.8257 44.7895 47.8745 45.1118 47.9431C45.4266 47.9695 45.7799 47.8964 46.0987 47.9614C46.7563 48.0471 47.4012 48.2114 48.0197 48.4507C47.7709 48.431 47.5254 48.3812 47.2886 48.3025C46.8927 48.2111 46.4764 48.1664 46.0703 48.1116C45.7352 48.0405 45.4225 48.1116 45.0854 48.0568C44.7483 48.002 44.4519 47.8537 44.127 47.7969H44.1351Z" fill="white"/>
<path d="M43.532 47.7354C43.9012 47.7853 44.2659 47.8647 44.6224 47.9729C44.7284 48.0239 44.8413 48.0588 44.9575 48.0765C45.4286 48.1171 45.9525 48.0115 46.4175 48.174C45.9017 48.1273 45.4489 48.2714 44.9351 48.2268C44.8081 48.205 44.6849 48.1647 44.5696 48.107C44.2305 47.9668 43.867 47.8897 43.532 47.7354Z" fill="white"/>
<path d="M44.929 47.6097C45.2254 47.628 45.5138 47.7254 45.7879 47.7539C46.0385 47.7673 46.2859 47.8158 46.523 47.898C46.2791 47.9194 46.0338 47.9194 45.7899 47.898C45.487 47.8538 45.1949 47.7533 44.929 47.6016V47.6097Z" fill="white"/>
<path d="M45.8633 47.5086C46.0863 47.4095 46.328 47.3597 46.572 47.3624C46.959 47.444 47.3338 47.5758 47.6868 47.7543C47.3009 47.7022 46.9199 47.6187 46.5476 47.5046C46.3197 47.4924 46.0912 47.4924 45.8633 47.5046V47.5086Z" fill="white"/>
<path d="M46.3545 45.0713C46.6028 45.2842 46.8661 45.479 47.1424 45.6541C47.3591 45.8978 47.6062 46.1127 47.8775 46.2937C47.5539 46.2072 47.2638 46.0254 47.0449 45.7719C46.7623 45.5966 46.5256 45.3564 46.3545 45.0713Z" fill="white"/>
<path d="M44.8763 43.3438C45.3799 43.7357 46.0074 43.9123 46.4866 44.3428C46.7849 44.5684 47.0947 44.7785 47.4146 44.9723C46.9362 44.8024 46.4894 44.554 46.0926 44.2372C45.6865 43.9448 45.187 43.7499 44.8743 43.3438H44.8763Z" fill="white"/>
<path d="M44.3928 42.8037C44.9147 42.9641 45.3269 43.3296 45.7635 43.6363C45.9049 43.7434 46.0404 43.8579 46.1696 43.9794C46.0052 43.9057 45.8445 43.8237 45.6883 43.7337C45.2373 43.4485 44.8028 43.138 44.3867 42.8037H44.3928Z" fill="white"/>
<path d="M41.5989 47.5244C42.2446 47.7173 42.8619 48.0016 43.5341 48.0849C43.8671 48.1377 44.2021 48.1762 44.5494 48.2392C44.8966 48.3021 45.187 48.4849 45.522 48.5478C45.1768 48.5478 44.858 48.3813 44.5311 48.3549C44.2042 48.3285 43.859 48.2859 43.5158 48.2351C42.8335 48.1458 42.2081 47.829 41.6029 47.5244H41.5989Z" fill="white"/>
<path d="M44.5007 43.5479C44.7952 43.7632 45.1085 43.9514 45.4369 44.1103C45.9594 44.4252 46.4576 44.7789 46.9273 45.1683C46.308 44.7825 45.6927 44.3946 45.0754 44.0027C44.8601 43.8838 44.6659 43.7301 44.5007 43.5479Z" fill="#97F675"/>
<path d="M43.7839 45.9834C44.3363 46.3367 45.0023 46.3286 45.6115 46.5154C46.2252 46.7034 46.8121 46.9696 47.3578 47.3074C46.7839 47.0332 46.1907 46.801 45.5831 46.6129C44.9881 46.42 44.2896 46.4098 43.788 45.9834H43.7839Z" fill="#97F675"/>
<path d="M45.262 45.4971C45.5767 45.6067 45.9057 45.6352 46.2143 45.7773C46.49 45.9664 46.7346 46.1973 46.9393 46.4616C46.6672 46.287 46.4438 46.0169 46.1697 45.8687C45.8955 45.7204 45.5381 45.6758 45.262 45.4971Z" fill="#97F675"/>
<path d="M44.5146 47.3975C44.7572 47.4173 44.9838 47.5266 45.1502 47.7041C45.0893 47.6878 45.0365 47.6655 44.9817 47.6452C44.8093 47.5989 44.6496 47.5142 44.5146 47.3975Z" fill="#97F675"/>
<path d="M37.8767 41.3701C38.2828 41.4696 38.6991 41.5407 39.0281 41.8209C38.825 41.7722 38.6443 41.6706 38.4493 41.6179C38.2445 41.5732 38.0502 41.4898 37.8767 41.3721V41.3701Z" fill="#97F675"/>
<path d="M38.823 40.957C39.1113 41.0606 39.4322 41.1601 39.5804 41.4281C39.3307 41.2576 39.0342 41.1763 38.823 40.957Z" fill="#97F675"/>
<path d="M46.5171 45.2082C46.1881 44.9686 45.849 44.8021 45.5322 44.5381C45.9243 44.6492 46.2698 44.8843 46.5171 45.2082Z" fill="#97F675"/>
<path d="M46.1534 47.1894C45.9389 47.0957 45.7348 46.98 45.5442 46.8442C45.4112 46.7913 45.2829 46.7274 45.1604 46.6533C45.5463 46.7083 45.9003 46.8982 46.1595 47.1894H46.1534Z" fill="#97F675"/>
</g>
<path opacity="0.2" d="M80.2823 65.6729C79.267 66.6882 78.075 67.738 77.1795 68.0284C76.1317 68.3695 72.235 69.131 71.2623 69.4661C70.2896 69.8011 67.4934 71.3606 63.6393 70.7616C61.296 70.3981 56.9383 68.1847 53.0801 65.8109C54.731 66.477 57.3444 67.476 59.0826 67.8822C61.3346 68.4122 64.9511 67.6588 64.813 67.5512C64.6749 67.4436 63.1357 66.1866 64.0414 66.5359C65.2239 66.9736 66.4324 67.3378 67.66 67.6263C67.2416 67.1999 66.1126 66.0912 67.0305 66.5684C67.7532 66.9187 68.4996 67.2179 69.2642 67.4639C68.9372 67.1816 68.4255 66.4485 68.4519 66.345C68.4783 66.2414 69.4672 66.5927 69.4672 66.5927C69.4672 66.5927 68.8052 65.9835 69.2642 66.2313C69.7231 66.479 71.0003 67.0151 70.844 66.9075C70.6876 66.7998 69.8165 66.1115 70.6754 66.479C71.5344 66.8466 73.4452 67.0516 73.3031 66.9907C73.1609 66.9298 72.6289 66.3247 73.1284 66.5846C73.628 66.8445 74.6656 66.8547 75.8251 67.0963C78.0466 67.5431 78.9624 66.5968 80.2823 65.6729Z" fill="white"/>
<path d="M64.7642 61.8196C65.2109 62.4125 64.8373 63.4055 64.8373 63.4055C65.222 64.9148 65.265 66.491 64.9632 68.0191C64.4433 70.403 57.7646 73.0043 55.9858 73.2987C54.207 73.5931 40.2058 71.4001 38.0452 70.8254C35.8847 70.2507 31.8376 69.869 30.8934 68.5633C30.8934 68.5633 16.1734 65.7204 11.9984 65.2777C7.82347 64.8351 1.10211 65.6717 0.903106 65.0848C0.704105 64.498 1.48996 63.8319 2.46262 63.5476C3.43529 63.2634 9.02763 63.2024 9.02763 63.2024C9.02763 63.2024 9.052 62.2115 13.0401 62.2643C13.0401 62.2643 13.4463 61.4358 15.9196 61.0459C18.3929 60.656 23.5425 61.2124 23.5425 61.2124C23.9243 61.0236 25.1528 60.4388 25.4249 60.5058C25.4249 60.5058 25.7884 59.3077 31.1107 59.8824C31.1107 59.8824 29.7298 59.2407 30.3593 58.3574C30.9888 57.474 33.8743 57.7583 33.8743 57.7583C33.8743 57.7583 32.2255 57.208 32.4529 56.4445C32.6803 55.681 36.8817 56.1988 37.1538 56.2212C37.4259 56.2435 35.3404 55.4089 35.7933 54.4362C36.2461 53.4636 38.7661 54.1682 38.7661 54.1682L37.7 54.1987C37.7 54.1987 37.767 53.5143 38.9834 53.3966C40.1997 53.2788 44.3706 54.1621 44.3706 54.1621" fill="#97F675"/>
<g opacity="0.2">
<path d="M30.8939 68.5613C33.4545 68.9411 37.1604 69.4345 39.7596 69.8L39.7068 69.9868C38.8313 69.6106 37.9826 69.175 37.1665 68.6832C36.9898 68.5512 36.8233 68.4801 36.7116 68.2567C36.6101 67.7227 37.5401 68.0049 37.8102 68.0699L37.731 68.2242C37.1078 67.7366 36.5307 67.1928 36.007 66.5997C35.9064 66.4937 35.8362 66.3626 35.8039 66.22C35.8039 65.8241 37.4284 65.9256 37.7533 65.9053C38.2772 65.9053 38.8011 65.9235 39.325 65.9601C38.8011 65.9601 38.2772 65.9601 37.7533 65.9601C37.2326 65.9661 36.7128 66.0081 36.1979 66.086C36.11 66.0997 36.0254 66.1293 35.9481 66.1733C35.9258 66.1896 35.9339 66.1875 35.9298 66.2058C35.9647 66.3183 36.0252 66.4211 36.1065 66.5063C36.6398 67.0761 37.2184 67.6018 37.8366 68.078L38.1655 68.3441L37.7594 68.2324C35.1074 67.6232 39.3189 69.603 39.79 69.8L40.3992 70.0843C37.2254 69.6193 34.0413 69.1746 30.8918 68.5532L30.8939 68.5613Z" fill="black"/>
<path d="M40.4092 65.1939C39.073 65.0842 37.7389 64.9563 36.4109 64.7756C35.7449 64.6659 35.0626 64.607 34.4331 64.343C34.3965 64.3261 34.3638 64.3019 34.3369 64.2718C34.31 64.2418 34.2895 64.2066 34.2767 64.1684C34.2564 63.5125 37.2475 62.9094 37.8486 62.8323C38.5268 62.7389 39.203 62.9013 39.8691 63.0028C41.191 63.2404 42.4987 63.5308 43.8044 63.8354L43.7333 64.0181C41.9971 62.9805 38.9248 61.0149 43.1668 61.2179C43.8085 61.2403 44.444 61.291 45.0817 61.3641L45.0167 61.5205C44.3405 60.9377 43.5952 60.3915 43.1485 59.5995C42.9962 59.2929 43.2643 59.1142 43.5221 59.0492C44.1813 58.9157 44.8561 58.8761 45.5264 58.9314L45.4878 59.033C45.2847 58.8725 44.0115 57.7821 44.8014 57.7598C46.0625 57.8268 47.2889 58.1659 48.5154 58.44C47.622 58.2491 46.7244 58.0704 45.8208 57.9344C45.4411 57.8958 45.0309 57.7923 44.6573 57.8735C44.639 57.8735 44.6471 57.8857 44.643 57.906C44.6715 58.1354 44.8888 58.3121 45.0492 58.4928C45.2534 58.6913 45.469 58.8778 45.6949 59.0512H45.5182C45.1954 59.0512 42.9982 58.9578 43.2846 59.5467C43.7678 60.359 44.641 60.9681 45.3599 61.5773C44.6309 61.4941 43.8917 61.4291 43.1587 61.4068C42.8642 61.4068 40.925 61.3093 41.2478 61.8596C41.4712 62.2535 41.8773 62.5378 42.2368 62.816C42.9333 63.3113 43.6558 63.7689 44.4014 64.1867C42.8886 63.8252 41.3555 63.4678 39.8345 63.1876C39.1847 63.0861 38.5227 62.9236 37.8669 63.0089C36.7419 63.1896 35.5479 63.415 34.5427 63.9674C34.429 64.0506 34.3133 64.1522 34.4899 64.2415C35.0849 64.4994 35.7814 64.5705 36.4231 64.6903C37.743 64.8933 39.0751 65.0599 40.4072 65.2L40.4092 65.1939Z" fill="black"/>
<path d="M39.9485 52.639C40.513 53.0654 41.1222 53.5589 41.8471 53.638C42.6858 53.7233 43.5386 53.7518 44.3834 53.7761C43.9326 53.9528 43.4148 54.0828 43.033 54.3853C43.0046 54.4178 43.033 54.4016 43.0086 54.3731C44.4301 54.5254 45.9266 54.3853 47.3562 54.3589C46.6759 54.5884 45.882 54.7752 45.2565 55.1204C45.2362 55.1468 45.2464 55.1204 45.2565 55.1204C45.2586 55.1069 45.2586 55.0933 45.2565 55.0798C45.2533 55.066 45.2454 55.0538 45.2342 55.0453C45.3237 55.0801 45.4171 55.104 45.5124 55.1163C46.2637 55.2402 47.0415 55.291 47.8029 55.3458C47.4133 55.5418 47.0368 55.7629 46.6759 56.0078C46.5764 56.085 46.4059 56.2108 46.3693 56.3083C47.6933 56.7144 49.2812 56.6454 50.6661 57.0556C51.3105 57.2387 51.9233 57.5188 52.4835 57.8861C51.9108 57.5461 51.2918 57.2909 50.6458 57.1287C49.3442 56.8221 48.006 56.8139 46.682 56.5845C46.3023 56.5175 45.9815 56.3814 46.3693 56.0281C46.6984 55.7586 47.0559 55.5257 47.4354 55.3336L47.4719 55.5083C46.8018 55.4616 46.1419 55.4189 45.4758 55.3052C45.3479 55.2707 45.019 55.2585 45.0697 55.0554C45.0835 55.0162 45.1091 54.9822 45.1428 54.958C45.3091 54.8518 45.4878 54.7666 45.6748 54.7041C45.9896 54.5843 46.3064 54.4808 46.6272 54.3833L46.6577 54.5721C45.4393 54.5721 44.1823 54.7021 42.964 54.5193C42.4786 54.2493 43.8168 53.831 44.0036 53.7619L44.0239 53.8939C43.2929 53.8513 42.5639 53.8147 41.837 53.7112C41.11 53.6076 40.5028 53.102 39.9505 52.6309L39.9485 52.639Z" fill="black"/>
<path d="M40.2306 63.1618C39.0123 62.4024 37.7695 61.6572 36.7136 60.6764C35.7186 59.6976 37.4873 59.8885 38.0437 59.9575C38.7584 60.0448 39.4651 60.1748 40.1697 60.3251L40.1007 60.5038C38.2731 59.4133 36.1938 58.1036 39.9545 58.3432L39.9017 58.5036C39.5544 58.2437 39.0894 57.9655 39.0346 57.4883C39.0833 56.6395 42.9639 57.5309 43.569 57.6914C42.6051 57.485 41.6281 57.3459 40.6449 57.2751C40.186 57.2751 39.6539 57.1898 39.2235 57.3847C38.9656 57.734 40.0113 58.3594 40.2652 58.528L39.9342 58.5077C39.5285 58.4805 39.1215 58.4805 38.7158 58.5077C38.4808 58.5055 38.2492 58.5643 38.0437 58.6782C38.0213 58.7087 38.0254 58.6985 38.0294 58.727C38.2792 59.1331 38.7605 59.391 39.1524 59.6753C39.6438 60.0063 40.2083 60.3393 40.7241 60.6398C40.0296 60.4997 37.008 59.7626 36.5654 60.187C36.5654 60.3048 36.7238 60.4733 36.8151 60.5708C37.8304 61.5577 39.061 62.3435 40.2286 63.1558L40.2306 63.1618Z" fill="black"/>
<path d="M9.02783 63.2002C13.5683 63.4601 18.0864 63.982 22.6025 64.4957C27.1105 65.0663 31.6368 65.5943 36.0757 66.5792C34.9589 66.3761 33.842 66.173 32.7151 66.0146C24.8667 64.8978 16.9188 63.984 9.02783 63.2002Z" fill="black"/>
<path d="M13.0404 62.2618C16.7301 62.3065 20.4055 62.7167 24.0769 63.074C27.7442 63.4802 31.4155 63.8863 35.0422 64.5503C31.3871 64.0487 27.7198 63.6589 24.0525 63.2751C20.3852 62.8913 16.7179 62.475 13.0364 62.2598L13.0404 62.2618Z" fill="black"/>
<path d="M23.5427 61.208C25.8211 61.3197 28.0893 61.5431 30.3534 61.8172C32.6176 62.0913 34.8777 62.4386 37.0768 63.0518L36.2382 62.8853C32.112 62.1502 27.7096 61.7116 23.5427 61.208Z" fill="black"/>
<path d="M25.4253 60.5059C27.6768 60.6891 29.8861 61.2214 31.9741 62.0837C29.846 61.4745 27.594 60.9749 25.4253 60.5059Z" fill="black"/>
<path d="M31.1069 59.8779C33.3041 59.9881 35.4681 60.4601 37.5115 61.275C35.4017 60.7206 33.2472 60.2597 31.1069 59.8779Z" fill="black"/>
<path d="M33.8706 57.7549C35.269 57.8106 36.6454 58.1216 37.9319 58.6727C36.5612 58.3925 35.223 58.0838 33.8706 57.7549Z" fill="black"/>
<path d="M37.156 56.2168C38.1254 56.2737 39.0878 56.4178 40.0314 56.6473C40.9834 56.8422 41.911 57.1418 42.7971 57.5408C41.999 57.293 40.8132 57.0372 39.9867 56.8463C39.1602 56.6554 37.9825 56.3853 37.156 56.2269V56.2168Z" fill="black"/>
<path d="M37.7898 53.9697C39.0377 54.1549 40.2393 54.5745 41.3312 55.2064C40.1433 54.8591 38.9493 54.3941 37.7898 53.9697Z" fill="black"/>
<path d="M62.5857 70.5104C63.2015 69.9536 63.7839 69.361 64.33 68.7357C64.7463 68.2808 65.1849 67.8158 65.4326 67.2432C65.4939 67.0507 65.5037 66.8456 65.4611 66.6482C65.2986 65.8359 64.925 65.0927 64.5656 64.3495C64.4721 64.1119 64.265 63.8662 64.2589 63.5982C64.2711 63.0296 64.2934 62.3798 64.665 61.9209L64.6793 61.9351C64.5747 62.1119 64.5102 62.3094 64.4904 62.5138C64.4235 62.9079 64.4173 63.3099 64.4721 63.7058C64.7798 64.2522 65.0459 64.8211 65.2681 65.4075C65.4712 65.9903 65.7129 66.6523 65.5037 67.2716C64.8133 68.5326 63.8244 69.8078 62.5898 70.5104H62.5857Z" fill="black"/>
</g>
<path opacity="0.3" d="M41.8711 61.8628C42.4031 62.4577 43.0895 62.8903 43.7393 63.3532C45.3638 64.4884 47.1913 65.4123 48.8889 66.4337C49.2321 66.6368 49.5773 66.8398 49.9164 67.0612C49.555 66.8865 49.1996 66.7017 48.8402 66.521C47.0756 65.5951 45.248 64.6772 43.6499 63.4751C43.0225 62.9796 42.3402 62.5085 41.8711 61.8506V61.8628Z" fill="white"/>
<path opacity="0.3" d="M41.1438 70.9368C43.2617 71.3572 46.527 71.7491 48.6916 72.0923C49.3983 72.1775 52.7529 72.7563 53.4108 72.7441C54.3652 72.7745 55.3196 72.7603 56.274 72.7441C55.3196 72.8152 54.3652 72.868 53.4088 72.8639C51.8168 72.8111 50.243 72.474 48.6632 72.2831C46.1493 71.877 43.611 71.5663 41.1499 70.9287L41.1438 70.9368Z" fill="white"/>
<path opacity="0.3" d="M35.2734 64.0117C36.4045 64.164 37.5335 64.2919 38.6361 64.6209C37.4889 64.6089 36.352 64.4029 35.2734 64.0117Z" fill="white"/>
</g>
<defs>
<clipPath id="clip0_531_3757">
<rect width="85.538" height="80" fill="white"/>
</clipPath>
</defs>
</svg>
