<svg width="15" height="15" viewBox="0 0 15 15" fill="none" xmlns="http://www.w3.org/2000/svg">
<g clip-path="url(#clip0_1092_29)">
<path d="M7.5 0L9.375 2.8125H8.4375V4.6875H6.5625V2.8125H5.625L7.5 0ZM14.0625 6.5625V14.0625H0.9375V6.5625H14.0625ZM15 5.625H0V15H15V5.625Z" fill="#018a50"/>
<path d="M7.5 7.5C7.86934 7.5 8.23507 7.57275 8.5763 7.71409C8.91753 7.85543 9.22757 8.0626 9.48874 8.32376C9.7499 8.58493 9.95707 8.89497 10.0984 9.2362C10.2398 9.57743 10.3125 9.94316 10.3125 10.3125C10.3125 10.6818 10.2398 11.0476 10.0984 11.3888C9.95707 11.73 9.7499 12.0401 9.48874 12.3012C9.22757 12.5624 8.91753 12.7696 8.5763 12.9109C8.23507 13.0523 7.86934 13.125 7.5 13.125H12.1875V12.1875H13.125V8.4375H12.1875V7.5H7.5ZM4.6875 10.3125C4.6875 9.56658 4.98382 8.85121 5.51126 8.32376C6.03871 7.79632 6.75408 7.5 7.5 7.5H2.8125V8.4375H1.875V12.1875H2.8125V13.125H7.5C6.75408 13.125 6.03871 12.8287 5.51126 12.3012C4.98382 11.7738 4.6875 11.0584 4.6875 10.3125Z" fill="#018a50"/>
</g>
<defs>
<clipPath id="clip0_1092_29">
<rect width="15" height="15" fill="white"/>
</clipPath>
</defs>
</svg>
