<svg width="12" height="12" viewBox="0 0 12 12" fill="none" xmlns="http://www.w3.org/2000/svg">
<path d="M0.788781 5.28817L0.78878 5.28817L0.788167 5.28878C0.595667 5.48195 0.5 5.72468 0.5 6C0.5 6.27533 0.595686 6.51799 0.788473 6.71078C0.981582 6.90388 1.22441 7 1.5 7H5V10.5C5 10.7755 5.09603 11.0181 5.28922 11.2108C5.4819 11.404 5.72455 11.5 6 11.5C6.27559 11.5 6.51842 11.4039 6.71153 11.2108C6.90431 11.018 7 10.7753 7 10.5V7H10.5C10.7755 7 11.0181 6.90397 11.2108 6.71078C11.404 6.5181 11.5 6.27545 11.5 6C11.5 5.72441 11.4039 5.48158 11.2108 5.28847C11.018 5.09569 10.7753 5 10.5 5H7V1.5C7 1.22468 6.90433 0.981951 6.71183 0.788781L6.71183 0.78878L6.71122 0.788167C6.51805 0.595667 6.27532 0.5 6 0.5C5.72467 0.5 5.48201 0.595686 5.28922 0.788473C5.09612 0.981582 5 1.22441 5 1.5V5H1.5C1.22468 5 0.981951 5.09567 0.788781 5.28817Z" fill="#008950" stroke="#008950" stroke-width="0.5"/>
</svg>
