<svg width="105" height="44" viewBox="0 0 105 44" fill="none" xmlns="http://www.w3.org/2000/svg">
<path opacity="0.5" d="M88.5066 9.05019L52.5004 15.0002L16.4941 9.05019C17.2333 8.68457 18.2876 8.37905 19.5566 8.16269L48.1254 3.4502C50.8379 3.0127 54.1629 3.0127 56.8754 3.4502L85.4441 8.16269C86.7129 8.37895 87.7673 8.68519 88.5066 9.05019Z" fill="#0D9823"/>
<path d="M52.4995 14.9998V26.8748C51.1201 26.8742 49.7591 26.7845 48.5183 26.6123L19.687 21.8498C18.3591 21.6303 17.256 21.3151 16.4883 20.9356C15.7205 20.5561 15.3149 20.1256 15.312 19.6873V10.3123C15.3192 9.86945 15.7261 9.43461 16.4933 9.0498L52.4995 14.9998Z" fill="#0D9823"/>
<path d="M89.6875 10.3123V19.6873C89.6846 20.1256 89.279 20.5561 88.5112 20.9356C87.7435 21.3151 86.6405 21.6303 85.3125 21.8498L56.35 26.6248C55.1469 26.7873 53.83 26.8723 52.5 26.8748V14.9998L88.5062 9.0498C89.2719 9.4348 89.6787 9.8698 89.6875 10.3123Z" fill="#0D9823"/>
<path opacity="0.5" d="M88.5066 23.0502L52.5004 29.0002L16.4941 23.0502C17.2333 22.6846 18.2876 22.379 19.5566 22.1627L48.1254 17.4502C50.8379 17.0127 54.1629 17.0127 56.8754 17.4502L85.4441 22.1627C86.7129 22.3789 87.7673 22.6852 88.5066 23.0502Z" fill="#0D9823"/>
<path d="M52.4995 28.9998V40.8748C51.1201 40.8742 49.7591 40.7845 48.5183 40.6123L19.687 35.8498C18.3591 35.6303 17.256 35.3151 16.4883 34.9356C15.7205 34.5561 15.3149 34.1256 15.312 33.6873V24.3123C15.3192 23.8695 15.7261 23.4346 16.4933 23.0498L52.4995 28.9998Z" fill="#0D9823"/>
<path d="M89.6875 24.3123V33.6873C89.6846 34.1256 89.279 34.5561 88.5112 34.9356C87.7435 35.3151 86.6405 35.6303 85.3125 35.8498L56.35 40.6248C55.1469 40.7873 53.83 40.8723 52.5 40.8748V28.9998L88.5062 23.0498C89.2719 23.4348 89.6787 23.8698 89.6875 24.3123Z" fill="#0D9823"/>
</svg>
