<svg width="141" height="117" viewBox="0 0 141 117" fill="none" xmlns="http://www.w3.org/2000/svg">
<path d="M116.672 57.972C116.672 68.3898 113.165 78.05 107.289 85.816C104.067 89.9831 100.181 93.6767 95.7268 96.5179C88.524 101.253 79.8996 104 70.6118 104C45.1177 104 24.457 83.3536 24.457 57.972C24.457 32.4958 45.1177 11.9443 70.517 11.9443C79.8048 11.9443 88.4292 14.6908 95.632 19.3315C100.086 22.1727 103.972 25.8663 107.194 30.0334C113.165 37.8941 116.672 47.5542 116.672 57.972Z" fill="#EAEEF9"/>
<path d="M48.4743 25.047C49.3273 25.047 50.0855 24.3841 50.0855 23.4371C50.0855 22.4901 49.422 21.8271 48.4743 21.8271C47.6213 21.8271 46.8632 22.4901 46.8632 23.4371C46.8632 24.3841 47.6213 25.047 48.4743 25.047Z" fill="url(#paint0_linear_1560_2032)"/>
<path d="M72.1281 98.7902C72.9811 98.7902 73.7393 98.1273 73.7393 97.1803C73.7393 96.2332 73.0759 95.5703 72.1281 95.5703C71.2752 95.5703 70.517 96.2332 70.517 97.1803C70.517 98.1273 71.2752 98.7902 72.1281 98.7902Z" fill="url(#paint1_linear_1560_2032)"/>
<path d="M32.6209 89.0197C33.4739 89.0197 34.2321 88.3568 34.2321 87.4098C34.2321 86.4627 33.5687 85.7998 32.6209 85.7998C31.768 85.7998 31.0098 86.4627 31.0098 87.4098C31.0098 88.3568 31.768 89.0197 32.6209 89.0197Z" fill="url(#paint2_linear_1560_2032)"/>
<path d="M43.7905 69.9989C43.1271 74.9237 42.8427 76.439 43.8853 78.049C44.9278 79.6591 45.686 79.3749 45.2121 81.2691C44.7382 83.2579 44.7382 86.6674 45.8755 88.1827C46.7285 89.3192 47.8658 90.0769 49.6665 90.5504C50.709 90.8345 50.9933 92.1604 50.1403 92.9181C46.918 95.5699 44.6434 95.6646 43.3166 95.191C41.7055 94.6228 37.4407 90.6451 36.1138 84.0156C34.787 77.3861 34.787 75.3025 34.787 75.3025C33.3654 74.3555 32.0386 72.9349 32.1333 71.8931C32.2281 70.8513 32.2281 69.5254 32.2281 69.5254L43.7905 69.9989Z" fill="#664901"/>
<path d="M42.653 71.5154L43.6955 70.8524L41.2314 70.2842L41.6105 74.1672L38.8621 80.1337L42.5582 92.6351L42.3687 95.6657L45.4962 95.2869L45.0223 89.9833L44.1694 84.7744" fill="#1C3754"/>
<path d="M18.1066 60.5285C18.77 64.9797 22.2767 69.431 26.8258 69.1469C27.3944 69.1469 28.0579 69.0521 28.7213 68.9574C33.4599 68.4839 35.2606 68.2945 38.0091 68.3892C35.7345 65.4533 34.1234 61.8544 33.5547 58.1608C32.9861 54.4672 33.3652 50.4895 34.692 47.0801C32.0383 48.0272 30.3324 48.406 25.6885 49.353C25.0251 49.4478 24.3617 49.6372 23.793 49.7319C21.5185 50.2054 19.9073 51.8154 18.9596 53.8043C18.1066 55.8878 17.8223 58.3502 18.1066 60.5285Z" fill="#CED7E2"/>
<g filter="url(#filter0_d_1560_2032)">
<path d="M94.9681 76.6281C94.7785 78.7117 94.589 80.8899 93.6412 82.7841C93.4517 83.1629 93.2621 83.5417 92.883 83.6365C92.4092 83.8259 91.8405 83.3523 91.4614 83.0682C82.837 75.5863 71.2747 72.461 60.0914 71.3245C46.6335 69.9039 38.1039 71.6086 33.9338 71.6086C22.561 71.1351 19.623 57.1184 23.9826 49.9207C25.7833 46.8901 28.6265 45.7536 31.8488 44.9012C31.8488 44.9012 44.4537 42.06 54.405 37.8929C65.0196 33.3469 74.8761 26.7174 81.2259 16.7732C82.7423 14.4055 84.8273 17.8149 86.5332 21.982C88.4287 26.4333 89.9451 31.7369 89.9451 31.7369C90.8928 48.8789 89.7555 40.9235 95.2524 66.305C95.2524 66.305 95.4419 71.798 94.9681 76.6281Z" fill="white"/>
</g>
<path d="M34.1234 71.5153C34.2182 71.5153 34.2182 71.5153 34.3129 71.5153C36.8718 71.5153 39.5255 71.0418 41.9896 70.9471C44.4537 70.7577 46.9178 70.7577 49.382 70.7577C46.444 66.78 43.9799 61.3816 43.2217 56.6463C42.4635 52.0056 43.4112 45.8497 45.0224 41.3037C29.0056 46.4179 26.7311 44.1449 23.5088 50.8691C19.1492 59.961 25.1199 72.0835 34.1234 71.5153Z" fill="url(#paint3_linear_1560_2032)"/>
<path d="M49.9505 70.7576C49.761 70.7576 49.5714 70.7576 49.3819 70.7576H48.8133C45.8753 66.6852 43.5059 61.1922 42.8425 56.7409C42.1791 52.5738 42.8425 46.6073 44.5484 41.4931C44.738 41.3984 44.9275 41.3984 45.1171 41.3037C45.3066 41.209 45.4962 41.209 45.6857 41.1143C45.6857 41.209 45.591 41.3037 45.591 41.4931C43.885 46.5126 43.2216 52.4791 43.885 56.6462C44.5484 61.0028 46.9178 66.4958 49.9505 70.4735C49.761 70.5682 49.8558 70.6629 49.9505 70.7576Z" fill="#1D3329"/>
<path d="M29.0057 50.3947L35.4503 49.353C35.9242 49.2583 36.3033 48.7848 36.2085 48.3113C36.1138 47.8378 35.6399 47.459 35.166 47.5537L28.7214 48.5954C28.2475 48.6901 27.8685 49.1636 27.9632 49.6371C28.058 50.1106 28.4371 50.4894 29.0057 50.3947Z" fill="#1D3329"/>
<path d="M27.7737 54.468L34.2183 53.4263C34.6922 53.3316 35.0713 52.858 34.9765 52.3845C34.8817 51.911 34.4078 51.5322 33.934 51.6269L27.4894 52.6686C27.0155 52.7633 26.6364 53.2369 26.7312 53.7104C26.8259 54.1839 27.2998 54.5627 27.7737 54.468Z" fill="#1D3329"/>
<path d="M27.963 58.3508L34.4076 57.3091C34.8815 57.2144 35.2606 56.7409 35.1658 56.2673C35.0711 55.7938 34.5972 55.415 34.1233 55.5097L27.6787 56.5515C27.2049 56.6462 26.9205 57.025 26.9205 57.5932C27.0153 58.0667 27.4892 58.4455 27.963 58.3508Z" fill="#1D3329"/>
<path d="M42.6531 71.5154L43.6956 70.8524L41.2315 70.2842L38.6726 70.663L38.8622 80.1337L42.5583 92.6351L42.3688 95.6657L45.4963 95.2869L45.0224 89.9833L44.1695 84.7744" fill="#664901"/>
<path d="M41.2314 70.2842C40.568 75.209 40.2837 76.7243 41.3262 78.3343C42.3687 79.8496 43.1269 79.6602 42.653 81.5543C42.1791 83.5432 42.1791 86.9526 43.3164 88.468C44.1694 89.6045 45.3067 90.3621 47.1074 90.8356C48.1499 91.1198 48.4342 92.4457 47.5812 93.2033C44.3589 95.8551 42.0844 95.9498 40.7575 95.4763C39.1464 94.9081 34.8816 90.9303 33.5547 84.3008C32.2279 77.6713 32.2279 75.4931 32.2279 75.4931C30.8063 74.546 29.4795 73.1254 29.5742 72.0836C29.669 71.1365 29.669 70.663 29.669 70.663L41.2314 70.2842Z" fill="#F5CB60"/>
<path d="M99.7269 86.3244C108.78 84.9258 113.525 67.0298 110.325 46.3525C107.126 25.6751 97.1939 10.0466 88.1412 11.4452C79.0885 12.8438 74.3434 30.7398 77.5427 51.4171C80.742 72.0945 90.6742 87.723 99.7269 86.3244Z" fill="#BAF9A3"/>
<path d="M99.233 83.1626C94.21 83.9202 87.1968 75.3019 83.0267 61.5693C81.9842 58.2546 81.226 54.6557 80.5626 50.8674C79.8992 46.8897 79.6149 43.0067 79.6149 39.4078C79.6149 25.3912 83.5954 15.2575 88.6184 14.4998C94.8734 13.5528 104.161 27.0959 107.194 46.795C110.227 66.3994 105.488 82.2155 99.233 83.1626Z" fill="url(#paint4_linear_1560_2032)"/>
<path d="M95.9158 58.9187L83.1213 61.5705C82.0788 58.2557 81.3206 54.6569 80.6572 50.8686C79.9938 46.8909 79.7095 43.0079 79.7095 39.409L92.3144 38.5566L94.0203 46.7015L95.9158 58.9187Z" fill="#EAEEF9"/>
<path d="M95.5366 59.1084C97.4321 58.8243 98.8537 54.0889 97.906 48.2171C96.9582 42.3452 94.2098 38.2728 92.3143 38.557C90.4188 38.8411 88.9972 43.5764 89.945 49.4483C90.8927 55.3201 93.6411 59.3925 95.5366 59.1084Z" fill="white"/>
<path d="M94.7784 54.3739C95.8209 54.1845 96.5791 51.6275 96.1052 48.5023C95.6314 45.2824 94.115 43.1043 93.0725 43.2937C92.0299 43.4831 91.2718 46.04 91.7456 49.1652C92.3143 52.3851 93.7359 54.5633 94.7784 54.3739Z" fill="#EAEEF9"/>
<path d="M108.805 12.7012L112.88 15.5424L108.331 22.1719C107.857 22.8348 108.71 23.6872 109.374 23.2137L121.6 14.4059C122.168 13.9323 122.263 13.08 121.6 12.6064L117.051 9.29169L121.6 1.05216C121.979 0.389214 121.126 -0.368443 120.557 0.1998L108.71 10.9017C108.142 11.47 108.237 12.3223 108.805 12.7012Z" fill="url(#paint5_linear_1560_2032)"/>
<path d="M120.367 14.1213C120.273 14.1213 120.273 14.1213 120.178 14.0266L116.387 11.1855C116.103 10.9961 116.103 10.6173 116.292 10.3332C116.482 10.049 116.861 10.049 117.145 10.2384L120.936 13.0795C121.22 13.2689 121.22 13.6477 121.031 13.9318C120.841 14.1213 120.557 14.216 120.367 14.1213Z" fill="#FCEDC5"/>
<path d="M110.037 11.0903L119.041 2.18821C119.135 2.09351 119.42 2.09351 119.515 2.18821C119.609 2.28292 119.609 2.56702 119.515 2.66173L110.89 11.8479C110.701 12.0373 110.322 12.132 110.037 11.8479C109.848 11.6585 109.848 11.2797 110.037 11.0903Z" fill="#FCEDC5"/>
<path d="M123.021 37.9884L124.442 42.7235L116.766 44.9964C116.008 45.1858 116.102 46.4169 116.955 46.4169L132.024 47.2692C132.783 47.2692 133.351 46.6063 133.162 45.8487L131.74 40.3559L140.554 36.8519C141.312 36.5678 141.028 35.4314 140.27 35.5261L124.158 36.5678C123.305 36.5678 122.831 37.3254 123.021 37.9884Z" fill="url(#paint6_linear_1560_2032)"/>
<path d="M131.077 46.3216C131.077 46.2269 130.982 46.2269 130.982 46.1322L129.845 41.4917C129.75 41.2076 129.939 40.8288 130.319 40.8288C130.603 40.7341 130.982 40.9235 130.982 41.3023L132.119 45.9428C132.214 46.2269 132.025 46.6057 131.645 46.6057C131.456 46.7004 131.172 46.6057 131.077 46.3216Z" fill="#FCEDC5"/>
<path d="M125.011 37.5163L137.616 36.2852C137.805 36.2852 137.995 36.3799 137.995 36.5693C137.995 36.7587 137.9 36.9481 137.711 36.9481L125.106 38.6527C124.821 38.6527 124.537 38.4633 124.442 38.1792C124.442 37.8951 124.632 37.611 125.011 37.5163Z" fill="#FCEDC5"/>
<path d="M123.4 69.8088L121.884 74.5439L114.302 72.0816C113.544 71.7975 112.975 72.8392 113.639 73.3127L125.58 82.4989C126.149 82.9724 127.096 82.6883 127.286 82.0254L129.181 76.722L138.374 78.7108C139.133 78.9002 139.512 77.8585 138.848 77.4797L125.011 69.1458C124.443 68.8617 123.59 69.1458 123.4 69.8088Z" fill="url(#paint7_linear_1560_2032)"/>
<path d="M125.296 81.2675C125.296 81.1728 125.296 81.1728 125.296 81.0781L127.002 76.6271C127.096 76.343 127.475 76.1536 127.76 76.2483C128.044 76.343 128.234 76.7218 128.139 77.0059L126.433 81.4569C126.338 81.741 125.959 81.9304 125.675 81.8357C125.39 81.741 125.296 81.5516 125.296 81.2675Z" fill="#FCEDC5"/>
<path d="M125.296 70.5655L136.384 76.7212C136.574 76.8159 136.574 77.0053 136.479 77.1947C136.384 77.3841 136.195 77.3841 136.005 77.2894L124.632 71.6072C124.348 71.4178 124.253 71.1337 124.348 70.8496C124.632 70.5655 125.011 70.3761 125.296 70.5655Z" fill="#FCEDC5"/>
<path d="M44.5485 76.4389C44.8329 76.4389 45.3067 76.3442 45.7806 76.1548C45.212 74.4502 45.1172 74.0714 44.9276 73.1243C44.8329 72.4614 45.0224 70.6621 45.0224 70.6621H44.9276C44.2642 70.6621 43.6008 70.5674 43.0322 70.4727L42.3687 74.0714L42.1792 76.2495L43.8851 76.4389C44.0747 76.4389 44.2642 76.4389 44.5485 76.4389Z" fill="#CED7E2"/>
<path d="M41.9894 70.4727L41.4208 75.6813C41.4208 75.6813 41.5155 76.723 43.7901 75.9654C43.2215 74.2608 43.1267 73.8819 42.9372 72.9349C42.8424 72.272 43.0319 70.4727 43.0319 70.4727H41.9894Z" fill="white"/>
<defs>
<filter id="filter0_d_1560_2032" x="0.0585938" y="4.99512" width="117.231" height="111.685" filterUnits="userSpaceOnUse" color-interpolation-filters="sRGB">
<feFlood flood-opacity="0" result="BackgroundImageFix"/>
<feColorMatrix in="SourceAlpha" type="matrix" values="0 0 0 0 0 0 0 0 0 0 0 0 0 0 0 0 0 0 127 0" result="hardAlpha"/>
<feOffset dy="11"/>
<feGaussianBlur stdDeviation="11"/>
<feColorMatrix type="matrix" values="0 0 0 0 0.397708 0 0 0 0 0.47749 0 0 0 0 0.575 0 0 0 0.18 0"/>
<feBlend mode="normal" in2="BackgroundImageFix" result="effect1_dropShadow_1560_2032"/>
<feBlend mode="normal" in="SourceGraphic" in2="effect1_dropShadow_1560_2032" result="shape"/>
</filter>
<linearGradient id="paint0_linear_1560_2032" x1="46.8939" y1="23.4924" x2="49.9575" y2="23.4924" gradientUnits="userSpaceOnUse">
<stop stop-color="#FFD469"/>
<stop offset="1" stop-color="#F0B82B"/>
</linearGradient>
<linearGradient id="paint1_linear_1560_2032" x1="70.5477" y1="97.2356" x2="73.6113" y2="97.2356" gradientUnits="userSpaceOnUse">
<stop stop-color="#FFD469"/>
<stop offset="1" stop-color="#F0B82B"/>
</linearGradient>
<linearGradient id="paint2_linear_1560_2032" x1="31.0287" y1="87.4202" x2="34.0924" y2="87.4202" gradientUnits="userSpaceOnUse">
<stop stop-color="#00832D"/>
<stop offset="1" stop-color="#233B2F"/>
</linearGradient>
<linearGradient id="paint3_linear_1560_2032" x1="30.1197" y1="46.1467" x2="45.3691" y2="71.0188" gradientUnits="userSpaceOnUse">
<stop stop-color="#97F675"/>
<stop offset="1" stop-color="#69F038"/>
</linearGradient>
<linearGradient id="paint4_linear_1560_2032" x1="109.131" y1="46.5571" x2="82.1027" y2="50.6141" gradientUnits="userSpaceOnUse">
<stop stop-color="#97F675"/>
<stop offset="1" stop-color="#6DEF3F"/>
</linearGradient>
<linearGradient id="paint5_linear_1560_2032" x1="109.824" y1="4.02851" x2="121.631" y2="5.2575" gradientUnits="userSpaceOnUse">
<stop stop-color="#FFD469"/>
<stop offset="1" stop-color="#E8B12A"/>
</linearGradient>
<linearGradient id="paint6_linear_1560_2032" x1="119.161" y1="37.5474" x2="137.905" y2="44.4673" gradientUnits="userSpaceOnUse">
<stop stop-color="#FFD469"/>
<stop offset="1" stop-color="#E8B12A"/>
</linearGradient>
<linearGradient id="paint7_linear_1560_2032" x1="116.383" y1="71.3993" x2="136.433" y2="78.0292" gradientUnits="userSpaceOnUse">
<stop stop-color="#FFD469"/>
<stop offset="1" stop-color="#E8B12A"/>
</linearGradient>
</defs>
</svg>
