<svg width="40" height="40" viewBox="0 0 40 40" fill="none" xmlns="http://www.w3.org/2000/svg">
<rect width="40" height="40" rx="16" fill="#15C01A"/>
<path d="M12 20C12 18.8954 12.8954 18 14 18H23C24.1046 18 25 18.8954 25 20V20C25 21.1046 24.1046 22 23 22H14C12.8954 22 12 21.1046 12 20V20Z" stroke="#FDFFFC" stroke-width="1.5"/>
<path d="M20 26C20 28.2091 21.7909 30 24 30C26.2091 30 28 28.2091 28 26C28 23.7909 26.2091 22 24 22C23.8007 22 23.6047 22.0146 23.4132 22.0427M20 26C20 23.9902 21.4823 22.3266 23.4132 22.0427M20 26H14C12.8954 26 12 25.1046 12 24C12 22.8954 12.8954 22 14 22H23C23.1417 22 23.2799 22.0147 23.4132 22.0427" stroke="#FDFFFC" stroke-width="1.5"/>
<path d="M22 13.4142L20.7071 14.7071C20.3166 15.0976 19.6834 15.0976 19.2929 14.7071L18 13.4142M20 10L20 14.4142" stroke="#FDFFFC" stroke-width="1.5" stroke-linecap="round"/>
</svg>
