<svg width="20" height="20" viewBox="0 0 20 20" fill="none" xmlns="http://www.w3.org/2000/svg">
<path d="M15.8333 6.6665C17.214 6.6665 18.3333 5.54722 18.3333 4.1665C18.3333 2.78579 17.214 1.6665 15.8333 1.6665C14.4526 1.6665 13.3333 2.78579 13.3333 4.1665C13.3333 5.54722 14.4526 6.6665 15.8333 6.6665Z" fill="#B22AF2"/>
<path d="M16.5 7.85C16.4833 7.85 16.4667 7.85833 16.45 7.85833C16.3667 7.875 16.2833 7.88333 16.1917 7.9C15.8417 7.93333 15.4667 7.91667 15.0833 7.84167C14.9833 7.81667 14.9 7.8 14.8083 7.76667C14.5333 7.7 14.275 7.59167 14.0333 7.45C13.9333 7.4 13.8333 7.33333 13.7417 7.275C13.3417 7 13 6.65833 12.725 6.25833C12.6667 6.16667 12.6 6.06667 12.55 5.96667C12.4083 5.725 12.3 5.46667 12.2333 5.19167C12.2 5.1 12.1833 5.01667 12.1583 4.91667C12.0833 4.53333 12.0667 4.15833 12.1 3.80833C12.1167 3.71667 12.125 3.63333 12.1417 3.55C12.1417 3.53333 12.15 3.51667 12.15 3.5C12.25 2.98333 11.8667 2.5 11.3333 2.5H6.26667C6.15 2.5 6.03334 2.50833 5.925 2.51667C5.82501 2.525 5.73334 2.53333 5.63334 2.55C5.53334 2.55833 5.43334 2.575 5.34167 2.59167C3.33334 2.88333 2.05 4.15833 1.75834 6.175C1.74167 6.26667 1.72501 6.36667 1.71667 6.46667C1.70001 6.56667 1.69167 6.65833 1.68334 6.75833C1.67501 6.86667 1.66667 6.98333 1.66667 7.1V13.7333C1.66667 13.85 1.67501 13.9667 1.68334 14.075C1.69167 14.175 1.70001 14.2667 1.71667 14.3667C1.72501 14.4667 1.74167 14.5667 1.75834 14.6583C2.05 16.675 3.33334 17.95 5.34167 18.2417C5.43334 18.2583 5.53334 18.275 5.63334 18.2833C5.73334 18.3 5.82501 18.3083 5.925 18.3167C6.03334 18.325 6.15 18.3333 6.26667 18.3333H12.9C13.0167 18.3333 13.1333 18.325 13.2417 18.3167C13.3417 18.3083 13.4333 18.3 13.5333 18.2833C13.6333 18.275 13.7333 18.2583 13.825 18.2417C15.8333 17.95 17.1167 16.675 17.4083 14.6583C17.425 14.5667 17.4417 14.4667 17.45 14.3667C17.4667 14.2667 17.475 14.175 17.4833 14.075C17.4917 13.9667 17.5 13.85 17.5 13.7333V8.66667C17.5 8.13333 17.0167 7.75 16.5 7.85ZM5.62501 10.4167H9.79167C10.1333 10.4167 10.4167 10.7 10.4167 11.0417C10.4167 11.3833 10.1333 11.6667 9.79167 11.6667H5.62501C5.28334 11.6667 5.00001 11.3833 5.00001 11.0417C5.00001 10.7 5.28334 10.4167 5.62501 10.4167ZM13.125 15H5.62501C5.28334 15 5.00001 14.7167 5.00001 14.375C5.00001 14.0333 5.28334 13.75 5.62501 13.75H13.125C13.4667 13.75 13.75 14.0333 13.75 14.375C13.75 14.7167 13.4667 15 13.125 15Z" fill="#B22AF2"/>
</svg>
