<svg width="49" height="48" viewBox="0 0 49 48" fill="none" xmlns="http://www.w3.org/2000/svg">
<rect x="0.5" width="48" height="48" rx="24" fill="#EAF4FE"/>
<path d="M28.4101 18.1905C28.2682 18.3286 28.0781 18.4058 27.8801 18.4058C27.6822 18.4058 27.492 18.3286 27.3501 18.1905L25.7501 16.5805V23.2805C25.7501 23.4794 25.6711 23.6702 25.5304 23.8108C25.3898 23.9515 25.199 24.0305 25.0001 24.0305C24.8012 24.0305 24.6104 23.9515 24.4698 23.8108C24.3291 23.6702 24.2501 23.4794 24.2501 23.2805V16.5705L22.6501 18.1805C22.5815 18.2542 22.4987 18.3133 22.4067 18.3543C22.3147 18.3953 22.2153 18.4173 22.1146 18.4191C22.0139 18.4209 21.9139 18.4023 21.8205 18.3646C21.7271 18.3269 21.6423 18.2708 21.5711 18.1995C21.4999 18.1283 21.4437 18.0435 21.406 17.9501C21.3683 17.8567 21.3497 17.7567 21.3515 17.656C21.3533 17.5553 21.3753 17.456 21.4163 17.364C21.4573 17.272 21.5164 17.1892 21.5901 17.1205L24.4701 14.2205C24.5394 14.1504 24.6219 14.0948 24.7129 14.057C24.8039 14.0193 24.9016 14 25.0001 14.0005C25.1987 14.0018 25.389 14.0807 25.5301 14.2205L28.4201 17.1205C28.5599 17.2641 28.6372 17.4572 28.6353 17.6576C28.6335 17.8579 28.5525 18.0495 28.4101 18.1905Z" fill="#2A92F2"/>
<path d="M31.4001 19.291H26.7501V23.291C26.7501 23.7551 26.5657 24.2003 26.2375 24.5285C25.9093 24.8566 25.4642 25.041 25.0001 25.041C24.536 25.041 24.0908 24.8566 23.7627 24.5285C23.4345 24.2003 23.2501 23.7551 23.2501 23.291V19.291H18.6101C17.6278 19.3172 16.696 19.732 16.0192 20.4444C15.3424 21.1569 14.9759 22.1087 15.0001 23.091V30.191C14.9759 31.1743 15.3421 32.1272 16.0186 32.8412C16.6951 33.5552 17.6269 33.9722 18.6101 34.001H31.4001C32.3815 33.9696 33.3107 33.5515 33.9851 32.8378C34.6595 32.1241 35.0243 31.1726 35.0001 30.191V23.091C35.0243 22.1104 34.6592 21.16 33.9845 20.4479C33.3099 19.7358 32.3806 19.3198 31.4001 19.291ZM28.0001 31.361H21.8501C21.6512 31.361 21.4604 31.282 21.3198 31.1413C21.1791 31.0007 21.1001 30.8099 21.1001 30.611C21.1001 30.4121 21.1791 30.2213 21.3198 30.0807C21.4604 29.94 21.6512 29.861 21.8501 29.861H28.0001C28.199 29.861 28.3898 29.94 28.5304 30.0807C28.6711 30.2213 28.7501 30.4121 28.7501 30.611C28.7501 30.8099 28.6711 31.0007 28.5304 31.1413C28.3898 31.282 28.199 31.361 28.0001 31.361ZM28.0601 28.861H21.9201C21.7212 28.861 21.5304 28.782 21.3898 28.6413C21.2491 28.5007 21.1701 28.3099 21.1701 28.111C21.1701 27.9121 21.2491 27.7213 21.3898 27.5807C21.5304 27.44 21.7212 27.361 21.9201 27.361H28.0801C28.279 27.361 28.4698 27.44 28.6104 27.5807C28.7511 27.7213 28.8301 27.9121 28.8301 28.111C28.8301 28.3099 28.7511 28.5007 28.6104 28.6413C28.4698 28.782 28.279 28.861 28.0801 28.861H28.0601Z" fill="#2A92F2"/>
</svg>
