<svg width="18" height="18" viewBox="0 0 18 18" fill="none" xmlns="http://www.w3.org/2000/svg">
<path d="M12.4917 0.666504H5.50834C2.475 0.666504 0.666672 2.47484 0.666672 5.50817V12.4832C0.666672 15.5248 2.475 17.3332 5.50834 17.3332H12.4833C15.5167 17.3332 17.325 15.5248 17.325 12.4915V5.50817C17.3333 2.47484 15.525 0.666504 12.4917 0.666504ZM5.39167 3.58317C5.39167 3.2415 5.67501 2.95817 6.01667 2.95817C6.35834 2.95817 6.64167 3.2415 6.64167 3.58317V6.83317C6.64167 7.17484 6.35834 7.45817 6.01667 7.45817C5.67501 7.45817 5.39167 7.17484 5.39167 6.83317V3.58317ZM6.99255 12.6664C6.79165 12.7622 6.64167 12.953 6.64167 13.1756V14.4165C6.64167 14.7582 6.35834 15.0415 6.01667 15.0415C5.67501 15.0415 5.39167 14.7582 5.39167 14.4165V13.1756C5.39167 12.953 5.24166 12.7623 5.04085 12.6662C4.27611 12.3005 3.75 11.526 3.75 10.6248C3.75 9.37484 4.76667 8.34984 6.01667 8.34984C7.26667 8.34984 8.29167 9.3665 8.29167 10.6248C8.29167 11.5262 7.75909 12.3007 6.99255 12.6664ZM12.6083 14.4165C12.6083 14.7582 12.325 15.0415 11.9833 15.0415C11.6417 15.0415 11.3583 14.7582 11.3583 14.4165V11.1665C11.3583 10.8248 11.6417 10.5415 11.9833 10.5415C12.325 10.5415 12.6083 10.8248 12.6083 11.1665V14.4165ZM11.9833 9.6415C10.7333 9.6415 9.70834 8.62484 9.70834 7.3665C9.70834 6.46517 10.2409 5.69064 11.0075 5.32497C11.2084 5.22912 11.3583 5.03831 11.3583 4.81571V3.58317C11.3583 3.2415 11.6417 2.95817 11.9833 2.95817C12.325 2.95817 12.6083 3.2415 12.6083 3.58317V4.82405C12.6083 5.04664 12.7583 5.23741 12.9592 5.33345C13.7239 5.69918 14.25 6.47362 14.25 7.37484C14.25 8.62484 13.2333 9.6415 11.9833 9.6415Z" fill="#FADB8B"/>
</svg>
