<svg width="120" height="111" viewBox="0 0 120 111" fill="none" xmlns="http://www.w3.org/2000/svg">
<g clip-path="url(#clip0_1391_1056)">
<path d="M5.37431 20.2547C6.82796 19.7815 7.62336 18.2175 7.15089 16.7615C6.67841 15.3054 5.11698 14.5087 3.66332 14.982C2.20967 15.4552 1.41427 17.0192 1.88674 18.4753C2.35922 19.9313 3.92065 20.728 5.37431 20.2547Z" fill="#EAEEF9"/>
<path d="M22.5773 3.77023C23.6168 3.77023 24.4594 2.92624 24.4594 1.88512C24.4594 0.843995 23.6168 0 22.5773 0C21.5379 0 20.6953 0.843995 20.6953 1.88512C20.6953 2.92624 21.5379 3.77023 22.5773 3.77023Z" fill="url(#paint0_linear_1391_1056)"/>
<path d="M118.118 52.5612C119.158 52.5612 120 51.7173 120 50.6761C120 49.635 119.158 48.791 118.118 48.791C117.079 48.791 116.236 49.635 116.236 50.6761C116.236 51.7173 117.079 52.5612 118.118 52.5612Z" fill="url(#paint1_linear_1391_1056)"/>
<path d="M4.86445 93.3689C5.90387 93.3689 6.74648 92.5249 6.74648 91.4837C6.74648 90.4426 5.90387 89.5986 4.86445 89.5986C3.82504 89.5986 2.98242 90.4426 2.98242 91.4837C2.98242 92.5249 3.82504 93.3689 4.86445 93.3689Z" fill="url(#paint2_linear_1391_1056)"/>
<path d="M115.666 27.7077C117.381 26.1378 117.501 23.4724 115.934 21.7545C114.366 20.0365 111.705 19.9165 109.99 21.4865C108.275 23.0564 108.155 25.7218 109.723 27.4397C111.29 29.1577 113.951 29.2777 115.666 27.7077Z" fill="#EAEEF9"/>
<path d="M115.985 8.81662C116.707 8.15559 116.757 7.03333 116.097 6.30999C115.437 5.58664 114.317 5.53613 113.595 6.19715C112.873 6.85818 112.822 7.98043 113.482 8.70378C114.142 9.42712 115.262 9.47764 115.985 8.81662Z" fill="#EAEEF9"/>
<path d="M28.4449 86.4937L19.4775 110.113H27.3378L37.9657 90.8183L28.4449 86.4937Z" fill="#F3DD22"/>
<path d="M76.1595 86.4937L85.1268 110.113H77.2666L66.6387 90.8183L76.1595 86.4937Z" fill="#F3DD22"/>
<path d="M56.3429 95.6973C80.0049 95.6973 99.1867 76.484 99.1867 52.7832C99.1867 29.0824 80.0049 9.86914 56.3429 9.86914C32.6809 9.86914 13.499 29.0824 13.499 52.7832C13.499 76.484 32.6809 95.6973 56.3429 95.6973Z" fill="#F3DD22"/>
<path d="M52.3575 95.6973C76.0195 95.6973 95.2013 76.484 95.2013 52.7832C95.2013 29.0824 76.0195 9.86914 52.3575 9.86914C28.6955 9.86914 9.51367 29.0824 9.51367 52.7832C9.51367 76.484 28.6955 95.6973 52.3575 95.6973Z" fill="#FFE926"/>
<path d="M52.3579 85.1631C70.2114 85.1631 84.6845 70.6662 84.6845 52.7834C84.6845 34.9007 70.2114 20.4038 52.3579 20.4038C34.5044 20.4038 20.0312 34.9007 20.0312 52.7834C20.0312 70.6662 34.5044 85.1631 52.3579 85.1631Z" fill="white"/>
<path d="M52.3572 75.5153C64.8913 75.5153 75.0522 65.3377 75.0522 52.7831C75.0522 40.2284 64.8913 30.0508 52.3572 30.0508C39.823 30.0508 29.6621 40.2284 29.6621 52.7831C29.6621 65.3377 39.823 75.5153 52.3572 75.5153Z" fill="#FFE926"/>
<path d="M52.3576 65.3139C59.2667 65.3139 64.8676 59.7038 64.8676 52.7834C64.8676 45.863 59.2667 40.2529 52.3576 40.2529C45.4486 40.2529 39.8477 45.863 39.8477 52.7834C39.8477 59.7038 45.4486 65.3139 52.3576 65.3139Z" fill="white"/>
<path d="M30.6592 45.2425L52.69 51.0088C53.6864 51.2305 54.2399 52.3394 54.0185 53.3374C53.7971 54.3354 52.69 54.8899 51.6937 54.6681L3.31445 42.0267C2.31808 41.805 1.76455 40.6961 1.98596 39.6981C2.20738 38.7001 3.31445 38.1456 4.31082 38.3674L20.917 42.6921" fill="#1C3754"/>
<path d="M24.0165 40.0308L23.463 38.9219C22.7987 37.5912 21.4702 36.4823 20.031 36.1497L4.9748 32.2685C3.86772 32.0468 2.98206 33.0448 3.5356 34.0428L6.96753 41.0288L0.546492 45.3535C-0.339168 46.0188 -0.117753 47.3495 0.989323 47.6821L16.0456 51.5632C17.4848 52.0068 19.1454 51.6741 20.3631 50.787L25.5664 47.2386C26.4521 46.6841 26.6735 45.5752 26.2307 44.6881L24.0165 40.0308Z" fill="url(#paint3_linear_1391_1056)"/>
<path d="M2.20703 111H101.844" stroke="#F8F9FB" stroke-width="2" stroke-miterlimit="10" stroke-linecap="round" stroke-linejoin="round"/>
</g>
<defs>
<linearGradient id="paint0_linear_1391_1056" x1="20.7475" y1="1.83266" x2="24.4068" y2="1.83266" gradientUnits="userSpaceOnUse">
<stop stop-color="#83A6FF"/>
<stop offset="1" stop-color="#5A78FF"/>
</linearGradient>
<linearGradient id="paint1_linear_1391_1056" x1="116.235" y1="50.6757" x2="120.008" y2="50.6757" gradientUnits="userSpaceOnUse">
<stop stop-color="#97F675"/>
<stop offset="1" stop-color="#15C01A"/>
</linearGradient>
<linearGradient id="paint2_linear_1391_1056" x1="2.98142" y1="91.4833" x2="6.75432" y2="91.4833" gradientUnits="userSpaceOnUse">
<stop stop-color="#97F675"/>
<stop offset="1" stop-color="#15C01A"/>
</linearGradient>
<linearGradient id="paint3_linear_1391_1056" x1="-0.00704561" y1="41.9956" x2="26.5072" y2="41.9956" gradientUnits="userSpaceOnUse">
<stop stop-color="#97F675"/>
<stop offset="1" stop-color="#15C01A"/>
</linearGradient>
<clipPath id="clip0_1391_1056">
<rect width="120" height="111" fill="white"/>
</clipPath>
</defs>
</svg>
