<svg width="271" height="154" viewBox="0 0 271 154" fill="none" xmlns="http://www.w3.org/2000/svg">
<g clip-path="url(#clip0_531_3682)">
<path d="M3.00122 118.587L36.5041 118.442L70.0009 118.388L137.001 118.291L204 118.388L237.497 118.442L271 118.587L237.497 118.738L204 118.793L137.001 118.889L70.0009 118.793L36.5041 118.738L3.00122 118.587Z" fill="#0D1510"/>
<path d="M137.254 154C205.875 154 261.503 147.118 261.503 138.63C261.503 130.141 205.875 123.26 137.254 123.26C68.6332 123.26 13.005 130.141 13.005 138.63C13.005 147.118 68.6332 154 137.254 154Z" fill="#EBEBEB"/>
<path d="M105.783 96.6738L230.907 96.6738V72.1412L105.783 72.1412V96.6738Z" fill="#97F675"/>
<path d="M207.551 96.6738H219.777V72.1412H207.551V96.6738Z" fill="#0D1510"/>
<path d="M197.91 96.6738H203.013V72.1412H197.91V96.6738Z" fill="#0D1510"/>
<path d="M117.157 96.6738H129.383V72.1412H117.157V96.6738Z" fill="#0D1510"/>
<path d="M85.7138 9.77448L53.5823 129.937L71.3181 134.619L103.45 14.4571L85.7138 9.77448Z" fill="#0D1510"/>
<path d="M59.5768 107.502L56.4373 119.243L74.173 123.926L77.3126 112.185L59.5768 107.502Z" fill="#97F675"/>
<path d="M82.7929 20.7033L79.6533 32.4443L97.3891 37.1269L100.529 25.3859L82.7929 20.7033Z" fill="#97F675"/>
<path d="M79.2991 134.1L224.217 134.1V121.836L79.2991 121.836V134.1Z" fill="#97F675"/>
<path d="M186 134.1H191.906V121.836H186V134.1Z" fill="#A6A6A6"/>
<path d="M195.811 134.1H201.718V121.836H195.811V134.1Z" fill="#A6A6A6"/>
<path d="M93.7579 134.1H99.6641V121.836H93.7579V134.1Z" fill="#A6A6A6"/>
<path d="M103.562 134.1H109.469V121.836H103.562V134.1Z" fill="#A6A6A6"/>
<path d="M179.759 53.8389H92.9607V72.1401H179.759V53.8389Z" fill="#455A64"/>
<path d="M229.235 53.8389H179.753V72.1401H229.235V53.8389Z" fill="#455A64"/>
<path d="M179.759 55.7383H92.9607V70.2439H179.759V55.7383Z" fill="white"/>
<path d="M98.5748 58.7243C105.339 58.6196 112.105 58.549 118.872 58.5128L139.164 58.4463L159.462 58.5128C166.225 58.549 172.989 58.6196 179.753 58.7243C172.989 58.8251 166.225 58.8976 159.462 58.9419L139.164 59.0023L118.848 58.9359C112.1 58.8996 105.343 58.8291 98.5748 58.7243Z" fill="#DBDBDB"/>
<path d="M98.5748 61.57C105.339 61.4693 112.105 61.3967 118.872 61.3524L139.164 61.292L159.462 61.3524C166.225 61.3967 172.989 61.4693 179.753 61.57C172.989 61.6707 166.225 61.7413 159.462 61.7816L139.164 61.848L118.848 61.7816C112.1 61.7453 105.343 61.6748 98.5748 61.57Z" fill="#DBDBDB"/>
<path d="M98.5748 64.4167C105.339 64.316 112.105 64.2434 118.872 64.1991L139.164 64.1387L159.462 64.1991C166.225 64.2354 172.989 64.3079 179.753 64.4167C172.989 64.5215 166.225 64.592 159.462 64.6282L139.164 64.6947L118.848 64.6282C112.1 64.592 105.343 64.5215 98.5748 64.4167Z" fill="#DBDBDB"/>
<path d="M98.5748 67.2645C105.339 67.1598 112.105 67.0873 118.872 67.047L139.164 66.9805L159.462 67.047C166.225 67.0832 172.989 67.1557 179.753 67.2645C172.989 67.3693 166.225 67.4398 159.462 67.4761L139.164 67.5426L118.848 67.4761C112.1 67.4398 105.343 67.3693 98.5748 67.2645Z" fill="#DBDBDB"/>
<path d="M172.454 0H101.415V13.1397H172.454V0Z" fill="#A6A6A6"/>
<path d="M212.952 0H172.454V13.1397H212.952V0Z" fill="#A6A6A6"/>
<path d="M172.454 1.36719H101.415V11.781H172.454V1.36719Z" fill="white"/>
<path d="M106.014 3.50512C111.553 3.43259 117.091 3.38222 122.626 3.35402L139.237 3.30566L155.849 3.35402C161.384 3.37819 166.919 3.42856 172.454 3.50512C166.919 3.57765 161.384 3.63003 155.849 3.66227L139.237 3.70457L122.626 3.66227C117.091 3.63406 111.553 3.58168 106.014 3.50512Z" fill="#DBDBDB"/>
<path d="M106.014 5.54906C111.553 5.47653 117.091 5.42617 122.626 5.39796L139.237 5.34961L155.849 5.39796C161.384 5.42214 166.919 5.47251 172.454 5.54906C166.919 5.62159 161.384 5.67397 155.849 5.7062L139.237 5.74852L122.626 5.7062C117.091 5.678 111.553 5.62562 106.014 5.54906Z" fill="#DBDBDB"/>
<path d="M106.014 7.59203C111.553 7.5195 117.091 7.46914 122.626 7.44093L139.237 7.39258L155.849 7.44093C161.384 7.46511 166.919 7.51547 172.454 7.59203C166.919 7.66859 161.384 7.72097 155.849 7.74917L139.237 7.79148L122.626 7.74917C117.091 7.72097 111.553 7.66859 106.014 7.59203Z" fill="#DBDBDB"/>
<path d="M106.014 9.6643C111.553 9.59177 117.091 9.5414 122.626 9.5132L139.237 9.46484L155.849 9.5132C161.384 9.53737 166.919 9.58774 172.454 9.6643C166.919 9.74488 161.384 9.79726 155.849 9.82144L139.237 9.86375L122.626 9.82144C117.091 9.77309 111.553 9.72071 106.014 9.6643Z" fill="#DBDBDB"/>
<path d="M79.7007 33.2303L62.4018 97.8106L52.5359 134.631L43.0166 132.11L52.8826 95.2903L70.1814 30.71L79.7007 33.2303Z" fill="#97F675"/>
<path opacity="0.1" d="M79.7007 33.2303L62.4018 97.8106L52.5359 134.631L43.0166 132.11L52.8826 95.2903L70.1814 30.71L79.7007 33.2303Z" fill="black"/>
<path d="M61.4091 97.5356L78.714 32.957L71.1669 30.9602L53.862 95.5389L61.4091 97.5356Z" fill="white"/>
<path d="M76.0392 36.7363C74.7497 41.7811 73.4399 46.8177 72.1098 51.8464L68.0953 66.9564L64.02 82.0664C62.6494 87.095 61.2625 92.1196 59.8595 97.1402C61.1571 92.0914 62.4689 87.0548 63.7949 82.0302L67.8034 66.9201L71.8848 51.8101C73.2554 46.7815 74.6402 41.7569 76.0392 36.7363Z" fill="#DBDBDB"/>
<path d="M74.5607 36.3418C73.2671 41.3946 71.9553 46.4313 70.6252 51.4518L66.6168 66.5619L62.5354 81.6719C61.1688 86.7005 59.784 91.7251 58.381 96.7456C59.6745 91.7009 60.9864 86.6642 62.3164 81.6356L66.3248 66.5256L70.4063 51.4155C71.7769 46.3869 73.1617 41.3624 74.5607 36.3418Z" fill="#DBDBDB"/>
<path d="M73.0826 35.957C71.7891 41.0058 70.4773 46.0425 69.1472 51.0671L65.1388 66.1771L61.0574 81.2871C59.6908 86.3158 58.306 91.3383 56.903 96.3549C58.1925 91.3061 59.5022 86.2694 60.8323 81.2448L64.8468 66.1348L68.9221 51.0248C70.2887 46.0163 71.6755 40.9937 73.0826 35.957Z" fill="#DBDBDB"/>
<path d="M71.5984 35.5645C70.3089 40.6092 68.9991 45.6459 67.669 50.6745L63.6545 65.7845L59.5792 80.8946C58.2126 85.9232 56.8258 90.9457 55.4187 95.9623C56.7123 90.9175 58.0241 85.8809 59.3541 80.8522L63.3626 65.7422L67.444 50.6322C68.8146 45.6036 70.1994 40.581 71.5984 35.5645Z" fill="#DBDBDB"/>
<path d="M141.518 121.831L214.235 121.831V96.6759H141.518V121.831Z" fill="#0D1510"/>
<path d="M90.4426 121.831H141.518V96.6759H90.4426V121.831Z" fill="#0D1510"/>
<path d="M141.518 119.219L214.235 119.219V99.2856H141.518V119.219Z" fill="white"/>
<path d="M209.528 115.12C203.85 115.221 198.184 115.291 192.527 115.331L175.526 115.398L158.495 115.331C152.818 115.295 147.14 115.225 141.463 115.12C147.14 115.019 152.818 114.947 158.495 114.902L175.526 114.842L192.527 114.902C198.196 114.947 203.863 115.019 209.528 115.12Z" fill="#DBDBDB"/>
<path d="M209.528 111.205C203.85 111.306 198.184 111.376 192.527 111.416L175.526 111.483L158.495 111.416C152.818 111.38 147.14 111.31 141.463 111.205C147.14 111.104 152.818 111.032 158.495 110.987L175.526 110.927L192.527 110.987C198.196 111.027 203.863 111.1 209.528 111.205Z" fill="#DBDBDB"/>
<path d="M209.528 107.3C203.85 107.4 198.184 107.471 192.527 107.511L175.526 107.578L158.495 107.511C152.818 107.475 147.14 107.404 141.463 107.3C147.14 107.195 152.818 107.122 158.495 107.082L175.526 107.016L192.527 107.082C198.196 107.118 203.863 107.191 209.528 107.3Z" fill="#DBDBDB"/>
<path d="M209.528 103.39C203.85 103.494 198.184 103.565 192.527 103.601L175.526 103.668L158.495 103.601C152.818 103.565 147.14 103.494 141.463 103.39C147.14 103.281 152.818 103.208 158.495 103.172L175.526 103.105L192.527 103.172C198.196 103.208 203.863 103.281 209.528 103.39Z" fill="#DBDBDB"/>
<path d="M231.285 36.7725H97.8207V53.9133H231.285V36.7725Z" fill="#C7C7C7"/>
<path d="M161.7 40.2705H110.37V50.5574H161.7V40.2705Z" fill="white"/>
<path d="M222.276 40.2705H174.09V41.8601H222.276V40.2705Z" fill="white"/>
<path d="M222.276 44.5508H174.09V46.1404H222.276V44.5508Z" fill="white"/>
<path d="M222.276 48.8232H174.09V50.4128H222.276V48.8232Z" fill="white"/>
<path d="M205.464 13.1416H107.048V36.6951H205.464V13.1416Z" fill="#97F675"/>
<path d="M195.027 13.1416H185.854V36.6951H195.027V13.1416Z" fill="#0D1510"/>
<path d="M179.838 13.1416H176.28V36.6951H179.838V13.1416Z" fill="#0D1510"/>
<path d="M29.4286 88.0949C33.291 80.2014 40.0488 76.1519 47.6764 78.3943C55.3039 80.6366 56.4718 91.1834 50.7906 93.8488C45.1095 96.5142 39.4162 88.7295 36.4114 87.1339C33.4066 85.5383 29.4286 88.0949 29.4286 88.0949Z" fill="#97F675"/>
<path d="M25.6875 109.09C25.6875 108.135 25.7483 107.186 25.7787 106.237C25.8456 104.339 25.9126 102.435 25.9855 100.537C26.1133 97.0682 26.4904 93.6594 27.9381 90.4561C29.216 87.5537 31.3523 85.1063 34.0632 83.4389C35.0703 82.837 36.1547 82.3735 37.287 82.0609C38.3099 81.0286 39.6145 80.3164 41.04 80.012C42.8043 79.6537 44.6186 79.6087 46.3987 79.879C46.4656 79.879 46.4595 79.9818 46.3987 79.9757C44.7006 79.7612 42.9766 79.8824 41.3258 80.3323C40.6214 80.5271 39.9387 80.7924 39.2882 81.1241C38.8782 81.3448 38.4839 81.5932 38.1081 81.8675C39.6448 81.5521 41.2317 81.5686 42.7613 81.9159C43.3119 82.0482 43.8509 82.224 44.3732 82.4417C44.7905 82.3516 45.2178 82.315 45.6445 82.3329C46.201 82.3507 46.7538 82.4298 47.2929 82.5686C48.3948 82.8772 49.4488 83.3348 50.4254 83.9285C50.4862 83.9587 50.4254 84.0434 50.3767 84.0131C49.4215 83.4935 48.3978 83.109 47.3354 82.8708C46.8195 82.7521 46.2946 82.6753 45.7661 82.6411C45.4744 82.626 45.182 82.626 44.8902 82.6411C47.0603 83.6362 48.8042 85.3648 49.811 87.5187C49.811 87.5791 49.7502 87.6275 49.7259 87.567C49.1235 86.3169 48.2443 85.2184 47.154 84.3538C46.0638 83.4892 44.7908 82.881 43.4304 82.5747C43.2601 82.5323 43.0898 82.5082 42.9195 82.4719C42.9803 82.7197 42.9681 82.9977 43.0046 83.2395C43.0533 83.6203 43.1202 84.001 43.1932 84.3818C43.3502 85.1626 43.5533 85.9335 43.8015 86.6906C44.0602 87.4573 44.369 88.2063 44.726 88.933C45.0687 89.7002 45.5016 90.4245 46.0155 91.0907C46.0581 91.1451 45.9729 91.2116 45.9364 91.1511C45.4742 90.4379 44.945 89.7791 44.5253 89.0418C44.1268 88.3346 43.7812 87.5993 43.4912 86.8417C43.2026 86.0712 42.9768 85.2789 42.8161 84.4725C42.7309 84.0494 42.664 83.6203 42.6153 83.1911C42.5628 82.9347 42.5465 82.6724 42.5667 82.4115C41.671 82.2735 40.761 82.2532 39.8599 82.351C40.2006 84.2368 40.5655 86.195 41.6239 87.833C41.6604 87.8874 41.5631 87.9357 41.5326 87.8813C41.0384 87.0119 40.6016 86.1114 40.2249 85.1857C39.8782 84.2875 39.6591 83.3456 39.5741 82.3873C38.002 82.5948 36.4844 83.0994 35.1034 83.8741C32.4993 85.3764 30.421 87.6355 29.1485 90.3472C27.806 93.2652 27.0577 96.4183 26.9466 99.6248C26.6911 103.656 26.6425 107.712 26.2349 111.713C26.2349 111.973 25.7909 112.063 25.7422 111.767C25.637 110.879 25.6187 109.982 25.6875 109.09Z" fill="#0D1510"/>
<path d="M34.6167 82.8118C34.8693 82.5043 35.1642 82.2337 35.4927 82.0078C35.809 81.7479 36.101 81.494 36.4721 81.2643C37.1425 80.8088 37.8847 80.4676 38.6681 80.2549C38.729 80.2549 38.7533 80.3395 38.6681 80.3516C37.8788 80.5473 37.1405 80.9079 36.5025 81.4094C36.1801 81.6452 35.8942 81.899 35.5657 82.1589C35.2977 82.4376 35.0022 82.6887 34.6836 82.9085C34.6471 82.9387 34.5741 82.8662 34.6167 82.8118Z" fill="#0D1510"/>
<path d="M46.9403 85.671C47.5802 86.408 48.1715 87.1854 48.7105 87.9982C49.2404 88.8166 49.6828 89.6877 50.0305 90.5974C50.0305 90.5974 50.0305 90.6397 49.9819 90.5974C49.0998 88.878 48.057 87.2448 46.8673 85.7194C46.8247 85.6892 46.8977 85.5985 46.9403 85.671Z" fill="#0D1510"/>
<path d="M38.6319 84.891C38.7137 85.3836 38.861 85.8634 39.0699 86.3175C39.2819 86.7569 39.528 87.1793 39.806 87.5808C39.806 87.5808 39.806 87.6352 39.7634 87.611C39.1006 86.8503 38.6775 85.9129 38.5467 84.9151C38.5041 84.8486 38.6197 84.8245 38.6319 84.891Z" fill="#0D1510"/>
<path d="M26.2291 88.2866C26.2291 88.2866 20.7548 81.4568 10.2076 83.8744C0.183497 86.2014 -4.45752 104.454 5.65783 106.642C15.7732 108.83 14.0092 91.913 17.7014 89.0421C20.4385 86.9388 24.3375 87.4102 26.2291 88.2866Z" fill="#97F675"/>
<path d="M2.05078 93.8596C2.73886 93.2602 3.46632 92.7069 4.22834 92.2035C4.94299 91.715 5.72308 91.3284 6.54581 91.0552C6.95373 90.4317 7.41357 89.8434 7.92047 89.2964C8.85658 88.298 9.93938 87.4462 11.1321 86.77H10.8158C10.2562 86.77 9.69659 86.77 9.13699 86.77C8.01178 86.8414 6.90907 87.1159 5.88281 87.5799C5.82198 87.5799 5.7794 87.5134 5.84023 87.4892C6.88084 87.0396 7.97102 86.713 9.08833 86.5161C9.63202 86.4166 10.1839 86.3681 10.7367 86.3711C11.0348 86.3711 11.345 86.3711 11.6248 86.4255H11.7951C12.7626 85.9401 13.7831 85.567 14.8364 85.3134L14.5444 85.2348C14.0204 85.1235 13.4903 85.0427 12.9569 84.993C11.905 84.8701 10.8414 84.8864 9.79391 85.0414C9.73308 85.0414 9.71484 84.9507 9.79391 84.9386C10.8533 84.8119 11.9211 84.7695 12.9873 84.8117C13.8825 84.8397 14.7728 84.9551 15.6454 85.1562C16.28 85.038 16.9223 84.9653 17.5675 84.9386C21.217 84.7815 25.2619 86.1474 27.5247 89.1694C29.7874 92.1914 30.2375 96.1926 30.6389 99.825C31.2529 104.882 31.3873 109.986 31.0404 115.068C31.0404 115.37 30.5903 115.31 30.5842 115.026C30.4443 110.716 30.2922 106.407 29.8786 102.11C29.684 100.121 29.4711 98.1267 29.1365 96.1563C28.8983 94.4581 28.4084 92.8043 27.6828 91.2486C26.9015 89.6442 25.6562 88.3079 24.1062 87.4106C22.5534 86.5315 20.8221 86.009 19.0394 85.8815C17.4465 85.7498 15.8427 85.897 14.3011 86.3167C14.3467 86.6253 14.3467 86.9388 14.3011 87.2475C14.2634 87.637 14.186 88.0218 14.07 88.3958C13.9523 88.7466 13.8037 89.0864 13.6259 89.4112C13.4313 89.7738 13.188 90.0942 12.969 90.4387C12.9325 90.4931 12.8474 90.4387 12.8839 90.3782C13.3172 89.7629 13.5985 89.0547 13.705 88.3112C13.7719 87.9579 13.8146 87.6005 13.8327 87.2414C13.8327 86.9755 13.8327 86.6974 13.8327 86.4315C12.1585 86.9424 10.5964 87.7626 9.22823 88.8491C8.96668 89.0546 8.72338 89.2722 8.48007 89.4898C8.82644 89.8127 9.12722 90.1807 9.37421 90.5837C9.75473 91.1068 10.0866 91.6631 10.3657 92.2458C10.8538 93.4057 11.1831 94.6254 11.345 95.8723C11.3412 95.8829 11.3343 95.8922 11.325 95.8987C11.3157 95.9052 11.3046 95.9088 11.2933 95.9088C11.2819 95.9088 11.2708 95.9052 11.2616 95.8987C11.2523 95.8922 11.2453 95.8829 11.2416 95.8723C11.0423 94.6581 10.6306 93.4881 10.025 92.4151C9.74567 91.8842 9.43281 91.3715 9.08833 90.8799C8.91194 90.626 8.72946 90.3782 8.53482 90.1365C8.43141 90.0096 8.31584 89.8766 8.21852 89.7376C6.97706 90.9448 5.96348 92.3634 5.22589 93.9261C5.7178 94.4507 6.12786 95.0456 6.4424 95.6909C6.83911 96.3811 7.18667 97.0981 7.48253 97.8366C7.99321 99.2329 8.41376 100.66 8.74162 102.11C8.74162 102.176 8.65647 102.194 8.6443 102.11C8.32364 100.643 7.82102 99.2222 7.14799 97.8789C6.83169 97.2261 6.49715 96.5794 6.15044 95.9387C5.78285 95.3551 5.45174 94.7496 5.15898 94.1255C4.45122 95.647 4.0385 97.2873 3.94246 98.9607C3.94246 99.0272 3.83297 99.0151 3.83906 98.9607C4.0328 96.3247 4.84524 93.7703 6.21127 91.5024C5.56651 91.7744 4.91567 92.0403 4.29525 92.3728C3.50076 92.7899 2.7629 93.3058 2.09944 93.9079C2.06902 93.9805 2.0082 93.9019 2.05078 93.8596Z" fill="#0D1510"/>
<path d="M9.79411 94.2455C10.1104 95.2791 10.5119 96.2886 10.7978 97.3343C11.0883 98.3371 11.2437 99.3737 11.2602 100.417C11.2602 100.447 11.2176 100.447 11.2115 100.417C10.9273 98.3224 10.4195 96.2637 9.69678 94.2757C9.69478 94.2694 9.69406 94.2627 9.69466 94.2561C9.69526 94.2495 9.69717 94.243 9.70028 94.2371C9.70338 94.2312 9.70763 94.226 9.71277 94.2217C9.71791 94.2175 9.72384 94.2143 9.73024 94.2123C9.73663 94.2103 9.74335 94.2096 9.75002 94.2102C9.75668 94.2108 9.76317 94.2126 9.7691 94.2157C9.77503 94.2188 9.78029 94.223 9.78459 94.2282C9.78888 94.2333 9.79211 94.2392 9.79411 94.2455Z" fill="#0D1510"/>
<path d="M3.1094 91.6767C3.52256 91.2778 3.99432 90.9435 4.50854 90.6854C5.02949 90.4477 5.57109 90.2575 6.12667 90.1172C6.18751 90.1172 6.20576 90.2018 6.12667 90.2139C5.58102 90.3543 5.05711 90.5679 4.56937 90.8486C4.07116 91.1077 3.59148 91.4005 3.13373 91.7251C3.13062 91.7292 3.1265 91.7324 3.12176 91.7345C3.11702 91.7366 3.11183 91.7375 3.10666 91.737C3.1015 91.7366 3.09654 91.7348 3.09226 91.7319C3.08798 91.729 3.08451 91.725 3.08219 91.7204C3.07987 91.7158 3.07878 91.7107 3.07901 91.7056C3.07924 91.7004 3.0808 91.6954 3.08352 91.691C3.08625 91.6866 3.09006 91.683 3.09458 91.6805C3.09911 91.678 3.10421 91.6767 3.1094 91.6767Z" fill="#0D1510"/>
<path d="M21.0284 79.169C21.0284 79.169 20.0248 66.8997 10.8401 62.9227C3.17602 59.5985 -1.20953 68.1568 4.21006 73.397C8.58952 77.6338 15.621 75.7239 21.0284 79.169Z" fill="#97F675"/>
<path d="M5.90737 65.296C7.30511 65.8555 8.668 66.4973 9.98879 67.218C11.0893 67.8466 12.1478 68.5452 13.1578 69.3093C13.0058 68.995 12.8719 68.6686 12.7199 68.3664C12.4766 67.895 12.2211 67.4296 11.9413 66.9823C11.3753 66.0556 10.6948 65.2028 9.9158 64.4438C9.87322 64.4015 9.9158 64.329 9.98879 64.3774C10.766 65.1371 11.4781 65.9599 12.1177 66.8373C12.4351 67.2843 12.7275 67.7484 12.9936 68.2274C13.2591 68.6675 13.4637 69.1412 13.6019 69.6356C13.6019 69.6659 13.6688 69.684 13.7053 69.7142C15.3086 70.9812 16.7761 72.4091 18.0847 73.9752C18.0847 73.8543 18.0361 73.7335 18.0056 73.6247C17.8353 73.0203 17.6468 72.4159 17.446 71.8417C17.054 70.5824 16.4978 69.3795 15.7916 68.2636C15.7851 68.2524 15.7834 68.2391 15.7868 68.2266C15.7903 68.2142 15.7985 68.2036 15.8098 68.1972C15.8211 68.1907 15.8345 68.1891 15.8471 68.1925C15.8596 68.1959 15.8703 68.2041 15.8767 68.2153C16.6094 69.3274 17.2599 70.491 17.8232 71.6966C18.0709 72.2852 18.2742 72.8913 18.4314 73.5098C18.5663 73.9037 18.6681 74.308 18.7356 74.7186C19.1309 75.2203 19.5263 75.728 19.8973 76.2538C23.8388 81.8264 25.8157 88.5715 26.2901 95.3166C26.428 97.3283 26.4625 99.3455 26.3935 101.361C26.3764 103.386 26.1953 105.408 25.8522 107.405C25.8522 107.532 25.6271 107.489 25.6332 107.368C25.6758 105.591 25.8643 103.827 25.8948 102.056C25.9296 100.295 25.8748 98.5342 25.7305 96.7793C25.4427 93.2367 24.7718 89.7351 23.7294 86.3352C22.6532 82.8586 21.0735 79.5562 19.0397 76.5319C18.6504 76.4533 18.2672 76.3505 17.884 76.2538L16.5154 75.8912C15.6337 75.6634 14.7762 75.3517 13.9546 74.9604C13.8938 74.9302 13.9546 74.8395 14.0094 74.8697C14.8184 75.3097 15.6966 75.6101 16.6066 75.7582C17.3244 75.8972 18.0726 75.9939 18.7903 76.1571C18.129 75.1913 17.4163 74.2612 16.6553 73.3708C14.9058 73.5246 13.1427 73.3919 11.4364 72.978C10.5284 72.7654 9.63616 72.4908 8.76619 72.156C7.84164 71.7994 6.94141 71.3521 6.06552 70.9472C5.99861 70.9472 6.06552 70.8203 6.1081 70.8565C7.75086 71.7482 9.54464 72.3321 11.4 72.5791C13.0374 72.8407 14.6927 72.9761 16.3512 72.984C15.7003 72.2406 15.0252 71.5214 14.3074 70.8384C11.8744 68.5537 9.03383 66.4625 5.85872 65.3686C5.81614 65.3686 5.84655 65.2719 5.90737 65.296Z" fill="#0D1510"/>
<path d="M13.3768 65.3322C13.7891 65.852 14.1651 66.3993 14.5022 66.9703C14.8474 67.5706 15.1191 68.2098 15.3112 68.8743C15.3112 68.8743 15.3112 68.9045 15.2747 68.8743C14.9706 68.2698 14.709 67.6654 14.3988 67.0609C14.0955 66.4709 13.7283 65.9155 13.3038 65.4047C13.2612 65.3503 13.3342 65.2838 13.3768 65.3322Z" fill="#0D1510"/>
<path d="M28.1638 76.9546C28.2185 77.4865 29.5506 72.5002 37.2877 68.0759C44.3374 64.0567 52.7496 53.6066 45.8398 47.0005C40.2924 41.6757 25.5908 53.2923 28.1638 76.9546Z" fill="#97F675"/>
<path d="M22.8232 105.544C22.9303 100.358 23.3365 95.1815 24.0397 90.0412C24.6509 85.3082 25.7495 80.65 27.3182 76.14C27.9265 74.5202 28.5347 72.9246 29.2707 71.3531C29.2333 70.7488 29.2435 70.1426 29.3012 69.5399C29.3376 68.7542 29.4106 67.9745 29.4836 67.1888C29.5566 66.4031 29.6357 65.6234 29.733 64.8437C29.8303 64.064 29.9946 63.2844 30.025 62.5047C30.025 62.4983 30.0262 62.492 30.0287 62.4862C30.0311 62.4803 30.0347 62.475 30.0392 62.4705C30.0438 62.466 30.0491 62.4624 30.055 62.46C30.0609 62.4576 30.0672 62.4563 30.0736 62.4563C30.08 62.4563 30.0864 62.4576 30.0923 62.46C30.0982 62.4624 30.1035 62.466 30.108 62.4705C30.1126 62.475 30.1162 62.4803 30.1186 62.4862C30.121 62.492 30.1223 62.4983 30.1223 62.5047C29.9684 63.3249 29.8749 64.1551 29.8425 64.9888C29.7878 65.7443 29.7391 66.5058 29.7208 67.2613C29.7026 68.0168 29.7208 68.7784 29.7208 69.5399C29.7208 69.8119 29.7208 70.102 29.7208 70.3982C30.4508 68.863 31.2354 67.3762 32.0809 65.8833C31.5578 62.686 32.239 59.3437 32.896 56.2129C32.896 56.1524 33.0054 56.1766 32.9933 56.2431C32.671 57.8761 32.5 59.5351 32.4823 61.1992C32.4823 62.5107 32.5128 63.8223 32.5188 65.1338C32.7074 64.8195 32.8899 64.5294 33.0784 64.197C34.0881 62.5611 35.1627 60.9655 36.3022 59.4101C36.2128 58.651 36.2395 57.8828 36.3813 57.1315C36.5064 56.289 36.6934 55.4568 36.9409 54.6414C37.1903 53.8255 37.4761 53.0216 37.8046 52.2238C38.1331 51.426 38.5832 50.6403 38.9116 49.8062C38.9144 49.8003 38.9184 49.7949 38.9233 49.7905C38.9281 49.786 38.9338 49.7826 38.9401 49.7803C38.9463 49.7781 38.9529 49.7771 38.9595 49.7774C38.9661 49.7777 38.9726 49.7792 38.9785 49.782C38.9845 49.7848 38.9899 49.7887 38.9944 49.7936C38.9989 49.7984 39.0023 49.8041 39.0046 49.8103C39.0068 49.8164 39.0078 49.823 39.0076 49.8296C39.0073 49.8361 39.0057 49.8426 39.0029 49.8485C38.5873 50.6151 38.2608 51.4262 38.0297 52.2661C37.778 53.059 37.5749 53.8664 37.4214 54.6837C37.2572 55.4936 37.1234 56.3096 37.0078 57.1013C36.9287 57.6453 36.8801 58.2074 36.7888 58.7574C38.4485 56.5379 40.2636 54.4374 42.2206 52.4716C42.2308 52.4668 42.2423 52.4652 42.2534 52.4671C42.2646 52.469 42.2749 52.4743 42.2829 52.4822C42.2909 52.4902 42.2962 52.5004 42.2981 52.5115C42.3 52.5226 42.2984 52.534 42.2936 52.5441C39.3301 55.8483 36.6828 59.4196 34.3862 63.2118L34.1368 63.641C34.5687 63.375 35.0553 63.1635 35.4567 62.9399C36.211 62.5289 36.9652 62.1118 37.7255 61.731C38.4859 61.3503 39.1914 60.9393 39.9214 60.5222C40.2985 60.3167 40.6695 60.0992 41.0527 59.9178C41.5092 59.7108 41.9485 59.4683 42.3666 59.1926C42.4274 59.1502 42.4882 59.2409 42.4274 59.2711C41.6792 59.6821 41.0223 60.2865 40.2985 60.7459C39.5746 61.2052 38.8326 61.6464 38.0844 62.0635C36.7037 62.8311 35.2013 63.3811 33.8266 64.1728C32.8838 65.8107 32.0018 67.491 31.2172 69.2014C32.0383 68.6756 32.8838 68.18 33.7354 67.7025C34.2889 67.4003 34.8363 67.0981 35.3959 66.802C35.9518 66.5511 36.4764 66.2367 36.9591 65.8652C37.0078 65.8228 37.0747 65.8954 37.026 65.9377C36.1248 66.7479 35.1233 67.4405 34.0456 67.9987C33.048 68.6031 32.0444 69.141 31.0043 69.6427C30.177 71.4559 29.4228 73.2691 28.7598 75.1608C25.4935 84.3538 24.2891 94.1088 23.7173 103.803C23.547 106.692 23.4619 109.581 23.4254 112.471C23.3889 115.36 23.5409 118.249 23.5349 121.138C23.5349 121.222 23.395 121.24 23.3828 121.138C23.03 118.575 22.9692 115.97 22.8597 113.389C22.7502 110.808 22.7685 108.161 22.8232 105.544Z" fill="#0D1510"/>
<path d="M36.9285 63.923C38.344 63.2968 39.7212 62.5884 41.0529 61.8014C42.3985 61.0443 43.7041 60.2191 44.9645 59.3291C44.9645 59.3291 45.0131 59.3291 44.9645 59.3654C43.7743 60.322 42.518 61.1946 41.205 61.9767C39.83 62.742 38.4078 63.4203 36.9468 64.0077C36.9164 64.0318 36.8677 63.9472 36.9285 63.923Z" fill="#0D1510"/>
<path d="M34.6782 53.5289C34.7938 53.0816 34.9337 52.6404 35.0858 52.2051C35.0858 52.2051 35.0858 52.1749 35.0858 52.1568C35.1831 51.9029 35.2865 51.6611 35.39 51.4133L35.4265 51.3226L35.4812 51.1836L35.4082 51.4375C35.3968 51.4866 35.3826 51.535 35.3656 51.5825C34.8646 53.3 34.4905 55.0516 34.2463 56.8233C34.2463 56.8777 34.149 56.8837 34.1551 56.8233C34.2231 55.7111 34.3983 54.6079 34.6782 53.5289Z" fill="#0D1510"/>
<path d="M14.6235 107.397L15.1771 113.919L16.8741 133.81H35.0367L36.7277 113.919L37.2812 107.397H14.6235Z" fill="#455A64"/>
<path d="M14.6235 107.397L15.1771 113.919H36.7277L37.2812 107.397H14.6235Z" fill="#0D1510"/>
<path d="M12.8412 111.031H39.0632V104.776H12.8412V111.031Z" fill="#455A64"/>
</g>
<defs>
<clipPath id="clip0_531_3682">
<rect width="271" height="154" fill="white"/>
</clipPath>
</defs>
</svg>
