<svg width="15" height="9" viewBox="0 0 15 9" fill="none" xmlns="http://www.w3.org/2000/svg">
<path d="M10.7 3.175C10.3486 2.82359 9.87197 2.62617 9.375 2.62617C8.87803 2.62617 8.40141 2.82359 8.05 3.175C7.69859 3.52641 7.50117 4.00303 7.50117 4.5C7.50117 4.99697 7.69859 5.47359 8.05 5.825C8.224 5.999 8.43057 6.13703 8.65792 6.2312C8.88526 6.32537 9.12892 6.37383 9.375 6.37383C9.62108 6.37383 9.86474 6.32537 10.0921 6.2312C10.3194 6.13703 10.526 5.999 10.7 5.825C10.874 5.651 11.012 5.44443 11.1062 5.21708C11.2004 4.98974 11.2488 4.74608 11.2488 4.5C11.2488 4.25392 11.2004 4.01026 11.1062 3.78292C11.012 3.55557 10.874 3.349 10.7 3.175ZM4.375 0.75V8.25H14.375V0.75H4.375ZM13.125 5.75C12.7937 5.75 12.475 5.88125 12.2437 6.11875C12.0063 6.35 11.875 6.66875 11.875 7H6.875C6.875 6.66875 6.74375 6.35 6.50625 6.11875C6.275 5.88125 5.95625 5.75 5.625 5.75V3.25C5.95625 3.25 6.275 3.11875 6.50625 2.88125C6.74375 2.65 6.875 2.33125 6.875 2H11.875C11.875 2.33125 12.0063 2.65 12.2437 2.88125C12.475 3.11875 12.7937 3.25 13.125 3.25V5.75ZM3.125 2H1.875C1.53125 2 1.25 1.71875 1.25 1.375C1.25 1.03125 1.53125 0.75 1.875 0.75H3.125V2ZM3.125 5.125H1.25C0.90625 5.125 0.625 4.84375 0.625 4.5C0.625 4.15625 0.90625 3.875 1.25 3.875H3.125V5.125ZM3.125 8.25H0.625C0.28 8.25 0 7.96875 0 7.625C0 7.28125 0.28 7 0.625 7H3.125V8.25Z" fill="#ff5700"/>
</svg>
