<svg xmlns="http://www.w3.org/2000/svg" viewBox="0 0 225.17 225.17"><defs><style>.cls-1{fill:#1f332b;}.cls-2{fill:#97f675;}</style></defs><g id="Layer_2" data-name="Layer 2"><g id="Layer_1-2" data-name="Layer 1"><rect class="cls-1" width="225.17" height="225.17" rx="43.41"/><path class="cls-2" d="M62,76.41a7.72,7.72,0,0,1,.06-.83,36.91,36.91,0,0,1,10.9-21.94,36.16,36.16,0,0,1,14.88-8.53,17.15,17.15,0,0,1,4.88-.66h56.37a8.3,8.3,0,0,1,3.45.68A19.4,19.4,0,0,1,164,60.65c.81,8.63-4.94,17.19-14,20.18a8.31,8.31,0,0,1-2.67.4l-55.69.42a8.43,8.43,0,0,0-1.42.13,35.71,35.71,0,0,0-15.07,6.45c-10.77,8-13.4,19.61-14,22.76Z"/><path class="cls-2" d="M61.32,129.34a8.11,8.11,0,0,1,.2-1.84A40.34,40.34,0,0,1,90.28,97.79a7.69,7.69,0,0,1,2.13-.27H132.3a8.33,8.33,0,0,1,2.89.46,18.71,18.71,0,0,1-2.51,36.09l-25.5.17a8.48,8.48,0,0,0-8.42,8.48v22.22a19.37,19.37,0,0,1-37.17,3.2,8.11,8.11,0,0,1-.47-3Z"/></g></g></svg>